<svg id="Capa_1" enable-background="new 0 0 511.98 511.98" height="512" viewBox="0 0 511.98 511.98" width="512" xmlns="http://www.w3.org/2000/svg"><g><path d="m500.793 77.317c14.917-14.922 14.917-39.201 0-54.123-.003-.003-.006-.006-.009-.009-14.921-14.889-39.2-14.89-54.133.009-12.472 12.477-14.507 31.492-6.123 46.113l-32.847 32.879c-32.77-30.033-73.866-49.825-118.432-56.452v-5.517c0-10.956-8.911-19.868-19.865-19.868h-26.816c-10.953 0-19.864 8.913-19.864 19.868v5.491c-44.324 6.556-85.079 25.975-118.401 56.485l-32.862-32.875c3.309-5.736 5.081-12.26 5.081-19.063 0-10.232-3.988-19.846-11.219-27.062-7.222-7.224-16.832-11.203-27.057-11.203-10.226 0-19.835 3.979-27.057 11.204-14.917 14.922-14.917 39.201-.01 54.114 7.223 7.245 16.835 11.234 27.066 11.234 6.802 0 13.326-1.773 19.056-5.079l32.852 32.864c-26.557 28.94-44.844 63.891-53.441 102.31-20.102 7.125-34.545 26.333-34.545 48.863v87.624c0 25.14 18 46.145 41.783 50.82v31.709h-10.609c-17.19 0-31.175 13.976-31.175 31.155v21.183c0 5.523 4.477 10 10 10h135.015c5.523 0 10-4.477 10-10v-21.183c0-17.179-13.985-31.155-31.175-31.155h-10.636v-31.708c23.799-4.672 41.811-25.679 41.811-50.821v-77.057h313.549c5.522 0 10-4.477 10-10 0-13.38-1.207-26.875-3.588-40.109-.979-5.436-6.181-9.052-11.612-8.071-5.436.978-9.049 6.177-8.071 11.612 1.578 8.776 2.591 17.676 3.026 26.568h-116.385v-36.307c0-5.523-4.478-10-10-10h-156.219c-5.523 0-10 4.477-10 10v36.307h-11.575c-4.448-24.087-25.588-42.394-50.935-42.394h-47.346c20.469-77.224 85.781-136.689 164.68-149.703v9.24c0 10.94 8.911 19.84 19.864 19.84h26.816c10.954 0 19.865-8.9 19.865-19.84v-9.254c42.341 6.927 81.108 26.943 111.212 56.973.101.11.194.226.301.332.085.085.178.158.266.24 9.011 9.06 17.242 19.017 24.545 29.799 1.934 2.854 5.082 4.393 8.288 4.393 1.931 0 3.881-.558 5.6-1.722 4.572-3.097 5.769-9.315 2.671-13.888-6.188-9.135-12.993-17.722-20.32-25.744l32.848-32.88c5.74 3.311 12.264 5.084 19.063 5.084 10.22-.001 19.833-3.988 27.069-11.226zm-475.46-14.14c-7.123-7.125-7.123-18.719 0-25.844 3.444-3.446 8.03-5.343 12.913-5.343 4.882 0 9.468 1.897 12.921 5.353 3.453 3.445 5.355 8.031 5.355 12.913s-1.902 9.467-5.373 12.931c-3.443 3.453-8.025 5.355-12.903 5.355s-9.46-1.902-12.913-5.365zm111.849 268.959h-115.015v-18.991h115.015zm0 136.672v11.183h-115.015v-11.183c0-6.151 5.013-11.155 11.175-11.155h92.666c6.056 0 11.174 5.108 11.174 11.155zm-73.233-31.155v-30.731h31.421v30.731zm41.422-50.731h-51.422c-17.525 0-31.783-14.265-31.783-31.798v-2.988h115.015v2.988c.001 17.533-14.27 31.798-31.81 31.798zm134.583-128.855v-26.307h32.073v26.307zm84.146 0h-32.073v-26.307h32.073zm-136.219-26.307h32.073v26.307h-32.073zm-50.699 35.739v25.645h-115.015v-25.645c0-15.128 10.599-27.816 24.749-31.031.31-.052.616-.117.917-.198.151-.03.303-.054.454-.081v29.241c0 5.523 4.477 10 10 10s10-4.477 10-10v-29.757h24.419v29.757c0 5.523 4.477 10 10 10s10-4.477 10-10v-28.893c14.014 3.323 24.476 15.939 24.476 30.962zm105.522-192.45v-20.575c0-.009 0-.018 0-.027v-14.098h26.545v14.094.032 20.575h-26.545zm218.083-37.706c3.566-3.559 8.25-5.338 12.936-5.338 4.683 0 9.367 1.779 12.932 5.335 7.117 7.125 7.115 18.714-.006 25.838-3.458 3.459-8.049 5.364-12.926 5.364-4.878 0-9.469-1.905-12.927-5.365-7.123-7.125-7.123-18.719-.009-25.834z"/><path d="m148.833 145.252c0 18.805 15.295 34.104 34.095 34.104s34.095-15.299 34.095-34.104-15.295-34.104-34.095-34.104-34.095 15.299-34.095 34.104zm48.189 0c0 7.777-6.323 14.104-14.095 14.104s-14.095-6.327-14.095-14.104 6.323-14.104 14.095-14.104 14.095 6.327 14.095 14.104z"/><path d="m296.15 145.252c0 18.805 15.295 34.104 34.095 34.104s34.095-15.299 34.095-34.104-15.295-34.104-34.095-34.104-34.095 15.299-34.095 34.104zm48.189 0c0 7.777-6.323 14.104-14.095 14.104s-14.095-6.327-14.095-14.104 6.323-14.104 14.095-14.104 14.095 6.327 14.095 14.104z"/><path d="m468.633 348.753h-94.649c-2.992 0-5.827 1.34-7.727 3.651l-22.359 27.212-32.181-51.011c-1.832-2.903-5.025-4.665-8.458-4.665s-6.626 1.761-8.458 4.665l-32.182 51.011-22.36-27.212c-1.899-2.312-4.734-3.651-7.726-3.651h-38.041c-5.523 0-10 4.477-10 10s4.477 10 10 10h33.315l28.153 34.262c2.039 2.481 5.144 3.832 8.351 3.632 3.205-.201 6.119-1.929 7.833-4.645l31.114-49.319 31.113 49.319c1.714 2.716 4.628 4.444 7.833 4.645.209.013.418.02.626.02 2.98 0 5.819-1.332 7.726-3.651l28.152-34.262h89.924c5.522 0 10-4.477 10-10s-4.476-10.001-9.999-10.001z"/><path d="m447.786 179.837c-3.905 3.905-3.905 10.237 0 14.143l.028.028c1.949 1.949 4.499 2.922 7.051 2.922 2.56 0 5.121-.98 7.077-2.936 3.905-3.905 3.892-10.251-.014-14.157-3.906-3.905-10.236-3.905-14.142 0z"/></g></svg>