<svg id="Capa_1" enable-background="new 0 0 512 512" height="512" viewBox="0 0 512 512" width="512" xmlns="http://www.w3.org/2000/svg"><g><path d="m354.743 264.989h-34.588v-18.234h19.848c5.523 0 10-4.477 10-10s-4.477-10-10-10h-19.848v-5.968c0-5.523-4.477-10-10-10h-5.93v-19.867c0-5.523-4.477-10-10-10s-10 4.477-10 10v19.867h-18.239v-34.616c0-5.523-4.477-10-10-10s-10 4.477-10 10v34.616h-18.21v-19.867c0-5.523-4.477-10-10-10s-10 4.477-10 10v19.867h-5.958c-5.523 0-10 4.477-10 10v5.968h-19.848c-5.523 0-10 4.477-10 10s4.477 10 10 10h19.848v18.234h-34.588c-5.523 0-10 4.477-10 10s4.477 10 10 10h34.588v18.262h-19.848c-5.523 0-10 4.477-10 10s4.477 10 10 10h19.848v5.94c0 5.523 4.477 10 10 10h5.958v19.867c0 5.523 4.477 10 10 10s10-4.477 10-10v-19.867h18.21v34.644c0 5.523 4.477 10 10 10s10-4.477 10-10v-34.644h18.239v19.867c0 5.523 4.477 10 10 10s10-4.477 10-10v-19.867h5.93c5.523 0 10-4.477 10-10v-5.94h19.848c5.523 0 10-4.477 10-10s-4.477-10-10-10h-19.848v-18.262h34.588c5.523 0 10-4.477 10-10s-4.477-10-10-10zm-142.926 54.202v-88.404h88.338v88.404z"/><path d="m479.686 410.166v-35.366c0-5.523-4.477-10-10-10h-60.609v-41.657l37.071.019c4.266 13.708 17.068 23.688 32.155 23.688 18.581 0 33.697-15.11 33.697-33.684 0-18.588-15.117-33.711-33.697-33.711-15.087 0-27.889 9.988-32.155 23.707l-37.071-.019v-45.33c4.625 2.05 9.673 3.138 14.897 3.138 11.39 0 22.246-5.372 29.161-14.424 6.888-9.016 9.143-21.037 6.164-31.969-1.663-6.104-4.939-11.709-9.41-16.183l-65.281-65.349c-3.903-3.907-10.235-3.911-14.142-.007s-3.911 10.235-.007 14.142l65.282 65.351c5.032 5.035 6.155 13.035 3.005 19.369-3.711 7.462-12.916 11.026-20.702 7.983-4.862-1.9-8.319-6.231-11.912-9.824l-143.073-143.135c-1.875-1.876-4.42-2.931-7.073-2.931s-5.197 1.054-7.073 2.931l-143.072 143.133c-3.765 3.765-7.403 8.397-12.629 10.095-9.488 3.083-19.893-3.049-21.589-12.923-.914-5.32.786-10.874 4.609-14.699l179.756-179.867 50.943 50.98c3.901 3.909 10.232 3.916 14.142.014 3.909-3.901 3.916-10.233.014-14.142l-58.032-58.067c-1.875-1.875-4.419-2.929-7.072-2.928-2.652 0-5.196 1.055-7.071 2.931l-186.828 186.942c-9.369 9.375-12.93 23.421-9.283 36.154 3.603 12.58 14.087 22.521 26.832 25.473 7.735 1.791 16.001 1.033 23.262-2.186v45.352h-37.045c-4.271-13.705-17.083-23.683-32.181-23.683-18.565-.001-33.669 15.109-33.669 33.682s15.104 33.684 33.669 33.684c15.099 0 27.91-9.978 32.181-23.684h37.045v41.634h-60.581c-5.523 0-10 4.477-10 10v35.366c-13.698 4.271-23.669 17.076-23.669 32.167 0 18.589 15.104 33.712 33.669 33.712s33.669-15.123 33.669-33.712c0-15.091-9.971-27.896-23.669-32.167v-25.366h50.581v23.667c0 5.523 4.477 10 10 10h18.403v49.45c0 5.523 4.477 10 10 10s10-4.477 10-10v-49.45h18.239v75.033c0 5.523 4.477 10 10 10s10-4.477 10-10v-75.033h18.238v49.45c0 5.523 4.477 10 10 10s10-4.477 10-10v-49.45h18.21v75.033c0 5.523 4.477 10 10 10s10-4.477 10-10v-75.033h18.239v49.45c0 5.523 4.477 10 10 10s10-4.477 10-10v-49.45h18.238v75.033c0 5.523 4.477 10 10 10s10-4.477 10-10v-75.033h18.21v49.45c0 5.523 4.477 10 10 10s10-4.477 10-10v-49.45h18.403c5.523 0 10-4.477 10-10v-23.667h50.609v25.364c-13.713 4.268-23.697 17.075-23.697 32.169 0 18.589 15.117 33.712 33.697 33.712 18.565 0 33.669-15.123 33.669-33.712.001-15.091-9.97-27.896-23.667-32.167zm-1.383-110.711c7.553 0 13.697 6.151 13.697 13.711 0 7.545-6.145 13.684-13.697 13.684-7.537 0-13.669-6.138-13.669-13.684 0-7.561 6.132-13.711 13.669-13.711zm-444.634 27.395c-7.537 0-13.669-6.139-13.669-13.684s6.132-13.683 13.669-13.683c7.553 0 13.697 6.138 13.697 13.683s-6.144 13.684-13.697 13.684zm8.645 129.194c-7.537 0-13.669-6.151-13.669-13.712 0-7.545 6.132-13.683 13.669-13.683s13.669 6.138 13.669 13.683c0 7.561-6.131 13.712-13.669 13.712zm346.762-57.577h-266.18v-157.2l133.09-133.147 133.09 133.147zm80.61 57.577c-7.553 0-13.697-6.151-13.697-13.712 0-7.545 6.145-13.683 13.697-13.683 7.537 0 13.669 6.138 13.669 13.683-.001 7.561-6.132 13.712-13.669 13.712z"/><path d="m345.757 118.327c2.559 0 5.119-.976 7.071-2.929 3.905-3.905 3.905-10.237 0-14.143l-.028-.028c-3.906-3.905-10.223-3.891-14.128.014s-3.891 10.251.014 14.157c1.953 1.953 4.512 2.929 7.071 2.929z"/></g></svg>