<svg id="Capa_1" enable-background="new 0 0 512 512" height="512" viewBox="0 0 512 512" width="512" xmlns="http://www.w3.org/2000/svg"><g><path d="m100.616 190.258c-21.284 0-38.6 17.316-38.6 38.601 0 21.269 17.316 38.573 38.6 38.573s38.599-17.304 38.599-38.573c0-21.285-17.315-38.601-38.599-38.601zm0 57.174c-10.256 0-18.6-8.332-18.6-18.573 0-10.257 8.344-18.601 18.6-18.601 10.255 0 18.599 8.344 18.599 18.601 0 10.241-8.343 18.573-18.599 18.573z"/><path d="m219.407 428.55c5.523 0 10-4.477 10-10v-14.542c0-5.523-4.477-10-10-10s-10 4.477-10 10v14.542c0 5.523 4.477 10 10 10z"/><path d="m177.855 428.55c5.523 0 10-4.477 10-10v-14.542c0-5.523-4.477-10-10-10s-10 4.477-10 10v14.542c0 5.523 4.477 10 10 10z"/><path d="m502.871 299.168-42.938-54.797v-31.732h2.613c17.236 0 31.258-14.023 31.258-31.259s-14.022-31.259-31.258-31.259h-2.613v-69.803c7.19-8.51 11.536-19.497 11.536-31.484 0-26.927-21.919-48.834-48.861-48.834-11.991 0-22.979 4.347-31.491 11.537h-259.01c-8.512-7.19-19.5-11.537-31.491-11.537-26.942 0-48.86 21.907-48.86 48.834 0 11.987 4.346 22.974 11.536 31.484v73.316c-35.065 17.396-54.276 57.711-43.763 96.947 5.63 21.012 18.881 38.657 37.386 49.931v56.145c-16.736 3.695-29.11 16.43-29.11 31.535v60.983c-12.157 4.708-20.805 16.519-20.805 30.318v22.507c0 5.523 4.477 10 10 10h277.237c5.523 0 10-4.477 10-10v-22.507c0-13.8-8.648-25.611-20.805-30.319v-60.983c0-15.104-12.374-27.839-29.109-31.534v-13.337c0-16.939-13.781-30.721-30.72-30.721h-20.182c-16.939 0-30.72 13.781-30.72 30.721v12.252h-28.384v-55.053c30.963-18.908 47.241-56.627 37.386-93.409-5.805-21.664-19.693-39.77-39.107-50.981-1.531-.884-3.088-1.698-4.656-2.48v-67.49h78.775c5.523 0 10-4.477 10-10s-4.477-10-10-10h-70.422c2.051-5.389 3.184-11.226 3.184-17.325 0-6.089-1.13-11.917-3.177-17.297h230.625c-2.046 5.38-3.177 11.208-3.177 17.297 0 6.099 1.133 11.937 3.184 17.325h-70.422c-5.523 0-10 4.477-10 10s4.477 10 10 10h78.774v63.961h-2.613c-17.236 0-31.258 14.023-31.258 31.259s14.022 31.259 31.258 31.259h2.613v31.732l-42.938 54.797c-2.838 3.622-2.838 8.714 0 12.336l45.067 57.514c1.973 2.518 4.91 3.833 7.878 3.833 2.157 0 4.331-.695 6.161-2.129 4.347-3.406 5.11-9.692 1.703-14.039l-40.234-51.346 37.231-47.514h44.912l37.231 47.514-40.234 51.346c-3.407 4.347-2.644 10.633 1.703 14.039 1.83 1.434 4.003 2.129 6.161 2.129 2.968 0 5.906-1.315 7.878-3.833l45.067-57.514c2.84-3.621 2.84-8.713.001-12.335zm-402.255-279.168c15.914 0 28.86 12.935 28.86 28.834 0 15.915-12.946 28.862-28.86 28.862s-28.86-12.948-28.86-28.862c0-15.899 12.947-28.834 28.86-28.834zm17.324 74.513v52.153c-11.326-2.4-23.081-2.429-34.648.026v-52.179c5.388 2.051 11.225 3.184 17.324 3.184 6.099-.001 11.936-1.134 17.324-3.184zm166.297 384.98v12.507h-257.237v-12.507c0-6.896 5.61-12.506 12.505-12.506h232.226c6.896 0 12.506 5.61 12.506 12.506zm-91.536-136.174c0-5.912 4.809-10.721 10.72-10.721h20.182c5.911 0 10.72 4.809 10.72 10.721v12.252h-41.621v-12.252zm51.621 32.252c10.18 0 19.109 5.897 19.109 12.62v58.796h-215.626v-58.796c0-6.723 8.93-12.62 19.11-12.62zm-167.407-20v-46.148c7.659 2.269 15.577 3.424 23.556 3.423 7.292 0 14.634-.959 21.867-2.897.669-.179 1.32-.391 1.98-.585v46.207zm85.47-143.286c9.129 34.072-11.159 69.218-45.225 78.347-16.5 4.421-33.733 2.153-48.521-6.388-14.789-8.541-25.369-22.334-29.792-38.839-9.129-34.072 11.159-69.217 45.225-78.346 16.501-4.423 33.733-2.153 48.521 6.388 14.789 8.54 25.369 22.333 29.792 38.838zm260.223-192.285c15.914 0 28.86 12.935 28.86 28.834 0 15.915-12.947 28.862-28.86 28.862s-28.86-12.948-28.86-28.862c0-15.899 12.947-28.834 28.86-28.834zm17.325 74.513v55.608h-34.648v-55.608c5.388 2.051 11.225 3.184 17.324 3.184s11.935-1.134 17.324-3.184zm0 143.309h-34.648v-25.184h34.648zm-57.262-45.183c-6.208 0-11.258-5.051-11.258-11.259s5.05-11.259 11.258-11.259h79.875c6.208 0 11.258 5.051 11.258 11.259s-5.05 11.259-11.258 11.259z"/><path d="m251.612 76.159c0 5.523 4.477 10 10 10h.057c5.523 0 9.972-4.477 9.972-10s-4.505-10-10.028-10-10.001 4.477-10.001 10z"/></g></svg>