<svg id="Capa_1" enable-background="new 0 0 512 512" height="512" viewBox="0 0 512 512" width="512" xmlns="http://www.w3.org/2000/svg"><g><path d="m477.186 294.764h-14.852v-5.554c0-11.084-9.018-20.101-20.101-20.101h-68.07s-24.725-37.673-25.688-39.224c-6.224-10.032-13.972-22.517-31.286-22.517h-122.407c-17.262 0-25.012 12.453-31.24 22.46-.975 1.565-25.734 39.281-25.734 39.281h-68.07c-11.068 0-20.072 9.018-20.072 20.101v5.554h-14.853c-19.196 0-34.813 15.617-34.813 34.813v92.073c0 19.196 15.617 34.813 34.813 34.813h14.853v16.44c0 11.068 9.004 20.072 20.072 20.072 0 0 85.985.061 92.309.061 25.402 0 38.242-1.329 51.557-16.712l40.234-46.386c.732-.846 1.66-.972 2.147-.972.488 0 1.416.126 2.157.981l40.226 46.376c14.666 16.907 28.728 16.834 59.513 16.686 3.412-.017 84.352-.035 84.352-.035 11.084 0 20.101-9.004 20.101-20.072v-16.44h14.852c19.197 0 34.814-15.617 34.814-34.813v-92.073c0-19.195-15.617-34.812-34.814-34.812zm-296.697-54.389c6.015-9.664 8.625-13.046 14.293-13.046h122.407c5.7 0 8.312 3.391 14.325 13.08 1.029 1.659 18.755 28.7 18.755 28.7h-188.566s17.744-27.059 18.786-28.734zm-145.676 196.127c-8.19 0-14.852-6.663-14.852-14.852v-92.073c0-8.189 6.663-14.852 14.852-14.852h14.853v121.777zm407.42 36.512s-81.008.019-84.45.035c-30.033.16-35.943-.13-44.336-9.805l-40.218-46.367c-4.329-5.003-10.615-7.872-17.244-7.871-6.628 0-12.912 2.869-17.233 7.863l-40.233 46.385c-8.368 9.667-14.288 9.949-44.301 9.796-3.443-.017-84.48-.035-84.48-.035-.043 0-.111-.067-.111-.111v-129.548h81.442c5.512 0 9.981-4.469 9.981-9.98s-4.468-9.98-9.981-9.98h-81.442v-34.184c0-.072.093-.136.111-.14h73.516.075 225.445c.005 0 .011.001.016.001s.009-.001.014-.001h73.428l.011.001c.04.008.121.089.13.139v34.184h-201.469c-5.512 0-9.98 4.469-9.98 9.98s4.468 9.98 9.98 9.98h201.469l.001 103.11c0 .006-.001.011-.001.017s.001.011.001.017v26.406c-.005.014-.069.108-.141.108zm49.806-51.364c0 8.189-6.663 14.852-14.853 14.852h-14.852v-121.777h14.852c8.19 0 14.853 6.663 14.853 14.852z"/><path d="m245.977 162.129c0 5.512 4.468 9.98 9.98 9.98h.028c5.512 0 9.966-4.469 9.966-9.98 0-5.512-4.482-9.981-9.995-9.981-5.511 0-9.979 4.469-9.979 9.981z"/><path d="m168.873 75.014c23.259-23.272 54.202-36.089 87.127-36.089s63.868 12.817 87.128 36.089c1.949 1.95 4.504 2.925 7.059 2.925 2.554 0 5.107-.974 7.056-2.921 3.899-3.897 3.901-10.216.004-14.115-27.032-27.045-62.988-41.939-101.247-41.939s-74.216 14.894-101.246 41.939c-3.897 3.899-3.895 10.218.003 14.115 3.899 3.895 10.219 3.892 14.116-.004z"/><path d="m320.478 107.618c2.555 0 5.108-.975 7.058-2.923 3.898-3.898 3.898-10.217 0-14.115-39.452-39.45-103.647-39.448-143.098 0-3.898 3.898-3.898 10.217 0 14.115 3.899 3.898 10.218 3.898 14.115 0 31.669-31.669 83.2-31.67 114.869 0 1.947 1.948 4.501 2.923 7.056 2.923z"/><path d="m290.797 137.327c2.555 0 5.108-.975 7.057-2.923 3.898-3.898 3.898-10.217 0-14.115-11.181-11.18-26.046-17.338-41.855-17.338-15.81 0-30.674 6.158-41.855 17.338-3.898 3.898-3.897 10.217 0 14.115 3.898 3.897 10.217 3.897 14.115 0 7.41-7.411 17.262-11.492 27.74-11.492s20.329 4.081 27.74 11.492c1.95 1.948 4.504 2.923 7.058 2.923z"/><path d="m196.001 323.395c-5.512 0-9.981 4.469-9.981 9.98s4.468 9.98 9.981 9.98h.028c5.512 0 9.966-4.469 9.966-9.98s-4.482-9.98-9.994-9.98z"/></g></svg>