<svg id="Capa_1" enable-background="new 0 0 512 512" height="512" viewBox="0 0 512 512" width="512" xmlns="http://www.w3.org/2000/svg"><g><path d="m295.26 271.082c8.694-8.7 8.694-22.855-.012-31.564l-3.585-3.576c5.384-9.648 9.612-19.861 12.634-30.509h5.093c12.281 0 22.273-9.995 22.273-22.281v-34.46c0-12.286-9.992-22.281-22.273-22.281h-5.093c-3.022-10.655-7.252-20.862-12.635-30.496l3.597-3.6c8.696-8.699 8.696-22.854.001-31.553l-24.32-24.335c-4.206-4.208-9.809-6.526-15.775-6.526-5.968 0-11.57 2.318-15.786 6.537l-3.568 3.581c-9.64-5.384-19.845-9.613-30.484-12.635v-5.074c0-12.302-9.992-22.31-22.273-22.31h-34.44c-12.281 0-22.273 10.008-22.273 22.31v5.074c-10.639 3.021-20.843 7.251-30.483 12.635-2.468-2.477-4.828-5.117-7.849-6.94-5.076-3.063-11.317-3.948-17.058-2.488-4.076 1.036-7.623 3.233-10.579 6.19-1.489 1.49-2.978 2.98-4.467 4.469-4.931 4.934-9.861 9.867-14.792 14.801-1.463 1.464-2.927 2.927-4.389 4.391-2.702 2.707-4.763 5.913-5.877 9.59-1.494 4.934-1.231 10.336.748 15.097 1.629 3.919 4.412 6.785 7.35 9.725.353.353.705.706 1.058 1.059-5.383 9.634-9.612 19.841-12.635 30.496h-5.064c-12.299.001-22.304 9.996-22.304 22.282v34.46c0 12.286 10.005 22.281 22.302 22.281h5.066c3.016 10.613 7.246 20.824 12.638 30.503l-3.603 3.593c-8.693 8.698-8.693 22.853 0 31.554l24.32 24.334c4.206 4.208 9.809 6.526 15.776 6.526s11.569-2.318 15.786-6.537l3.568-3.581c9.63 5.379 19.834 9.613 30.483 12.651v5.087c0 12.285 9.992 22.28 22.273 22.28h34.44c12.281 0 22.273-9.995 22.273-22.28v-5.087c10.65-3.038 20.854-7.272 30.484-12.651l3.578 3.591c4.206 4.209 9.809 6.527 15.776 6.527s11.569-2.318 15.775-6.526zm-40.096 10.86c-.44 0-1.08-.115-1.618-.654l-9.071-9.104c-3.313-3.323-8.486-3.896-12.445-1.383-11.935 7.58-25.026 13.017-38.911 16.158-4.558 1.031-7.793 5.081-7.793 9.754v12.849c0 1.236-1.041 2.28-2.273 2.28h-34.44c-1.232 0-2.273-1.044-2.273-2.28v-12.849c0-4.673-3.235-8.723-7.793-9.754-13.883-3.141-26.975-8.578-38.911-16.158-1.649-1.048-3.51-1.559-5.358-1.559-2.589 0-5.155 1.003-7.087 2.941l-9.06 9.093c-.549.55-1.188.665-1.629.665s-1.081-.115-1.63-.665l-24.319-24.333c-.889-.889-.889-2.39-.013-3.267l9.099-9.075c3.314-3.305 3.893-8.467 1.392-12.423-7.609-12.038-13.035-25.137-16.128-38.935-1.023-4.566-5.078-7.813-9.758-7.813h-12.843c-1.248 0-2.302-1.045-2.302-2.281v-34.46c0-1.236 1.054-2.281 2.302-2.281h12.841c4.68 0 8.734-3.246 9.758-7.813 3.11-13.875 8.531-26.957 16.113-38.883 2.608-4.101 1.767-9.278-1.586-12.654-2.18-2.195-4.374-4.377-6.561-6.566-1.494-1.495-4.291-3.478-2.2-5.711 1.245-1.33 21.949-21.962 23.616-23.63.466-.467.901-.976 1.564-1.165 1.374-.39 2.232.526 3.093 1.39 2.32 2.329 4.641 4.658 6.961 6.987.772.775 1.525 1.604 2.404 2.259 2.147 1.598 4.907 2.272 7.549 1.85 1.341-.214 2.634-.706 3.78-1.434 11.953-7.592 25.039-13.018 38.894-16.126 4.565-1.025 7.811-5.079 7.811-9.758v-12.844c0-1.252 1.041-2.31 2.273-2.31h34.44c1.232 0 2.273 1.058 2.273 2.31v12.848c0 4.679 3.245 8.732 7.811 9.758 13.855 3.109 26.941 8.535 38.894 16.126 3.959 2.515 9.135 1.939 12.445-1.383l9.062-9.094c.548-.549 1.188-.664 1.628-.664s1.08.115 1.629.665l24.32 24.334c.887.888.887 2.388-.001 3.276l-9.099 9.104c-3.312 3.313-3.879 8.48-1.365 12.434 7.582 11.926 13.003 25.008 16.113 38.883 1.023 4.566 5.078 7.813 9.758 7.813h12.869c1.232 0 2.273 1.045 2.273 2.281v34.46c0 1.236-1.041 2.281-2.273 2.281h-12.869c-4.68 0-8.734 3.246-9.758 7.813-3.107 13.862-8.53 26.957-16.119 38.921-2.511 3.957-1.936 9.127 1.383 12.437l9.088 9.064c.887.888.887 2.389-.001 3.276l-24.32 24.334c-.549.55-1.189.665-1.629.665z"/><path d="m387.482 324.351c-34.758 0-63.035 28.291-63.035 63.065 0 34.791 28.277 63.095 63.035 63.095 34.773 0 63.063-28.304 63.063-63.095.001-34.774-28.289-63.065-63.063-63.065zm0 106.16c-23.729 0-43.035-19.332-43.035-43.095 0-23.746 19.306-43.065 43.035-43.065 23.745 0 43.063 19.319 43.063 43.065.001 23.763-19.317 43.095-43.063 43.095z"/><path d="m492.958 355.748h-1.741c-2.029-6.668-4.703-13.115-7.998-19.288l1.251-1.252c7.418-7.425 7.418-19.504-.007-26.935l-17.881-17.864c-3.601-3.601-8.416-5.595-13.501-5.567-5.092.011-9.861 1.999-13.386 5.554l-1.254 1.25c-6.175-3.29-12.62-5.961-19.274-7.988v-1.748c0-10.503-8.542-19.048-19.042-19.048h-25.285c-10.484 0-19.014 8.545-19.014 19.048v1.748c-6.654 2.027-13.1 4.698-19.274 7.988l-1.239-1.235c-3.589-3.591-8.371-5.568-13.465-5.568s-9.875 1.978-13.466 5.568l-17.858 17.869c-7.418 7.425-7.418 19.504-.014 26.914l1.255 1.261c-3.291 6.183-5.961 12.633-7.988 19.294h-1.74c-10.5 0-19.043 8.531-19.043 19.019v25.3c0 10.503 8.543 19.047 19.043 19.047h1.74c2.027 6.661 4.697 13.111 7.988 19.294l-1.212 1.218c-3.596 3.569-5.581 8.338-5.591 13.429-.011 5.105 1.965 9.899 5.557 13.495l17.864 17.903c3.59 3.59 8.371 5.567 13.465 5.567s9.876-1.978 13.465-5.568l1.244-1.246c6.166 3.295 12.608 5.969 19.27 7.998v1.749c0 10.503 8.529 19.048 19.014 19.048h25.285c10.5 0 19.042-8.545 19.042-19.048v-1.749c6.661-2.029 13.104-4.703 19.27-7.998l1.216 1.217c3.567 3.599 8.337 5.587 13.429 5.598h.041c5.091 0 9.87-1.977 13.461-5.568l17.887-17.897c3.597-3.601 5.572-8.395 5.562-13.5-.01-5.091-1.995-9.859-5.563-13.401l-1.25-1.251c3.295-6.173 5.969-12.62 7.998-19.288h1.741c10.5 0 19.042-8.544 19.042-19.047v-25.3c-.002-10.491-8.544-19.022-19.044-19.022zm-.958 43.365h-8.481c-4.682 0-8.736 3.248-9.759 7.816-2.199 9.831-6.07 19.167-11.503 27.75-2.502 3.952-1.93 9.109 1.376 12.418l6.003 6.006-16.504 16.514-5.994-5.998c-3.31-3.312-8.472-3.881-12.426-1.378-8.577 5.436-17.907 9.308-27.731 11.509-4.567 1.023-7.813 5.077-7.813 9.758v8.492h-23.341v-8.492c0-4.681-3.246-8.734-7.813-9.758-9.824-2.201-19.154-6.073-27.731-11.509-3.955-2.506-9.116-1.933-12.426 1.378l-6.008 6.012-16.492-16.528 5.991-6.021c3.288-3.304 3.857-8.44 1.373-12.384-5.425-8.613-9.29-17.956-11.486-27.77-1.022-4.568-5.077-7.815-9.759-7.815h-8.481v-23.365h8.481c4.682 0 8.736-3.247 9.759-7.815 2.196-9.813 6.062-19.156 11.486-27.77 2.484-3.943 1.915-9.08-1.373-12.384l-6.005-6.034 16.507-16.517 6.021 6c3.306 3.293 8.447 3.861 12.393 1.374 8.606-5.428 17.943-9.294 27.75-11.491 4.567-1.023 7.813-5.077 7.813-9.758v-8.492h23.341v8.492c0 4.681 3.246 8.734 7.813 9.758 9.807 2.197 19.144 6.063 27.75 11.491 3.944 2.487 9.086 1.92 12.393-1.374l6.008-5.986 16.519 16.502-6.017 6.02c-3.306 3.309-3.878 8.466-1.376 12.418 5.433 8.583 9.304 17.919 11.503 27.75 1.022 4.568 5.077 7.816 9.759 7.816h8.48z"/><path d="m217.804 105.395h-5.874v-24.971c0-5.522-4.478-10-10-10s-10 4.478-10 10v24.971h-52.196v-24.971c0-5.522-4.478-10-10-10s-10 4.478-10 10v24.971h-5.874c-12.501 0-22.671 10.173-22.671 22.678v97.991c0 12.505 10.17 22.678 22.671 22.678h7.059c5.522 0 10-4.478 10-10s-4.478-10-10-10h-7.059c-1.448 0-2.671-1.227-2.671-2.678v-97.991c0-1.451 1.223-2.678 2.671-2.678h103.944c1.448 0 2.671 1.227 2.671 2.678v97.991c0 1.451-1.223 2.678-2.671 2.678h-7.058c-5.522 0-10 4.478-10 10s4.478 10 10 10h7.058c12.501 0 22.671-10.173 22.671-22.678v-97.991c0-12.506-10.17-22.678-22.671-22.678z"/><path d="m140.675 144.137c-5.522 0-10 4.478-10 10s4.478 10 10 10h.057c5.522 0 9.972-4.478 9.972-10s-4.507-10-10.029-10z"/><path d="m190.847 144.137c-5.522 0-10 4.478-10 10s4.478 10 10 10h.057c5.522 0 9.972-4.478 9.972-10s-4.507-10-10.029-10z"/><path d="m165.846 228.741c-5.522 0-10 4.478-10 10s4.478 10 10 10h.028c5.522 0 9.986-4.478 9.986-10s-4.492-10-10.014-10z"/></g></svg>