<svg id="Capa_1" enable-background="new 0 0 512 512" height="512" viewBox="0 0 512 512" width="512" xmlns="http://www.w3.org/2000/svg"><g><g><path d="m378.407 321.31c-1.501-3.832-5.196-6.354-9.312-6.354s-7.811 2.521-9.312 6.354l-34.829 88.932c-2.014 5.143.522 10.944 5.665 12.958 5.141 2.012 10.944-.521 12.958-5.665l6.355-16.227h38.324l6.355 16.227c1.545 3.945 5.318 6.356 9.314 6.356 1.213 0 2.447-.223 3.644-.691 5.143-2.014 7.679-7.815 5.665-12.958zm-20.641 59.998 11.329-28.929 11.329 28.929z"/><path d="m445.5 423.888c5.523 0 10-4.478 10-10v-88.932c0-5.522-4.477-10-10-10s-10 4.478-10 10v88.932c0 5.522 4.477 10 10 10z"/><path d="m489.896 261.367h-84.004c11.523-38.134 16.951-75.432 16.107-111.047l-.539-23.229c-.112-4.832-3.664-8.893-8.438-9.646-49.223-7.77-122.982-32.372-194.836-105.456-1.88-1.912-4.449-2.989-7.13-2.989 0 0 0 0-.001 0-2.681 0-5.25 1.076-7.129 2.987-71.889 73.087-145.649 97.69-194.867 105.458-4.774.754-8.326 4.814-8.438 9.646l-.539 23.229c-.32 13.777.305 27.297 1.655 40.483-.002.086-.013.17-.013.257 0 .78.098 1.536.267 2.265 5.594 50.921 22.161 96.629 39 131.907.148.361.314.712.501 1.05 3.338 6.95 6.682 13.501 9.949 19.586 36.82 68.597 80.832 118.519 130.832 148.391 9.891 5.883 19.305 8.742 28.781 8.742 9.457 0 18.861-2.859 28.769-8.752 12.084-7.218 23.949-15.732 35.439-25.418 3.465 7.662 11.178 13.01 20.122 13.01h52.299c5.523 0 10-4.478 10-10s-4.477-10-10-10h-52.299c-1.106 0-2.076-.966-2.076-2.067v-176.339c0-1.102.97-2.067 2.076-2.067h96.589.023 97.9c1.141 0 2.104.946 2.104 2.067v176.338c0 1.121-.963 2.067-2.104 2.067h-52.384c-5.523 0-10 4.478-10 10s4.477 10 10 10h52.384c12.188 0 22.104-9.899 22.104-22.067v-176.338c0-12.168-9.916-22.068-22.104-22.068zm-104.932 0h-89.579c-12.172 0-22.076 9.899-22.076 22.067v160.393c-14.027 13.104-28.724 24.281-43.726 33.241-6.711 3.991-12.772 5.932-18.529 5.932-5.776 0-11.846-1.94-18.54-5.922-46.832-27.979-88.367-75.308-123.452-140.671-.868-1.616-1.742-3.275-2.619-4.957h55.021l8.896 38.51c.057.245.113.452.17.635 1.239 4.115 5.054 7.114 9.573 7.114h32.059c4.336 14.795 18.029 25.636 34.214 25.636 19.659 0 35.653-15.986 35.653-35.636 0-19.666-15.994-35.665-35.653-35.665-16.189 0-29.883 10.853-34.217 25.665h-24.104l-8.896-38.51c-.039-.17-.082-.327-.129-.474-1.188-4.197-5.037-7.275-9.614-7.275h-72.804c-6.324-13.677-12.523-28.846-17.973-45.207l136.443.024c4.336 14.796 18.028 25.637 34.215 25.637 19.659 0 35.653-15.986 35.653-35.636s-15.994-35.637-35.653-35.637c-16.185 0-29.878 10.84-34.214 25.635l-142.525-.026c-3.965-14.387-7.23-29.507-9.436-45.183h106.295c3.888 0 7.25-2.224 8.904-5.464.3-.354.551-1.039.839-2.285l8.896-38.509h24.106c4.336 14.795 18.029 25.636 34.214 25.636 19.659 0 35.653-15.986 35.653-35.636s-15.994-35.637-35.653-35.637c-16.186 0-29.878 10.841-34.214 25.637h-32.059c-4.684 0-8.605 3.225-9.691 7.573-.016.063-.037.111-.052.176l-8.896 38.509h-100.527c-.771-9.928-1.097-20.03-.859-30.276l.348-14.994c68.887-12.72 134.454-48.04 190.628-102.685 56.15 54.644 121.708 89.963 190.603 102.685l.348 15c.835 35.287-4.9 72.455-17.041 110.58zm-194.24 106.342c0-8.638 7.022-15.665 15.653-15.665s15.653 7.027 15.653 15.665c0 8.621-7.022 15.636-15.653 15.636s-15.653-7.015-15.653-15.636zm2.92-111.439c0-8.622 7.022-15.637 15.653-15.637s15.653 7.015 15.653 15.637c0 8.621-7.022 15.636-15.653 15.636s-15.653-7.015-15.653-15.636zm-2.92-111.468c0-8.622 7.022-15.637 15.653-15.637s15.653 7.015 15.653 15.637-7.022 15.636-15.653 15.636-15.653-7.014-15.653-15.636z"/></g><path d="m392.612 461.84c-5.523 0-10 4.478-10 10s4.477 10 10 10h.028c5.523 0 9.986-4.478 9.986-10s-4.491-10-10.014-10z"/></g></svg>