<svg id="Capa_1" enable-background="new 0 0 512 512" height="512" viewBox="0 0 512 512" width="512" xmlns="http://www.w3.org/2000/svg"><g><path d="m314.28 81.955c1.953 1.952 4.512 2.929 7.071 2.929s5.118-.977 7.071-2.929c3.905-3.905 3.905-10.237 0-14.143l-9.942-9.942h88.447c.939 0 1.764.824 1.764 1.764v88.447l-9.914-9.914c-3.906-3.904-10.236-3.904-14.143 0-3.905 3.905-3.905 10.237 0 14.143l26.985 26.985c3.852 3.85 10.285 3.854 14.139.004l27.014-26.985c3.907-3.903 3.91-10.235.008-14.143-3.903-3.907-10.235-3.911-14.143-.008l-9.946 9.936v-88.465c0-12.001-9.763-21.764-21.764-21.764h-88.447l9.942-9.942c3.905-3.905 3.905-10.237 0-14.143-3.906-3.904-10.236-3.904-14.143 0l-27.014 27.014c-3.905 3.905-3.905 10.237 0 14.143z"/><path d="m215.776 411.139c-3.906-3.904-10.236-3.904-14.143 0-3.905 3.905-3.905 10.237 0 14.143l9.942 9.942h-88.476c-.939 0-1.764-.824-1.764-1.764v-88.466l9.946 9.936c4.096 4.092 11.017 3.778 14.736-.656 3.288-3.92 3.016-9.881-.601-13.495l-27.014-26.985c-3.904-3.9-10.234-3.898-14.139.004l-26.983 26.985c-3.905 3.905-3.905 10.237 0 14.143 3.906 3.904 10.236 3.904 14.143 0l9.914-9.914v88.448c0 12.001 9.763 21.764 21.764 21.764h88.475l-9.942 9.941c-3.615 3.615-3.885 9.577-.594 13.495 3.722 4.432 10.641 4.741 14.737.648l27.014-27.013c3.852-3.852 3.85-10.291 0-14.143z"/><path d="m509.071 279.528-71.233-71.233c-.063-.063-3.213-2.929-7.071-2.929h-100.77c-9.187 0-16.661 7.475-16.661 16.661v24.044h-24.016c-9.187 0-16.661 7.461-16.661 16.633v232.635c0 9.187 7.475 16.661 16.661 16.661h165.342c9.171 0 16.633-7.475 16.633-16.661v-24.044h24.044c9.187 0 16.661-7.462 16.661-16.633v-168.062c0-4.142-2.866-7.009-2.929-7.072zm-68.304-40.019 37.091 37.091h-37.091zm51.233 211.786h-158.664v-51.085c0-5.522-4.478-10-10-10s-10 4.478-10 10v54.452c0 9.171 7.475 16.633 16.661 16.633h121.298v20.705h-158.636v-225.929h20.677v44.339c0 5.522 4.478 10 10 10s10-4.478 10-10v-85.044h87.431v54.572c0 9.187 7.475 16.661 16.661 16.661h54.572z"/><path d="m233.959 92.558c1.716-5.272 2.604-10.805 2.604-16.37 0-26.142-19.317-48.113-44.426-52.207-5.317-14.107-19.014-23.981-34.625-23.981-10.631 0-20.229 4.505-26.981 11.705-6.748-7.2-16.338-11.705-26.961-11.705-15.612 0-29.31 9.874-34.625 23.98-25.109 4.094-44.425 26.066-44.425 52.208 0 5.565.888 11.098 2.604 16.37-16.748 10.428-27.124 28.744-27.124 49.024 0 20.265 10.376 38.57 27.122 48.997-1.715 5.271-2.603 10.803-2.603 16.368 0 26.142 19.316 48.113 44.426 52.207 5.315 14.106 19.013 23.98 34.625 23.98 10.623 0 20.213-4.505 26.96-11.705 6.753 7.2 16.351 11.705 26.981 11.705 15.611 0 29.309-9.874 34.625-23.98 25.108-4.094 44.426-26.065 44.426-52.207 0-5.565-.888-11.098-2.603-16.369 16.746-10.427 27.122-28.732 27.122-48.996.001-20.279-10.375-38.596-27.122-49.024zm-113.433 153.62c0 9.351-7.606 16.957-16.956 16.957-8.456 0-15.688-6.296-16.821-14.645-.666-4.907-4.824-8.588-9.775-8.654-17.896-.239-32.454-14.992-32.454-32.889 0-5.624 1.458-11.194 4.218-16.106 1.41-2.511 1.67-5.506.713-8.222-.957-2.715-3.038-4.886-5.71-5.957-14.423-5.783-23.741-19.553-23.741-35.08 0-15.477 9.241-29.199 23.554-35.025 3.717-1.25 7.645-1.888 11.686-1.888 9.088 0 17.829 3.328 24.614 9.372 1.906 1.698 4.281 2.533 6.647 2.533 2.754 0 5.495-1.131 7.471-3.349 3.674-4.124 3.309-10.445-.815-14.118-10.452-9.31-23.918-14.438-37.917-14.438-3.167 0-6.298.257-9.372.765-.879-2.997-1.349-6.111-1.349-9.246 0-17.896 14.559-32.649 32.453-32.888 4.952-.065 9.11-3.747 9.776-8.654 1.134-8.35 8.366-14.646 16.822-14.646 9.35 0 16.956 7.606 16.956 16.957zm96.816-69.516c-2.672 1.071-4.753 3.242-5.71 5.957-.957 2.716-.697 5.711.713 8.222 2.76 4.912 4.218 10.482 4.218 16.106 0 17.896-14.559 32.649-32.454 32.889-4.951.066-9.108 3.746-9.775 8.653-1.134 8.35-8.365 14.646-16.821 14.646-9.366 0-16.985-7.606-16.985-16.957v-209.221c0-9.351 7.619-16.957 16.985-16.957 8.456 0 15.688 6.297 16.821 14.646.666 4.907 4.824 8.588 9.776 8.653 17.895.238 32.453 14.991 32.453 32.888 0 3.135-.469 6.249-1.349 9.246-3.074-.508-6.205-.765-9.372-.765-13.999 0-27.465 5.128-37.917 14.438-4.124 3.673-4.489 9.994-.815 14.118 1.976 2.218 4.717 3.349 7.471 3.349 2.366 0 4.741-.835 6.647-2.533 6.785-6.044 15.526-9.372 24.614-9.372 4.041 0 7.969.639 11.686 1.888 14.314 5.826 23.554 19.548 23.554 35.025 0 15.528-9.318 29.298-23.74 35.081z"/><path d="m199.189 138.014c-24.872 9.656-37.274 37.761-27.646 62.648 1.533 3.966 5.317 6.396 9.328 6.396 1.2 0 2.42-.218 3.605-.677 5.151-1.992 7.712-7.783 5.719-12.934-5.653-14.616 1.629-31.119 16.232-36.789 5.148-1.999 7.702-7.793 5.703-12.941s-7.793-7.701-12.941-5.703z"/><path d="m61.893 138.014c-5.146-1.998-10.942.555-12.941 5.703s.555 10.942 5.703 12.941c14.604 5.67 21.886 22.173 16.232 36.789-1.993 5.15.567 10.941 5.719 12.934 1.186.459 2.405.677 3.605.677 4.01 0 7.795-2.431 9.328-6.396 9.628-24.888-2.774-52.992-27.646-62.648z"/><path d="m323.336 345.31c-5.522 0-10 4.478-10 10v.057c0 5.522 4.478 9.972 10 9.972s10-4.506 10-10.028-4.478-10.001-10-10.001z"/></g></svg>