<svg id="Capa_1" enable-background="new 0 0 512 512" height="512" viewBox="0 0 512 512" width="512" xmlns="http://www.w3.org/2000/svg"><g><path d="m471.698 414.147c-15.573 0-28.767 10.358-33.066 24.544h-22.364s-8.529-36.842-8.574-36.985c-1.193-4.188-5.039-7.257-9.61-7.257h-59.343l42.419-52.508c.419.053.844.091 1.277.091h61.949c4.299 14.186 17.493 24.544 33.067 24.544 19.049 0 34.547-15.496 34.547-34.543s-15.498-34.543-34.547-34.543c-15.573 0-28.767 10.358-33.067 24.544h-47.144l80.474-99.613c12.037-2.422 21.132-13.084 21.132-25.835v-26.273c0-14.515-11.811-26.324-26.328-26.324h-66.021c-1.643-37.719-17.107-72.946-43.979-99.814-45.836-45.8-115.579-57.228-173.543-28.439-4.946 2.457-6.964 8.458-4.507 13.404 2.457 4.945 8.458 6.964 13.405 4.506 50.267-24.967 110.752-15.051 150.506 24.672 24.68 24.677 38.272 57.486 38.272 92.382 0 34.897-13.592 67.706-38.272 92.382-25.477 25.474-58.931 38.209-92.396 38.206-33.456-.003-66.922-12.738-92.392-38.204-39.698-39.718-49.626-100.162-24.703-150.407 2.454-4.948.433-10.947-4.515-13.401-4.949-2.455-10.949-.432-13.402 4.515-9.527 19.207-14.634 39.706-15.543 60.197h-65.95c-14.517 0-26.328 11.809-26.328 26.324v26.273c0 12.75 9.095 23.413 21.131 25.835l80.459 99.613h-47.155c-4.296-14.186-17.479-24.544-33.039-24.544-19.05.001-34.548 15.497-34.548 34.544s15.498 34.543 34.547 34.543c15.56 0 28.744-10.358 33.039-24.544h61.948c.437 0 .864-.038 1.287-.092l42.412 52.509s-59.423.007-59.463.008c-4.508.048-8.568 3.156-9.627 7.744l-8.417 36.49h-22.385c-4.296-14.186-17.479-24.544-33.039-24.544-19.049 0-34.547 15.496-34.547 34.543s15.498 34.543 34.547 34.543c15.56 0 28.743-10.358 33.039-24.544 0 0 30.801-.012 30.942-.023 4.314-.257 8.125-3.304 9.145-7.729l8.417-36.49h64.934l27.846 90.495c1.291 4.196 5.168 7.059 9.558 7.059h63.637c4.391 0 8.269-2.864 9.559-7.061l27.819-90.493h64.937s8.512 36.774 8.549 36.888c1.161 4.236 5.029 7.354 9.635 7.354h30.315c4.299 14.186 17.493 24.544 33.066 24.544 19.049 0 34.547-15.496 34.547-34.543-.001-19.047-15.499-34.543-34.549-34.543zm5.755-96.659c8.021 0 14.547 6.525 14.547 14.545 0 8.021-6.526 14.545-14.547 14.545s-14.548-6.525-14.548-14.545c0-8.021 6.526-14.545 14.548-14.545zm-442.906 29.09c-8.021 0-14.547-6.525-14.547-14.545 0-8.021 6.526-14.545 14.547-14.545 8.006 0 14.52 6.525 14.52 14.545s-6.514 14.545-14.52 14.545zm5.755 116.657c-8.021 0-14.547-6.525-14.547-14.545 0-8.021 6.526-14.545 14.547-14.545 8.006 0 14.519 6.525 14.519 14.545s-6.513 14.545-14.519 14.545zm365.765-299.249h66.453c3.489 0 6.328 2.838 6.328 6.326v26.273c0 3.445-2.898 6.355-6.328 6.355h-75.143c4.589-12.437 7.523-25.512 8.69-38.954zm-372.915 32.6v-26.273c0-3.489 2.838-6.326 6.328-6.326h66.393c1.181 13.289 4.122 26.395 8.77 38.955h-75.163c-3.43-.001-6.328-2.911-6.328-6.356zm276.877 201.578c-.801.992-1.405 2.128-1.779 3.345l-27.819 90.493h-48.863l-27.846-90.495c-.375-1.218-.978-2.351-1.778-3.342l-141.534-175.227h63.349c6.769 12.373 15.35 23.94 25.689 34.284 29.375 29.372 67.95 44.057 106.537 44.053 38.578-.004 77.168-14.688 106.537-44.053 10.308-10.307 18.929-21.848 25.745-34.284h63.32zm161.669 65.071c-8.021 0-14.547-6.525-14.547-14.545 0-8.021 6.526-14.545 14.547-14.545s14.547 6.525 14.547 14.545c.001 8.02-6.525 14.545-14.547 14.545z"/><path d="m155.783 160.698h35.24v18.803h-20.273c-5.523 0-10 4.477-10 9.999s4.477 9.999 10 9.999h20.273v6.157c0 5.522 4.477 9.999 10 9.999h6.186v20.299c0 5.522 4.477 9.999 10 9.999s10-4.477 10-9.999v-20.299h18.777v35.235c0 5.522 4.477 9.999 10 9.999s10-4.477 10-9.999v-35.235h18.806v20.299c0 5.522 4.477 9.999 10 9.999s10-4.477 10-9.999v-20.299h6.157c5.523 0 10-4.477 10-9.999v-6.157h20.302c5.523 0 10-4.477 10-9.999s-4.477-9.999-10-9.999h-20.302v-18.803h35.268c5.523 0 10-4.477 10-9.999s-4.477-9.999-10-9.999h-35.268v-18.774h20.302c5.523 0 10-4.477 10-9.999s-4.477-9.999-10-9.999h-20.302v-6.184c0-5.522-4.477-9.999-10-9.999h-6.157v-20.299c0-5.522-4.477-9.999-10-9.999s-10 4.477-10 9.999v20.299h-18.806v-35.235c0-5.522-4.477-9.999-10-9.999s-10 4.477-10 9.999v35.235h-18.777v-20.299c0-5.522-4.477-9.999-10-9.999s-10 4.477-10 9.999v20.299h-6.186c-5.523 0-10 4.477-10 9.999v6.184h-20.273c-5.523 0-10 4.477-10 9.999s4.477 9.999 10 9.999h20.273v18.774h-35.24c-5.523 0-10 4.477-10 9.999s4.477 9.999 10 9.999zm145.166-54.954v89.913h-89.926v-89.913z"/><path d="m156.492 61.274c2.559 0 5.119-.976 7.071-2.928l.028-.028c3.905-3.905 3.891-10.222-.014-14.126s-10.25-3.891-14.157.014c-3.905 3.905-3.905 10.236 0 14.141 1.953 1.95 4.513 2.927 7.072 2.927z"/></g></svg>