<svg id="Capa_1" enable-background="new 0 0 512 512" height="512" viewBox="0 0 512 512" width="512" xmlns="http://www.w3.org/2000/svg"><g><path d="m75.394 40.692c-17.064 0-30.948 13.888-30.948 30.959 0 17.087 13.883 30.987 30.948 30.987 17.08 0 30.976-13.9 30.976-30.987 0-17.071-13.896-30.959-30.976-30.959zm0 41.947c-6.037 0-10.948-4.929-10.948-10.987 0-6.043 4.911-10.959 10.948-10.959 6.052 0 10.976 4.916 10.976 10.959 0 6.058-4.924 10.987-10.976 10.987z"/><path d="m159.27 40.692c-17.08 0-30.976 13.888-30.976 30.959 0 17.087 13.896 30.987 30.976 30.987 17.064 0 30.948-13.9 30.948-30.987-.001-17.071-13.884-30.959-30.948-30.959zm0 41.947c-6.052 0-10.976-4.929-10.976-10.987 0-6.043 4.924-10.959 10.976-10.959 6.037 0 10.948 4.916 10.948 10.959-.001 6.058-4.912 10.987-10.948 10.987z"/><path d="m377.13 71.651c0-17.071-13.883-30.959-30.947-30.959h-86.653c-17.08 0-30.976 13.888-30.976 30.959 0 17.087 13.896 30.987 30.976 30.987h86.653c17.064.001 30.947-13.9 30.947-30.987zm-128.577 0c0-6.043 4.924-10.959 10.976-10.959h86.653c6.036 0 10.947 4.916 10.947 10.959 0 6.059-4.911 10.987-10.947 10.987h-86.653c-6.052.001-10.976-4.928-10.976-10.987z"/><path d="m401.518 412.313c-.079-.221-.161-.44-.256-.654l-26.065-66.645c-1.5-3.834-5.196-6.357-9.313-6.357s-7.813 2.523-9.313 6.357l-26.065 66.645c-.094.213-.176.433-.256.654l-8.829 22.574c-2.011 5.144.527 10.944 5.671 12.956 5.145 2.012 10.944-.527 12.956-5.671l6.445-16.479h38.782l6.445 16.479c1.544 3.947 5.318 6.36 9.316 6.36 1.211 0 2.443-.222 3.64-.689 5.144-2.012 7.682-7.813 5.671-12.956zm-47.203-6.621 11.569-29.581 11.569 29.581z"/><path d="m443 338.656c-5.522 0-10 4.478-10 10v89.873c0 5.522 4.478 10 10 10s10-4.478 10-10v-89.873c0-5.522-4.478-10-10-10z"/><path d="m489.499 281.735h-67.923v-240.629c0-21.011-17.088-38.106-38.091-38.106h-345.394c-21.004 0-38.091 17.095-38.091 38.106v349.071c0 21.012 17.087 38.105 38.091 38.105h228.077v58.238c0 12.395 10.081 22.479 22.473 22.479h200.858c12.407.001 22.501-10.083 22.501-22.478v-182.307c0-12.395-10.094-22.479-22.501-22.479zm-451.408 126.548c-9.976 0-18.091-8.122-18.091-18.105v-249.847h237.091c5.522 0 10-4.478 10-10s-4.478-10-10-10h-237.091v-79.225c0-9.984 8.115-18.106 18.091-18.106h345.395c9.976 0 18.091 8.122 18.091 18.106v79.225h-54.685c-5.522 0-10 4.478-10 10s4.478 10 10 10h54.685v141.404h-112.936c-12.392 0-22.473 10.084-22.473 22.479v104.069zm453.909 78.238c0 1.344-1.146 2.479-2.501 2.479h-200.858c-1.34 0-2.473-1.135-2.473-2.479v-182.307c0-1.344 1.133-2.479 2.473-2.479h200.858c1.355 0 2.501 1.135 2.501 2.479z"/><path d="m113.258 228.263v-29.212c0-14.585-11.861-26.45-26.44-26.45h-13.607c-14.595 0-26.469 11.865-26.469 26.45v29.212c0 14.584 11.874 26.449 26.469 26.449h13.606c14.579 0 26.441-11.865 26.441-26.449zm-20 0c0 3.496-2.949 6.449-6.44 6.449h-13.607c-3.507 0-6.469-2.953-6.469-6.449v-29.212c0-3.496 2.962-6.45 6.469-6.45h13.606c3.491 0 6.44 2.954 6.44 6.45v29.212z"/><path d="m145.408 172.601c-5.523 0-10 4.478-10 10v62.111c0 5.522 4.477 10 10 10s10-4.478 10-10v-62.111c0-5.523-4.477-10-10-10z"/><path d="m217.605 172.601h-13.634c-14.58 0-26.441 11.865-26.441 26.45v29.212c0 14.584 11.861 26.449 26.441 26.449h13.634c14.579 0 26.44-11.865 26.44-26.449v-29.212c.001-14.585-11.86-26.45-26.44-26.45zm6.441 55.662c0 3.496-2.949 6.449-6.44 6.449h-13.634c-3.491 0-6.441-2.953-6.441-6.449v-29.212c0-3.496 2.95-6.45 6.441-6.45h13.634c3.491 0 6.44 2.954 6.44 6.45z"/><path d="m292.637 254.712h13.606c14.579 0 26.44-11.865 26.44-26.449v-29.212c0-14.585-11.861-26.45-26.44-26.45h-13.606c-14.595 0-26.469 11.865-26.469 26.45v29.212c0 14.584 11.874 26.449 26.469 26.449zm-6.469-55.661c0-3.557 2.902-6.45 6.469-6.45h13.606c3.491 0 6.44 2.954 6.44 6.45v29.212c0 3.496-2.949 6.449-6.44 6.449h-13.606c-3.566 0-6.469-2.894-6.469-6.449z"/><path d="m364.806 254.712c5.522 0 10-4.478 10-10v-62.111c0-5.522-4.478-10-10-10s-10 4.478-10 10v62.111c0 5.522 4.477 10 10 10z"/><path d="m217.605 293.902h-13.634c-14.58 0-26.441 11.865-26.441 26.449v29.213c0 14.584 11.861 26.449 26.441 26.449h13.634c14.579 0 26.44-11.865 26.44-26.449v-29.213c.001-14.583-11.86-26.449-26.44-26.449zm6.441 55.662c0 3.496-2.949 6.449-6.44 6.449h-13.634c-3.491 0-6.441-2.953-6.441-6.449v-29.213c0-3.496 2.95-6.449 6.441-6.449h13.634c3.491 0 6.44 2.953 6.44 6.449z"/><path d="m128.939 293.902h-13.606c-14.58 0-26.441 11.865-26.441 26.449v29.213c0 14.584 11.861 26.449 26.441 26.449h13.606c14.595 0 26.469-11.865 26.469-26.449v-29.213c0-14.583-11.874-26.449-26.469-26.449zm6.469 55.662c0 3.556-2.902 6.449-6.469 6.449h-13.606c-3.491 0-6.441-2.953-6.441-6.449v-29.213c0-3.496 2.95-6.449 6.441-6.449h13.606c3.567 0 6.469 2.894 6.469 6.449z"/><path d="m56.771 293.902c-5.523 0-10 4.478-10 10v62.111c0 5.522 4.477 10 10 10s10-4.478 10-10v-62.111c0-5.522-4.477-10-10-10z"/><path d="m291.991 130.331c0 5.522 4.478 10 10 10h.028c5.522 0 9.986-4.478 9.986-10s-4.492-10-10.015-10-9.999 4.478-9.999 10z"/></g></svg>