<svg id="Capa_1" enable-background="new 0 0 512 512" height="512" viewBox="0 0 512 512" width="512" xmlns="http://www.w3.org/2000/svg"><g><path d="m396.732 387.48-33.404 34.294-11.215-18.524c-2.861-4.725-9.011-6.234-13.733-3.376-4.725 2.86-6.236 9.009-3.376 13.733l17.911 29.585c1.604 2.648 5.168 4.766 8.556 4.821 2.68.044 5.27-1.079 7.162-3.022l42.426-43.556c3.854-3.956 3.771-10.287-.186-14.141-3.958-3.854-10.288-3.77-14.141.186z"/><path d="m402.661 324.939c.126-1.802.21-3.605.21-5.406 0-9.687-1.825-19.292-5.331-28.261 26.958-14.855 43.874-43.074 43.874-74.492 0-31.408-16.916-59.636-43.876-74.513 3.508-8.968 5.333-18.564 5.333-28.239 0-20.498-7.934-39.816-22.338-54.398-12.504-12.656-28.628-20.479-46.058-22.482-6.62-21.663-26.882-37.148-50.121-37.148-17.41 0-32.864 8.534-42.397 21.639-9.533-13.105-24.987-21.639-42.397-21.639-23.238 0-43.501 15.485-50.121 37.147-17.43 2.003-33.554 9.826-46.058 22.482-14.404 14.582-22.338 33.9-22.338 54.398 0 9.677 1.827 19.275 5.337 28.245-11.427 6.331-21.264 15.231-28.812 26.141-3.143 4.542-2.008 10.771 2.534 13.913s10.771 2.008 13.913-2.534c7.341-10.61 17.496-18.736 29.367-23.499 2.671-1.072 4.751-3.242 5.707-5.956.957-2.714.698-5.709-.71-8.219-4.8-8.555-7.337-18.268-7.337-28.091 0-30.876 24.793-56.354 55.497-57.346.242.027.484.055.732.064 7.311.272 14.427 1.972 21.129 5.041 6.335 2.918 11.96 6.873 16.72 11.755 1.96 2.011 4.559 3.02 7.161 3.02 2.517 0 5.035-.944 6.979-2.84 3.955-3.855 4.035-10.187.18-14.141-6.477-6.644-14.104-12.013-22.692-15.969-5.275-2.416-10.738-4.185-16.327-5.336 5.309-10.88 16.513-18.275 29.139-18.275 17.864 0 32.397 14.531 32.397 32.394 0 5.522 4.478 10 10 10s10-4.478 10-10c0-17.863 14.533-32.394 32.397-32.394 12.626 0 23.83 7.395 29.139 18.278-5.591 1.152-11.059 2.923-16.346 5.344-8.568 3.946-16.197 9.316-22.674 15.96-3.855 3.954-3.775 10.285.18 14.141 1.944 1.896 4.463 2.84 6.979 2.84 2.602 0 5.202-1.01 7.161-3.02 4.76-4.882 10.386-8.837 16.701-11.746 6.722-3.078 13.837-4.777 21.147-5.05.248-.009.489-.038.732-.064 30.704.991 55.497 26.469 55.497 57.346 0 9.824-2.537 19.538-7.336 28.091-1.408 2.509-1.667 5.502-.712 8.216.956 2.713 3.033 4.883 5.702 5.956 24.839 9.985 40.889 33.729 40.889 60.489 0 26.769-16.047 50.5-40.88 60.458-2.672 1.071-4.752 3.241-5.709 5.955-.957 2.715-.698 5.71.71 8.22 4.799 8.553 7.336 18.277 7.336 28.12 0 .458-.022.916-.033 1.373-3.023-.286-6.06-.435-9.097-.435-51.707 0-93.969 41.181-95.723 92.464-14.84-2.955-26.061-16.073-26.061-31.767 0-5.522-4.478-10-10-10s-10 4.478-10 10c0 17.862-14.533 32.394-32.397 32.394-12.636 0-23.847-7.407-29.15-18.304 5.593-1.151 11.057-2.919 16.331-5.335 8.565-3.914 16.203-9.278 22.7-15.943 3.855-3.954 3.775-10.285-.18-14.141s-10.287-3.774-14.141.18c-4.767 4.89-10.383 8.831-16.7 11.718-6.721 3.078-13.836 4.776-21.148 5.049-.32.012-.635.042-.947.083-30.605-1.13-55.282-26.557-55.282-57.335 0-9.842 2.537-19.565 7.337-28.12 1.408-2.51 1.667-5.505.71-8.219s-3.036-4.885-5.707-5.956c-11.89-4.77-22.044-12.885-29.367-23.471-3.143-4.541-9.372-5.677-13.913-2.534-4.542 3.142-5.677 9.371-2.534 13.913 7.535 10.893 17.373 19.784 28.811 26.115-3.51 8.974-5.336 18.581-5.336 28.271 0 20.494 7.934 39.81 22.34 54.388 12.499 12.649 28.624 20.474 46.054 22.487 6.619 21.665 26.884 37.153 50.123 37.153 17.41 0 32.864-8.534 42.397-21.639 8.632 11.865 22.125 19.96 37.522 21.389 8.073 44.685 47.269 78.688 94.262 78.688 52.802 0 95.759-42.953 95.759-95.75 0-42.735-28.129-79.018-66.839-91.311zm-28.92 167.061c-41.789 0-75.787-33.981-75.787-75.75 0-41.784 33.998-75.778 75.787-75.778 41.773 0 75.759 33.994 75.759 75.778 0 41.769-33.985 75.75-75.759 75.75z"/><path d="m128.283 206.78c-5.522 0-10 4.478-10 10s4.478 10 10 10h41.324v23.98h-24.349c-5.522 0-10 4.478-10 10s4.478 10 10 10h24.349v8.363c0 5.522 4.478 10 10 10h8.337v24.345c0 5.522 4.478 10 10 10s10-4.478 10-10v-24.345h24.013v41.319c0 5.522 4.478 10 10 10s10-4.478 10-10v-41.319h24.014v24.345c0 5.522 4.478 10 10 10s10-4.478 10-10v-24.345h8.336c5.522 0 10-4.478 10-10v-8.363h24.349c5.522 0 10-4.478 10-10s-4.478-10-10-10h-24.349v-23.98h41.325c5.522 0 10-4.478 10-10s-4.478-10-10-10h-41.325v-24.008h24.349c5.522 0 10-4.478 10-10s-4.478-10-10-10h-24.349v-8.335c0-5.522-4.478-10-10-10h-8.336v-24.374c0-5.522-4.478-10-10-10s-10 4.478-10 10v24.374h-24.014v-41.319c0-5.522-4.478-10-10-10s-10 4.478-10 10v41.319h-24.013v-24.374c0-5.522-4.478-10-10-10s-10 4.478-10 10v24.374h-8.337c-5.522 0-10 4.478-10 10v8.335h-24.349c-5.522 0-10 4.478-10 10s4.478 10 10 10h24.349v24.008zm61.324-42.342h104.699v104.687h-104.699z"/><path d="m62.5 216.78c0-5.522-4.478-10-10-10s-10 4.478-10 10v.028c0 5.522 4.478 9.985 10 9.985s10-4.49 10-10.013z"/></g></svg>