<svg id="Layer_5" enable-background="new 0 0 64 64" height="512" viewBox="0 0 64 64" width="512" xmlns="http://www.w3.org/2000/svg"><g><path d="m32 15c-1.654 0-3 1.346-3 3s1.346 3 3 3 3-1.346 3-3-1.346-3-3-3zm0 4c-.551 0-1-.449-1-1s.449-1 1-1 1 .449 1 1-.449 1-1 1z"/><path d="m43.25 20.927.623-.519c.716-.597 1.127-1.475 1.127-2.408s-.411-1.811-1.128-2.409l-.623-.518c-3.151-2.627-7.146-4.073-11.249-4.073s-8.098 1.446-11.25 4.073l-.623.519c-.716.597-1.127 1.475-1.127 2.408s.411 1.811 1.128 2.409l.623.518c3.151 2.627 7.146 4.073 11.249 4.073s8.098-1.446 11.25-4.073zm-16.25-2.927c0-2.757 2.243-5 5-5s5 2.243 5 5-2.243 5-5 5-5-2.243-5-5zm15.592-.872c.259.216.408.534.408.872s-.149.656-.408.872l-.623.519c-1.245 1.037-2.643 1.853-4.126 2.454.729-1.105 1.157-2.425 1.157-3.845s-.427-2.74-1.157-3.845c1.483.601 2.881 1.417 4.126 2.454zm-21.184 1.744c-.259-.216-.408-.534-.408-.872s.149-.656.408-.872l.623-.519c1.245-1.037 2.643-1.853 4.126-2.454-.729 1.105-1.157 2.425-1.157 3.845s.427 2.74 1.157 3.845c-1.483-.601-2.881-1.417-4.126-2.454z"/><path d="m16 33c-2.757 0-5 2.243-5 5s2.243 5 5 5 5-2.243 5-5-2.243-5-5-5zm0 8c-1.654 0-3-1.346-3-3s1.346-3 3-3 3 1.346 3 3-1.346 3-3 3z"/><circle cx="16" cy="38" r="1"/><circle cx="36" cy="38" r="1"/><path d="m48 33c-2.757 0-5 2.243-5 5s2.243 5 5 5 5-2.243 5-5-2.243-5-5-5zm0 8c-1.654 0-3-1.346-3-3s1.346-3 3-3 3 1.346 3 3-1.346 3-3 3z"/><circle cx="48" cy="38" r="1"/><path d="m50 29h-5.062c2.527-2.968 4.062-6.805 4.062-11 0-9.374-7.626-17-17-17s-17 7.626-17 17c0 4.195 1.535 8.032 4.062 11h-5.062c-4.962 0-9 4.038-9 9s4.038 9 9 9h3v8h-1c-2.757 0-5 2.243-5 5v3h42v-3c0-2.757-2.243-5-5-5h-1v-8h3c4.962 0 9-4.038 9-9s-4.038-9-9-9zm-18-26c8.271 0 15 6.729 15 15s-6.729 15-15 15-15-6.729-15-15 6.729-15 15-15zm7 35c0 1.654-1.346 3-3 3s-3-1.346-3-3 1.346-3 3-3 3 1.346 3 3zm-20 9h4v8h-4zm6 8v-8h14v8zm26 5v1h-38v-1c0-1.654 1.346-3 3-3h32c1.654 0 3 1.346 3 3zm-6-5h-4v-8h4zm5-10h-36c-3.86 0-7-3.14-7-7s3.14-7 7-7h7.068c2.958 2.492 6.77 4 10.932 4 .009 0 .018-.001.027-.001-.636.838-1.027 1.87-1.027 3.001 0 2.757 2.243 5 5 5s5-2.243 5-5c0-1.839-1.009-3.432-2.492-4.3 1.616-.672 3.104-1.588 4.424-2.7h7.068c3.86 0 7 3.14 7 7s-3.14 7-7 7z"/><path d="m32.001 7-.002-2c-.634 0-1.284.063-1.933.187l.374 1.965c.527-.101 1.052-.152 1.561-.152z"/><path d="m28.694 7.657-.719-1.866c-.652.251-1.305.563-1.94.926l.992 1.736c.548-.313 1.109-.581 1.667-.796z"/><path d="m25.472 9.485-1.212-1.59c-.56.427-1.1.895-1.605 1.392l1.402 1.426c.445-.439.922-.852 1.415-1.228z"/><path d="m51 17h8v2h-8z"/><path d="m50.558 12.513h8v2h-8z" transform="matrix(.981 -.195 .195 .981 -1.588 10.914)"/><path d="m8.442 9.513h2v8h-2z" transform="matrix(.195 -.981 .981 .195 -5.654 20.137)"/><path d="m5 17h8v2h-8z"/><path d="m5.442 21.487h8v2h-8z" transform="matrix(.981 -.195 .195 .981 -4.209 2.277)"/><path d="m53.558 18.487h2v8h-2z" transform="matrix(.195 -.981 .981 .195 21.858 71.609)"/></g></svg>