<svg id="Layer_5" enable-background="new 0 0 64 64" height="512" viewBox="0 0 64 64" width="512" xmlns="http://www.w3.org/2000/svg"><g><path d="m63 1h-62v44h12.101c.247 1.213.946 2.253 1.899 2.974v15.026h34v-15.026c.953-.721 1.652-1.762 1.899-2.974h12.101zm-2 2v6h-58v-6zm-38 41c0-.342-.035-.677-.101-1h18.202c-.066.323-.101.658-.101 1 0 1.627.793 3.061 2 3.974v13.026h-22v-13.026c1.207-.913 2-2.347 2-3.974zm3-7c-.552 0-1-.449-1-1v-8c0-.551.448-1 1-1h12c.552 0 1 .449 1 1v8c0 .551-.448 1-1 1zm9 2v2h-6v-2zm-17 8c-1.654 0-3-1.346-3-3s1.346-3 3-3 3 1.346 3 3-1.346 3-3 3zm-1 1.899c.323.066.658.101 1 .101s.677-.035 1-.101v12.101h-2zm30 12.101h-2v-12.101c.323.066.658.101 1 .101s.677-.035 1-.101zm-1-14c-1.654 0-3-1.346-3-3s1.346-3 3-3 3 1.346 3 3-1.346 3-3 3zm4.899-4c-.465-2.279-2.484-4-4.899-4-1.627 0-3.061.793-3.974 2h-5.026v-2h1c1.302 0 2.402-.839 2.816-2h1.184c1.654 0 3-1.346 3-3v-4c0-1.654-1.346-3-3-3h-1.184c-.414-1.161-1.514-2-2.816-2h-12c-1.302 0-2.402.839-2.816 2h-1.184c-1.654 0-3 1.346-3 3v4c0 1.654 1.346 3 3 3h1.184c.414 1.161 1.514 2 2.816 2h1v2h-5.026c-.914-1.207-2.348-2-3.974-2-2.414 0-4.434 1.721-4.899 4h-10.101v-32h58v32zm-9.899-14h1c.552 0 1 .449 1 1v4c0 .551-.448 1-1 1h-1zm-18 6h-1c-.552 0-1-.449-1-1v-4c0-.551.448-1 1-1h1z"/><path d="m5 5h2v2h-2z"/><path d="m9 5h2v2h-2z"/><path d="m13 5h2v2h-2z"/><path d="m5 13h2v8h-2z"/><path d="m9 21h6v-8h-6zm2-6h2v4h-2z"/><path d="m5 25h2v8h-2z"/><path d="m9 33h6v-8h-6zm2-6h2v4h-2z"/><path d="m17 13h2v8h-2z"/><path d="m21 21h6v-8h-6zm2-6h2v4h-2z"/><path d="m29 13h2v8h-2z"/><path d="m33 13h2v8h-2z"/><path d="m37 21h6v-8h-6zm2-6h2v4h-2z"/><path d="m45 13h2v8h-2z"/><path d="m49 21h6v-8h-6zm2-6h2v4h-2z"/><path d="m57 13h2v8h-2z"/><path d="m49 33h6v-8h-6zm2-6h2v4h-2z"/><path d="m57 25h2v8h-2z"/><path d="m26 59h12c1.654 0 3-1.346 3-3v-4c0-1.654-1.346-3-3-3h-12c-1.654 0-3 1.346-3 3v4c0 1.654 1.346 3 3 3zm-1-7c0-.551.448-1 1-1h12c.552 0 1 .449 1 1v4c0 .551-.448 1-1 1h-12c-.552 0-1-.449-1-1z"/><path d="m27 29h2v2h-2z"/><path d="m35 29h2v2h-2z"/></g></svg>