<svg id="Layer_5" enable-background="new 0 0 64 64" height="512" viewBox="0 0 64 64" width="512" xmlns="http://www.w3.org/2000/svg"><g><path d="m55 35c-2.838 0-5.542 1.365-7.234 3.652-.633.857-1.545 1.348-2.5 1.348h-7.102l-1.817-.612c-.362-1.285-.874-2.521-1.527-3.685l1.244-2.509-5.258-5.258-2.509 1.244c-1.164-.653-2.399-1.165-3.685-1.527l-.894-2.653h-7.437l-.894 2.653c-1.285.362-2.521.874-3.685 1.527l-2.509-1.244-5.258 5.258 1.244 2.509c-.653 1.164-1.165 2.399-1.527 3.685l-2.652.894v7.437l2.653.894c.362 1.285.874 2.521 1.527 3.685l-1.244 2.509 5.258 5.258 2.509-1.244c1.164.653 2.399 1.165 3.685 1.527l.894 2.652h7.437l.894-2.653c1.285-.362 2.521-.874 3.685-1.527l2.509 1.244 5.258-5.258-1.244-2.509c.653-1.164 1.165-2.399 1.527-3.685l1.816-.612h7.102c.955 0 1.867.491 2.5 1.348 1.692 2.287 4.396 3.652 7.234 3.652 3.244 0 6.258-1.724 7.865-4.499l.135-.232v-2.269h-6.271c-.402 0-.729-.327-.729-.729v-2.543c0-.401.327-.728.729-.728h6.271v-2.269l-.135-.233c-1.607-2.774-4.621-4.498-7.865-4.498zm-18 11.282-2.322.782-.131.533c-.36 1.462-.938 2.856-1.718 4.144l-.285.47 1.09 2.196-3.227 3.227-2.196-1.09-.47.285c-1.288.779-2.682 1.357-4.144 1.718l-.533.131-.782 2.322h-4.563l-.782-2.322-.533-.131c-1.462-.36-2.856-.938-4.144-1.718l-.47-.285-2.196 1.09-3.227-3.227 1.09-2.196-.285-.47c-.779-1.288-1.357-2.682-1.718-4.144l-.131-.533-2.323-.782v-4.563l2.322-.782.131-.533c.36-1.462.938-2.856 1.718-4.144l.285-.47-1.09-2.196 3.227-3.227 2.196 1.09.47-.285c1.288-.779 2.682-1.357 4.144-1.718l.533-.131.782-2.323h4.563l.782 2.322.533.131c1.462.36 2.856.938 4.144 1.718l.47.285 2.196-1.09 3.227 3.227-1.09 2.196.285.47c.779 1.288 1.357 2.682 1.718 4.144l.131.533 2.323.782zm19.729-6.282c-1.505 0-2.729 1.224-2.729 2.729v2.543c0 1.504 1.224 2.728 2.729 2.728h4.086c-1.307 1.864-3.483 3-5.814 3-2.24 0-4.29-1.036-5.625-2.841-1.016-1.372-2.514-2.159-4.11-2.159h-6.266v-4h6.266c1.596 0 3.094-.787 4.108-2.159 1.336-1.805 3.386-2.841 5.626-2.841 2.331 0 4.507 1.136 5.814 3z"/><path d="m20 31c-7.168 0-13 5.832-13 13s5.832 13 13 13 13-5.832 13-13-5.832-13-13-13zm0 24c-6.065 0-11-4.935-11-11s4.935-11 11-11 11 4.935 11 11-4.935 11-11 11z"/><path d="m23.293 40.707 3.293 3.293-3.293 3.293 1.414 1.414 4.707-4.707-4.707-4.707z"/><path d="m13.414 44 3.293-3.293-1.414-1.414-4.707 4.707 4.707 4.707 1.414-1.414z"/><path d="m11.456 43h17.088v2h-17.088z" transform="matrix(.351 -.936 .936 .351 -28.221 47.277)"/><path d="m27 7.5c0 .276-.224.5-.5.5h-1.5v2h1.5c.276 0 .5.224.5.5 0 1.378 1.122 2.5 2.5 2.5h1.5v-2h-1.5c-.276 0-.5-.224-.5-.5 0-.565-.195-1.081-.513-1.5.318-.419.513-.935.513-1.5 0-.276.224-.5.5-.5h1.5v-2h-1.5c-1.378 0-2.5 1.122-2.5 2.5z"/><path d="m57 13.5c0-1.378-1.122-2.5-2.5-2.5h-1.5v2h1.5c.276 0 .5.224.5.5 0 .565.195 1.081.513 1.5-.318.419-.513.935-.513 1.5 0 .276-.224.5-.5.5h-1.5v2h1.5c1.378 0 2.5-1.122 2.5-2.5 0-.276.224-.5.5-.5h1.5v-2h-1.5c-.276 0-.5-.224-.5-.5z"/><path d="m33 5h2v2h-2z"/><path d="m37 5h14v2h-14z"/><path d="m33 9h18v2h-18z"/><path d="m33 13h18v2h-18z"/><path d="m49 17h2v2h-2z"/><path d="m33 17h14v2h-14z"/><path d="m58 1h-32c-2.757 0-5 2.243-5 5v12c0 2.757 2.243 5 5 5h16v3.586c0 1.331 1.083 2.414 2.414 2.414.645 0 1.251-.251 1.707-.707l5.293-5.293h6.586c2.757 0 5-2.243 5-5v-12c0-2.757-2.243-5-5-5zm3 17c0 1.654-1.346 3-3 3h-7.414l-5.879 5.879c-.239.238-.707.045-.707-.293v-5.586h-18c-1.654 0-3-1.346-3-3v-12c0-1.654 1.346-3 3-3h32c1.654 0 3 1.346 3 3z"/></g></svg>