<svg id="Layer_5" enable-background="new 0 0 64 64" height="512" viewBox="0 0 64 64" width="512" xmlns="http://www.w3.org/2000/svg"><g><path d="m34.349 55.272c-.334-1.337-1.532-2.272-2.911-2.272h-.591l-1.705-10.229c.782-.323 1.388-.971 1.673-1.771h14.185v2h2v4h6v-4h2v-7c0-1.654-1.346-3-3-3h-4c-1.302 0-2.402.839-2.816 2h-2.716l-4.1-4.92c-.571-.686-1.412-1.08-2.305-1.08h-10.063c-1.654 0-3 1.346-3 3v1h-3c-1.654 0-3 1.346-3 3v4c0 1.25.769 2.321 1.858 2.771l-1.705 10.229h-.591c-1.379 0-2.576.935-2.91 2.272l-.932 3.728h22.56zm-3.349-16.272v-2h14v2zm20 6h-2v-2h2zm-4-9c0-.551.448-1 1-1h4c.552 0 1 .449 1 1v5h-6zm-22-4c0-.551.448-1 1-1h10.063c.298 0 .577.131.768.36l3.034 3.64h-9.049c-.414-1.161-1.514-2-2.816-2h-3zm-6 4c0-.551.448-1 1-1h8c.552 0 1 .449 1 1v4c0 .551-.448 1-1 1h-8c-.552 0-1-.449-1-1zm1.847 7h6.306l1.667 10h-9.64zm-5.567 14 .311-1.242c.112-.446.511-.758.971-.758h14.877c.46 0 .858.312.971.758l.31 1.242z"/><path d="m49.431 25-.085-.165c.362-.709.67-1.456.919-2.229l2.735-.877v-7.459l-2.734-.876c-.249-.774-.557-1.52-.919-2.229l1.312-2.549-5.274-5.274-2.549 1.312c-.711-.363-1.457-.671-2.229-.919l-.878-2.735h-7.459l-.876 2.734c-.772.248-1.519.556-2.229.919l-2.549-1.312-5.274 5.274 1.312 2.549c-.362.709-.67 1.455-.919 2.229l-2.735.878v7.459l2.734.876c.249.774.557 1.52.919 2.229l-.084.165h-11.569v-8h-5c-2.757 0-5 2.243-5 5v36c0 2.757 2.243 5 5 5h57v-38zm-24.777-.662c-.484-.867-.872-1.807-1.152-2.796l-.146-.517-2.356-.754v-4.541l2.356-.755.146-.517c.28-.989.668-1.929 1.152-2.796l.263-.468-1.13-2.195 3.212-3.211 2.194 1.129.469-.262c.87-.487 1.811-.875 2.797-1.153l.517-.146.753-2.356h4.541l.754 2.356.517.146c.986.278 1.927.667 2.797 1.153l.469.262 2.194-1.129 3.212 3.211-1.13 2.195.263.468c.484.867.872 1.807 1.152 2.796l.146.517 2.356.754v4.541l-2.356.755-.146.517c-.28.989-.668 1.929-1.152 2.796l-.263.468.1.194h-2.693c1.615-1.947 2.51-4.394 2.51-7 0-6.065-4.935-11-11-11s-11 4.935-11 11c0 2.606.895 5.053 2.51 7h-2.693l.1-.194zm5.709.662c-2.135-1.719-3.363-4.247-3.363-7 0-4.962 4.037-9 9-9s9 4.038 9 9c0 2.753-1.228 5.281-3.363 7zm-27.363-3c0-1.654 1.346-3 3-3h3v34h-3c-1.125 0-2.164.374-3 1.002zm58 39h-55c-1.654 0-3-1.346-3-3s1.346-3 3-3h5v-28h50z"/><path d="m36 13c-2.757 0-5 2.243-5 5s2.243 5 5 5 5-2.243 5-5-2.243-5-5-5zm0 8c-1.654 0-3-1.346-3-3s1.346-3 3-3 3 1.346 3 3-1.346 3-3 3z"/><path d="m57 57h2v2h-2z"/><path d="m53 57h2v2h-2z"/><path d="m49 57h2v2h-2z"/><path d="m49 53h10v2h-10z"/></g></svg>