<svg id="Layer_5" enable-background="new 0 0 64 64" height="512" viewBox="0 0 64 64" width="512" xmlns="http://www.w3.org/2000/svg"><g><circle cx="30" cy="57" r="1"/><path d="m33.109 33.213c-.743-.295-1.559-.285-2.296.032-.736.316-1.305.901-1.601 1.646-.296.744-.285 1.56.031 2.295.317.736.901 1.305 1.646 1.602.359.143.734.214 1.11.214.402 0 .805-.082 1.186-.246.736-.316 1.305-.901 1.601-1.646.296-.744.285-1.56-.031-2.295-.317-.737-.901-1.306-1.646-1.602zm-.18 3.157c-.099.248-.288.443-.533.548-.244.105-.516.109-.766.011-.248-.099-.442-.289-.548-.534-.106-.246-.109-.518-.011-.766s.288-.443.533-.548c.127-.054.261-.081.396-.081.125 0 .25.024.37.071.248.099.442.289.548.534s.109.517.011.765z"/><path d="m32 29c-3.859 0-7 3.14-7 7s3.141 7 7 7 7-3.14 7-7-3.141-7-7-7zm0 12c-2.757 0-5-2.243-5-5s2.243-5 5-5 5 2.243 5 5-2.243 5-5 5z"/><path d="m60 49h-3.54l-11.502-13.419-1.017-8.647 8.378-12.246c.528.19 1.088.312 1.681.312 2.757 0 5-2.243 5-5 0-.352-.072-.686-.184-1h1.184c1.654 0 3-1.346 3-3s-1.346-3-3-3h-12c-1.654 0-3 1.346-3 3s1.346 3 3 3h1.184c-.018.049-.032.1-.047.15l-6.571 6.102-1.157-9.836c-.297-2.518-2.431-4.416-4.966-4.416h-8.887c-2.534 0-4.669 1.898-4.966 4.416l-1.157 9.836-6.571-6.102c-.015-.05-.029-.101-.046-.15h1.184c1.654 0 3-1.346 3-3s-1.346-3-3-3h-12c-1.654 0-3 1.346-3 3s1.346 3 3 3h1.184c-.112.314-.184.648-.184 1 0 2.757 2.243 5 5 5 .592 0 1.153-.122 1.681-.312l8.379 12.246-1.017 8.647-11.503 13.419h-3.54c-1.654 0-3 1.346-3 3s1.346 3 3 3h1.184c-.112.314-.184.648-.184 1 0 2.757 2.243 5 5 5s5-2.243 5-5c0-.352-.072-.686-.184-1h1.184c1.654 0 3-1.346 3-3s-1.346-3-3-3h-.768l8.083-5.53 2.119 3.53h2.386l-.667 4h-3.153c-1.654 0-3 1.346-3 3v6c0 1.654 1.346 3 3 3h16c1.654 0 3-1.346 3-3v-6c0-1.654-1.346-3-3-3h-3.153l-.667-4h2.386l2.118-3.53 8.084 5.53h-.768c-1.654 0-3 1.346-3 3s1.346 3 3 3h1.184c-.112.314-.184.648-.184 1 0 2.757 2.243 5 5 5s5-2.243 5-5c0-.352-.072-.686-.184-1h1.184c1.654 0 3-1.346 3-3s-1.346-3-3-3zm-3-39c0 1.654-1.346 3-3 3s-3-1.346-3-3c0-.551.448-1 1-1h4c.552 0 1 .449 1 1zm-10-4c0-.551.448-1 1-1h12c.552 0 1 .449 1 1s-.448 1-1 1h-4-4-4c-.552 0-1-.449-1-1zm2.321 5.71c.274.747.714 1.408 1.286 1.94l-7.021 10.263-.729-6.2zm-20.321-8.71h6v15c0 1.654-1.346 3-3 3s-3-1.346-3-3zm-4.423 2.65c.156-1.322 1.156-2.36 2.423-2.598v14.948c0 2.757 2.243 5 5 5s5-2.243 5-5v-14.948c1.267.238 2.267 1.276 2.423 2.598l3.04 25.845-3.897-6.495h-13.132l-3.897 6.494zm-21.577.35c0-.551.448-1 1-1h12c.552 0 1 .449 1 1s-.448 1-1 1h-4-4-4c-.552 0-1-.449-1-1zm4 4c0-.551.448-1 1-1h4c.552 0 1 .449 1 1 0 1.654-1.346 3-3 3s-3-1.346-3-3zm6.393 3.65c.572-.532 1.012-1.193 1.286-1.94l6.465 6.003-.729 6.2zm-.393 42.35c0 1.654-1.346 3-3 3s-3-1.346-3-3c0-.551.448-1 1-1h4c.552 0 1 .449 1 1zm4-4c0 .551-.448 1-1 1h-4-4-4c-.552 0-1-.449-1-1s.448-1 1-1h12c.552 0 1 .449 1 1zm-5.309-3h-1.517l9.682-11.296 2.429 4.048zm18.309 11c-1.654 0-3-1.346-3-3s1.346-3 3-3 3 1.346 3 3-1.346 3-3 3zm-7 0v-6c0-.551.448-1 1-1h3.031c-1.225.912-2.031 2.359-2.031 4s.806 3.088 2.031 4h-3.031c-.552 0-1-.449-1-1zm18-6v6c0 .551-.448 1-1 1h-7.031c1.225-.912 2.031-2.359 2.031-4s-.806-3.088-2.031-4h7.031c.552 0 1 .449 1 1zm-6.18-3h-5.64l.667-4h4.306zm2.614-6h-10.868l-5.4-9 5.4-9h10.867l5.4 9zm4.281-3.248 2.429-4.048 9.682 11.296h-1.517zm15.285 14.248c0 1.654-1.346 3-3 3s-3-1.346-3-3c0-.551.448-1 1-1h4c.552 0 1 .449 1 1zm3-3h-4-4-4c-.552 0-1-.449-1-1s.448-1 1-1h12c.552 0 1 .449 1 1s-.448 1-1 1z"/><path d="m37 55h2v4h-2z"/><path d="m31 5h2v2h-2z"/><path d="m31 17h2v2h-2z"/><path d="m31 13h2v2h-2z"/><path d="m31 9h2v2h-2z"/></g></svg>