<svg id="Layer_5" enable-background="new 0 0 64 64" height="512" viewBox="0 0 64 64" width="512" xmlns="http://www.w3.org/2000/svg"><g><path d="m50 10c-4.411 0-8 3.589-8 8s3.589 8 8 8 8-3.589 8-8-3.589-8-8-8zm0 14c-3.309 0-6-2.691-6-6s2.691-6 6-6 6 2.691 6 6-2.691 6-6 6z"/><path d="m50 14c-2.206 0-4 1.794-4 4s1.794 4 4 4 4-1.794 4-4-1.794-4-4-4zm0 6c-1.103 0-2-.897-2-2s.897-2 2-2 2 .897 2 2-.897 2-2 2z"/><path d="m5.008 21.97 1.999.061c.019-.629.077-1.261.171-1.879l-1.977-.302c-.106.697-.171 1.41-.193 2.12z"/><path d="m5.663 17.727 1.924.546c.181-.636.405-1.268.668-1.877l-1.837-.791c-.297.689-.551 1.403-.755 2.122z"/><path d="m7.509 13.482 1.712 1.034c2.8-4.636 7.89-7.516 13.285-7.516h.494v-2h-.494c-6.091 0-11.838 3.25-14.997 8.482z"/><path d="m47 45v2h-4v10h14v-14h-6v2zm4 2v8h-2v-8zm-6 2h2v6h-2zm10-4v10h-2v-10z"/><path d="m63 21.708v-7.415l-1.826-.645c-.062-.157-.127-.314-.196-.471l.836-1.748-5.244-5.243-1.748.836c-.156-.069-.313-.135-.471-.196l-.643-1.826h-7.415l-.645 1.826c-.157.062-.314.127-.471.196l-1.747-.836-3.041 3.041c-4.069-5.171-10.298-8.227-16.895-8.227h-.988c-11.859 0-21.506 9.647-21.506 21.506 0 5.744 2.237 11.144 6.299 15.207l4.166 4.166c1.444 1.444 2.313 3.309 2.497 5.318-1.143.424-1.962 1.515-1.962 2.803 0 1.383.945 2.539 2.22 2.884-.139.346-.22.721-.22 1.116 0 1.302.839 2.402 2 2.816v1.184c0 2.757 2.243 5 5 5h4c2.757 0 5-2.243 5-5v-1.184c1.161-.414 2-1.514 2-2.816 0-.395-.081-.77-.22-1.116 1.275-.346 2.22-1.501 2.22-2.884 0-1.288-.819-2.379-1.961-2.804.184-2.009 1.052-3.874 2.497-5.318l2.428-2.428 2.803 2.559c-1.727 2.208-2.767 4.978-2.767 7.991 0 7.168 5.832 13 13 13s13-5.832 13-13c0-6.83-5.299-12.435-12-12.949v-6.051h2.708l.645-1.826c.157-.062.314-.127.471-.196l1.748.836 5.244-5.244-.836-1.748c.069-.156.135-.313.196-.471zm-38 39.292h-4c-1.654 0-3-1.346-3-3v-1h10v1c0 1.654-1.346 3-3 3zm4-6h-12c-.551 0-1-.448-1-1s.449-1 1-1h12c.551 0 1 .448 1 1s-.449 1-1 1zm2-4h-2-12-2c-.551 0-1-.448-1-1s.449-1 1-1h16c.551 0 1 .448 1 1s-.449 1-1 1zm-5-4h-6v-18.454l-7.726-6.76 3.032-5.307 3.788 2.841 3.906-3.906 3.906 3.906 3.788-2.841 3.032 5.307-7.726 6.76zm7.122-6.535c-1.775 1.775-2.845 4.066-3.073 6.535h-2.049v-17.546l8.274-7.24-4.968-8.693-4.212 3.159-4.094-4.094-4.094 4.094-4.212-3.159-4.968 8.693 8.274 7.24v17.546h-2.049c-.228-2.469-1.297-4.76-3.073-6.535l-4.166-4.166c-3.683-3.685-5.712-8.583-5.712-13.793 0-10.756 8.75-19.506 19.506-19.506h.988c6.062 0 11.779 2.85 15.467 7.655l-.775.775.836 1.748c-.069.156-.135.313-.196.471l-1.826.643v7.415l1.826.645c.062.157.127.314.196.471l-.836 1.748 3.867 3.867c-.948 2.968-2.582 5.678-4.766 7.862zm27.878 9.535c0 6.065-4.935 11-11 11s-11-4.935-11-11 4.935-11 11-11 11 4.935 11 11zm-12-12.949c-3.04.233-5.785 1.514-7.884 3.484l-2.738-2.5.323-.323c2.259-2.259 3.991-5.025 5.059-8.057l1.417-.678c.156.069.313.135.471.196l.644 1.827h2.708zm12-16.759-1.392.491-.157.458c-.131.383-.292.769-.478 1.147l-.213.435.638 1.334-3.242 3.242-1.334-.638-.435.213c-.377.185-.763.346-1.148.478l-.457.157-.49 1.391h-4.585l-.491-1.391-.457-.157c-.385-.132-.771-.293-1.148-.478l-.435-.213-1.334.638-3.242-3.242.638-1.334-.213-.435c-.186-.378-.346-.764-.478-1.147l-.157-.458-1.39-.491v-4.585l1.392-.491.157-.458c.131-.383.292-.769.478-1.147l.213-.435-.638-1.334 3.242-3.242 1.334.638.435-.213c.378-.186.764-.346 1.147-.478l.458-.157.49-1.39h4.585l.491 1.392.458.157c.383.131.769.292 1.147.478l.435.213 1.334-.638 3.242 3.242-.638 1.334.213.435c.186.378.346.764.478 1.147l.157.458 1.39.49z"/></g></svg>