<svg id="Layer_5" enable-background="new 0 0 64 64" height="512" viewBox="0 0 64 64" width="512" xmlns="http://www.w3.org/2000/svg"><g><path d="m47 30c2.206 0 4-1.794 4-4h-2c0 1.103-.897 2-2 2z"/><path d="m17 12c-2.206 0-4 1.794-4 4h2c0-1.103.897-2 2-2z"/><path d="m15 26h-2c0 1.654 1.346 3 3 3v-2c-.551 0-1-.449-1-1z"/><path d="m25 24c-1.103 0-2-.897-2-2h-2c0 2.206 1.794 4 4 4z"/><path d="m46 20h2c0-2.206-1.794-4-4-4v2c1.103 0 2 .897 2 2z"/><path d="m40 12h2c0-2.243-1.318-4-3-4v2c.408 0 1 .779 1 2z"/><path d="m39 17v-2c-2.206 0-4 1.794-4 4h2c0-1.103.897-2 2-2z"/><path d="m27 7v-2c-2.206 0-4 1.794-4 4h2c0-1.103.897-2 2-2z"/><path d="m24 32v2c1.103 0 2 .897 2 2h2c0-2.206-1.794-4-4-4z"/><path d="m37 31v2c.408 0 1 .779 1 2h2c0-2.243-1.318-4-3-4z"/><path d="m45 26v-2c-1.103 0-2-.897-2-2h-2c0 2.206 1.794 4 4 4z"/><path d="m21 17c-2.206 0-4 1.794-4 4h2c0-1.103.897-2 2-2z"/><path d="m54.637 49c.229-.965.363-1.966.363-3v-1h-11c-4.634 0-8.698 2.444-11 6.104v-12.842c1.467 1.671 3.607 2.738 6 2.738 4.048 0 7.396-3.026 7.92-7.004.027 0 .053.004.08.004 4.411 0 8-3.589 8-8 0-1.842-.618-3.585-1.757-5 1.139-1.415 1.757-3.158 1.757-5 0-4.411-3.589-8-8-8-.021 0-.042 0-.062 0-.494-3.941-3.865-7-7.938-7-3.008 0-5.634 1.669-7 4.13-1.366-2.461-3.992-4.13-7-4.13-4.073 0-7.438 3.062-7.931 7.003-.023 0-.046-.003-.069-.003-4.411 0-8 3.589-8 8 0 1.842.618 3.585 1.757 5-1.139 1.415-1.757 3.158-1.757 5 0 4.411 3.589 8 8 8h.062c.494 3.941 3.865 7 7.938 7 2.393 0 4.533-1.067 6-2.738v12.841c-2.302-3.659-6.366-6.103-11-6.103h-11v1c0 1.034.134 2.035.363 3h-8.363v2h9.003c1.963 4.693 6.6 8 11.997 8h9 2 9c5.397 0 10.034-3.307 11.997-8h9.003v-2zm-15.637-46c3.309 0 6 2.691 6 5.967l-.004 1.268 1.143-.165c.33-.048.604-.07.861-.07 3.309 0 6 2.691 6 6 0 1.624-.641 3.146-1.805 4.286l-.73.714.73.714c1.164 1.14 1.805 2.662 1.805 4.286 0 3.309-2.691 6-6 6s-6-2.691-6-6h-2c0 3.702 2.532 6.816 5.952 7.724-.359 2.968-2.889 5.276-5.952 5.276-3.309 0-6-2.691-6-6v-24c0-3.309 2.691-6 6-6zm-14 36c-3.309 0-6-2.691-6-5.967l.004-1.268-1.143.165c-.33.048-.604.07-.861.07-3.309 0-6-2.691-6-6 0-1.624.641-3.146 1.805-4.286l.73-.714-.73-.714c-1.164-1.14-1.805-2.662-1.805-4.286 0-3.309 2.691-6 6-6s6 2.691 6 6h2c0-3.702-2.532-6.816-5.952-7.724.359-2.968 2.889-5.276 5.952-5.276 3.309 0 6 2.691 6 6v24c0 3.309-2.691 6-6 6zm-13.955 8h8.955c4.869 0 8.999 3.185 10.443 7.577-4.326-3.061-12.941-5.642-16.175-6.54l-.535 1.928c7.076 1.966 14.555 4.982 16.665 7.036h-8.398c-5.729-.001-10.448-4.402-10.955-10.001zm30.955 10h-8.396c2.111-2.053 9.589-5.07 16.664-7.036l-.535-1.928c-3.234.898-11.849 3.48-16.175 6.54 1.443-4.391 5.573-7.576 10.442-7.576h8.955c-.507 5.599-5.226 10-10.955 10z"/><path d="m1 61h62v2h-62z"/></g></svg>