<svg id="Layer_5" enable-background="new 0 0 64 64" height="512" viewBox="0 0 64 64" width="512" xmlns="http://www.w3.org/2000/svg"><g><path d="m12 49c2.757 0 5-2.243 5-5s-2.243-5-5-5-5 2.243-5 5 2.243 5 5 5zm0-8c1.654 0 3 1.346 3 3s-1.346 3-3 3-3-1.346-3-3 1.346-3 3-3z"/><path d="m63 49.729v-7.459l-2.734-.876c-.249-.773-.557-1.52-.919-2.229l1.312-2.549-5.274-5.274-1.76.906c-.593-.951-1.355-1.801-2.276-2.481-.858-.634-1.349-1.546-1.349-2.501v-8.266c1.103 0 2-.897 2-2v-2c0-1.103-.897-2-2-2v-8c0-2.206-1.794-4-4-4s-4 1.794-4 4v8h-4.184c-.414-1.161-1.514-2-2.816-2h-11.449c-.127-.357-.311-.695-.568-.985-.569-.645-1.388-1.015-2.249-1.015h-4.198c-1.356 0-2.548.916-2.897 2.227l-6.771 25.39c-2.335 1.627-3.868 4.328-3.868 7.383 0 2.137.752 4.099 2 5.645v7.355h-1c-1.654 0-3 1.346-3 3v3h26v-3c0-1.654-1.346-3-3-3h-1.323l-3.203-7.994c.963-1.432 1.526-3.154 1.526-5.006 0-1.303-.284-2.539-.785-3.658l2.418-19.342h12.367c1.302 0 2.402-.839 2.816-2h4.184v8.266c0 .955-.491 1.867-1.348 2.5-.92.681-1.683 1.53-2.276 2.482l-1.76-.906-5.274 5.274 1.312 2.549c-.362.71-.67 1.456-.919 2.229l-2.735.877v7.459l2.734.876c.249.774.557 1.521.919 2.229l-1.312 2.549 5.274 5.273 2.549-1.311c.708.362 1.455.67 2.229.919l.878 2.735h7.459l.876-2.734c.774-.249 1.521-.557 2.229-.919l2.549 1.311 5.274-5.273-1.312-2.549c.362-.709.67-1.455.919-2.229zm-21.501-4.864.232.135h2.269v-6.271c0-.402.327-.729.729-.729h2.543c.401 0 .728.327.728.729v6.271h2.269l.232-.135c1.394-.807 2.521-1.97 3.299-3.337.779 1.355 1.2 2.896 1.2 4.472 0 4.963-4.037 9-9 9s-9-4.037-9-9c0-1.576.421-3.117 1.2-4.472.778 1.368 1.905 2.53 3.299 3.337zm8.501-27.865h-12v-2h12zm-6-12c0-1.103.897-2 2-2s2 .897 2 2v8h-4zm-27.464 6h4.198c.291 0 .558.12.75.338s.278.497.242.786l-.359 2.876h-6.665l.869-3.257c.116-.438.513-.743.965-.743zm-4.536 26c3.859 0 7 3.141 7 7s-3.141 7-7 7-7-3.141-7-7 3.141-7 7-7zm13 23v1h-22v-1c0-.552.448-1 1-1h20c.552 0 1 .448 1 1zm-18-3v-5.522c1.431.96 3.151 1.522 5 1.522 2.304 0 4.401-.877 5.995-2.306l2.527 6.306zm5-22c-.958 0-1.88.154-2.747.432l4.915-18.432h6.949l-2.601 20.81c-1.64-1.727-3.952-2.81-6.516-2.81zm24-17c0 .551-.448 1-1 1h-12.117l.75-6h11.367c.552 0 1 .449 1 1zm5.842 13.374c1.372-1.015 2.158-2.512 2.158-4.108v-8.266h4v8.266c0 1.596.786 3.093 2.158 4.108 1.806 1.335 2.842 3.386 2.842 5.626 0 2.331-1.136 4.507-3 5.814v-4.086c0-1.504-1.224-2.728-2.729-2.728h-2.543c-1.504 0-2.728 1.224-2.728 2.729v4.086c-1.864-1.308-3-3.483-3-5.814 0-2.241 1.036-4.292 2.842-5.627zm16.802 17.65-.146.517c-.28.99-.668 1.931-1.152 2.797l-.263.468 1.13 2.195-3.212 3.211-2.195-1.129-.468.263c-.866.484-1.807.872-2.797 1.152l-.517.146-.753 2.356h-4.541l-.754-2.356-.517-.146c-.99-.28-1.931-.668-2.797-1.152l-.468-.263-2.195 1.129-3.212-3.211 1.13-2.195-.263-.468c-.484-.866-.872-1.807-1.152-2.797l-.146-.517-2.356-.753v-4.541l2.356-.754.146-.517c.279-.988.667-1.93 1.153-2.797l.262-.469-1.13-2.194 3.212-3.211.511.263c-.329.94-.51 1.935-.51 2.949 0 .786.105 1.557.298 2.299-1.48 1.92-2.298 4.274-2.298 6.701 0 6.065 4.935 11 11 11s11-4.935 11-11c0-2.427-.818-4.781-2.298-6.701.193-.742.298-1.513.298-2.299 0-1.014-.181-2.009-.51-2.949l.511-.263 3.212 3.211-1.13 2.194.262.469c.486.867.874 1.809 1.153 2.797l.146.517 2.356.753v4.541z"/><path d="m15.791 18.978h2v1.999h-2z" transform="matrix(.21 -.978 .978 .21 -6.262 32.21)"/><path d="m13.276 30.712h2v1.999h-2z" transform="matrix(.21 -.978 .978 .21 -19.723 39.026)"/><path d="m14.953 22.889h2v1.999h-2z" transform="matrix(.21 -.978 .978 .21 -10.749 34.482)"/><path d="m14.114 26.8h2v2h-2z" transform="matrix(.21 -.978 .978 .21 -15.24 36.739)"/></g></svg>