<svg id="Layer_5" enable-background="new 0 0 64 64" height="512" viewBox="0 0 64 64" width="512" xmlns="http://www.w3.org/2000/svg"><g><path d="m10 51c2.757 0 5-2.243 5-5s-2.243-5-5-5-5 2.243-5 5 2.243 5 5 5zm0-8c1.654 0 3 1.346 3 3s-1.346 3-3 3-3-1.346-3-3 1.346-3 3-3z"/><path d="m60 1h-50c-1.654 0-3 1.346-3 3v2c0 1.302.839 2.402 2 2.816v12.184h-4c-1.654 0-3 1.346-3 3v4c0 1.302.839 2.402 2 2.816v8.495c-1.836 1.648-3 4.032-3 6.689s1.164 5.041 3 6.689v4.311c-1.654 0-3 1.346-3 3v3h26v-3c0-1.654-1.346-3-3-3h-2.382l-1-2h40.382v-46.184c1.161-.414 2-1.514 2-2.816v-2c0-1.654-1.346-3-3-3zm-56 23c0-.551.448-1 1-1h12c.552 0 1 .449 1 1v4c0 .551-.448 1-1 1h-12c-.552 0-1-.449-1-1zm2 7h9.78l-1.426 7.129c-1.291-.717-2.775-1.129-4.354-1.129-1.438 0-2.793.347-4 .95zm-3 15c0-3.859 3.141-7 7-7s7 3.141 7 7-3.141 7-7 7-7-3.141-7-7zm22 14v1h-22v-1c0-.552.448-1 1-1h20c.552 0 1 .448 1 1zm-19-3v-2.95c1.207.603 2.562.95 4 .95 2.723 0 5.162-1.22 6.814-3.137l2.568 5.137zm13.618-4-1.534-3.069c.581-1.19.916-2.52.916-3.931 0-2.592-1.108-4.924-2.867-6.568l1.714-8.569c.918-.273 1.649-.966 1.969-1.863h6.833l5.129 4.104 7.496-2.142-.549-1.923-6.504 1.858-2.495-1.996c1.303-.327 2.274-1.499 2.274-2.901s-.971-2.574-2.273-2.901l2.473-1.979 4.8 1.6v4.28h16v-3h2v5h-7v4h-7v8h7v2h-7v8h16v-8h-7v-2h7v-8h-7v-2h7v-9h-4v-3h-16v1.613l-5.2-1.733-5.151 4.12h-6.833c-.414-1.161-1.514-2-2.816-2h-6v-12h48v44zm.382-28h9c.552 0 1 .449 1 1s-.448 1-1 1h-9zm19 0v-4h12v4zm4 14v-4h12v4zm12 6v4h-12v-4zm6-39c0 .551-.448 1-1 1h-50c-.552 0-1-.449-1-1v-2c0-.551.448-1 1-1h50c.552 0 1 .449 1 1z"/><path d="m31 49h2v2h-2z"/><path d="m35 49h2v2h-2z"/><path d="m27 49h2v2h-2z"/><path d="m23 49h2v2h-2z"/><path d="m23 45h14v2h-14z"/><path d="m23 41h14v2h-14z"/><path d="m23 37h14v2h-14z"/><path d="m13 11h14v2h-14z"/><path d="m17 15h2v2h-2z"/><path d="m25 15h2v2h-2z"/><path d="m21 15h2v2h-2z"/><path d="m13 15h2v2h-2z"/></g></svg>