<svg id="Layer_5" enable-background="new 0 0 64 64" height="512" viewBox="0 0 64 64" width="512" xmlns="http://www.w3.org/2000/svg"><g><path d="m59.972 34.768-3.079-8.006c.697-1.087 1.107-2.377 1.107-3.762 0-3.859-3.14-7-7-7-.1 0-.198.011-.297.015.195-.649.297-1.326.297-2.015v-4c0-3.859-3.14-7-7-7h-18c-3.86 0-7 3.141-7 7v4c0 .874.168 1.707.462 2.479-.794.31-1.511.762-2.129 1.319l-2.92-1.835.64-.548-1.178-10.591-1.958.356c-.394-2.366-2.441-4.18-4.917-4.18-2.757 0-5 2.243-5 5 0 .328.037.65.099.965l-1.174.214.079.907c.032.373.84 9.173 5.289 13.621l.655.655 2.272-1.947 5.822 3.316c.294 2.844 2.285 5.216 5.032 5.997l3.098 16.272h1.918c-.716 1.56-1.09 3.26-1.09 5 0 6.617 5.383 12 12 12s12-5.383 12-12c0-1.74-.374-3.44-1.09-5h.191c.465 2.279 2.484 4 4.899 4 1.428 0 2.769-.622 3.707-1.66l1.486.991.575-.689c.214-.258 5.232-6.352 5.232-12.642v-.896zm-38.877-10.364 4.294-3.435c.202.018.405.031.611.031h18c.102 0 .201-.023.302-.027-.195.642-.302 1.322-.302 2.027 0 3.142 2.082 5.807 4.939 6.689l-.692 8.311h-24.562zm29.241 12.605.584-7.013c.027 0 .053.004.08.004.235 0 .466-.013.695-.035l1.561 4.057-.728-.081zm5.158-2.738-1.844-4.795c.634-.26 1.221-.61 1.745-1.035l2.338 6.079zm.506-11.271c0 2.757-2.243 5-5 5s-5-2.243-5-5 2.243-5 5-5 5 2.243 5 5zm-35-13c0-2.757 2.243-5 5-5h18c2.757 0 5 2.243 5 5v4c0 .906-.253 1.777-.712 2.547-1.137.479-2.115 1.255-2.853 2.224-.465.14-.943.229-1.435.229h-18c-2.757 0-5-2.243-5-5zm-17-4c0-1.654 1.346-3 3-3 1.496 0 2.729 1.104 2.953 2.537l-5.885 1.07c-.041-.198-.068-.4-.068-.607zm.178 7.706 4.535-1.681-.695-1.875-4.358 1.615c-.282-1.206-.456-2.255-.553-2.95l9.019-1.64.155 1.396-2.497.925.695 1.875 2.028-.751.441 3.965-5.86 5.022c-1.362-1.661-2.288-3.859-2.91-5.901zm8.644 3.62 3.227 2.028c-.405.659-.698 1.384-.868 2.154l-4.348-2.476zm4.178 5.674c0-2.177 1.429-4.078 3.459-4.739.672.871 1.542 1.578 2.544 2.056l-4.099 3.279.723 3.797c-1.58-.851-2.627-2.507-2.627-4.393zm7.066 17h24.014l-.016.189-1.478 2.07.913.609c-.172.362-.31.738-.39 1.132h-22.281zm21.934 11c0 5.514-4.486 10-10 10s-10-4.486-10-10c0-1.771.485-3.482 1.365-5h8.635 8.635c.88 1.518 1.365 3.229 1.365 5zm6-3c-1.654 0-3-1.346-3-3 0-.348.064-.69.18-1.012l4.828 3.219c-.545.494-1.253.793-2.008.793zm7.462-5.889-4.185-1.86-.813 1.828 4.083 1.815c-.668 1.185-1.328 2.148-1.772 2.755l-7.362-4.907 1.034-1.448 2.122.943.813-1.828-1.747-.776 1.838-2.573 7.488.832c-.156 1.822-.767 3.63-1.499 5.219z"/><path d="m29 15c2.206 0 4-1.794 4-4s-1.794-4-4-4-4 1.794-4 4 1.794 4 4 4zm0-6c1.103 0 2 .897 2 2s-.897 2-2 2-2-.897-2-2 .897-2 2-2z"/><path d="m41 15c2.206 0 4-1.794 4-4s-1.794-4-4-4-4 1.794-4 4 1.794 4 4 4zm0-6c1.103 0 2 .897 2 2s-.897 2-2 2-2-.897-2-2 .897-2 2-2z"/><path d="m38 24h-8c-1.654 0-3 1.346-3 3s1.346 3 3 3h8c1.654 0 3-1.346 3-3s-1.346-3-3-3zm0 4h-8c-.551 0-1-.448-1-1s.449-1 1-1h8c.551 0 1 .448 1 1s-.449 1-1 1z"/><path d="m29 32h2v2h-2z"/><path d="m33 32h2v2h-2z"/><path d="m37 32h2v2h-2z"/><path d="m31 51c0 2.757 2.243 5 5 5s5-2.243 5-5-2.243-5-5-5-5 2.243-5 5zm5-3c1.654 0 3 1.346 3 3s-1.346 3-3 3-3-1.346-3-3 1.346-3 3-3z"/></g></svg>