<svg id="Layer_5" enable-background="new 0 0 64 64" height="512" viewBox="0 0 64 64" width="512" xmlns="http://www.w3.org/2000/svg"><g><path d="m36 15c1.654 0 3-1.346 3-3v-5c0-1.103-.897-2-2-2h-10c-1.103 0-2 .897-2 2v5c0 1.654 1.346 3 3 3zm-9-3v-5h10v5c0 .552-.448 1-1 1h-8c-.552 0-1-.448-1-1z"/><path d="m38 25h-12c-1.103 0-2 .897-2 2v6c0 1.103.897 2 2 2h12c1.103 0 2-.897 2-2v-6c0-1.103-.897-2-2-2zm-12 8v-6h12l.002 6z"/><path d="m28 29h8v2h-8z"/><path d="m37 37h2v2h-2z"/><path d="m25 37h2v2h-2z"/><path d="m33 37h2v2h-2z"/><path d="m29 37h2v2h-2z"/><path d="m49 5h10v2h-10z"/><path d="m49 9h2v2h-2z"/><path d="m53 9h2v2h-2z"/><path d="m57 9h2v2h-2z"/><path d="m8 49c-3.859 0-7 3.141-7 7s3.141 7 7 7 7-3.141 7-7-3.141-7-7-7zm-5 7c0-2.414 1.721-4.434 4-4.899v5.313l3.753 3.753c-.791.524-1.736.833-2.753.833-2.757 0-5-2.243-5-5zm9.167 2.753-3.167-3.167v-4.485c2.279.465 4 2.484 4 4.899 0 1.017-.309 1.962-.833 2.753z"/><path d="m61 61h-2v-8h-2v8h-2v-4h-2v4h-2v-6h-2v6h-2v2h16v-12h-2z"/><path d="m60 1h-12c-1.654 0-3 1.346-3 3v8c0 1.654 1.346 3 3 3h5v2.586l-5.414 5.414h-4.612c-.914-1.207-2.348-2-3.974-2h-2v-2.08c3.386-.488 6-3.401 6-6.92v-6c0-2.757-2.243-5-5-5h-12c-2.757 0-5 2.243-5 5v6c0 3.519 2.614 6.432 6 6.92v2.08h-2c-1.627 0-3.061.793-3.974 2h-4.612l-5.414-5.414v-2.586h5c1.654 0 3-1.346 3-3v-8c0-1.654-1.346-3-3-3h-12c-1.654 0-3 1.346-3 3v8c0 1.654 1.346 3 3 3h5v3.414l4.76 4.76c-2.155.556-3.76 2.5-3.76 4.826 0 1.627.793 3.061 2 3.974v12.408c-.615.703-1 1.612-1 2.618v.236l1.105 2.211 1.789-.895-.883-1.767c.107-1.001.959-1.785 1.989-1.785s1.882.784 1.988 1.786l-.883 1.767 1.789.895 1.106-2.212v-.236c0-1.006-.385-1.915-1-2.618v-11.382h2v5c0 2.372 1.189 4.469 3 5.736v12.804c-1.224 1.099-2 2.688-2 4.46v2h10 2 10v-2c0-1.771-.776-3.36-2-4.46v-12.804c1.811-1.267 3-3.364 3-5.736v-5h2v11.382c-.615.703-1 1.612-1 2.618v.236l1.105 2.211 1.789-.895-.883-1.767c.107-1.001.959-1.785 1.989-1.785s1.882.784 1.988 1.786l-.883 1.767 1.789.895 1.106-2.212v-.236c0-1.006-.385-1.915-1-2.618v-12.408c1.207-.914 2-2.348 2-3.974 0-2.326-1.605-4.27-3.76-4.826l4.76-4.76v-3.414h5c1.654 0 3-1.346 3-3v-8c0-1.654-1.346-3-3-3zm-57 11v-8c0-.552.448-1 1-1h12c.552 0 1 .448 1 1v8c0 .552-.448 1-1 1h-12c-.552 0-1-.448-1-1zm20 0v-6c0-1.654 1.346-3 3-3h12c1.654 0 3 1.346 3 3v6c0 2.757-2.243 5-5 5h-8c-2.757 0-5-2.243-5-5zm6 7h6v2h-6zm-13 24.142c-.322-.084-.653-.142-1-.142s-.678.058-1 .142v-10.243c.323.066.658.101 1 .101h1zm-1-12.142c-1.654 0-3-1.346-3-3s1.346-3 3-3h5.101c-.066.323-.101.658-.101 1v5zm10 13.705c.634.19 1.305.295 2 .295h2v10.35c-.627-.222-1.298-.35-2-.35s-1.373.128-2 .35zm7 12.985c-.283-.426-.621-.81-1-1.15v-11.54h2v11.54c-.379.341-.717.725-1 1.15zm-9 3.31c0-2.206 1.794-4 4-4s4 1.794 4 4zm10 0c0-2.206 1.794-4 4-4s4 1.794 4 4zm6-5.65c-.627-.222-1.298-.35-2-.35s-1.373.128-2 .35v-10.35h2c.695 0 1.366-.105 2-.295zm3-17.35c0 2.757-2.243 5-5 5h-10c-2.757 0-5-2.243-5-5v-12c0-1.654 1.346-3 3-3h14c1.654 0 3 1.346 3 3zm8 5.142c-.322-.084-.653-.142-1-.142s-.678.058-1 .142v-10.142h1c.342 0 .677-.035 1-.101zm2-15.142c0 1.654-1.346 3-3 3h-5v-5c0-.342-.035-.677-.101-1h5.101c1.654 0 3 1.346 3 3zm9-16c0 .552-.448 1-1 1h-12c-.552 0-1-.448-1-1v-8c0-.552.448-1 1-1h12c.552 0 1 .448 1 1z"/><path d="m5 5h10v2h-10z"/><path d="m5 9h2v2h-2z"/><path d="m13 9h2v2h-2z"/><path d="m9 9h2v2h-2z"/></g></svg>