<svg id="Layer_5" enable-background="new 0 0 64 64" height="512" viewBox="0 0 64 64" width="512" xmlns="http://www.w3.org/2000/svg"><g><path d="m60 35c1.654 0 3-1.346 3-3v-24c0-1.654-1.346-3-3-3h-1v-1c0-1.654-1.346-3-3-3h-6c-1.654 0-3 1.346-3 3v1h-1c-1.654 0-3 1.346-3 3v24c0 1.654 1.346 3 3 3h6v8c0 2.206 1.794 4 4 4h3c1.103 0 2 .897 2 2s-.897 2-2 2h-6c-2.206 0-4 1.794-4 4 0 1.103-.897 2-2 2h-8.101c-.465-2.279-2.484-4-4.899-4h-7v-8.111c.214-.219.41-.454.594-.7.681.521 1.517.811 2.406.811 2.206 0 4-1.794 4-4 0-1.005-.385-1.914-1-2.618v-5.382h2v-5c0-2.757-2.243-5-5-5h-2.026c-.914-1.207-2.348-2-3.974-2h-.219l-.5-2h.719c2.414 0 4.434-1.721 4.899-4h1.101c1.654 0 3-1.346 3-3v-2c0-1.302-.839-2.402-2-2.816v-4.184h-2v4h-.525c-1.24-3.49-4.566-6-8.475-6s-7.235 2.51-8.475 6h-.525v-4h-2v4.184c-1.161.414-2 1.514-2 2.816v2c0 1.654 1.346 3 3 3h1.101c.465 2.279 2.484 4 4.899 4h.719l-.5 2h-.219c-1.627 0-3.061.793-3.974 2h-2.026c-2.757 0-5 2.243-5 5v5h2v5.382c-.615.704-1 1.613-1 2.618 0 2.206 1.794 4 4 4 .889 0 1.725-.29 2.406-.81.184.245.38.481.594.7v8.11h-7c-2.757 0-5 2.243-5 5v5h38v-4h8c2.206 0 4-1.794 4-4 0-1.103.897-2 2-2h6c2.206 0 4-1.794 4-4s-1.794-4-4-4h-3c-1.103 0-2-.897-2-2v-8zm-30-26c.551 0 1 .448 1 1v2c0 .552-.449 1-1 1h-1v-3c0-.338-.022-.671-.059-1zm-21 3v-2c0-.552.449-1 1-1h1.059c-.037.329-.059.662-.059 1v3h-1c-.551 0-1-.448-1-1zm12 41v-6h1c1.075 0 2.089-.251 3-.685v6.685zm-8-13c0-.336.045-.669.113-.998 1.262 1.234 2.986 1.998 4.887 1.998h4c1.901 0 3.625-.764 4.887-1.998.068.328.113.661.113.998 0 2.757-2.243 5-5 5h-4c-2.757 0-5-2.243-5-5zm17 3c-.549 0-1.054-.23-1.425-.621.27-.744.425-1.543.425-2.379 0-.234-.023-.466-.046-.699.312-.193.67-.301 1.046-.301 1.103 0 2 .897 2 2s-.897 2-2 2zm1-5.858c-.322-.084-.653-.142-1-.142-.539 0-1.06.107-1.543.308-.043-.102-.1-.198-.148-.298.438-.913.691-1.931.691-3.01v-1h2zm-1-12.142c1.654 0 3 1.346 3 3v3h-4v-5c0-.342-.035-.677-.101-1zm-13-2h6v7c0 1.654-1.346 3-3 3s-3-1.346-3-3zm.281-6 .5-2h4.438l.5 2zm4.69-13.713c-.141.966-.966 1.713-1.971 1.713s-1.83-.747-1.971-1.713c.626-.184 1.286-.287 1.971-.287s1.345.103 1.971.287zm-8.971 10.713v-4c0-2.452 1.27-4.611 3.185-5.861.494 1.649 2.008 2.861 3.815 2.861s3.321-1.212 3.815-2.861c1.915 1.25 3.185 3.409 3.185 5.861v4c0 1.392-.958 2.556-2.246 2.892l-.973-3.892h-7.562l-.973 3.892c-1.288-.336-2.246-1.5-2.246-2.892zm5.781 5h2.438l.5 2h-3.438zm-5.781 7c0-1.302.839-2.402 2-2.816v6.816c0 2.757 2.243 5 5 5s5-2.243 5-5v-6.816c1.161.414 2 1.514 2 2.816v8c0 2.757-2.243 5-5 5h-4c-2.757 0-5-2.243-5-5zm-6 2c0-1.654 1.346-3 3-3h1.101c-.066.323-.101.658-.101 1v5h-4zm4 5v1c0 1.079.253 2.097.69 3.011-.047.1-.105.196-.147.298-.482-.202-1.004-.309-1.543-.309-.347 0-.678.058-1 .142v-4.142zm-1 10c-1.103 0-2-.897-2-2s.897-2 2-2c.376 0 .734.109 1.046.301-.023.233-.046.465-.046.699 0 .836.155 1.635.425 2.379-.371.391-.876.621-1.425.621zm5 3.315c.911.434 1.925.685 3 .685h1v6h-4zm22 14.685h-34v-3c0-1.654 1.346-3 3-3h28c1.654 0 3 1.346 3 3zm12-57c0-.552.449-1 1-1h6c.551 0 1 .448 1 1v1h-8zm-4 28v-24c0-.552.449-1 1-1h14c.551 0 1 .448 1 1v24c0 .552-.449 1-1 1h-14c-.551 0-1-.448-1-1z"/><path d="m55.387 15 2-6h-7.064l-4.8 12h6.133l-2.036 6.785c-.229.764-.087 1.568.389 2.208s1.206 1.007 2.004 1.007c1 0 1.9-.594 2.295-1.513l6.209-14.487zm-2.917 13.698c-.079.184-.258.302-.457.302-.218 0-.344-.126-.399-.2-.056-.075-.14-.231-.077-.44l2.807-9.36h-5.867l3.2-8h2.936l-2 6h4.871z"/><path d="m23 8h2v2h-2z"/><path d="m15 8h2v2h-2z"/><path d="m23 57h2v2h-2z"/><path d="m19 57h2v2h-2z"/><path d="m27 57h2v2h-2z"/><path d="m15 57h2v2h-2z"/><path d="m11 57h2v2h-2z"/><path d="m19 25h2v2h-2z"/><path d="m19 29h2v2h-2z"/></g></svg>