<svg id="Layer_5" enable-background="new 0 0 64 64" height="512" viewBox="0 0 64 64" width="512" xmlns="http://www.w3.org/2000/svg"><g><path d="m58 27h-1v-3.303l-.168-.252c-1.199-1.798-1.832-3.889-1.832-6.05v-13.395c0-1.654-1.346-3-3-3s-3 1.346-3 3v13.395c0 2.161-.633 4.253-1.832 6.051l-.168.251v3.303h-30v-3.303l-.168-.252c-1.199-1.798-1.832-3.889-1.832-6.05v-13.395c0-1.654-1.346-3-3-3s-3 1.346-3 3v13.395c0 2.161-.633 4.253-1.832 6.051l-.168.251v3.303h-1c-2.757 0-5 2.243-5 5v26c0 2.757 2.243 5 5 5h52c2.757 0 5-2.243 5-5v-26c0-2.757-2.243-5-5-5zm-7-9.605v-13.395c0-.552.449-1 1-1s1 .448 1 1v13.395c0 1.957.446 3.864 1.288 5.605h-4.576c.842-1.742 1.288-3.649 1.288-5.605zm-2 7.605h6v2h-6zm-5.618 4-1 2h-20.764l-1-2zm-32.382-11.605v-13.395c0-.552.449-1 1-1s1 .448 1 1v13.395c0 1.957.446 3.864 1.288 5.605h-4.576c.842-1.742 1.288-3.649 1.288-5.605zm-2 7.605h6v2h-6zm-3 4h12.382l2 4h23.236l2-4h12.382c1.654 0 3 1.346 3 3v25h-58v-25c0-1.654 1.346-3 3-3zm52 32h-52c-1.302 0-2.402-.839-2.816-2h57.631c-.413 1.161-1.513 2-2.815 2z"/><path d="m50 55c5.131 0 9-2.149 9-5 0-2.204-2.377-4.042-6-4.721v-1.304c1.207-.914 2-2.348 2-3.974 0-2.757-2.243-5-5-5s-5 2.243-5 5c0 1.627.793 3.061 2 3.974v1.304c-3.623.679-6 2.517-6 4.721 0 2.851 3.869 5 9 5zm0-18c1.654 0 3 1.346 3 3s-1.346 3-3 3-3-1.346-3-3 1.346-3 3-3zm0 8c.342 0 .677-.035 1-.101v4.101h-2v-4.101c.323.066.658.101 1 .101zm-3 2.318v3.682h6v-3.682c2.526.554 4 1.727 4 2.682 0 1.416-2.994 3-7 3s-7-1.584-7-3c0-.954 1.474-2.128 4-2.682z"/><path d="m14 55c5.131 0 9-2.149 9-5 0-2.204-2.377-4.042-6-4.721v-1.304c1.207-.914 2-2.348 2-3.974 0-2.757-2.243-5-5-5s-5 2.243-5 5c0 1.627.793 3.061 2 3.974v1.304c-3.623.679-6 2.517-6 4.721 0 2.851 3.869 5 9 5zm0-18c1.654 0 3 1.346 3 3s-1.346 3-3 3-3-1.346-3-3 1.346-3 3-3zm0 8c.342 0 .677-.035 1-.101v4.101h-2v-4.101c.323.066.658.101 1 .101zm-3 2.318v3.682h6v-3.682c2.526.554 4 1.727 4 2.682 0 1.416-2.994 3-7 3s-7-1.584-7-3c0-.954 1.474-2.128 4-2.682z"/><path d="m40 35h-16v10h16zm-2 8h-12v-6h12z"/><path d="m28 49c-1.654 0-3 1.346-3 3s1.346 3 3 3 3-1.346 3-3-1.346-3-3-3zm0 4c-.551 0-1-.448-1-1s.449-1 1-1 1 .448 1 1-.449 1-1 1z"/><path d="m36 49c-1.654 0-3 1.346-3 3s1.346 3 3 3 3-1.346 3-3-1.346-3-3-3zm0 4c-.551 0-1-.448-1-1s.449-1 1-1 1 .448 1 1-.449 1-1 1z"/><path d="m27.757 23.758 1.414 1.414c1.512-1.512 4.146-1.512 5.657 0l1.414-1.414c-1.133-1.134-2.639-1.758-4.242-1.758s-3.109.624-4.243 1.758z"/><path d="m39.071 20.929c-3.898-3.898-10.243-3.898-14.142 0l1.414 1.414c3.119-3.119 8.194-3.119 11.313 0z"/><path d="m32 16c3.206 0 6.219 1.248 8.485 3.515l1.414-1.414c-2.644-2.645-6.159-4.101-9.899-4.101s-7.255 1.456-9.899 4.101l1.414 1.414c2.266-2.267 5.279-3.515 8.485-3.515z"/><path d="m57 31h2v2h-2z"/><path d="m53 31h2v2h-2z"/><path d="m5 31h2v2h-2z"/><path d="m9 31h2v2h-2z"/></g></svg>