<svg id="Layer_5" enable-background="new 0 0 64 64" height="512" viewBox="0 0 64 64" width="512" xmlns="http://www.w3.org/2000/svg"><g><path d="m63 26.95c0-3.281-2.669-5.95-5.95-5.95-.711 0-1.401.131-2.05.369v-17.369c0-1.654-1.346-3-3-3h-41.172c-.801 0-1.555.313-2.121.879l-6.828 6.828c-.567.566-.879 1.32-.879 2.121v49.172c0 1.654 1.346 3 3 3h48c1.654 0 3-1.346 3-3v-22.586l6.257-6.257c1.124-1.124 1.743-2.618 1.743-4.207zm-54-22.536v4.586h-4.586zm44 55.586c0 .552-.448 1-1 1h-48c-.552 0-1-.448-1-1v-49h8v-8h41c.552 0 1 .448 1 1v18.601c-.052.048-.107.092-.157.143l-11.843 11.842v-.586c0-2.757-2.243-5-5-5h-2.671c-1.139-1.227-2.76-2-4.562-2h-.767v-2h2c2.757 0 5-2.243 5-5v-3c0-6.617-5.383-12-12-12s-12 5.383-12 12v3c0 2.757 2.243 5 5 5h2v2h-.768c-1.802 0-3.423.773-4.562 2h-2.67c-2.757 0-5 2.243-5 5v5h2v6h7.256.744 15.586l-3.477 3.477-2.004 7.013c-.07.245-.105.5-.105.757 0 1.518 1.235 2.753 2.754 2.753.257 0 .512-.035.757-.105l7.013-2.004 17.476-17.477zm-24.505-9.091 4.596 4.596-5.129 1.466c-.465.135-.962-.239-.962-.725 0-.07.01-.141.029-.208zm6.505 3.677-2.086-2.086 21.586-21.586 2.086 2.086zm-3.5-3.5-2.086-2.086 21.586-21.586 2.086 2.086zm-20.237-16.064.593 1.978h-4.856v-3c0-1.654 1.346-3 3-3h1.42c-.267.694-.42 1.445-.42 2.232 0 .608.089 1.21.263 1.79zm-2.263 3.978h3.456l1.2 4h-4.656zm4.179-4.553c-.119-.393-.179-.802-.179-1.215 0-2.334 1.898-4.232 4.232-4.232h11.535c2.335 0 4.233 1.898 4.233 4.232 0 .412-.06.821-.179 1.216l-2.565 8.552h-14.512zm5.821-26.606c1.226-.538 2.578-.841 4-.841s2.774.303 4 .841v1.159h-8zm-1.998 1.177c.01 1.094.902 1.982 1.998 1.982h8c1.096 0 1.988-.888 1.998-1.982 2.425 1.826 4.002 4.72 4.002 7.982v3c0 1.654-1.346 3-3 3h-14c-1.654 0-3-1.346-3-3v-3c0-3.262 1.577-6.156 4.002-7.982zm8.998 15.982v2h-6v-2zm13 11.586-.414.414h-4.442l.593-1.977c.174-.581.263-1.183.263-1.791 0-.787-.153-1.538-.42-2.232h1.42c1.654 0 3 1.346 3 3zm-5.456 2.414h3.042l-4.345 4.345zm26.299-9.257-1.843 1.843-5.586-5.586 1.843-1.843c.746-.746 1.738-1.157 2.793-1.157 2.178 0 3.95 1.772 3.95 3.95 0 1.055-.411 2.047-1.157 2.793z"/><path d="m28 19c1.654 0 3-1.346 3-3s-1.346-3-3-3-3 1.346-3 3 1.346 3 3 3zm0-4c.552 0 1 .448 1 1s-.448 1-1 1-1-.448-1-1 .448-1 1-1z"/><path d="m15 16c0 1.654 1.346 3 3 3s3-1.346 3-3-1.346-3-3-3-3 1.346-3 3zm3-1c.552 0 1 .448 1 1s-.448 1-1 1-1-.448-1-1 .448-1 1-1z"/><path d="m19 41h8c1.103 0 2-.897 2-2v-6c0-1.103-.897-2-2-2h-8c-1.103 0-2 .897-2 2v6c0 1.103.897 2 2 2zm0-8h8l.002 6h-8.002z"/><path d="m22 57h2v2h-2z"/><path d="m5 57h15v2h-15z"/><path d="m5 53h19v2h-19z"/><path d="m51 5h-14v18h14zm-2 16h-10v-14h10z"/><path d="m41 9h6v2h-6z"/><path d="m41 13h6v2h-6z"/><path d="m41 17h6v2h-6z"/></g></svg>