<svg id="Layer_5" enable-background="new 0 0 64 64" height="512" viewBox="0 0 64 64" width="512" xmlns="http://www.w3.org/2000/svg"><g><path d="m60 1h-56c-1.654 0-3 1.346-3 3v56c0 1.654 1.346 3 3 3h56c1.654 0 3-1.346 3-3v-56c0-1.654-1.346-3-3-3zm1 3v13h-28v-14h27c.552 0 1 .448 1 1zm-24 33v12h-4v-4h-10v4h-4v-4h-10v4h-6v-14h58v2zm-6 10v6h-6v-6zm-14 0v6h-6v-6zm16-14v-14h28v14zm-29-30h27v30h-28v-29c0-.552.448-1 1-1zm-1 57v-9h6v4h10v-4h4v4h10v-4h4v10h-33c-.552 0-1-.448-1-1zm57 1h-21v-22h22v21c0 .552-.448 1-1 1z"/><path d="m50 41c-4.963 0-9 4.037-9 9s4.037 9 9 9 9-4.037 9-9-4.037-9-9-9zm6.92 8h-4.104c-.302-.847-.969-1.514-1.816-1.816v-4.104c3.059.441 5.479 2.861 5.92 5.92zm-6.92 2c-.552 0-1-.448-1-1s.448-1 1-1 1 .448 1 1-.448 1-1 1zm-1-7.92v4.104c-.847.302-1.514.969-1.816 1.816h-4.104c.441-3.059 2.861-5.479 5.92-5.92zm-5.92 7.92h4.104c.302.847.969 1.514 1.816 1.816v4.104c-3.059-.441-5.479-2.861-5.92-5.92zm7.92 5.92v-4.104c.847-.302 1.514-.969 1.816-1.816h4.104c-.441 3.059-2.861 5.479-5.92 5.92z"/><circle cx="28" cy="50" r="1"/><circle cx="14" cy="50" r="1"/><path d="m17 29c5.514 0 10-4.935 10-11s-4.486-11-10-11-10 4.935-10 11 4.486 11 10 11zm-3.831-3.102 1.449-2.898h4.764l1.449 2.898c-1.139.702-2.444 1.102-3.831 1.102s-2.692-.4-3.831-1.102zm11.831-7.898c0 2.61-.999 4.956-2.581 6.602l-1.801-3.602h-2.618v-11.922c3.94.556 7 4.341 7 8.922zm-9-8.922v11.922h-2.618l-1.801 3.602c-1.582-1.646-2.581-3.992-2.581-6.602 0-4.581 3.06-8.366 7-8.922z"/><circle cx="21" cy="15" r="1"/><circle cx="13" cy="15" r="1"/><circle cx="6" cy="6" r="1"/><circle cx="28" cy="6" r="1"/><circle cx="6" cy="30" r="1"/><circle cx="28" cy="30" r="1"/><path d="m40 15c1.563 0 3.04-.754 3.979-2h6.041c.939 1.246 2.416 2 3.979 2 2.757 0 5-2.243 5-5s-2.243-5-5-5c-1.563 0-3.04.754-3.979 2h-6.041c-.939-1.246-2.416-2-3.979-2-2.757 0-5 2.243-5 5s2.243 5 5 5zm0-8c1.068 0 2.033.562 2.581 1.503l.289.497h8.26l.289-.497c.548-.941 1.513-1.503 2.581-1.503 1.654 0 3 1.346 3 3s-1.346 3-3 3c-1.068 0-2.033-.562-2.581-1.503l-.289-.497h-8.26l-.289.497c-.548.941-1.513 1.503-2.581 1.503-1.654 0-3-1.346-3-3s1.346-3 3-3z"/><path d="m39 21h-2v6h-2v2h2v2h2v-2h2v-2h-2z"/><path d="m47 21h-2v2h-2v2h2v6h2v-6h2v-2h-2z"/><path d="m57 27h-2v-6h-2v6h-2v2h2v2h2v-2h2z"/></g></svg>