<svg id="Layer_5" enable-background="new 0 0 64 64" height="512" viewBox="0 0 64 64" width="512" xmlns="http://www.w3.org/2000/svg"><g><path d="m58 35c1.654 0 3-1.346 3-3v-5h2v-3c0-2.757-2.243-5-5-5h-2.026c-.287-.379-.624-.716-1.005-1 .97-.722 1.68-1.774 1.93-3h.101c2.206 0 4-1.794 4-4s-1.794-4-4-4h-.525c-1.239-3.49-4.565-6-8.475-6s-7.236 2.51-8.475 6h-.525c-2.206 0-4 1.794-4 4s1.794 4 4 4h.101c.25 1.226.96 2.278 1.93 3-.382.284-.718.621-1.005 1h-2.026c-2.757 0-5 2.243-5 5v3h2v5c0 1.654 1.346 3 3 3h3.111c.096.094.198.183.299.272-.258.537-.41 1.123-.41 1.728v10h-2v-2h-6v18h6v-2h18v2h6v-18h-6v2h-2v-10c0-.605-.151-1.191-.41-1.728.102-.089.203-.178.299-.272zm-1-26c1.103 0 2 .897 2 2s-.897 2-2 2v-3c0-.338-.022-.671-.059-1zm-20 2c0-1.103.897-2 2-2h.059c-.037.329-.059.662-.059 1v3c-1.103 0-2-.897-2-2zm22 21c0 .552-.448 1-1 1h-1.685c.434-.911.685-1.926.685-3v-3h2zm-1-11c1.654 0 3 1.346 3 3v1h-4v-3c0-.342-.035-.677-.101-1zm-7.781-6 .501 2h-5.439l.501-2zm-5.219 4h6v7c0 1.654-1.346 3-3 3s-3-1.346-3-3zm10-9v4c0 1.393-.958 2.556-2.246 2.892l-.973-3.892h-2.781v-6.142c1.352-.351 2.416-1.387 2.815-2.719 1.915 1.25 3.185 3.409 3.185 5.861zm-5.029-6.713c-.141.966-.967 1.713-1.971 1.713s-1.83-.747-1.971-1.713c.626-.184 1.286-.287 1.971-.287s1.345.103 1.971.287zm-8.971 6.713c0-2.452 1.271-4.611 3.185-5.861.399 1.332 1.463 2.368 2.815 2.719v6.142h-2.781l-.972 3.892c-1.289-.336-2.247-1.499-2.247-2.892zm0 12c0-1.302.839-2.402 2-2.816v6.816c0 2.757 2.243 5 5 5s5-2.243 5-5v-6.816c1.161.414 2 1.514 2 2.816v8c0 2.757-2.243 5-5 5h-4c-2.757 0-5-2.243-5-5zm6 17c-.552 0-1-.448-1-1v-1h4v1c0 .552-.448 1-1 1zm-12-15c0-1.654 1.346-3 3-3h1.101c-.066.323-.101.658-.101 1v3h-4zm2 8v-5h2v3c0 1.074.251 2.089.685 3h-1.685c-.552 0-1-.448-1-1zm6 5c0-.218.04-.43.108-.633.288.131.585.246.892.338v1.295c0 1.654 1.346 3 3 3v6h-4zm-4 16h18v2h-18zm-2 8h-2v-14h2zm2-2v-2h18v2zm20-12h2v14h-2zm-2 4h-18v-2h18zm-4-14v10h-4v-6c1.654 0 3-1.346 3-3v-1.295c.307-.092.604-.207.892-.338.068.203.108.415.108.633z"/><path d="m26 19h-3.111c-.203-.199-.421-.382-.648-.555 1.342-.68 2.348-1.93 2.657-3.445h.102c2.206 0 4-1.794 4-4s-1.794-4-4-4h-.525c-1.239-3.49-4.565-6-8.475-6s-7.236 2.51-8.475 6h-.525c-2.206 0-4 1.794-4 4s1.794 4 4 4h.101c.309 1.515 1.315 2.765 2.657 3.445-.226.173-.444.356-.647.555h-3.111c-2.757 0-5 2.243-5 5v3h2v7c0 1.654 1.346 3 3 3h1.08c.216 1.502.906 2.852 1.92 3.889v6.111h-2v-2h-6v18h6v-2h18v2h6v-18h-6v2h-2v-6.111c1.014-1.037 1.704-2.387 1.92-3.889h1.08c1.654 0 3-1.346 3-3v-7h2v-3c0-2.757-2.243-5-5-5zm-1-10c1.103 0 2 .897 2 2s-.897 2-2 2v-3c0-.338-.022-.671-.059-1zm-20 2c0-1.103.897-2 2-2h.059c-.037.329-.059.662-.059 1v3c-1.103 0-2-.897-2-2zm4 19v-6c0-2.757 2.243-5 5-5h4c2.757 0 5 2.243 5 5v6c0 2.757-2.243 5-5 5h-4c-2.757 0-5-2.243-5-5zm9-15v2h-4v-2zm5-5v4c0 1.654-1.346 3-3 3v-4h-3v-6.142c1.352-.351 2.416-1.387 2.815-2.719 1.915 1.25 3.185 3.409 3.185 5.861zm-5.029-6.713c-.141.966-.967 1.713-1.971 1.713s-1.83-.747-1.971-1.713c.626-.184 1.286-.287 1.971-.287s1.345.103 1.971.287zm-8.971 6.713c0-2.452 1.271-4.611 3.185-5.861.399 1.332 1.463 2.368 2.815 2.719v6.142h-3v4c-1.654 0-3-1.346-3-3zm-6 14c0-1.654 1.346-3 3-3h1.685c-.434.911-.685 1.926-.685 3v1h-4zm2 10v-7h2v3c0 1.079.253 2.097.69 3.011-.3.632-.512 1.3-.613 1.989h-1.077c-.552 0-1-.448-1-1zm6 8.315c.911.434 1.926.685 3 .685h1v4h-4zm-4 10.685h18v2h-18zm-2 8h-2v-14h2zm2-2v-2h18v2zm20-12h2v14h-2zm-2 4h-18v-2h18zm-8-4v-4h1c1.074 0 2.089-.251 3-.685v4.685zm1-6h-4c-2.757 0-5-2.243-5-5 0-.336.045-.67.113-.998 1.263 1.234 2.987 1.998 4.887 1.998h4c1.901 0 3.624-.764 4.887-1.998.068.328.113.662.113.998 0 2.757-2.243 5-5 5zm9-7c0 .552-.448 1-1 1h-1.078c-.101-.689-.312-1.357-.613-1.989.438-.914.691-1.932.691-3.011v-3h2zm2-9h-4v-1c0-1.074-.251-2.089-.685-3h1.685c1.654 0 3 1.346 3 3z"/><path d="m19 8h2v2h-2z"/><path d="m11 8h2v2h-2z"/><path d="m51 8h2v2h-2z"/><path d="m43 8h2v2h-2z"/><path d="m13 33h6c1.103 0 2-.897 2-2v-8c0-1.103-.897-2-2-2h-6c-1.103 0-2 .897-2 2v8c0 1.103.897 2 2 2zm0-10h6l.002 8h-6.002z"/><path d="m47 25h2v2h-2z"/><path d="m47 21h2v2h-2z"/></g></svg>