<svg id="Layer_5" enable-background="new 0 0 64 64" height="512" viewBox="0 0 64 64" width="512" xmlns="http://www.w3.org/2000/svg"><g><path d="m58 1h-51v9.552c-3.622 2.544-6 6.745-6 11.497 0 2.782.815 5.478 2.359 7.793l1.641 2.461v.697c0 1.654 1.346 3 3 3h1v5.616c-1.931 2.083-3 4.771-3 7.628 0 3.299.925 6.522 2.675 9.322 1.734 2.776 4.726 4.434 8 4.434h10.325c2.206 0 4-1.794 4-4s-1.794-4-4-4h-2.22l-1.124-4.498c-.492-1.971-1.512-3.771-2.949-5.209-.52-.52-1.101-.964-1.707-1.37v-.923h34v8h5c2.757 0 5-2.243 5-5v-40c0-2.757-2.243-5-5-5zm-21 8.051c5.598.507 10 5.221 10 10.949 0 .32-.022.654-.057 1h-2.002c.037-.329.059-.662.059-1 0-4.625-3.507-8.442-8-8.941zm-2 21.903c-2.244-.203-4.361-1.097-6.089-2.557-.045-.762-.112-1.614-.192-2.519.129-.032.256-.069.378-.118 1.489 1.783 3.599 2.921 5.903 3.178zm1-17.954c3.859 0 7 3.141 7 7s-3.141 7-7 7c-2.106 0-4.074-.95-5.399-2.559.247-.436.399-.931.399-1.466v-2.975-1.025c0-.945-.448-1.779-1.133-2.33 1.217-2.235 3.534-3.645 6.133-3.645zm-8 4.975c.552 0 1 .448 1 1v4c0 .552-.448 1-1 1h-6c-.552 0-1-.448-1-1v-4c0-.552.448-1 1-1zm9 10.966c3.47-.386 6.343-2.753 7.475-5.941h4.159c-1.293 5.454-6.036 9.524-11.634 9.961zm-2-17.866c-3.031.333-5.649 2.156-7.019 4.89-.584-1.387-1.391-2.64-2.376-3.717 2.249-3.024 5.653-4.923 9.395-5.21zm-9.22 4.9h-3.78c-1.302 0-2.402.839-2.816 2h-6.184v-.144c0-3.12 1.607-6.049 4.202-7.757 3.666.405 6.896 2.632 8.578 5.901zm-6.78 6h-6v-2h6zm-4 3.025v8c0 .552-.448 1-1 1h-1v-10h1c.552 0 1 .448 1 1zm-4-7.169v4.169h-2v-5c0-2.487 1.039-4.858 2.847-6.555.735-.203 1.495-.339 2.278-.399-1.969 2.078-3.125 4.866-3.125 7.785zm-8 4.218c0-4.059 2.023-7.648 5.108-9.832-.714 1.477-1.108 3.107-1.108 4.783v5.184c-1.161.414-2 1.514-2 2.816v3.694c-1.307-1.978-2-4.273-2-6.645zm4 10.951v-8c0-.552.448-1 1-1h3v10h-3c-.552 0-1-.448-1-1zm20 24c1.103 0 2 .897 2 2s-.897 2-2 2h-4v-4zm-5.284-6.014 1.003 4.014h-6.101l-2.724-5.447-1.789.895 2.724 5.446c.34.682 1.025 1.106 1.789 1.106h4.382v4h-4.325c-2.58 0-4.938-1.307-6.306-3.495-1.55-2.481-2.369-5.337-2.369-8.261 0-2.283.821-4.44 2.325-6.132l4.688 1.173c1.619.403 3.099 1.241 4.279 2.422s2.02 2.66 2.424 4.279zm-6.218-8.641-4.498-1.126v-5.219h3c1.654 0 3-1.346 3-3v-8c0-.362-.074-.704-.192-1.025h2.376c.414 1.161 1.514 2 2.816 2h4.721c.154 1.731.248 3.212.272 4.386l-1.993.995v.618c0 2.914-2.188 5.311-5.092 5.575l-4.999.454.182 1.992 1.909-.172v3.016c-.487-.198-.988-.366-1.502-.494zm45.502 3.655c0 1.654-1.346 3-3 3h-3v-38h3c1.125 0 2.164-.373 3-1.002zm-3-37h-5v32h-34v-1.359l1.09-.099c3.728-.34 6.588-3.271 6.885-6.937l2.025-1.012v-.618c0-.009-.001-.02-.001-.028 1.799 1.152 3.855 1.843 6.001 2.008v2.045h1c7.403 0 13.779-5.527 14.831-12.858l.163-1.142h-2.04c.029-.342.046-.675.046-1 0-6.83-5.299-12.435-12-12.949v-2.051h-1c-4.689 0-9.048 2.174-11.877 5.862-2.258-1.806-5.103-2.862-8.123-2.862h-.951c-2.168 0-4.214.508-6.049 1.388v-6.388h49c1.654 0 3 1.346 3 3s-1.346 3-3 3z"/><path d="m36 25c2.757 0 5-2.243 5-5s-2.243-5-5-5-5 2.243-5 5 2.243 5 5 5zm0-8c1.654 0 3 1.346 3 3s-1.346 3-3 3-3-1.346-3-3 1.346-3 3-3z"/></g></svg>