<svg id="Capa_1" enable-background="new 0 0 512 512" height="512" viewBox="0 0 512 512" width="512" xmlns="http://www.w3.org/2000/svg"><g><path d="m257.068 421.958c-.042-1.798-.161-3.599-.359-5.401-1.589-14.519-8.335-28.108-18.994-38.262-10.664-10.159-24.566-16.234-39.147-17.108-2.705-.162-5.387-.154-8.043.023-3.612-29.563-28.871-52.539-59.394-52.539-10.903 0-21.131 2.937-29.944 8.053v-189.87c0-21.171 17.224-38.394 38.394-38.394h20.746l-15.618 15.618 21.137 21.137 51.703-51.702-51.703-51.702-21.136 21.138 15.618 15.618h-20.747c-37.654 0-68.288 30.634-68.288 68.288v238.745c-39.486 1.022-71.293 33.459-71.293 73.187 0 40.37 32.843 73.213 73.213 73.213h176.264c25 0 45.338-20.339 45.338-45.339 0-22.413-16.349-41.08-37.747-44.703zm-7.592 60.149h-176.263c-23.886 0-43.32-19.433-43.32-43.32s19.433-43.32 43.32-43.32h27.974v-26.959c0-16.511 13.433-29.944 29.944-29.944s29.944 13.432 29.944 29.944v34.107l20.87-9.008c4.682-2.021 9.673-2.891 14.836-2.58 15.53.931 28.519 13.305 30.214 28.784.458 4.182.111 8.353-1.031 12.399l-5.365 19.007h28.878c8.516 0 15.445 6.929 15.445 15.445s-6.929 15.445-15.446 15.445z"/><path d="m440.636 56.926c-1.524-31.647-27.749-56.926-59.768-56.926-30.524 0-55.782 22.975-59.394 52.539-2.655-.177-5.338-.185-8.044-.023-14.58.874-28.482 6.949-39.146 17.108-10.659 10.154-17.405 23.743-18.993 38.261-.198 1.802-.317 3.604-.359 5.402-21.398 3.623-37.747 22.29-37.747 44.703 0 25 20.339 45.339 45.338 45.339h152.641v152.128c0 21.171-17.224 38.394-38.394 38.394h-20.746l15.618-15.618-21.137-21.137-51.702 51.702 51.702 51.702 21.137-21.137-15.618-15.618h20.746c37.654 0 68.287-30.634 68.287-68.288v-152.415c37.443-3.193 66.943-34.67 66.943-72.926 0-39.751-31.844-72.205-71.364-73.19zm-1.849 116.51h-176.264c-8.516 0-15.445-6.929-15.445-15.445s6.928-15.445 15.445-15.445h28.876l-5.363-19.006c-1.142-4.046-1.489-8.218-1.031-12.401 1.694-15.478 14.682-27.851 30.212-28.782 5.166-.308 10.155.56 14.836 2.58l20.871 9.009v-34.109c0-16.511 13.433-29.944 29.944-29.944s29.945 13.433 29.945 29.944v26.959h27.973c23.886 0 43.32 19.433 43.32 43.32.001 23.887-19.433 43.32-43.319 43.32z"/></g></svg>