<svg id="Capa_1" enable-background="new 0 0 512 512" height="512" viewBox="0 0 512 512" width="512" xmlns="http://www.w3.org/2000/svg"><g><path d="m423.265 271.223c6.22 17.817 23.184 30.639 43.095 30.639 25.166 0 45.64-20.474 45.64-45.64s-20.474-45.64-45.64-45.64c-19.912 0-36.875 12.822-43.095 30.639h-66.638v-28.921h47.567l29.896-50.584c8.265 8.272 19.681 13.396 32.27 13.396 25.166 0 45.64-20.474 45.64-45.64s-20.474-45.64-45.64-45.64c-23.655 0-43.161 18.091-45.418 41.163l-33.866 57.302h-30.449v-27.388h-27.157v-29.97l57.523-33.88c23.078-2.252 41.174-21.76 41.174-45.419 0-25.166-20.473-45.64-45.639-45.64s-45.64 20.474-45.64 45.64c0 12.574 5.112 23.976 13.365 32.239l-50.785 29.911v47.119h-28.245v-66.174c17.817-6.22 30.639-23.184 30.639-43.095 0-25.166-20.474-45.64-45.64-45.64s-45.64 20.474-45.64 45.64c0 19.912 12.822 36.875 30.639 43.095v66.174h-28.801v-47.112l-50.687-29.904c8.262-8.264 13.38-19.673 13.38-32.254 0-25.166-20.474-45.64-45.64-45.64s-45.639 20.474-45.639 45.64c0 23.657 18.093 43.164 41.168 45.418l57.417 33.873v29.977h-27.044v27.388h-30.449l-33.866-57.302c-2.257-23.072-21.763-41.163-45.418-41.163-25.168.002-45.642 20.476-45.642 45.642s20.474 45.64 45.64 45.64c12.59 0 24.005-5.124 32.271-13.396l29.896 50.584h47.567v28.478h-66.639c-6.22-17.817-23.184-30.639-43.095-30.639-25.166 0-45.64 20.474-45.64 45.64s20.474 45.64 45.64 45.64c19.912 0 36.875-12.822 43.095-30.639h66.638v28.573h-47.589l-29.92 50.885c-8.262-8.245-19.657-13.35-32.223-13.35-25.166 0-45.64 20.474-45.64 45.64s20.474 45.64 45.64 45.64c23.661 0 43.17-18.1 45.419-41.181l33.887-57.633h30.426v26.807h27.044v30.906l-57.417 33.874c-23.075 2.255-41.168 21.761-41.168 45.418 0 25.166 20.473 45.64 45.639 45.64s45.64-20.474 45.64-45.64c0-12.581-5.117-23.99-13.38-32.254l50.687-29.903v-48.04h28.358v67.103c-17.817 6.22-30.639 23.183-30.639 43.095 0 25.166 20.474 45.64 45.64 45.64s45.64-20.474 45.64-45.64c0-19.911-12.822-36.875-30.639-43.095v-67.103h28.689v48.048l50.785 29.911c-8.254 8.263-13.365 19.665-13.365 32.238 0 25.166 20.474 45.64 45.64 45.64s45.639-20.474 45.639-45.64c0-23.659-18.096-43.167-41.174-45.419l-57.523-33.88v-30.899h27.156v-26.807h30.426l33.887 57.633c2.249 23.081 21.758 41.181 45.419 41.181 25.166 0 45.64-20.474 45.64-45.64s-20.474-45.64-45.64-45.64c-12.566 0-23.961 5.106-32.223 13.35l-29.92-50.885h-47.589v-28.13zm43.095-30.639c8.623 0 15.638 7.015 15.638 15.638s-7.015 15.638-15.638 15.638-15.638-7.015-15.638-15.638 7.015-15.638 15.638-15.638zm0-126.75c8.623 0 15.638 7.015 15.638 15.638s-7.015 15.637-15.638 15.637-15.638-7.015-15.638-15.637 7.015-15.638 15.638-15.638zm-83.832-83.831c8.622 0 15.637 7.015 15.637 15.637 0 8.623-7.015 15.638-15.637 15.638-8.623 0-15.638-7.015-15.638-15.638 0-8.622 7.016-15.637 15.638-15.637zm-126.306 0c8.623 0 15.638 7.015 15.638 15.637 0 8.623-7.015 15.638-15.638 15.638s-15.638-7.015-15.638-15.638c0-8.622 7.015-15.637 15.638-15.637zm-142.387 15.637c0-8.623 7.015-15.637 15.637-15.637 8.623 0 15.638 7.015 15.638 15.637 0 8.623-7.015 15.638-15.638 15.638-8.622 0-15.637-7.015-15.637-15.638zm-68.195 99.47c-8.623 0-15.638-7.015-15.638-15.637s7.015-15.638 15.638-15.638 15.638 7.015 15.638 15.638-7.015 15.637-15.638 15.637zm0 126.306c-8.623 0-15.638-7.015-15.638-15.637s7.015-15.638 15.638-15.638 15.638 7.015 15.638 15.638-7.015 15.637-15.638 15.637zm0 126.75c-8.623 0-15.638-7.015-15.638-15.638s7.015-15.638 15.638-15.638 15.638 7.015 15.638 15.638c0 8.622-7.015 15.638-15.638 15.638zm83.832 83.831c-8.622 0-15.637-7.015-15.637-15.638s7.015-15.637 15.637-15.637c8.623 0 15.638 7.015 15.638 15.637s-7.016 15.638-15.638 15.638zm126.306 0c-8.623 0-15.638-7.015-15.638-15.638s7.015-15.637 15.638-15.637 15.638 7.015 15.638 15.637-7.015 15.638-15.638 15.638zm142.387-15.638c0 8.623-7.015 15.638-15.637 15.638-8.623 0-15.638-7.015-15.638-15.638s7.015-15.637 15.638-15.637c8.622 0 15.637 7.015 15.637 15.637zm68.195-99.469c8.623 0 15.638 7.015 15.638 15.638s-7.015 15.638-15.638 15.638-15.638-7.015-15.638-15.638 7.015-15.638 15.638-15.638zm-139.735-40.73h-141.25v-141.248h141.249v141.248z"/><path d="m297.295 214.24h-82.59v82.591h82.59zm-30.002 52.589h-22.586v-22.587h22.586z"/></g></svg>