<svg id="Capa_1" enable-background="new 0 0 512 512" height="512" viewBox="0 0 512 512" width="512" xmlns="http://www.w3.org/2000/svg"><g><path d="m256.063 275.99c-36.841 0-66.814 29.973-66.814 66.814 0 36.842 29.973 66.814 66.814 66.814 36.842 0 66.814-29.973 66.814-66.814 0-36.842-29.972-66.814-66.814-66.814zm0 103.628c-20.299 0-36.814-16.515-36.814-36.814s16.515-36.814 36.814-36.814 36.814 16.515 36.814 36.814-16.515 36.814-36.814 36.814z"/><path d="m512 235.488c0-44.494-32.572-81.524-75.122-88.504-3.759-37.161-35.226-66.26-73.361-66.26-6.813 0-13.49.917-19.901 2.709-2.416-46.235-40.791-83.105-87.616-83.105s-85.2 36.871-87.616 83.105c-6.411-1.792-13.088-2.709-19.901-2.709-38.135 0-69.602 29.1-73.361 66.26-42.55 6.98-75.122 44.01-75.122 88.504 0 48.791 38.889 88.637 87.195 89.966v64.347h43.752c1.046 2.782 2.186 5.529 3.417 8.238l-30.941 30.94 66.464 66.465 30.94-30.941c2.708 1.231 5.457 2.371 8.238 3.417v43.752h93.995v-43.752c2.782-1.046 5.529-2.186 8.238-3.417l30.94 30.941 66.465-66.465-30.941-30.94c1.231-2.708 2.371-5.456 3.417-8.238h43.752v-64.352c48.248-1.395 87.069-41.212 87.069-89.961zm-117.068 124.313h-35.995l-3.063 10.962c-2.218 7.938-5.404 15.62-9.469 22.832l-5.591 9.92 25.464 25.464-24.038 24.038-25.464-25.464-9.92 5.592c-7.211 4.064-14.892 7.25-22.832 9.469l-10.962 3.063v35.995h-33.995v-35.995l-10.962-3.063c-7.939-2.219-15.621-5.405-22.832-9.469l-9.92-5.591-25.464 25.464-24.038-24.038 25.464-25.464-5.592-9.92c-4.064-7.211-7.25-14.893-9.469-22.832l-3.063-10.962h-35.995v-34.312h35.995l3.064-10.962c2.132-7.629 5.229-14.994 9.469-22.516l5.591-9.92-25.464-25.464 24.038-24.038 25.464 25.464 9.92-5.591c7.211-4.064 14.893-7.25 22.832-9.469l10.962-3.063v-35.995h33.995v35.995l10.962 3.063c7.939 2.219 15.621 5.405 22.832 9.469l9.92 5.591 25.464-25.464 24.038 24.038-25.464 25.464 5.59 9.92c4.241 7.524 7.338 14.889 9.47 22.516l3.063 10.962h35.995zm27.382-64.311h-41.167c-1.019-2.665-2.135-5.313-3.353-7.953l30.909-30.909-66.465-66.464-30.94 30.941c-2.708-1.231-5.456-2.371-8.238-3.417v-43.752h-93.995v43.752c-2.782 1.046-5.53 2.186-8.238 3.417l-30.94-30.941-66.464 66.464 30.909 30.909c-1.217 2.64-2.334 5.289-3.353 7.953h-41.293c-32.911 0-59.686-26.917-59.686-60.002 0-32.911 26.775-59.686 59.686-59.686h17.101s-2.042-11.237-2.042-21.34c0-24.117 19.621-43.738 43.738-43.738 9.39 0 18.342 2.936 25.888 8.491l23.892 17.587v-48.737c0-31.836 25.9-57.737 57.737-57.737s57.737 25.901 57.737 57.737v48.736l23.892-17.587c7.546-5.555 16.498-8.491 25.888-8.491 24.117 0 43.738 19.621 43.738 43.738 0 12.582-2.042 21.34-2.042 21.34h17.101c32.911 0 59.686 26.775 59.686 59.686 0 33.086-26.775 60.003-59.686 60.003z"/></g></svg>