<svg id="Capa_1" enable-background="new 0 0 512 512" height="512" viewBox="0 0 512 512" width="512" xmlns="http://www.w3.org/2000/svg"><g><path d="m118.504 297.518h-30.011v27.401h-27.401v30.011h27.401v27.402h30.011v-27.402h27.401v-30.011h-27.401z"/><path d="m300.783 294.91c-24.08 0-43.671 19.59-43.671 43.67s19.591 43.67 43.671 43.67 43.67-19.59 43.67-43.67c0-24.079-19.59-43.67-43.67-43.67zm0 57.33c-7.532 0-13.66-6.128-13.66-13.66s6.128-13.66 13.66-13.66 13.659 6.128 13.659 13.66-6.127 13.66-13.659 13.66z"/><path d="m442.717 133.689c-4.325-33.815-33.288-60.037-68.26-60.037-5.826 0-11.545.719-17.065 2.126-3.017-42.29-38.388-75.778-81.432-75.778-45.017 0-81.64 36.624-81.64 81.641v2.826h-4.332c-55.964 0-101.495 45.53-101.495 101.495 0 15.367 3.478 30.354 10.013 43.952-55.511 8.19-98.254 56.139-98.254 113.89v100.945c0 37.083 30.17 67.252 67.253 67.252 21.891 0 42.471-10.698 55.049-28.618l50.109-71.399c3.965-5.649 9.368-9.997 15.536-12.699v30.562h30.011v-30.55c6.156 2.709 11.559 7.066 15.521 12.726l49.9 71.291c12.574 17.962 33.171 28.686 55.097 28.686h.176c37.083 0 67.252-30.169 67.252-67.252v-100.945c0-20.457-5.37-39.681-14.764-56.348h43.263c42.509 0 77.093-34.583 77.093-77.093 0-39.787-30.297-72.631-69.031-76.673zm-66.571 311.059c0 20.535-16.706 37.242-37.242 37.242h-.176c-12.142 0-23.547-5.939-30.51-15.886l-49.901-71.291c-12.574-17.963-33.17-28.688-55.172-28.688-21.892 0-42.471 10.699-55.048 28.618l-50.107 71.399c-6.965 9.923-18.361 15.848-30.484 15.848-20.536 0-37.243-16.707-37.243-37.242v-100.945c0-46.935 38.184-85.119 85.12-85.119h72.817v38.834h30.011v-38.834h72.817c46.935 0 85.119 38.184 85.119 85.119v100.945zm58.509-187.303h-67.58c-20.298-17.896-46.925-28.772-76.049-28.772h-72.816v-2.064c0-12.942 10.529-23.471 23.471-23.471 29.49 0 53.482-23.992 53.482-53.482v-25.38h-30.01v25.38c0 12.942-10.529 23.471-23.471 23.471-29.49 0-53.482 23.992-53.482 53.482v2.064h-55.534c-9.171-12.293-14.162-27.232-14.162-42.712 0-39.416 32.068-71.484 71.484-71.484h34.342v-32.836c0-28.469 23.162-51.63 51.631-51.63s51.63 23.161 51.63 51.63v47.149l23.901-17.596c6.694-4.927 14.635-7.532 22.966-7.532 21.397 0 38.806 17.408 38.806 38.805 0 12.947-2.017 20.813-2.017 20.813h23.41c25.961 0 47.082 21.121 47.082 47.082-.002 25.962-21.122 47.083-47.084 47.083z"/></g></svg>