<svg id="Capa_1" enable-background="new 0 0 512 512" height="512" viewBox="0 0 512 512" width="512" xmlns="http://www.w3.org/2000/svg"><g><path d="m447.7 299.801v-116.704h-175.574v-33.12h47.757c24.217 0 43.919-19.702 43.919-43.919 0-20.909-14.968-38.623-34.77-42.868-5.465-17.9-21.121-31.396-40.177-33.693-6.677-17.311-23.503-29.497-42.965-29.497-23.221 0-42.481 17.28-45.599 39.656-27.911 2.776-49.783 26.394-49.783 55.024 0 30.491 24.806 55.297 55.297 55.297h36.379v33.12h-115.272v59.785l-126.912-.276v208.297h99.751l-3.212 12.645c-2.768 10.898-12.554 18.51-23.798 18.51h-13.976v29.942h164.726v-29.942h-13.308c-11.244 0-21.031-7.612-23.798-18.51l-3.212-12.645h99.083v-207.683l-125.401-.273v-29.908h260.904v86.762h-62.789v212.199h157.03v-212.199zm-267.25-205.121c0-13.981 11.374-25.355 25.355-25.355h23.987v-23.285c0-8.876 7.222-16.098 16.098-16.098 8.49 0 15.545 6.628 16.061 15.09l.857 14.06h20.259c9.984 0 18.107 8.122 18.107 18.107v14.971h19.03c7.666.169 13.658 6.251 13.658 13.889 0 7.707-6.27 13.977-13.977 13.977h-114.08c-13.981-.001-25.355-11.376-25.355-25.356zm-23.087 376.239c.995 3.92 2.406 7.644 4.167 11.14h-40.137c1.761-3.496 3.172-7.22 4.167-11.14l5.083-20.016h21.636zm-127.421-49.958v-28.897h222.372v28.897zm222.372-58.839h-222.372v-89.509l222.372.484zm229.744-32.379v96.129h-97.147v-96.129zm-97.147 152.315v-26.244h97.147v26.244z"/></g></svg>