<svg id="Capa_1" enable-background="new 0 0 512 512" height="512" viewBox="0 0 512 512" width="512" xmlns="http://www.w3.org/2000/svg"><g><path d="m354.155 89.19c-6.614-25.868-29.416-45.33-56.935-46.882-7.556-24.369-30.324-41.919-56.888-41.919-31.822 0-57.896 25.089-59.482 56.525-24.352.653-45.755 13.323-58.501 32.277h-122.349v422.421h239.05v-155.34h34.9v155.339h238.05v-422.421zm127.871 57.035h-79.034c0-.059.004-.117.004-.177 0-9.543-2.368-18.726-6.807-26.884h85.837zm-178.102 150.508h56.795l-15.931 15.932 21.195 21.195 51.842-51.842-51.842-51.841-21.195 21.195 15.388 15.388h-56.252v-64.194h42.556c20.083 0 37.74-10.538 47.766-26.366h87.779v242.195h-178.101zm-64.874-94.168h34.9v64.194h-34.9zm-56.225-115.704h27.922v-26.913c0-16.313 13.271-29.585 29.584-29.585 15.604 0 28.57 12.187 29.519 27.744l.859 14.075h22.955c17.902 0 32.465 14.564 32.465 32.465v14.987h20.874c14.357.277 26.02 12.105 26.02 26.415 0 14.636-11.907 26.543-26.542 26.543h-163.656c-23.635 0-42.864-19.229-42.864-42.865-.001-23.637 19.228-42.866 42.864-42.866zm-72.067 32.303c-.503 3.45-.771 6.975-.771 10.562 0 5.675.674 11.193 1.908 16.498h-81.92v-27.061h80.783zm-80.784 362.473v-33.268h179.101v33.268zm179.102-63.242h-179.102v-242.196h96.81c13.372 16.097 33.528 26.366 56.04 26.366h26.251v123.733h-58.25l15.388-15.388-21.195-21.195-51.843 51.842 51.843 51.841 21.195-21.195-15.932-15.932h58.794v62.124zm29.974-92.097v-29.565h34.9v29.565zm64.874 155.339v-33.268h178.102v33.268z"/></g></svg>