<svg id="Capa_1" enable-background="new 0 0 512 512" height="512" viewBox="0 0 512 512" width="512" xmlns="http://www.w3.org/2000/svg"><g><path d="m391.016 103.551h-8.754v-6.907c.001-53.289-43.354-96.644-96.643-96.644s-96.643 43.355-96.643 96.644v.531c-6.275-1.207-12.677-1.815-19.168-1.815-55.772 0-101.145 45.374-101.145 101.145 0 2.84.12 5.676.36 8.505-38.172.664-69.023 31.922-69.023 70.249 0 38.741 31.518 70.259 70.259 70.259h122.593v166.482h258.775v-181.887l17.882-14.983c21.099-17.68 35.442-41.839 40.387-68.028 1.396-7.392 2.104-14.985 2.104-22.568 0-66.711-54.273-120.983-120.984-120.983zm30.706 378.543h-198.964v-174.87h79.017v-79.017h119.947zm-187.903-204.776 38.05-38.05v38.05zm246.69-35.765c-3.561 18.861-13.802 36.363-28.882 49.496v-92.748h-181.084l-77.69 77.691v39.62h-122.594c-22.251 0-40.353-18.102-40.353-40.353s18.102-40.353 40.353-40.353h36.368l-5.366-19.014c-1.787-6.332-2.693-12.854-2.693-19.385 0-39.282 31.958-71.24 71.24-71.24 9.781 0 19.267 1.954 28.195 5.808l20.879 9.011v-43.442c0-36.799 29.938-66.738 66.738-66.738 36.799 0 66.738 29.939 66.738 66.738v36.813h38.659c50.221 0 91.078 40.858 91.078 91.077-.001 5.725-.534 11.451-1.586 17.019z"/></g></svg>