<svg id="Capa_1" enable-background="new 0 0 512 512" height="512" viewBox="0 0 512 512" width="512" xmlns="http://www.w3.org/2000/svg"><g><path d="m436.789 145.816c-4.146-36.758-35.424-65.42-73.272-65.42-6.813 0-13.49.917-19.901 2.709-2.416-46.234-40.791-83.105-87.616-83.105s-85.2 36.871-87.616 83.105c-6.411-1.792-13.088-2.709-19.901-2.709-37.848 0-69.126 28.663-73.272 65.42-42.11 3.832-75.211 39.339-75.211 82.431 0 45.641 37.132 82.773 82.773 82.773h73.627c15.481 33.163 47.043 57.365 84.6 62.516v27.526h-29.843v66.094c0 24.727 20.116 44.844 44.843 44.844s44.843-20.117 44.843-44.843v-66.094h-29.843v-27.526c37.556-5.151 69.119-29.353 84.6-62.516h73.627c45.641 0 82.773-37.132 82.773-82.773 0-43.093-33.101-78.6-75.211-82.432zm-165.946 321.341c0 8.185-6.658 14.843-14.843 14.843s-14.843-6.659-14.843-14.843v-36.094h29.686zm-14.843-122.592c-44.031 0-79.852-35.821-79.852-79.852s35.821-79.852 79.852-79.852 79.852 35.821 79.852 79.852-35.821 79.852-79.852 79.852zm173.227-63.545h-64.587c.795-5.322 1.212-10.767 1.212-16.307 0-60.573-49.279-109.852-109.852-109.852s-109.852 49.279-109.852 109.852c0 5.54.417 10.985 1.212 16.307h-64.587c-29.099 0-52.773-23.674-52.773-52.773s23.674-52.773 52.773-52.773h24.014s-2.042-9.263-2.042-21.34c0-24.117 19.621-43.738 43.738-43.738 9.39 0 18.342 2.936 25.888 8.491l23.892 17.587v-48.737c0-31.836 25.901-57.737 57.737-57.737s57.737 25.901 57.737 57.737v48.736l23.892-17.587c7.546-5.555 16.498-8.491 25.888-8.491 24.117 0 43.738 19.621 43.738 43.738 0 13.99-2.042 21.34-2.042 21.34h24.014c29.099 0 52.773 23.674 52.773 52.773s-23.674 52.774-52.773 52.774z"/><path d="m271.253 249.713h30.001v30h-30.001z"/><path d="m210.746 249.713h30.001v30h-30.001z"/></g></svg>