<svg id="Capa_1" enable-background="new 0 0 512 512" height="512" viewBox="0 0 512 512" width="512" xmlns="http://www.w3.org/2000/svg"><g><path d="m413.288 320.683h-2.998v-1.594c0-42.501-34.577-77.078-77.078-77.078-41.196 0-74.947 32.486-76.982 73.187-5.22-.714-10.536-.913-15.918-.589-5.829.349-11.574 1.346-17.138 2.941v-134.025h49.603l-134.818-183.525-134.818 183.525h49.603v328.475h360.544c52.698 0 95.571-43.048 95.571-95.746s-42.873-95.571-95.571-95.571zm-229.954 22.92h-100.562v-38.784h110.375v28.855c-5.533 4.53-7.814 7.523-9.813 9.929zm-18.555 54.358c-12.754 1.07-24.326 6.356-33.317 14.455h-48.69v-38.785h84.852c-3.288 13.662-2.991 20.401-2.845 24.33zm-26.82-347.24 75.501 102.776h-20.313v121.294h-110.375v-121.294h-20.313zm-55.187 391.722h31.149c-.882 3.979-1.362 8.108-1.362 12.349 0 9.834 2.502 19.095 6.903 27.179h-36.69zm330.516 39.354h-243.697c-14.89 0-27.005-12.114-27.005-27.004s12.114-27.005 27.005-27.005h32.458l-5.388-19.092c-1.777-6.295-2.316-12.786-1.604-19.294 2.638-24.102 22.866-43.37 47.051-44.82 8.027-.477 15.794.871 23.09 4.02l20.963 9.046v-38.559c0-25.944 21.107-47.051 47.05-47.051 25.944 0 47.051 21.106 47.051 47.051v31.622h33.026c36.141 0 65.543 29.402 65.543 65.543s-29.402 65.543-65.543 65.543z"/></g></svg>