<svg id="Capa_1" enable-background="new 0 0 512 512" height="512" viewBox="0 0 512 512" width="512" xmlns="http://www.w3.org/2000/svg"><g><path d="m436.879 146.655c-3.76-37.16-35.227-66.26-73.361-66.26-6.813 0-13.49.917-19.901 2.709-2.416-46.234-40.792-83.104-87.617-83.104s-85.201 36.87-87.616 83.104c-6.411-1.792-13.089-2.709-19.901-2.709-38.135 0-69.602 29.1-73.361 66.26-42.55 6.98-75.122 44.011-75.122 88.505 0 39.152 25.54 73.669 61.974 85.581v191.259h388.053v-191.261c15.677-5.136 29.806-14.582 40.633-27.37 13.761-16.254 21.34-36.927 21.34-58.209 0-44.494-32.572-81.525-75.121-88.505zm-286.871 129.142v-28.658h30.004v28.658h30v-28.658h30.003v28.658h30v-28.658h30.004v28.658h30v-28.658h30.004v28.658h30v-28.658h30.004v53.503h-328.053v-53.503h28.034v28.658zm1.744 54.844h208.496v93.853h-208.496zm-59.778 151.359v-151.359h29.778v123.853h268.496v-123.853h29.778v151.359zm358.052-193.653v-71.208h-60.004v-29.347h-30v29.347h-30.004v-29.347h-30v29.347h-30.004v-29.347h-30v29.347h-30.003v-29.347h-30v29.347h-30.004v-29.347h-30v29.347h-58.033v71.153c-19.201-10.178-31.974-30.496-31.974-53.132 0-32.911 26.774-59.687 59.686-59.687h17.102s-2.042-9.433-2.042-21.34c0-24.117 19.62-43.738 43.737-43.738 9.39 0 18.342 2.937 25.888 8.491l23.893 17.588v-48.737c-.001-31.836 25.899-57.737 57.736-57.737s57.737 25.901 57.737 57.737v48.737l23.893-17.588c7.546-5.555 16.498-8.491 25.888-8.491 24.117 0 43.737 19.621 43.737 43.738 0 12.545-2.042 21.34-2.042 21.34h17.102c32.911 0 59.686 26.775 59.686 59.687-.001 22.896-12.72 43.085-31.975 53.187z"/><path d="m181.23 362.567h28.96v30h-28.96z"/><path d="m240.535 362.567h28.96v30h-28.96z"/><path d="m299.84 362.567h28.96v30h-28.96z"/></g></svg>