<svg id="Capa_1" enable-background="new 0 0 512 512" height="512" viewBox="0 0 512 512" width="512" xmlns="http://www.w3.org/2000/svg"><g><path d="m436.878 146.824c-3.759-37.16-35.226-66.26-73.361-66.26-6.813 0-13.49.918-19.901 2.709-2.416-46.233-40.791-83.104-87.616-83.104s-85.2 36.871-87.616 83.104c-6.411-1.791-13.088-2.709-19.901-2.709-38.135 0-69.602 29.1-73.361 66.26-42.55 6.979-75.122 44.011-75.122 88.505 0 49.627 40.233 90.002 89.686 90.002h3.246c-.139 1.067-.29 2.132-.408 3.204-3.229 29.428 1.716 59.141 14.3 85.928 5.434 11.564 12.028 22.357 19.66 32.22-2.417 5.641-3.76 11.848-3.76 18.364 0 25.797 20.987 46.784 46.784 46.784s46.784-20.987 46.784-46.784-20.987-46.784-46.784-46.784c-8.147 0-15.811 2.098-22.489 5.774-4.956-6.945-9.075-14.535-13.042-22.332-16.625-32.673-11.083-74.227-10.737-76.375h264.894c6.341 33.209-.67 67.814-20.144 96.072-28.832 41.836-75.188 64.229-123.991 59.893l-2.653 29.883c4.928.438 9.832.653 14.707.653 54.2-.001 104.483-26.745 136.64-73.405 22.978-33.342 31.914-73.813 25.871-113.095h3.751c49.453 0 89.686-40.375 89.686-90.003-.001-44.494-32.573-81.525-75.123-88.504zm-267.37 301.439c9.255 0 16.784 7.529 16.784 16.784s-7.529 16.784-16.784 16.784c-9.254 0-16.784-7.529-16.784-16.784s7.53-16.784 16.784-16.784zm252.806-152.932h-11.432c-.43-1.185-.862-2.369-1.321-3.546-7.456-19.114-17.774-36.259-30.721-51.08 2.657-5.869 4.149-12.373 4.149-19.223 0-25.797-20.987-46.784-46.784-46.784s-46.784 20.987-46.784 46.784 20.987 46.784 46.784 46.784c7.953 0 15.446-2 22.011-5.516 8.109 9.716 14.902 20.625 20.298 32.582h-246.664c4.38-10.356 10.09-20.141 17.059-29.08 14.935-19.157 33.368-33.479 54.787-42.569 19.959-8.47 41.996-11.942 63.732-10.026l2.627-29.885c-26.608-2.34-53.611 1.912-78.078 12.295-26.169 11.105-48.62 28.513-66.728 51.74-11.173 14.333-19.742 30.411-25.448 47.525h-10.115c-32.911-.001-59.686-26.918-59.686-60.004 0-32.911 26.775-59.686 59.686-59.686h17.102s-2.042-9.798-2.042-21.341c0-24.117 19.621-43.737 43.738-43.737 9.39 0 18.341 2.937 25.888 8.491l23.892 17.587v-48.737c0-31.836 25.9-57.736 57.737-57.736s57.737 25.9 57.737 57.736v48.737l23.892-17.587c7.547-5.555 16.499-8.491 25.888-8.491 24.117 0 43.738 19.621 43.738 43.738 0 13.814-2.042 21.34-2.042 21.34h17.102c32.911 0 59.686 26.775 59.686 59.687-.002 33.085-26.777 60.002-59.688 60.002zm-86.109-57.066c-9.255 0-16.784-7.529-16.784-16.784s7.529-16.784 16.784-16.784c9.254 0 16.784 7.529 16.784 16.784s-7.53 16.784-16.784 16.784z"/></g></svg>