<svg id="Capa_1" enable-background="new 0 0 512 512" height="512" viewBox="0 0 512 512" width="512" xmlns="http://www.w3.org/2000/svg"><g><path d="m407.269 319.87c0-23.273-18.935-42.208-42.208-42.208s-42.208 18.935-42.208 42.208v21.678h-19.704v86.126h123.824v-86.126h-19.704zm-54.437 0c0-6.743 5.486-12.229 12.229-12.229s12.229 5.486 12.229 12.229v21.678h-24.459v-21.678zm44.163 77.826h-63.867v-26.169h63.867z"/><path d="m366.159 220.319c-25.67 0-49.785 6.64-70.736 18.284v-26.412h32.681v-31.842h89.272c5.96 19.764 24.325 34.203 46.007 34.203 26.493 0 48.048-21.555 48.048-48.048 0-26.494-21.555-48.049-48.048-48.049-20.836 0-38.61 13.335-45.254 31.916h-90.024v-29.554h-32.681v-29.442h32.681v-91.375h-328.105v91.375h32.681v29.442h-32.681v91.375h32.681v30.433h-32.681v91.375h149.578v82.244c-19.764 5.959-34.203 24.325-34.203 46.007 0 26.495 21.555 48.049 48.049 48.049s48.048-21.554 48.048-48.049c0-20.836-13.335-38.61-31.916-45.254v-82.997h44.328c-2.329 10.348-3.565 21.109-3.565 32.16 0 80.546 65.295 145.841 145.841 145.841s145.84-65.296 145.84-145.842-65.295-145.84-145.841-145.84zm97.224-71.886c9.964 0 18.07 8.106 18.07 18.071 0 9.963-8.106 18.07-18.07 18.07s-18.071-8.106-18.071-18.07c0-9.965 8.107-18.071 18.071-18.071zm-299.96 331.888c-9.964 0-18.07-8.106-18.07-18.071 0-9.964 8.106-18.071 18.07-18.071s18.07 8.106 18.07 18.071-8.106 18.071-18.07 18.071zm-133.445-450.343h268.148v31.419h-268.148zm32.681 61.397h202.786v29.442h-202.786zm-32.681 59.419h268.148v31.418h-268.148zm32.681 61.397h202.786v30.433h-202.786zm-32.681 91.831v-31.42h224.311c-7.968 9.518-14.743 20.067-20.098 31.42zm336.181 177.918c-63.944 0-115.781-51.837-115.781-115.781s51.837-115.781 115.781-115.781 115.781 51.837 115.781 115.781-51.837 115.781-115.781 115.781z"/></g></svg>