<svg id="Capa_1" enable-background="new 0 0 512 512" height="512" viewBox="0 0 512 512" width="512" xmlns="http://www.w3.org/2000/svg"><g><g><path d="m64.298 2.368v121.383h-64.298v385.88l97.341-85.281h330.734v-.274l52.475 43.337v-104.29h31.45v-360.755zm21.736 391.92-55.971 49.037v-289.51h34.236v209.308h289.969l37.737 31.165zm395.903-61.228h-31.45v70.537l-85.411-70.537h-270.715v-300.629h387.576z"/></g><g><path d="m303.181 233.236h62.753c28.186 0 51.118-22.932 51.118-51.118 0-24.737-17.661-45.427-41.037-50.12-4.827-20.413-23.203-35.65-45.07-35.65-1.533 0-3.056.074-4.564.221-4.988-24.519-26.716-43.03-52.685-43.03-28.104 0-51.241 21.679-53.569 49.192-34.341 1.873-61.702 30.402-61.702 65.204 0 36.007 29.294 65.301 65.301 65.301h49.392v30.784h-108.055v30.063h245.35v-30.063h-107.232zm-79.455-30.063c-19.43 0-35.238-15.808-35.238-35.238s15.808-35.239 35.238-35.239h26.271v-25.395c0-13.067 10.631-23.699 23.698-23.699s23.698 10.632 23.698 23.699v30.85c5.116-5.445 12.378-8.85 20.439-8.85 15.491 0 28.05 12.558 28.05 28.05 0 1.259-.091 2.496-.252 3.711h20.302c11.61 0 21.055 9.446 21.055 21.056 0 11.609-9.445 21.055-21.055 21.055z"/></g></g></svg>