<svg id="Capa_1" enable-background="new 0 0 512 512" height="512" viewBox="0 0 512 512" width="512" xmlns="http://www.w3.org/2000/svg"><g><path d="m309.565 319.522-24.137-17.608-29.428 40.339-29.428-40.339-24.137 17.608 24.175 33.14h-41.02v29.877h41.021l-24.176 33.141 24.137 17.607 29.428-40.339 29.428 40.339 24.137-17.607-24.176-33.141h41.021v-29.877h-41.02z"/></g><g><path d="m461.407 315.226c10.559-5.292 20.078-12.679 27.913-21.812 13.952-16.263 21.635-37.01 21.635-58.419 0-44.313-32.439-81.193-74.815-88.144-3.744-37.009-35.082-65.99-73.062-65.99-6.785 0-13.435.914-19.82 2.698-2.405-46.046-40.624-82.766-87.258-82.766s-84.853 36.72-87.259 82.766c-6.385-1.784-13.035-2.698-19.82-2.698-37.98 0-69.318 28.981-73.062 65.99-42.376 6.951-74.815 43.831-74.815 88.144 0 21.589 7.798 42.47 21.958 58.793 7.781 8.97 17.183 16.22 27.593 21.436-26.352 23.228-50.595 52.504-50.595 52.504s35.956 43.391 79.703 76.219c25.825 19.379 52.18 34.85 78.335 45.982 33.17 14.119 66.13 21.278 97.962 21.278s64.792-7.159 97.962-21.278c26.154-11.132 52.51-26.603 78.335-45.982 43.747-32.829 79.703-76.219 79.703-76.219s-24.242-29.275-50.593-52.502zm-430.485-80.232c0-32.777 26.666-59.443 59.443-59.443h13.799c-1.407-4.687-2.172-9.651-2.172-14.796 0-28.393 23.017-51.409 51.41-51.409 19.443 0 36.361 10.796 45.097 26.718v-47.891c0-31.707 25.795-57.502 57.501-57.502s57.501 25.795 57.501 57.502v46.897c8.763-15.829 25.627-26.55 45.001-26.55 28.393 0 51.41 23.017 51.41 51.409 0 5.448-.854 10.695-2.424 15.622h14.149c32.777 0 59.443 26.666 59.443 59.443 0 27.842-19.714 52.25-46.43 58.299-.782-.595-1.558-1.189-2.351-1.785-25.825-19.379-52.18-34.85-78.335-45.982-33.17-14.119-66.13-21.278-97.962-21.278s-64.792 7.159-97.962 21.278c-26.154 11.132-52.51 26.603-78.335 45.982-.794.596-1.57 1.191-2.353 1.786-26.759-6.045-46.43-30.348-46.43-58.3zm8.452 132.734c32.4-39.241 85.229-71.246 97.663-78.353-14.761 22.454-23.359 49.312-23.359 78.225 0 29.045 8.676 56.043 23.56 78.596-12.494-7.13-59.739-33.159-97.864-78.468zm217.911 113.186c-62.71 0-113.729-50.604-113.729-113.314s51.019-113.398 113.729-113.398 113.729 50.688 113.729 113.398-51.019 113.314-113.729 113.314zm121.59-37.106c13.939-22.06 22.017-48.181 22.017-76.208 0-27.897-8.005-53.879-21.825-75.84 38.395 19.318 82.724 64.336 93.559 75.968-10.836 11.632-46.876 49.849-93.751 76.08z"/></g></svg>