<svg id="Capa_1" enable-background="new 0 0 512 512" height="512" viewBox="0 0 512 512" width="512" xmlns="http://www.w3.org/2000/svg"><g><g><path d="m251.708 337.854v29.898c16.411 0 29.761 13.351 29.761 29.761s-13.351 29.76-29.761 29.76-29.76-13.351-29.76-29.76h-29.898c0 32.895 26.763 59.658 59.658 59.658 32.896 0 59.659-26.763 59.659-59.658 0-32.896-26.763-59.659-59.659-59.659z"/></g><path d="m511.836 225.12c0-42.51-32.621-77.545-74.143-81.393-4.156-36.245-35.024-64.49-72.364-64.49-6.66 0-13.188.887-19.46 2.621-2.487-45.558-40.337-81.858-86.505-81.858-47.771 0-86.636 38.865-86.636 86.637v4.234h-5.855c-59.549 0-107.997 48.448-107.997 107.997 0 19.862 5.331 38.866 15.47 55.59-8.817 13.97-13.928 30.503-13.928 48.209 0 1.902.06 3.802.18 5.699-33.595 1.595-60.435 29.427-60.435 63.411 0 35.004 28.478 63.483 63.476 63.483l79.995.031c15.643 44.621 58.179 76.709 108.074 76.709 50.16 0 92.885-32.426 108.324-77.415 23.179-3.167 44.594-13.732 61.434-30.552 20.416-20.389 31.658-47.509 31.658-76.363 0-8.01-.885-15.817-2.548-23.335 14.208-3.616 27.211-11.029 37.751-21.729 15.16-15.388 23.509-35.803 23.509-57.486zm-260.128 256.982c-46.642 0-84.588-37.947-84.588-84.589 0-46.643 37.946-84.589 84.588-84.589 46.643 0 84.589 37.946 84.589 84.589s-37.946 84.589-84.589 84.589zm148.63-99.223c-9.675 9.663-21.442 16.451-34.272 19.99.082-1.776.129-3.56.129-5.356 0-26.067-8.763-50.122-23.489-69.388l17.483-17.483-21.141-21.141-17.421 17.421c-15.644-12.102-34.491-20.251-55.037-22.93v-21.252h18.766v-29.898h-67.428v29.898h18.765v21.272c-20.438 2.689-39.191 10.792-54.776 22.814l-17.324-17.323-21.141 21.141 17.356 17.355c-14.785 19.287-23.587 43.391-23.587 69.515 0 2.648.098 5.273.276 7.877l-73.852-.028c-18.519 0-33.584-15.066-33.584-33.585s15.066-33.585 33.584-33.585h34.331s-7.66-15.968-7.66-35.525c0-33.465 27.225-60.69 60.69-60.69 8.334 0 16.415 1.664 24.018 4.946l20.873 9.01v-40.901c0-31.286 25.453-56.739 56.739-56.739s56.739 25.453 56.739 56.739v34.607h35.822c43.026 0 78.03 35.004 78.03 78.03 0 20.86-8.129 40.468-22.889 55.209zm66.691-121.255c-7.446 7.557-16.837 12.516-27.066 14.437-18.332-33.527-53.937-56.319-94.766-56.319h-5.924v-4.709c0-47.771-38.865-86.636-86.637-86.636-47.197 0-85.7 37.939-86.62 84.92-4.927-.823-9.939-1.237-15.01-1.237-20.81 0-39.999 7.058-55.311 18.899-4.548-9.991-6.921-20.858-6.921-32.111 0-43.063 35.035-78.099 78.099-78.099h35.753v-34.132c0-31.287 25.453-56.74 56.739-56.74s56.74 25.453 56.74 56.74v48.358l23.81-17.525c7.409-5.453 16.198-8.336 25.417-8.336 23.679 0 42.942 19.264 42.942 42.942 0 9.127-2.027 21.198-2.027 21.198h23.848c28.588 0 51.846 23.258 51.846 51.846-.002 13.781-5.297 26.745-14.912 36.504z"/></g></svg>