<svg id="Capa_1" enable-background="new 0 0 512 512" height="512" viewBox="0 0 512 512" width="512" xmlns="http://www.w3.org/2000/svg"><g><g><path d="m512 .558h-512v429.77h191.166l-1.779 4.744c-10.151 27.068-36.395 45.254-65.303 45.254v1.116 28.884 1.116h263.833v-1.116-28.884-1.116c-28.908 0-55.151-18.186-65.303-45.253l-1.779-4.745h191.165zm-30 30v290.178h-452v-290.178zm-187.476 415.048c5.157 13.751 13.229 25.887 23.333 35.835h-123.714c10.104-9.949 18.176-22.085 23.333-35.835l5.73-15.279h65.587zm-264.524-45.278v-49.591h452v49.591z"/></g><path d="m143.793 285.686h224.414c36.056 0 65.389-29.429 65.389-65.602 0-31.183-21.943-57.338-51.198-63.837-4.375-25.77-26.862-45.457-53.859-45.457-3.081 0-6.123.253-9.107.752-4.423-31.046-31.183-54.993-63.432-54.993s-59.009 23.947-63.432 54.993c-2.984-.499-6.026-.752-9.107-.752-26.997 0-49.483 19.687-53.859 45.457-29.255 6.499-51.198 32.655-51.198 63.838 0 36.172 29.333 65.601 65.389 65.601zm0-100.99h16.969s-1.93-9.77-1.93-19.278c0-13.58 11.048-24.628 24.629-24.628 5.287 0 10.326 1.652 14.573 4.778l23.892 17.586v-42.532c0-18.789 15.285-34.074 34.073-34.074s34.073 15.285 34.073 34.073v42.532l23.892-17.586c4.247-3.126 9.286-4.778 14.573-4.778 13.581 0 24.629 11.048 24.629 24.629 0 10.229-1.93 19.277-1.93 19.277h16.969c19.513 0 35.389 15.875 35.389 35.389 0 19.631-15.875 35.602-35.389 35.602h-224.412c-19.513 0-35.389-15.971-35.389-35.602 0-19.513 15.876-35.388 35.389-35.388z"/></g></svg>