<svg id="Capa_1" enable-background="new 0 0 512 512" height="512" viewBox="0 0 512 512" width="512" xmlns="http://www.w3.org/2000/svg"><g><path d="m312.03 101.859h-6.495v-20.953c0-5.523-4.477-10-10-10s-10 4.477-10 10v20.953h-19.621v-36.23c0-5.523-4.477-10-10-10s-10 4.477-10 10v36.23h-19.621v-20.953c0-5.523-4.477-10-10-10s-10 4.477-10 10v20.953h-6.523c-5.523 0-10 4.477-10 10v6.497h-20.92c-5.523 0-10 4.477-10 10s4.477 10 10 10h20.92v19.626h-36.196c-5.523 0-10 4.477-10 10s4.477 10 10 10h36.196v19.626h-20.92c-5.523 0-10 4.477-10 10s4.477 10 10 10h20.92v6.525c0 5.523 4.477 10 10 10h6.523v20.925c0 5.523 4.477 10 10 10s10-4.477 10-10v-20.925h19.621v36.203c0 5.523 4.477 10 10 10s10-4.477 10-10v-36.203h19.621v20.925c0 5.523 4.477 10 10 10s10-4.477 10-10v-20.925h6.495c5.523 0 10-4.477 10-10v-6.525h20.948c5.523 0 10-4.477 10-10s-4.477-10-10-10h-20.948v-19.626h36.224c5.523 0 10-4.477 10-10s-4.477-10-10-10h-36.224v-19.626h20.948c5.523 0 10-4.477 10-10s-4.477-10-10-10h-20.948v-6.497c0-5.523-4.477-10-10-10zm-10 112.274h-92.259v-92.275h92.259z"/><path d="m449.942 193.487c4.2 12.679 16.15 21.854 30.207 21.854 17.563 0 31.851-14.29 31.851-31.854 0-17.549-14.288-31.826-31.851-31.826-14.054 0-26.001 9.163-30.204 21.826h-33.738c.126-2.888.201-5.832.199-8.865-.022-14.226-1.599-28.04-4.653-41.233h68.396c.288 0 .54-.015.771-.039 5.162-.395 9.229-4.698 9.229-9.961v-35.07c12.677-4.204 21.851-16.166 21.851-30.237 0-17.564-14.288-31.854-31.851-31.854-17.547 0-31.822 14.29-31.822 31.854 0 14.068 9.161 26.026 21.822 30.234v25.073h-64.332c-4.834-13.196-11.283-25.573-19.275-36.874-3.189-4.51-9.429-5.58-13.938-2.391s-5.58 9.43-2.391 13.938c17.086 24.16 26.144 54.102 26.194 86.583.006 6.193-.297 12.029-.872 17.556-.017.133-.035.265-.047.399-2.915 27.344-12.494 47.123-24.314 65.148-.145.201-.281.409-.411.621-4.664 7.067-9.663 13.876-14.734 20.776-15.536 21.145-31.548 42.943-38.637 74.124-.332-.01-.663-.025-.997-.025h-120.818c-.325 0-.646.015-.969.025-7.089-31.179-23.103-52.975-38.642-74.118-5.139-6.993-10.207-13.891-14.925-21.059-.038-.057-.075-.115-.114-.171-11.861-18.054-21.483-37.852-24.411-65.244-.015-.19-.038-.377-.064-.563-.567-5.501-.866-11.307-.858-17.466.021-18.014 2.679-33.766 6.925-47.45.188-.455.335-.93.455-1.416 8.25-25.65 22.066-43.903 34.358-56.009 26.181-25.784 62.087-40.278 98.526-39.76.096.001.189.001.282 0 16.957-.239 33.759 2.723 49.969 8.803 5.173 1.937 10.935-.681 12.875-5.852 1.939-5.171-.68-10.936-5.852-12.875-18.509-6.94-37.728-10.336-57.132-10.075-41.68-.546-82.767 16.031-112.701 45.51-16.739 16.485-29.24 36.006-37.239 57.865h-64.237v-25.07c12.677-4.205 21.851-16.166 21.851-30.237 0-17.564-14.288-31.854-31.851-31.854-17.547 0-31.823 14.29-31.823 31.854 0 14.068 9.162 26.027 21.823 30.234v35.073c0 5.523 4.477 10 10 10h68.33c-3 13.106-4.543 26.89-4.559 41.236-.004 3.031.071 5.975.196 8.861h-33.736c-4.206-12.663-16.164-21.826-30.231-21.826-17.547.001-31.823 14.278-31.823 31.827 0 17.564 14.275 31.854 31.823 31.854 14.07 0 26.03-9.175 30.234-21.854h35.707c3.138 19.72 9.432 35.832 17.2 50.097h-83.141c-5.523 0-10 4.477-10 10v35.102c-12.661 4.207-21.823 16.165-21.823 30.233 0 17.549 14.275 31.826 31.823 31.826 17.562 0 31.851-14.277 31.851-31.826 0-14.071-9.174-26.032-21.851-30.237v-25.099h85.529c4.083 5.957 8.304 11.704 12.499 17.412 15.352 20.889 29.906 40.705 35.777 69.135-7.599 5.944-12.497 15.189-12.497 25.563 0 8.706 3.452 16.615 9.051 22.449-5.599 5.834-9.051 13.743-9.051 22.449 0 15.238 10.559 28.049 24.742 31.517v20.411c0 21.769 17.708 39.479 39.475 39.479h57.306c21.751 0 39.446-17.71 39.446-39.479v-20.409c14.183-3.469 24.742-16.28 24.742-31.517 0-8.706-3.452-16.615-9.051-22.449 5.599-5.834 9.051-13.743 9.051-22.449 0-10.363-4.888-19.599-12.473-25.544 5.868-28.445 20.424-48.266 35.778-69.162 4.192-5.706 8.41-11.451 12.491-17.405h85.512v25.102c-12.661 4.207-21.822 16.166-21.822 30.234 0 17.549 14.275 31.826 31.822 31.826 17.563 0 31.851-14.277 31.851-31.826 0-14.071-9.174-26.032-21.851-30.237v-35.099c0-.29-.015-.542-.039-.773-.396-5.16-4.699-9.227-9.961-9.227h-83.125c7.768-14.264 14.063-30.376 17.205-50.097zm30.207-21.826c6.535 0 11.851 5.305 11.851 11.826 0 6.536-5.316 11.854-11.851 11.854-6.519 0-11.822-5.318-11.822-11.854-.001-6.521 5.303-11.826 11.822-11.826zm-11.823-123.579c0-6.536 5.303-11.854 11.822-11.854 6.535 0 11.851 5.318 11.851 11.854 0 6.442-5.167 11.689-11.571 11.84-.094-.003-.185-.014-.28-.014-.094 0-.186.011-.28.014-6.388-.151-11.542-5.398-11.542-11.84zm-436.223 11.84c-.094-.003-.185-.014-.28-.014-.094 0-.186.011-.28.014-6.389-.151-11.543-5.398-11.543-11.84 0-6.536 5.304-11.854 11.823-11.854 6.535 0 11.851 5.318 11.851 11.854 0 6.442-5.166 11.689-11.571 11.84zm-.28 135.419c-6.519 0-11.823-5.318-11.823-11.854 0-6.52 5.304-11.826 11.823-11.826 6.535 0 11.851 5.305 11.851 11.826 0 6.536-5.316 11.854-11.851 11.854zm11.851 123.578c0 6.521-5.316 11.826-11.851 11.826-6.519 0-11.823-5.305-11.823-11.826 0-6.536 5.304-11.854 11.823-11.854 6.535 0 11.851 5.318 11.851 11.854zm151.903 69.225c-6.863 0-12.446-5.585-12.446-12.449s5.583-12.449 12.446-12.449h120.817c6.863 0 12.446 5.585 12.446 12.449s-5.583 12.449-12.446 12.449zm89.076 103.856h-57.306c-10.738 0-19.475-8.738-19.475-19.479v-19.479h96.226v19.479c.001 10.741-8.723 19.479-19.445 19.479zm31.741-58.958h-120.817c-6.863 0-12.446-5.585-12.446-12.449s5.583-12.449 12.446-12.449h120.817c6.863 0 12.446 5.585 12.446 12.449.001 6.864-5.583 12.449-12.446 12.449zm163.755-125.977c6.535 0 11.851 5.318 11.851 11.854 0 6.521-5.316 11.826-11.851 11.826-6.519 0-11.822-5.305-11.822-11.826-.001-6.536 5.303-11.854 11.822-11.854z"/><path d="m343.296 49.515.057.028c1.432.716 2.952 1.055 4.447 1.055 3.664 0 7.187-2.034 8.941-5.541 2.47-4.94.439-10.961-4.5-13.431s-10.947-.468-13.416 4.472-.469 10.948 4.471 13.417z"/></g></svg>