<svg id="Capa_1" enable-background="new 0 0 512 512" height="512" viewBox="0 0 512 512" width="512" xmlns="http://www.w3.org/2000/svg"><g><path d="m389.33 371.152c43.785-19.221 80.306-47.053 108.558-82.736 9.891-12.533 14.112-22.227 14.112-32.416s-4.221-19.883-14.122-32.428c-28.242-35.671-64.763-63.503-108.548-82.724-4.724-2.074-9.526-4.022-14.383-5.869v-72.196h33.989c4.358 15.233 18.398 26.419 35.011 26.419 20.081 0 36.419-16.337 36.419-36.419s-16.338-36.419-36.419-36.419c-16.613 0-30.653 11.186-35.011 26.419h-43.989c-5.522 0-10 4.477-10 10v75.358c-28.453-8.71-58.571-13.666-88.961-14.558v-40.444c15.232-4.358 26.418-18.398 26.418-35.011 0-20.082-16.337-36.419-36.418-36.419s-36.418 16.337-36.418 36.419c0 16.613 11.186 30.654 26.418 35.012v40.444c-30.389.893-60.507 5.85-88.962 14.564v-75.365c0-5.523-4.477-10-10-10h-43.961c-4.357-15.233-18.398-26.419-35.011-26.419-20.081 0-36.418 16.337-36.418 36.419s16.337 36.419 36.418 36.419c16.613 0 30.654-11.186 35.011-26.419h33.961v72.206c-4.848 1.844-9.641 3.789-14.358 5.859-43.783 19.222-80.303 47.054-108.554 82.735-9.891 12.533-14.112 22.228-14.112 32.417s4.221 19.884 14.122 32.428c28.242 35.67 64.761 63.502 108.544 82.724 4.716 2.071 9.51 4.015 14.358 5.859v72.206h-33.961c-4.358-15.233-18.398-26.419-35.011-26.419-20.081 0-36.418 16.337-36.418 36.419s16.337 36.419 36.418 36.419c16.613 0 30.654-11.186 35.011-26.419h43.961c5.523 0 10-4.477 10-10v-75.365c28.455 8.714 58.573 13.671 88.962 14.564v40.445c-15.232 4.358-26.418 18.398-26.418 35.012 0 20.082 16.337 36.419 36.418 36.419 20.082 0 36.418-16.337 36.418-36.419 0-16.613-11.185-30.654-26.418-35.011v-40.445c30.39-.892 60.507-5.847 88.961-14.557v75.359c0 5.523 4.478 10 10 10h43.989c4.358 15.233 18.398 26.419 35.011 26.419 20.081 0 36.419-16.337 36.419-36.419s-16.338-36.419-36.419-36.419c-16.613 0-30.653 11.186-35.011 26.419h-33.989v-72.199c4.857-1.846 9.659-3.794 14.383-5.868zm54.617-334.788c9.054 0 16.419 7.366 16.419 16.419s-7.365 16.419-16.419 16.419c-9.053 0-16.418-7.366-16.418-16.419s7.366-16.419 16.418-16.419zm-375.895 32.838c-9.053 0-16.418-7.366-16.418-16.419s7.366-16.419 16.418-16.419c9.053 0 16.418 7.366 16.418 16.419s-7.365 16.419-16.418 16.419zm0 406.434c-9.053 0-16.418-7.366-16.418-16.419s7.366-16.419 16.418-16.419c9.053 0 16.418 7.366 16.418 16.419s-7.365 16.419-16.418 16.419zm375.895-32.838c9.054 0 16.419 7.366 16.419 16.419s-7.365 16.419-16.419 16.419c-9.053 0-16.418-7.366-16.418-16.419s7.366-16.419 16.418-16.419zm-204.38-404.671c0-9.053 7.365-16.419 16.418-16.419s16.418 7.366 16.418 16.419-7.365 16.419-16.418 16.419-16.418-7.365-16.418-16.419zm-209.756 237.898c-6.785-8.596-9.811-14.773-9.811-20.025s3.026-11.429 9.802-20.013c32.021-40.443 77.415-70.611 129.307-87.415-5.745 5.173-11.094 10.811-15.966 16.877-20.525 25.551-31.829 57.71-31.829 90.551s11.304 65 31.829 90.551c4.872 6.066 10.222 11.704 15.966 16.877-51.891-16.803-97.283-46.967-129.298-87.403zm242.593 197.848c0 9.053-7.365 16.419-16.418 16.419s-16.418-7.366-16.418-16.419 7.365-16.419 16.418-16.419 16.418 7.365 16.418 16.419zm80.534-110.464c17.882-16.147 31.548-36.624 39.524-59.239 1.837-5.208-.896-10.92-6.104-12.757-5.211-1.837-10.92.896-12.757 6.104-13.91 39.438-47.689 69.894-88.281 79.69-9.683.889-19.469 1.369-29.335 1.369-9.878 0-19.674-.481-29.369-1.373-56.159-13.55-95.302-63.255-95.302-121.204 0-57.95 39.145-107.656 95.305-121.205 9.694-.892 19.49-1.372 29.366-1.372 9.865 0 19.65.48 29.332 1.369 40.536 9.767 74.308 40.185 88.259 79.588 1.453 4.103 5.31 6.666 9.427 6.666 1.107 0 2.234-.186 3.338-.576 5.206-1.843 7.932-7.558 6.089-12.764-7.988-22.561-21.647-42.994-39.505-59.119 51.879 16.806 97.257 46.965 129.263 87.389 6.786 8.597 9.812 14.773 9.812 20.025s-3.026 11.428-9.802 20.013c-32.008 40.428-77.384 70.588-129.26 87.396z"/><path d="m343.688 246h-20.277c-4.371-29.598-27.829-53.056-57.425-57.427v-20.277c0-5.523-4.478-10-10-10s-10 4.477-10 10v20.277c-29.597 4.371-53.055 27.83-57.426 57.427h-20.276c-5.523 0-10 4.477-10 10s4.477 10 10 10h20.276c4.371 29.598 27.829 53.057 57.426 57.427v20.277c0 5.523 4.477 10 10 10s10-4.477 10-10v-20.277c29.596-4.371 53.054-27.83 57.425-57.427h20.277c5.522 0 10-4.477 10-10s-4.477-10-10-10zm-87.702 58.167c-26.559 0-48.166-21.608-48.166-48.167s21.607-48.167 48.166-48.167c26.558 0 48.166 21.608 48.166 48.167s-21.608 48.167-48.166 48.167z"/><path d="m390.686 245.943c-5.522 0-10 4.477-10 10v.057c0 5.523 4.478 9.972 10 9.972s10-4.505 10-10.028-4.478-10.001-10-10.001z"/></g></svg>