<svg id="Capa_1" enable-background="new 0 0 512 512" height="512" viewBox="0 0 512 512" width="512" xmlns="http://www.w3.org/2000/svg"><g><path d="m358.343 274.19h-36.204v-19.627h20.926c5.522 0 10-4.477 10-10s-4.478-10-10-10h-20.926v-6.526c0-5.523-4.478-10-10-10h-6.525v-20.954c0-5.523-4.478-10-10-10s-10 4.477-10 10v20.954h-19.628v-36.232c0-5.523-4.478-10-10-10s-10 4.477-10 10v36.232h-19.627v-20.954c0-5.523-4.478-10-10-10s-10 4.477-10 10v20.954h-6.497c-5.522 0-10 4.477-10 10v6.526h-20.954c-5.522 0-10 4.477-10 10s4.478 10 10 10h20.954v19.627h-36.232c-5.522 0-10 4.477-10 10s4.478 10 10 10h36.232v19.599h-20.954c-5.522 0-10 4.477-10 10s4.478 10 10 10h20.954v6.526c0 5.523 4.478 10 10 10h6.497v20.954c0 5.523 4.478 10 10 10s10-4.477 10-10v-20.954h19.627v36.232c0 5.523 4.478 10 10 10s10-4.477 10-10v-36.232h19.628v20.954c0 5.523 4.478 10 10 10s10-4.477 10-10v-20.954h6.525c5.522 0 10-4.477 10-10v-6.526h20.926c5.522 0 10-4.477 10-10s-4.478-10-10-10h-20.926v-19.599h36.204c5.522 0 10-4.477 10-10s-4.478-10-10-10zm-56.204 56.125h-92.277v-92.278h92.277z"/><path d="m399.802 354.085h28.951c45.902 0 83.246-37.331 83.246-83.218 0-28.712-15.135-55.56-39.197-70.631 2.501-8.874 3.765-18.053 3.765-27.389 0-55.452-45.113-100.565-100.565-100.565-4.006 0-8.04.243-12.064.726-7.944-19.907-21.158-37.092-38.577-50.061-20.166-15.012-44.155-22.947-69.376-22.947-25.208 0-49.188 7.936-69.35 22.948-17.418 12.97-30.63 30.155-38.573 50.061-4.031-.483-8.075-.727-12.094-.727-55.451 0-100.564 45.113-100.564 100.565 0 9.354 1.269 18.534 3.778 27.395-24.052 15.062-39.182 41.906-39.182 70.625 0 45.887 37.331 83.218 83.218 83.218h28.977c7.694 15.818 18.033 30.345 30.792 43.105.09.09.183.176.273.266v45.817h-31.014c-4.311-14.394-17.671-24.916-33.449-24.916-19.237 0-34.888 15.663-34.888 34.916 0 19.237 15.65 34.888 34.888 34.888 15.775 0 29.133-10.51 33.447-24.888h41.017c5.522 0 10-4.477 10-10v-38.895c11.542 8.254 24.047 14.879 37.23 19.75v39.696c0 5.523 4.478 10 10 10s10-4.477 10-10v-33.764c8.324 1.879 16.844 3.088 25.495 3.619v58.321c0 5.523 4.478 10 10 10s10-4.477 10-10v-58.319c8.651-.53 17.172-1.737 25.496-3.614v33.757c0 5.523 4.478 10 10 10s10-4.477 10-10v-39.685c13.183-4.869 25.687-11.49 37.229-19.74v38.875c0 5.523 4.478 10 10 10h41.045c4.31 14.378 17.658 24.888 33.42 24.888 19.253 0 34.916-15.65 34.916-34.888 0-19.253-15.663-34.916-34.916-34.916-15.765 0-29.115 10.522-33.422 24.916h-31.043v-45.789c12.456-10.485 24.825-28.824 31.091-43.4zm-321.006 114.076c-8.209 0-14.888-6.679-14.888-14.888 0-8.225 6.679-14.916 14.888-14.916 8.225 0 14.916 6.691 14.916 14.916 0 8.209-6.691 14.888-14.916 14.888zm354.38-29.804c8.225 0 14.916 6.691 14.916 14.916 0 8.209-6.691 14.888-14.916 14.888-8.209 0-14.888-6.679-14.888-14.888 0-8.224 6.679-14.916 14.888-14.916zm-78.305-55.309c-54.518 54.518-143.225 54.518-197.742 0-43.449-43.45-53.551-109.191-25.137-163.59 2.558-4.896.662-10.937-4.233-13.494-4.898-2.559-10.938-.661-13.493 4.234-15.415 29.511-21.249 63.998-16.428 97.107 1.336 9.177 3.443 18.123 6.271 26.78h-20.891c-34.859 0-63.218-28.359-63.218-63.218 0-24.442 13.654-46.248 35.635-56.906 4.663-2.262 6.826-7.711 4.982-12.555-3.459-9.088-5.213-18.697-5.213-28.559 0-44.424 36.141-80.565 80.564-80.565 3.114 0 6.228.182 9.321.538 1.559.179 3.113.403 4.659.67 1.367.236 2.735.617 4.122.702 4.524.277 8.779-2.652 10.142-6.973 12.688-40.206 49.568-67.219 91.773-67.219 42.223 0 79.114 27.013 91.801 67.219 1.543 4.891 6.534 7.819 11.559 6.784 5.528-1.142 11.132-1.721 16.657-1.721 44.424 0 80.565 36.141 80.565 80.565 0 9.844-1.747 19.46-5.193 28.582-1.828 4.838.335 10.271 4.987 12.53 21.65 10.511 35.639 32.849 35.639 56.908 0 34.858-28.372 63.218-63.246 63.218h-20.843c5.204-15.898 7.911-32.695 7.911-49.909 0-42.693-16.624-82.829-46.809-113.014-24.546-24.546-55.632-40.154-89.897-45.135-33.108-4.815-67.595 1.026-97.097 16.442-4.895 2.558-6.789 8.6-4.231 13.494 2.559 4.895 8.6 6.79 13.495 4.231 54.401-28.429 120.143-18.339 163.588 25.109 26.408 26.407 40.951 61.521 40.951 98.872s-14.543 72.465-40.951 98.873z"/><path d="m157.129 185.304.028-.028c3.905-3.905 3.891-10.223-.015-14.128-3.905-3.906-10.251-3.889-14.156.014-3.905 3.905-3.905 10.237 0 14.143 1.953 1.953 4.512 2.929 7.071 2.929s5.119-.977 7.072-2.93z"/></g></svg>