<svg id="Capa_1" enable-background="new 0 0 512 512" height="512" viewBox="0 0 512 512" width="512" xmlns="http://www.w3.org/2000/svg"><g><path d="m358.314 331.974h-36.232v-19.596h20.954c5.523 0 10-4.477 10-10s-4.477-10-10-10h-20.954v-6.513c0-5.523-4.477-10-10-10h-6.498v-20.9c0-5.523-4.477-10-10-10s-10 4.477-10 10v20.9h-19.627v-36.166c0-5.523-4.477-10-10-10s-10 4.477-10 10v36.166h-19.627v-20.9c0-5.523-4.477-10-10-10s-10 4.477-10 10v20.9h-6.526c-5.523 0-10 4.477-10 10v6.513h-20.925c-5.523 0-10 4.477-10 10s4.477 10 10 10h20.925v19.596h-36.204c-5.523 0-10 4.477-10 10s4.477 10 10 10h36.204v19.596h-20.925c-5.523 0-10 4.477-10 10s4.477 10 10 10h20.925v6.512c0 5.523 4.477 10 10 10h6.526v20.9c0 5.523 4.477 10 10 10s10-4.477 10-10v-20.9h19.627v36.167c0 5.523 4.477 10 10 10s10-4.477 10-10v-36.167h19.627v20.9c0 5.523 4.477 10 10 10s10-4.477 10-10v-20.9h6.498c5.523 0 10-4.477 10-10v-6.512h20.954c5.523 0 10-4.477 10-10s-4.477-10-10-10h-20.954v-19.596h36.232c5.523 0 10-4.477 10-10s-4.477-10-10-10zm-148.51 56.108v-92.216h92.278v92.216z"/><path d="m511.887 75.764c0-7.54-3.302-14.831-8.937-19.834-4.944-4.39-11.319-6.698-17.908-6.706-3.89-.005-22.865.012-22.865.012-.155-4.064-1.261-8.76-3.783-12.018-3.335-4.307-8.667-5.544-13.482-7.473-62.873-25.143-112.153-12.12-176.023 18.865-5.256 2.547-9.544 4.711-12.953 7.073-3.411-2.364-7.702-4.527-12.961-7.071-63.867-30.982-113.14-44.003-175.998-18.868-4.155 1.661-8.779 2.762-12.124 5.917-3.787 3.571-4.709 8.577-4.877 13.563h-23.422c-14.642 0-26.554 11.906-26.554 26.544l.113 294.16c0 14.635 11.912 26.541 26.554 26.541h85.615c22.053 57.839 78.133 99.046 143.675 99.046 65.529 0 121.599-41.206 143.648-99.046h85.812c14.658 0 26.583-11.906 26.583-26.545zm-485.22 300.705c-3.553 0-6.554-2.996-6.554-6.545l-.113-294.16c0-3.545 3.001-6.541 6.554-6.541h23.334l-.482 263.968c-.033 5.573 2.545 10.927 6.857 14.445 4.123 3.365 10.796 5.751 16.004 3.693 9.69-3.831 19.747-6.738 30.014-8.708.049 11.629 1.391 22.958 3.903 33.847h-79.517zm76.915-54.381c-11.664 1.909-22.799 4.788-33.859 8.835 0 0 .197-276.214.239-280.882.258-.374 3.593-1.388 4.44-1.727 56.281-22.504 99.598-10.933 159.853 18.297 2.609 1.262 5.171 2.611 7.764 3.901 1.556.774 3.991 1.925 3.907 4.001-.062 1.672.031 114.252.031 114.252-9.43.608-18.632 2.066-27.528 4.304l-38.729-26.431v-24.995c14.19-4.295 24.548-17.488 24.548-33.053 0-19.039-15.498-34.528-34.548-34.528-19.049 0-34.547 15.489-34.547 34.528 0 15.565 10.358 28.758 24.547 33.053v30.129c-.047 3.387 1.662 6.619 4.484 8.491l30.589 20.875c-48.56 21.139-84.126 66.635-91.191 120.95zm66.119-198.969c-8.021 0-14.547-6.517-14.547-14.528s6.526-14.528 14.547-14.528 14.548 6.517 14.548 14.528-6.527 14.528-14.548 14.528zm86.257 352.396c-73.714 0-133.686-59.906-133.686-133.542 0-3.45.132-6.87.39-10.255.001-.012.002-.023.003-.035 5.276-68.846 63.044-123.253 133.292-123.253 70.233 0 127.988 54.406 133.264 123.251.001.014.002.027.003.041.258 3.383.39 6.802.39 10.25.001 73.637-59.958 133.543-133.656 133.543zm229.459-99.046h-79.714c2.511-10.89 3.855-22.219 3.903-33.848 10.17 1.95 20.139 4.824 29.757 8.608 5.417 2.131 12.111-.122 16.393-3.715 4.204-3.527 6.723-8.796 6.723-14.293l-.283-99.131c-.016-5.513-4.49-9.971-10-9.971-.009 0-.02 0-.029 0-5.522.016-9.987 4.506-9.971 10.028l.277 96.871c-11.057-4.045-22.499-7.023-34.145-8.93-7.06-54.318-42.641-99.807-91.19-120.947l30.591-20.877c2.823-1.872 4.531-5.104 4.485-8.492v-30.131c14.811-4.492 25.443-18.694 24.456-35.165-1.061-17.705-15.751-31.909-33.481-32.4-19.493-.54-35.523 15.152-35.523 34.514 0 15.565 10.358 28.758 24.547 33.053v24.995l-38.73 26.432c-8.895-2.239-18.096-3.697-27.526-4.305 0 0 .038-112.592-.022-114.249-.109-2.424 3.499-3.741 5.249-4.676 2.116-1.131 4.27-2.188 6.429-3.234 60.254-29.23 103.577-40.804 159.864-18.295 1.664.667 4.744 1.652 4.809 1.676.037 1.319-.09 94.404-.09 94.404.016 5.513 4.49 9.972 10 9.972h.029c5.518 0 9.987-4.482 9.972-10l-.212-75.139c7.712 0 15.43-.1 23.141 0 3.587.046 6.761 2.835 6.761 6.544l.113 294.16c0 3.546-3.015 6.541-6.583 6.541zm-142.542-253.365c-8.321.37-15.208-6.283-15.208-14.513 0-8.011 6.526-14.528 14.547-14.528 8.248 0 14.912 6.917 14.502 15.258-.364 7.388-6.452 13.455-13.841 13.783z"/><path d="m452.196 179.256c-5.523 0-10 4.477-10 10v.028c0 5.523 4.477 9.986 10 9.986s10-4.491 10-10.014-4.477-10-10-10z"/></g></svg>