<svg id="Capa_1" enable-background="new 0 0 512 512" height="512" viewBox="0 0 512 512" width="512" xmlns="http://www.w3.org/2000/svg"><g><path d="m410.263 75.315h-13.205l-8.912-57.533c-1.662-10.636-9.023-17.782-18.318-17.782h-174.366c-9.354 0-16.719 7.167-18.32 17.795l-8.91 57.52h-25.069c-18.052 0-32.737 14.697-32.737 32.762v24.696h-24.064c-9.573 0-17.362 7.792-17.362 17.37v60.688c0 9.594 7.789 17.398 17.362 17.398h24.063v57.668h-24.063c-9.573 0-17.362 7.805-17.362 17.398v60.689c0 9.578 7.789 17.37 17.354 17.37l24.072.02v22.521c0 18.065 14.686 32.762 32.737 32.762h19.122l8.913 57.57c1.671 10.63 9.032 17.773 18.317 17.773h174.366c9.199 0 16.734-7.331 18.32-17.795l8.91-57.548h19.15c18.052 0 32.737-14.697 32.737-32.762v-295.818c.002-18.065-14.684-32.762-32.735-32.762zm-299.837 286.058-21.426-.018v-55.458h21.426zm0-153.144h-21.426v-55.457h21.426zm86.486-187.413c.048-.317.112-.589.18-.816h171.098c.073.237.143.523.195.856l8.436 54.458h-188.351zm165.337 471.184h-171.092c-.074-.237-8.635-55.343-8.635-55.343h188.352c.001 0-8.686 55.374-8.625 55.343zm60.751-88.105c0 7.037-5.714 12.762-12.737 12.762h-267.1c-7.023 0-12.737-5.725-12.737-12.762v-295.818c0-7.037 5.714-12.762 12.737-12.762h245.28c.011 0 .021.001.032.001.013 0 .025-.001.038-.001h21.749c7.023 0 12.737 5.725 12.737 12.762v295.818z"/><path d="m391.036 117.324h-69.485c-5.522 0-10 4.477-10 10s4.478 10 10 10h59.485v237.353h-208.676v-237.353h59.486c5.522 0 10-4.477 10-10s-4.478-10-10-10h-69.486c-5.522 0-10 4.477-10 10v257.353c0 5.523 4.478 10 10 10h228.676c5.522 0 10-4.477 10-10v-257.353c0-5.523-4.477-10-10-10z"/><path d="m238.837 208.9-37.319 86.228c-2.017 4.661-.115 10.264 4.334 12.72 5.106 2.82 11.708.57 14.022-4.776l6.874-15.883h42.536l6.875 15.884c2.193 5.067 8.082 7.398 13.149 5.205 5.068-2.194 7.399-8.081 5.206-13.149l-9.449-21.831c0-.001 0-.001 0-.001l-27.871-64.396c-1.584-3.659-5.19-6.028-9.178-6.028s-7.595 2.367-9.179 6.027zm21.79 58.288h-25.224l12.612-29.141z"/><path d="m339.875 299.1v-86.229c0-5.523-4.478-10-10-10s-10 4.477-10 10v86.229c0 5.523 4.478 10 10 10s10-4.477 10-10z"/><path d="m276.698 137.324h.057c5.522 0 9.972-4.477 9.972-10s-4.506-10-10.028-10-10 4.477-10 10 4.477 10 9.999 10z"/></g></svg>