<svg id="Capa_1" enable-background="new 0 0 512 512" height="512" viewBox="0 0 512 512" width="512" xmlns="http://www.w3.org/2000/svg"><g><path d="m139.837 246c-5.523 0-10 4.477-10 10s4.477 10 10 10h42.453v24.939h-25.094c-5.523 0-10 4.477-10 10s4.477 10 10 10h25.094v8.729c0 5.523 4.477 10 10 10h8.741v25.071c0 5.523 4.477 10 10 10s10-4.477 10-10v-25.071h24.969v42.419c0 5.523 4.477 10 10 10 5.522 0 10-4.477 10-10v-42.419h24.968v25.071c0 5.523 4.478 10 10 10s10-4.477 10-10v-25.071h8.742c5.522 0 10-4.477 10-10v-8.729h25.093c5.522 0 10-4.477 10-10s-4.478-10-10-10h-25.093v-24.939h42.453c5.522 0 10-4.477 10-10s-4.478-10-10-10h-42.453v-24.939h25.093c5.522 0 10-4.477 10-10s-4.478-10-10-10h-25.093v-8.729c0-5.523-4.478-10-10-10h-8.742v-25.071c0-5.523-4.478-10-10-10s-10 4.477-10 10v25.071h-24.968v-42.39c0-5.523-4.478-10-10-10-5.523 0-10 4.477-10 10v42.39h-24.968v-25.071c0-5.523-4.477-10-10-10s-10 4.477-10 10v25.071h-8.741c-5.523 0-10 4.477-10 10v8.729h-25.094c-5.523 0-10 4.477-10 10s4.477 10 10 10h25.094v24.939zm62.454-43.668h107.419v107.337h-107.419z"/><path d="m486.32 401.586v-42.503c0-5.523-4.478-10-10-10h-57.139c-.887-5.875-2.422-11.636-4.598-17.151 27.552-15.096 44.849-43.875 44.849-75.933 0-32.032-17.297-60.809-44.852-75.926 2.174-5.509 3.708-11.261 4.596-17.129h57.144c5.522 0 10-4.477 10-10v-42.531c14.82-4.332 25.68-18.031 25.68-34.226 0-19.665-16.006-35.663-35.68-35.663s-35.68 15.999-35.68 35.663c0 16.195 10.86 29.893 25.68 34.227v32.531h-46.674c-1.833-17.772-9.588-34.281-22.313-47.157-12.76-12.912-29.23-20.886-47.034-22.91-6.679-22.082-27.326-37.878-51.029-37.878-17.801 0-33.591 8.773-43.27 22.219-9.678-13.446-25.469-22.219-43.27-22.219-23.703 0-44.351 15.796-51.029 37.878-17.803 2.024-34.274 9.998-47.035 22.91-12.724 12.876-20.479 29.385-22.313 47.157h-46.673v-32.531c14.82-4.333 25.68-18.032 25.68-34.227 0-19.665-16.006-35.663-35.68-35.663s-35.68 15.998-35.68 35.663c0 16.195 10.86 29.893 25.68 34.227v42.531c0 5.523 4.477 10 10 10h57.143c.888 5.869 2.423 11.622 4.598 17.132-11.747 6.461-21.831 15.561-29.525 26.716-3.136 4.546-1.992 10.774 2.554 13.91s10.774 1.993 13.91-2.554c7.475-10.838 17.88-19.152 30.09-24.042 2.676-1.072 4.759-3.247 5.715-5.965.957-2.72.693-5.719-.723-8.23-4.919-8.724-7.52-18.665-7.52-28.749 0-31.918 25.904-58.231 57.794-58.781 7.385.305 14.6 2.037 21.425 5.15 5.211 2.392 10.062 5.55 14.345 9.363 1.907 1.698 3.538 3.792 5.931 4.829 2.04.884 4.361 1.059 6.516.522 4.65-1.159 7.804-5.565 7.475-10.338-.169-2.448-1.224-4.682-2.925-6.434-1.986-2.045-4.12-3.96-6.33-5.759-5.096-4.146-10.72-7.63-16.691-10.37-5.423-2.474-11.029-4.281-16.757-5.45 5.422-11.243 16.981-18.895 30.025-18.895 18.345 0 33.27 14.912 33.27 33.241 0 5.523 4.477 10 10 10 5.522 0 10-4.477 10-10 0-18.329 14.925-33.241 33.27-33.241 13.045 0 24.604 7.653 30.024 18.895-5.73 1.17-11.342 2.98-16.778 5.46-8.681 3.984-16.46 9.448-23.121 16.242-3.543 3.612-3.793 9.496-.555 13.388 3.738 4.493 10.74 4.79 14.835.615 4.947-5.045 10.729-9.105 17.163-12.058 6.846-3.123 14.061-4.855 21.447-5.16 31.891.549 57.794 26.863 57.794 58.781 0 10.084-2.6 20.026-7.52 28.75-1.415 2.509-1.679 5.508-.724 8.226s3.036 4.893 5.71 5.966c25.445 10.213 41.888 34.51 41.888 61.897 0 27.414-16.438 51.708-41.88 61.894-2.676 1.071-4.76 3.246-5.717 5.965-.956 2.719-.693 5.719.723 8.23 4.92 8.724 7.52 18.665 7.52 28.75 0 31.918-25.903 58.231-57.794 58.781-7.385-.305-14.6-2.037-21.425-5.15-6.455-2.963-12.237-7.023-17.185-12.068-3.866-3.943-10.197-4.005-14.142-.138-3.943 3.867-4.005 10.198-.138 14.141 6.661 6.793 14.44 12.258 23.142 16.251 5.424 2.474 11.03 4.281 16.758 5.45-5.422 11.24-16.981 18.892-30.025 18.892-18.345 0-33.27-14.912-33.27-33.242 0-5.523-4.478-10-10-10-5.523 0-10 4.477-10 10 0 18.33-14.925 33.242-33.27 33.242-13.045 0-24.603-7.653-30.024-18.895 5.73-1.17 11.342-2.98 16.778-5.46 8.679-3.983 16.458-9.448 23.12-16.242 3.867-3.943 3.805-10.274-.138-14.141-3.942-3.868-10.274-3.805-14.141.138-4.948 5.045-10.729 9.105-17.163 12.058-6.846 3.123-14.061 4.855-21.446 5.16-31.89-.55-57.794-26.863-57.794-58.781 0-10.084 2.601-20.025 7.52-28.749 1.416-2.511 1.68-5.51.723-8.229-.956-2.719-3.04-4.894-5.715-5.965-12.169-4.875-22.58-13.187-30.106-24.036-3.149-4.538-9.378-5.665-13.917-2.517-4.538 3.148-5.665 9.378-2.517 13.917 7.727 11.139 17.805 20.219 29.511 26.663-2.179 5.519-3.716 11.283-4.604 17.163h-57.137c-5.523 0-10 4.477-10 10v42.503c-14.82 4.332-25.68 18.031-25.68 34.226 0 19.665 16.006 35.663 35.68 35.663s35.68-15.999 35.68-35.663c0-16.195-10.86-29.893-25.68-34.227v-32.503h46.677c1.839 17.761 9.592 34.259 22.309 47.128 12.76 12.912 29.231 20.886 47.035 22.91 6.679 22.083 27.326 37.879 51.029 37.879 17.8 0 33.591-8.773 43.27-22.219 9.679 13.446 25.469 22.219 43.27 22.219 23.703 0 44.351-15.796 51.029-37.878 17.804-2.024 34.274-9.998 47.034-22.91 12.718-12.869 20.471-29.368 22.309-47.128h46.678v32.503c-14.82 4.333-25.68 18.032-25.68 34.227 0 19.665 16.006 35.663 35.68 35.663s35.68-15.999 35.68-35.664c0-16.195-10.86-29.894-25.68-34.227zm-25.679-325.399c0-8.637 7.034-15.663 15.68-15.663s15.679 7.026 15.679 15.663c0 8.636-7.034 15.663-15.68 15.663s-15.679-7.027-15.679-15.663zm-440.641 0c0-8.637 7.034-15.663 15.68-15.663s15.68 7.026 15.68 15.663c0 8.636-7.034 15.663-15.68 15.663s-15.68-7.027-15.68-15.663zm31.359 359.626c0 8.637-7.034 15.663-15.68 15.663s-15.679-7.026-15.679-15.663c0-8.636 7.034-15.663 15.68-15.663s15.679 7.027 15.679 15.663zm424.961 15.663c-8.646 0-15.68-7.026-15.68-15.663 0-8.636 7.034-15.663 15.68-15.663s15.68 7.027 15.68 15.663c0 8.637-7.034 15.663-15.68 15.663z"/><path d="m72.568 256c0-5.523-4.477-10-10-10s-10 4.477-10 10v.058c0 5.523 4.477 9.971 10 9.971s10-4.506 10-10.029z"/></g></svg>