<svg id="Capa_1" enable-background="new 0 0 512 512" height="512" viewBox="0 0 512 512" width="512" xmlns="http://www.w3.org/2000/svg"><g><path d="m121.201 144.196c-5.522 0-10 4.477-10 10v38.018h-7.263c-13.11 0-23.776 10.679-23.776 23.805v106.551c0 13.11 10.666 23.776 23.776 23.776h113.1c13.11 0 23.776-10.666 23.776-23.776v-106.552c0-13.126-10.666-23.805-23.776-23.805h-7.262v-38.018c0-5.523-4.478-10-10-10s-10 4.477-10 10v38.018h-58.575v-38.018c0-5.522-4.477-9.999-10-9.999zm99.613 71.822v106.552c0 2.047-1.729 3.776-3.776 3.776h-113.1c-2.047 0-3.776-1.729-3.776-3.776v-106.552c0-2.063 1.729-3.805 3.776-3.805h113.1c2.047 0 3.776 1.743 3.776 3.805z"/><path d="m133.163 238.134c-5.522 0-10 4.477-10 10s4.478 10 10 10h.057c5.522 0 9.972-4.477 9.972-10s-4.506-10-10.029-10z"/><path d="m187.757 238.134c-5.522 0-10 4.477-10 10s4.478 10 10 10h.057c5.522 0 9.972-4.477 9.972-10s-4.507-10-10.029-10z"/><path d="m494.432 62.333h-173.455v-21.351c0-22.598-18.384-40.982-40.982-40.982h-239.013c-22.597 0-40.982 18.384-40.982 40.982v261.746c0 5.523 4.478 10 10 10s10-4.477 10-10v-261.746c0-11.569 9.413-20.982 20.982-20.982h36.005v30.96c0 8.546 6.966 15.499 15.527 15.499h135.947c8.562 0 15.527-6.953 15.527-15.499v-30.96h36.006c11.569 0 20.981 9.413 20.981 20.982v21.351h-5.618c-9.688 0-17.568 7.869-17.568 17.54v108.507l-10.367 75.688c-1.053 7.679 7.075 13.708 14.13 10.421l19.424-9.049v158.643h-280.976v-31.555c0-5.523-4.478-10-10-10s-10 4.477-10 10v78.461c0 22.614 18.385 41.011 40.982 41.011h239.013c22.598 0 40.981-18.397 40.981-41.01v-214.867l17.953-8.364h155.502c9.688 0 17.568-7.881 17.568-17.568v-150.318c.001-9.672-7.88-17.54-17.567-17.54zm-270.443-15.874h-127.002v-26.459h127.002zm56.006 445.541h-239.013c-11.569 0-20.982-9.425-20.982-21.01v-26.907h280.977v26.907c0 11.585-9.413 21.01-20.982 21.01zm212.005-264.241h-155.285c-1.459 0-2.9.319-4.223.936l-42.767 19.923 7.972-58.2c.062-.45.093-.903.093-1.357v-106.728h194.21z"/><path d="m434.196 125.277h23.131c5.522 0 10-4.477 10-10s-4.478-10-10-10h-23.131c-5.522 0-10 4.477-10 10s4.478 10 10 10z"/><path d="m332.463 125.277h63.665c5.522 0 10-4.477 10-10s-4.478-10-10-10h-63.665c-5.522 0-10 4.477-10 10s4.477 10 10 10z"/><path d="m332.463 165.046h15.165c5.522 0 10-4.477 10-10s-4.478-10-10-10h-15.165c-5.522 0-10 4.477-10 10s4.477 10 10 10z"/><path d="m457.327 145.046h-71.545c-5.522 0-10 4.477-10 10s4.478 10 10 10h71.545c5.522 0 10-4.477 10-10s-4.477-10-10-10z"/><path d="m332.463 204.787h51.646c5.522 0 10-4.477 10-10s-4.478-10-10-10h-51.646c-5.522 0-10 4.477-10 10s4.477 10 10 10z"/><path d="m457.327 184.787h-35.149c-5.522 0-10 4.477-10 10s4.478 10 10 10h35.149c5.522 0 10-4.477 10-10s-4.477-10-10-10z"/><path d="m10 357.657c5.522 0 10-4.506 10-10.029s-4.478-10-10-10-10 4.477-10 10v.057c0 5.523 4.478 9.972 10 9.972z"/></g></svg>