<svg id="Capa_1" enable-background="new 0 0 512 512" height="512" viewBox="0 0 512 512" width="512" xmlns="http://www.w3.org/2000/svg"><g><path d="m343.132 124.029c5.523 0 10-4.477 10-10s-4.477-10-10-10h-20.944v-6.497c0-5.523-4.477-10-10-10h-6.536v-20.953c0-5.523-4.477-10-10-10s-10 4.477-10 10v20.954h-19.652v-36.233c0-5.523-4.477-10-10-10s-10 4.477-10 10v36.232h-19.652v-20.953c0-5.523-4.477-10-10-10s-10 4.477-10 10v20.954h-6.536c-5.523 0-10 4.477-10 10v6.497h-20.944c-5.523 0-10 4.477-10 10s4.477 10 10 10h20.944v19.628h-36.232c-5.523 0-10 4.477-10 10s4.477 10 10 10h36.232v19.627h-20.944c-5.523 0-10 4.477-10 10s4.477 10 10 10h20.944v6.526c0 5.523 4.477 10 10 10h6.536v20.925c0 5.523 4.477 10 10 10s10-4.477 10-10v-20.925h19.652v36.204c0 5.523 4.477 10 10 10s10-4.477 10-10v-36.204h19.652v20.925c0 5.523 4.477 10 10 10s10-4.477 10-10v-20.925h6.536c5.523 0 10-4.477 10-10v-6.526h20.944c5.523 0 10-4.477 10-10s-4.477-10-10-10h-20.944v-19.627h36.232c5.523 0 10-4.477 10-10s-4.477-10-10-10h-36.232v-19.628h20.944zm-40.944 75.782h-92.376v-92.278h92.376z"/><path d="m477.292 84.045h-84.25c-25.449-49.837-77.322-84.045-137.042-84.045s-111.593 34.208-137.041 84.045h-84.25c-8.111 0-14.709 6.61-14.709 14.734v93.542c0 5.523 4.477 10 10 10s10-4.477 10-10v-88.275h70.48c-5.329 15.571-8.226 32.259-8.226 49.612 0 84.742 68.97 153.685 153.746 153.685s153.746-68.943 153.746-153.685c0-17.353-2.897-34.041-8.226-49.612h70.48v232.081h-432v-53.977c0-5.523-4.477-10-10-10s-10 4.477-10 10v107.233c0 8.108 6.598 14.705 14.708 14.705h145.185l-13.027 42.985h-20.831c-17.9 0-32.464 14.557-32.464 32.45v22.477c0 5.523 4.477 10 10 10h264.858c5.523 0 10-4.477 10-10v-22.479c0-17.893-14.563-32.45-32.464-32.45h-20.831l-13.027-42.985h145.185c8.11 0 14.708-6.597 14.708-14.705v-290.602c0-8.124-6.598-14.734-14.708-14.734zm-221.292 203.297c-73.748 0-133.746-59.971-133.746-133.685 0-73.699 59.998-133.657 133.746-133.657s133.746 59.958 133.746 133.657c0 73.715-59.998 133.685-133.746 133.685zm81.651 179.73c.02 0 .04.002.06.002.022 0 .045-.002.067-.002h28.186c6.873 0 12.464 5.585 12.464 12.45v12.478h-244.857v-12.479c0-6.865 5.591-12.45 12.464-12.45h28.186c.022 0 .045.002.067.002.02 0 .04-.002.06-.002h163.303zm-149.886-20 13.027-42.985h110.416l13.027 42.985zm284.235-62.985h-432v-27.961h432z"/><path d="m30 247.263c5.523 0 10-4.491 10-10.014s-4.477-10-10-10-10 4.477-10 10v.028c0 5.523 4.477 9.986 10 9.986z"/></g></svg>