<svg id="Capa_1" enable-background="new 0 0 512 512" height="512" viewBox="0 0 512 512" width="512" xmlns="http://www.w3.org/2000/svg"><g><path d="m322.059 246.877h20.948c5.522 0 10-4.477 10-10s-4.478-10-10-10h-20.948v-6.463c0-5.523-4.478-10-10-10h-6.494v-20.89c0-5.523-4.478-10-10-10s-10 4.477-10 10v20.89h-19.621v-36.137c0-5.523-4.478-10-10-10-5.523 0-10 4.477-10 10v36.137h-19.621v-20.89c0-5.523-4.477-10-10-10s-10 4.477-10 10v20.89h-6.523c-5.523 0-10 4.477-10 10v6.463h-20.92c-5.523 0-10 4.477-10 10s4.477 10 10 10h20.92v19.546h-36.196c-5.523 0-10 4.477-10 10s4.477 10 10 10h36.196v19.546h-20.92c-5.523 0-10 4.477-10 10s4.477 10 10 10h20.92v6.492c0 5.523 4.477 10 10 10h6.523v20.862c0 5.523 4.477 10 10 10s10-4.477 10-10v-20.862h19.621v36.108c0 5.523 4.477 10 10 10 5.522 0 10-4.477 10-10v-36.108h19.621v20.862c0 5.523 4.478 10 10 10s10-4.477 10-10v-20.862h6.494c5.522 0 10-4.477 10-10v-6.492h20.948c5.522 0 10-4.477 10-10s-4.478-10-10-10h-20.948v-19.546h36.225c5.522 0 10-4.477 10-10s-4.478-10-10-10h-36.225zm-20 75.584h-92.259v-92.046h92.259z"/><path d="m477.088 244.614c-15.755 0-29.097 10.487-33.411 24.836h-28.52c-1.819-29.379-11.641-57.392-28.691-81.554-5.348-7.579-11.291-14.623-17.758-21.083v-45.758h31.011c4.315 14.365 17.67 24.865 33.44 24.865 19.235 0 34.884-15.64 34.884-34.865 0-19.209-15.648-34.836-34.884-34.836-15.767 0-29.12 10.487-33.438 24.836h-41.013c-5.522 0-10 4.477-10 10v38.852c-9.316-6.646-19.351-12.305-29.994-16.845v-66.196c12.285-2.802 21.483-13.806 21.483-26.926v-6.817c0-15.231-12.395-27.623-27.629-27.623h-11.732c-5.522 0-10 4.477-10 10s4.478 10 10 10h11.732c4.207 0 7.629 3.42 7.629 7.623v6.817c0 4.203-3.422 7.623-7.629 7.623h-113.222c-4.15 0-7.656-3.491-7.656-7.623v-6.817c0-4.132 3.506-7.623 7.656-7.623h9.013c5.523 0 10-4.477 10-10s-4.477-10-10-10h-9.013c-15.25 0-27.656 12.392-27.656 27.623v6.817c0 13.121 9.21 24.127 21.511 26.927v66.229c-10.612 4.535-20.618 10.183-29.909 16.812v-38.853c0-5.523-4.477-10-10-10h-41.04c-4.314-14.349-17.657-24.836-33.412-24.836-19.25 0-34.912 15.627-34.912 34.836 0 19.225 15.661 34.865 34.912 34.865 15.758 0 29.102-10.5 33.414-24.865h31.038v45.761c-6.477 6.47-12.426 13.526-17.78 21.117-17.036 24.155-26.85 52.155-28.668 81.517h-28.522c-4.318-14.349-17.671-24.836-33.439-24.836-19.235 0-34.883 15.627-34.883 34.836 0 19.225 15.648 34.865 34.883 34.865 15.771 0 29.126-10.5 33.441-24.865h28.529c2.491 39.914 19.772 75.893 46.439 102.512v45.912h-31.038c-4.312-14.365-17.656-24.865-33.414-24.865-19.25 0-34.912 15.64-34.912 34.865 0 19.209 15.661 34.836 34.912 34.836 15.755 0 29.097-10.487 33.412-24.836h41.04c5.523 0 10-4.477 10-10v-38.975c11.385 8.148 23.884 14.836 37.221 19.793v39.69c0 5.523 4.477 10 10 10s10-4.477 10-10v-33.722c8.271 1.884 16.787 3.116 25.487 3.656v58.184c0 5.523 4.477 10 10 10 5.522 0 10-4.477 10-10v-58.184c8.701-.54 17.216-1.773 25.487-3.656v33.722c0 5.523 4.478 10 10 10s10-4.477 10-10v-39.69c13.337-4.957 25.836-11.645 37.221-19.793v38.975c0 5.523 4.478 10 10 10h41.013c4.318 14.349 17.671 24.836 33.438 24.836 19.235 0 34.884-15.627 34.884-34.836 0-19.225-15.648-34.865-34.884-34.865-15.77 0-29.125 10.5-33.44 24.865h-31.011v-45.912c26.667-26.619 43.948-62.598 46.439-102.512h28.528c4.312 14.365 17.656 24.865 33.413 24.865 19.251 0 34.912-15.64 34.912-34.865 0-19.209-15.661-34.836-34.912-34.836zm-43.929-148.395c8.207 0 14.884 6.656 14.884 14.836 0 8.196-6.677 14.865-14.884 14.865-8.222 0-14.911-6.668-14.911-14.865 0-8.18 6.69-14.836 14.911-14.836zm-354.319 29.701c-8.222 0-14.912-6.668-14.912-14.865 0-8.181 6.689-14.836 14.912-14.836 8.207 0 14.883 6.656 14.883 14.836.001 8.196-6.676 14.865-14.883 14.865zm-43.957 168.395c-8.207 0-14.883-6.668-14.883-14.865 0-8.181 6.677-14.836 14.883-14.836 8.222 0 14.912 6.656 14.912 14.836 0 8.196-6.69 14.865-14.912 14.865zm43.957 168.395c-8.222 0-14.912-6.656-14.912-14.836 0-8.196 6.689-14.865 14.912-14.865 8.207 0 14.883 6.668 14.883 14.865.001 8.181-6.676 14.836-14.883 14.836zm354.319-29.701c8.207 0 14.884 6.668 14.884 14.865 0 8.181-6.677 14.836-14.884 14.836-8.222 0-14.911-6.656-14.911-14.836 0-8.196 6.69-14.865 14.911-14.865zm-177.159-14.371c-76.904 0-139.471-62.439-139.471-139.188 0-57.556 36.249-109.896 90.2-130.242 3.894-1.469 6.471-5.195 6.471-9.357v-72.288h85.513v72.26c0 4.165 2.581 7.893 6.479 9.359 53.998 20.316 90.278 72.667 90.278 130.268.001 76.749-62.566 139.188-139.47 139.188zm221.088-124.323c-8.206 0-14.883-6.668-14.883-14.865 0-8.181 6.677-14.836 14.883-14.836 8.223 0 14.912 6.656 14.912 14.836 0 8.196-6.689 14.865-14.912 14.865z"/><path d="m255.943 25.5h.057c5.522 0 9.972-4.477 9.972-10s-4.506-10-10.028-10c-5.523 0-10 4.477-10 10s4.476 10 9.999 10z"/></g></svg>