<svg id="Capa_1" enable-background="new 0 0 512 512" height="512" viewBox="0 0 512 512" width="512" xmlns="http://www.w3.org/2000/svg"><g><path d="m306.329 438.044c-6.388-1.712-12.966-1.706-19.2-.074l-27.626-47.87c11.562-11.754 14.415-30.237 5.79-45.19-5.02-8.704-13.128-14.929-22.832-17.529-6.39-1.712-12.967-1.706-19.201-.074l-27.645-47.886c2.19-2.222 4.146-4.742 5.778-7.565.001-.002.003-.005.004-.008 10.364-17.966 4.187-41.012-13.759-51.367-17.93-10.369-40.974-4.201-51.374 13.766-8.624 14.951-5.773 33.431 5.791 45.189l-27.627 47.871c-6.234-1.632-12.811-1.638-19.199.074-9.703 2.6-17.812 8.824-22.832 17.529-8.632 14.965-5.78 33.448 5.787 45.195l-27.631 47.878c-15.954-4.136-33.381 2.636-42.024 17.59-10.363 17.966-4.187 41.012 13.759 51.368 5.902 3.413 12.353 5.034 18.728 5.034 12.996 0 25.666-6.742 32.639-18.786.001-.002.003-.004.004-.006 1.637-2.832 2.86-5.792 3.691-8.809h55.266c2.537 9.191 8.531 17.434 17.417 22.572 5.797 3.346 12.229 5.055 18.745 5.055 3.266 0 6.552-.429 9.789-1.297 9.7-2.599 17.806-8.821 22.828-17.521 1.622-2.806 2.854-5.765 3.698-8.809h55.253c.83 3.013 2.051 5.97 3.683 8.801 5.02 8.704 13.128 14.929 22.832 17.529 3.237.868 6.523 1.297 9.789 1.297 6.515 0 12.949-1.709 18.745-5.055 17.955-10.361 24.131-33.406 13.768-51.373-5.022-8.705-13.13-14.93-22.834-17.529zm-249.986 45.125c-4.87 8.411-15.655 11.309-24.052 6.454-8.405-4.85-11.293-15.643-6.444-24.051 3.262-5.643 9.197-8.802 15.286-8.802 2.98 0 5.996.757 8.754 2.348 8.412 4.865 11.308 15.653 6.456 24.051zm167.578-134.707c.002-.001.003-.002.005-.002.001-.001.003-.002.004-.003 4.075-2.35 8.816-2.976 13.356-1.759 4.539 1.216 8.333 4.129 10.683 8.203 4.849 8.408 1.957 19.203-6.44 24.059-8.401 4.848-19.185 1.957-24.046-6.444-4.852-8.414-1.965-19.203 6.438-24.054zm-70.341-104.21c3.27-5.648 9.203-8.809 15.292-8.809 2.981 0 6 .759 8.76 2.354 8.405 4.85 11.293 15.641 6.441 24.057-4.859 8.399-15.644 11.291-24.037 6.449-8.405-4.861-11.297-15.656-6.456-24.051zm5.79 45.192c3.098.803 6.251 1.2 9.386 1.2 3.227 0 6.433-.417 9.537-1.226l27.653 47.899c-4.558 4.629-7.764 10.3-9.445 16.394h-55.314c-1.681-6.095-4.887-11.766-9.445-16.395zm-69.65 65.458c2.35-4.074 6.144-6.987 10.683-8.203 1.515-.406 3.053-.606 4.58-.606 3.052 0 6.066.801 8.781 2.368 8.405 4.85 11.293 15.643 6.44 24.058-2.35 4.074-6.144 6.987-10.683 8.203-4.537 1.215-9.283.591-13.362-1.762-8.404-4.85-11.293-15.643-6.439-24.058zm46.543 100.671c-1.633 2.83-2.852 5.787-3.682 8.801h-55.264c-1.682-6.09-4.889-11.759-9.446-16.39l27.624-47.866c3.075.805 6.233 1.219 9.412 1.219 3.173 0 6.365-.414 9.513-1.232l27.633 47.882c-2.196 2.224-4.15 4.758-5.79 7.586zm-4.512-65.453c2.213-2.254 4.158-4.8 5.778-7.609 1.633-2.83 2.853-5.787 3.683-8.801h55.264c.83 3.013 2.051 5.97 3.684 8.801.001.003.003.005.004.008 1.634 2.828 3.593 5.351 5.786 7.575l-27.658 47.887c-6.28-1.628-12.788-1.567-18.904.027zm52.325 93.054c-.001.002-.003.005-.004.008-2.35 4.074-6.144 6.987-10.683 8.203-4.54 1.215-9.285.59-13.354-1.757-8.404-4.86-11.296-15.655-6.459-24.042 3.277-5.65 9.218-8.813 15.308-8.813 2.976 0 5.991.757 8.744 2.349l.001.001c.001 0 .002.001.002.001 4.071 2.35 6.984 6.148 8.2 10.696 1.219 4.547.595 9.289-1.755 13.354zm76.293-18.8h-55.297c-1.733-6.286-4.992-11.887-9.455-16.403l27.658-47.887c3.099.806 6.3 1.222 9.522 1.222 3.135 0 6.288-.397 9.387-1.2l27.629 47.874c-4.557 4.628-7.763 10.299-9.444 16.394zm45.028 25.25c-4.077 2.351-8.821 2.978-13.362 1.762-4.539-1.216-8.333-4.129-10.683-8.203-4.854-8.416-1.965-19.208 6.44-24.059 4.076-2.352 8.819-2.979 13.362-1.762 4.539 1.216 8.333 4.129 10.683 8.203 4.853 8.415 1.964 19.209-6.44 24.059z"/><path d="m445.29 137.282c.004 5.52 4.481 9.992 10 9.992h.008c5.523-.004 9.996-4.484 9.992-10.007-.016-21.263-5.87-40.919-16.932-56.844-11.599-16.699-28.442-28.523-48.709-34.195-5.315-1.488-10.836 1.616-12.326 6.934-1.488 5.319 1.616 10.837 6.935 12.325 31.452 8.803 51.006 36.313 51.032 71.795z"/><path d="m508.5 137.462c-.041-39.429-13.822-73.819-39.852-99.45-24.997-24.615-59.278-38.463-94.103-38-14.716-.199-29.385 2.147-43.599 6.967-5.23 1.774-8.032 7.452-6.258 12.682 1.772 5.23 7.453 8.03 12.682 6.258 12.093-4.102 24.559-6.099 37.029-5.908.096.001.191.001.289 0 29.53-.421 58.681 11.332 79.926 32.251 15.433 15.197 33.84 42.318 33.885 85.224.058 40.199-15.956 61.995-32.909 85.07-12.848 17.489-26.086 35.518-32.045 61.34h-39v-75.99c13.877-4.278 23.99-17.212 23.99-32.465 0-18.73-15.248-33.967-33.99-33.967-18.726 0-33.961 15.237-33.961 33.967 0 15.25 10.1 28.182 23.96 32.463v75.992h-38.974c-5.969-25.821-19.205-43.849-32.053-61.336-16.955-23.078-32.97-44.875-32.926-85.079.025-24.659 6.149-46.795 18.2-65.794 2.958-4.664 1.576-10.843-3.088-13.8-4.666-2.96-10.843-1.576-13.801 3.088-14.112 22.247-21.282 47.981-21.311 76.486-.051 46.771 19.531 73.424 36.808 96.94 11.692 15.914 22.812 31.069 28.132 51.774-12.229 4.813-20.912 16.743-20.912 30.672 0 15.396 10.622 28.353 24.921 31.936v19.077c0 20.987 17.071 38.061 38.053 38.061h53.906c20.999 0 38.082-17.074 38.082-38.061v-19.077c14.299-3.583 24.921-16.54 24.921-31.936 0-13.931-8.686-25.862-20.917-30.674 5.312-20.706 16.433-35.862 28.125-51.776 17.276-23.515 36.857-50.168 36.79-96.935zm-147.915 37.98c0-7.701 6.263-13.967 13.96-13.967 7.714 0 13.99 6.266 13.99 13.967 0 7.702-6.276 13.968-13.99 13.968-7.698 0-13.96-6.266-13.96-13.968zm58.994 192.418c0 9.959-8.112 18.061-18.082 18.061h-53.906c-9.954 0-18.052-8.102-18.052-18.061v-18.089h90.04zm24.921-51.012c0 7.126-5.794 12.924-12.916 12.924h-114.048c-6.1 0-11.517-4.466-12.68-10.455-1.178-6.069 2.255-12.3 8.016-14.544 2.493-.971 5.206-.972 7.844-.875h107.684s3.472-.091 5.737.257c5.903 1.19 10.363 6.428 10.363 12.693z"/><path d="m298.908 45.222c5.523 0 10-4.477 10-10s-4.478-10-10-10h-.028c-5.523 0-9.987 4.477-9.987 10s4.493 10 10.015 10z"/></g></svg>