<svg id="Capa_1" enable-background="new 0 0 512 512" height="512" viewBox="0 0 512 512" width="512" xmlns="http://www.w3.org/2000/svg"><g><path d="m10 174.485h44.985c5.523 0 10-4.478 10-10v-99.5h92.556c5.523 0 10-4.478 10-10v-44.985c0-5.522-4.477-10-10-10h-147.541c-5.523 0-10 4.478-10 10v154.485c0 5.523 4.477 10 10 10zm10-154.485h127.541v24.985h-92.556c-5.523 0-10 4.478-10 10v99.5h-24.985z"/><path d="m502 0h-147.541c-5.523 0-10 4.478-10 10v44.985c0 5.522 4.477 10 10 10h92.527v99.5c0 5.522 4.477 10 10 10h45.014c5.523 0 10-4.478 10-10v-154.485c0-5.522-4.477-10-10-10zm-10 154.485h-25.013v-99.5c0-5.522-4.477-10-10-10h-92.527v-24.985h127.54z"/><path d="m502 337.486h-45.013c-5.523 0-10 4.478-10 10v99.5h-92.527c-5.523 0-10 4.478-10 10v45.014c0 5.522 4.477 10 10 10h147.54c5.523 0 10-4.478 10-10v-154.514c0-5.522-4.477-10-10-10zm-10 154.514h-127.541v-25.014h92.527c5.523 0 10-4.478 10-10v-99.5h25.014z"/><path d="m157.541 446.986h-92.556v-99.5c0-5.522-4.477-10-10-10h-44.985c-5.523 0-10 4.478-10 10v154.514c0 5.522 4.477 10 10 10h147.541c5.523 0 10-4.478 10-10v-45.014c0-5.522-4.478-10-10-10zm-10 45.014h-127.541v-134.514h24.985v99.5c0 5.522 4.477 10 10 10h92.556z"/><path d="m355.789 349.011h.003c5.521 0 9.999-4.476 10-9.997l.028-102.071c.015-28.487-11.476-55.326-32.355-75.572-20.791-20.16-48.307-31.263-77.479-31.263-60.563 0-109.834 47.924-109.834 106.83v26.305c0 5.522 4.477 10 10 10s10-4.478 10-10v-26.305c0-47.878 40.3-86.83 89.834-86.83 23.946 0 46.517 9.099 63.556 25.621 16.958 16.443 26.291 38.18 26.278 61.206l-.028 102.073c-.001 5.523 4.474 10.001 9.997 10.003z"/><path d="m324.775 242.182c0-37.931-30.859-68.79-68.79-68.79-37.915 0-68.761 30.859-68.761 68.79v96.829c0 5.522 4.477 10 10 10s10-4.478 10-10v-96.829c0-26.903 21.874-48.79 48.761-48.79 26.903 0 48.79 21.887 48.79 48.79v21.061c0 5.522 4.477 10 10 10s10-4.478 10-10z"/><path d="m156.151 301.146c-5.523 0-10 4.478-10 10v27.864c0 5.522 4.477 10 10 10s10-4.478 10-10v-27.864c0-5.522-4.477-10-10-10z"/><path d="m255.986 235.996c6.333 0 11.486 5.165 11.486 11.515 0 5.522 4.477 10 10 10s10-4.478 10-10c0-17.377-14.125-31.515-31.486-31.515s-31.486 14.138-31.486 31.515v69.985c0 17.377 14.125 31.515 31.486 31.515s31.486-14.138 31.486-31.515c0-5.522-4.477-10-10-10s-10 4.478-10 10c0 6.35-5.153 11.515-11.486 11.515s-11.486-5.165-11.486-11.515v-69.985c0-6.35 5.152-11.515 11.486-11.515z"/><path d="m314.775 301.146c-5.523 0-10 4.478-10 10v28.46c0 5.522 4.477 10 10 10s10-4.478 10-10v-28.46c0-5.522-4.477-10-10-10z"/><path d="m384.179 127.82c-57.761-57.76-147.526-69.75-218.292-29.154-4.791 2.748-6.446 8.859-3.698 13.649 2.749 4.792 8.86 6.449 13.65 3.698 62.95-36.111 142.807-25.441 194.197 25.949 62.867 62.867 62.867 165.182.002 228.073-62.895 62.866-165.209 62.869-228.075.001-51.391-51.391-62.062-131.248-25.949-194.198 2.748-4.79 1.092-10.901-3.698-13.649-4.792-2.75-10.903-1.092-13.65 3.698-40.595 70.765-28.606 160.53 29.155 218.292 35.332 35.331 81.747 52.997 128.167 52.996 46.42 0 92.845-17.666 128.192-52.998 70.663-70.692 70.662-185.693-.001-256.357z"/><path d="m127.821 127.82c-3.905 3.905-3.905 10.237 0 14.143 1.953 1.952 4.512 2.929 7.071 2.929s5.119-.977 7.071-2.929l.028-.028c3.905-3.905 3.891-10.223-.014-14.128s-10.25-3.892-14.156.013z"/></g></svg>