<svg id="Capa_1" enable-background="new 0 0 512 512" height="512" viewBox="0 0 512 512" width="512" xmlns="http://www.w3.org/2000/svg"><g><path d="m81.297 106.54c18.117 0 32.856-14.723 32.856-32.818 0-18.08-14.739-32.79-32.856-32.79s-32.856 14.71-32.856 32.79c0 18.095 14.739 32.818 32.856 32.818zm0-45.608c7.089 0 12.856 5.737 12.856 12.79 0 7.068-5.767 12.818-12.856 12.818s-12.856-5.75-12.856-12.818c0-7.053 5.767-12.79 12.856-12.79z"/><path d="m172.721 106.54c18.117 0 32.856-14.723 32.856-32.818 0-18.08-14.739-32.79-32.856-32.79s-32.856 14.71-32.856 32.79c0 18.095 14.739 32.818 32.856 32.818zm0-45.608c7.089 0 12.856 5.737 12.856 12.79 0 7.068-5.767 12.818-12.856 12.818s-12.856-5.75-12.856-12.818c0-7.053 5.767-12.79 12.856-12.79z"/><path d="m282.025 106.54h94.466c18.117 0 32.856-14.723 32.856-32.818 0-18.08-14.739-32.79-32.856-32.79h-94.466c-18.116 0-32.855 14.71-32.855 32.79 0 18.095 14.739 32.818 32.855 32.818zm0-45.608h94.466c7.089 0 12.856 5.737 12.856 12.79 0 7.068-5.768 12.818-12.856 12.818h-94.466c-7.089 0-12.855-5.75-12.855-12.818 0-7.053 5.767-12.79 12.855-12.79z"/><path d="m488.411 266.792h-30.623v-226.264c0-22.347-18.221-40.528-40.616-40.528h-376.555c-22.396 0-40.617 18.181-40.617 40.528v379.269c0 22.348 18.221 40.528 40.617 40.528h205.199v28.097c0 13.001 10.595 23.578 23.617 23.578h218.979c13.006 0 23.588-10.577 23.588-23.578v-69.617c0-5.522-4.478-10-10-10s-10 4.478-10 10v69.617c0 1.939-1.644 3.578-3.589 3.578h-218.978c-1.961 0-3.617-1.639-3.617-3.578v-198.053c0-1.939 1.656-3.577 3.617-3.577h218.979c1.945 0 3.589 1.638 3.589 3.577v38.607c0 5.522 4.478 10 10 10s10-4.478 10-10v-38.607c-.001-13.001-10.583-23.577-23.59-23.577zm-447.794-246.792h376.555c11.368 0 20.616 9.209 20.616 20.528v86.943h-417.788v-86.943c0-11.319 9.249-20.528 20.617-20.528zm205.198 270.369v149.956h-205.198c-11.368 0-20.617-9.209-20.617-20.528v-272.325h417.788v119.32h-168.355c-13.023 0-23.618 10.576-23.618 23.577z"/><path d="m120.667 266.07c5.312 1.227 10.767-2.189 11.992-7.497l17.796-77.158c1.241-5.381-2.115-10.75-7.497-11.991-5.382-1.243-10.75 2.116-11.992 7.497l-17.796 77.158c-1.24 5.381 2.116 10.75 7.497 11.991z"/><path d="m72.321 256.071c1.978 2.301 4.774 3.48 7.587 3.48 2.308 0 4.628-.795 6.515-2.418 4.188-3.601 4.664-9.914 1.063-14.102l-21.744-25.288 21.746-25.313c3.599-4.189 3.121-10.503-1.068-14.102-4.188-3.6-10.501-3.12-14.102 1.068l-27.347 31.834c-3.221 3.749-3.219 9.289.003 13.036z"/><path d="m191.307 179.398c-3.599-4.188-9.912-4.667-14.102-1.068-4.189 3.599-4.667 9.912-1.068 14.102l21.747 25.313-21.744 25.288c-3.303 3.841-3.162 9.738.334 13.408 4.027 4.228 11.024 4.059 14.831-.369l27.348-31.805c3.222-3.747 3.224-9.287.002-13.036z"/><path d="m289.673 207.747h-37.582c-5.523 0-10 4.478-10 10s4.477 10 10 10h37.582c5.522 0 10-4.478 10-10s-4.478-10-10-10z"/><path d="m403.98 207.747h-73.656c-5.522 0-10 4.478-10 10s4.478 10 10 10h73.656c5.522 0 10-4.478 10-10s-4.477-10-10-10z"/><path d="m208.17 288.505h-96.513c-5.523 0-10 4.478-10 10s4.477 10 10 10h96.513c5.523 0 10-4.478 10-10s-4.477-10-10-10z"/><path d="m71.035 288.505h-18.478c-5.523 0-10 4.478-10 10s4.477 10 10 10h18.478c5.523 0 10-4.478 10-10s-4.477-10-10-10z"/><path d="m206.379 357.43c5.523 0 10-4.478 10-10s-4.477-10-10-10h-157.717c-5.523 0-10 4.478-10 10s4.477 10 10 10z"/><path d="m208.17 386.383h-18.45c-5.523 0-10 4.478-10 10s4.477 10 10 10h18.45c5.523 0 10-4.478 10-10s-4.477-10-10-10z"/><path d="m149.069 386.383h-96.512c-5.523 0-10 4.478-10 10s4.477 10 10 10h96.512c5.523 0 10-4.478 10-10s-4.477-10-10-10z"/><path d="m502 363.862c-5.522 0-10 4.492-10 10.015s4.478 10 10 10 10-4.478 10-10v-.029c0-5.523-4.478-9.986-10-9.986z"/><path d="m360.57 332.696c-4.113.001-7.807 2.52-9.309 6.348l-36.643 93.399c-2.017 5.142.516 10.944 5.657 12.962 1.199.47 2.435.693 3.649.693 3.993 0 7.766-2.409 9.313-6.351l6.818-17.378h41.055l6.824 17.38c2.019 5.141 7.822 7.672 12.963 5.654 5.142-2.019 7.673-7.822 5.654-12.963l-36.672-93.399c-1.503-3.828-5.196-6.346-9.309-6.345zm-12.668 69.674 12.673-32.303 12.683 32.303z"/><path d="m430.994 342.696v93.399c0 5.522 4.478 10 10 10s10-4.478 10-10v-93.399c0-5.522-4.478-10-10-10s-10 4.478-10 10z"/></g></svg>