<svg id="Capa_1" enable-background="new 0 0 512 512" height="512" viewBox="0 0 512 512" width="512" xmlns="http://www.w3.org/2000/svg"><g><path d="m349.623 183.418c-3.613 0-7.196.131-10.751.365v-20.367h43.807c5.523 0 10-4.478 10-10s-4.477-10-10-10h-43.807v-26.777h43.807c5.523 0 10-4.478 10-10s-4.477-10-10-10h-43.807v-13.417c0-14.097-11.468-25.564-25.563-25.564h-13.417v-43.809c0-5.522-4.477-10-10-10s-10 4.478-10 10v43.809h-26.776v-43.809c0-5.522-4.477-10-10-10s-10 4.478-10 10v43.809h-26.776v-43.809c0-5.522-4.477-10-10-10s-10 4.478-10 10v43.809h-26.776v-43.809c0-5.522-4.477-10-10-10s-10 4.478-10 10v43.809h-26.776v-43.809c0-5.522-4.477-10-10-10s-10 4.478-10 10v43.809h-13.417c-14.096 0-25.564 11.468-25.564 25.564v13.417h-43.807c-5.523 0-10 4.478-10 10s4.477 10 10 10h43.807v26.777h-43.807c-5.523 0-10 4.478-10 10s4.477 10 10 10h43.807v26.777h-43.807c-5.523 0-10 4.478-10 10s4.477 10 10 10h43.807v26.777h-43.807c-5.523 0-10 4.478-10 10s4.477 10 10 10h43.807v26.777h-43.807c-5.523 0-10 4.478-10 10s4.477 10 10 10h43.807v13.417c0 14.097 11.468 25.564 25.564 25.564h13.416v43.808c0 5.522 4.477 10 10 10s10-4.478 10-10v-43.808h26.776v43.808c0 5.522 4.477 10 10 10s10-4.478 10-10v-43.808h27.722c-.019 1.022-.039 2.043-.039 3.069 0 89.521 72.842 162.353 162.377 162.353s162.377-72.83 162.377-162.351c0-89.537-72.842-162.381-162.377-162.381zm-270.252 139.311c-3.016 0-5.564-2.548-5.564-5.564v-233.943c0-3.017 2.548-5.564 5.564-5.564h233.938c3.016 0 5.563 2.548 5.563 5.564v103.13c-7.564 1.456-14.944 3.434-22.099 5.904v-82.499c0-5.522-4.477-10-10-10h-180.868c-5.523 0-10 4.478-10 10v45.474c0 5.522 4.477 10 10 10s10-4.478 10-10v-35.474h160.868v80.95c-33.652 16.966-60.628 45.298-75.86 79.923h-85.008v-35.587c0-5.522-4.477-10-10-10s-10 4.478-10 10v45.587c0 5.522 4.477 10 10 10h87.74c-2.081 7.176-3.675 14.555-4.753 22.1h-109.521zm270.252 165.422c-78.507 0-142.377-63.859-142.377-142.353 0-78.509 63.87-142.381 142.377-142.381s142.377 63.873 142.377 142.382c0 78.493-63.87 142.352-142.377 142.352z"/><path d="m349.651 300.034c5.523 0 10-4.478 10-10s-4.477-10-10-10h-.057c-5.523 0-9.972 4.478-9.972 10s4.506 10 10.029 10z"/><path d="m410.17 340.271v-51.314c0-33.386-27.161-60.548-60.547-60.548-33.401 0-60.575 27.162-60.575 60.548v51.314c-8.835 3.867-15.025 12.689-15.025 22.934v18.824c0 10.233 6.191 19.045 15.025 22.908v31.042c0 5.522 4.477 10 10 10s10-4.478 10-10v-28.953h30.575v46.162c0 5.522 4.477 10 10 10s10-4.478 10-10v-46.162h30.547v28.953c0 5.522 4.477 10 10 10s10-4.478 10-10v-31.042c8.834-3.863 15.025-12.675 15.025-22.908v-18.824c0-10.245-6.191-19.067-15.025-22.934zm-111.122 46.755c-2.724 0-5.025-2.288-5.025-4.997v-18.824c0-2.724 2.301-5.025 5.025-5.025h101.122c2.771 0 5.025 2.254 5.025 5.025v18.824c0 2.756-2.254 4.997-5.025 4.997zm50.575-138.617c22.357 0 40.547 18.189 40.547 40.548v49.223h-81.122v-49.223c0-22.358 18.202-40.548 40.575-40.548z"/><path d="m105.905 210.165c5.523 0 10-4.506 10-10.028s-4.477-10-10-10-10 4.478-10 10v.057c0 5.522 4.477 9.971 10 9.971z"/></g></svg>