<svg id="Capa_1" enable-background="new 0 0 512 512" height="512" viewBox="0 0 512 512" width="512" xmlns="http://www.w3.org/2000/svg"><g><path d="m502 95.943h-44.651v-10.191c0-5.522-4.477-10-10-10s-10 4.478-10 10v10.191h-44.651c-5.523 0-10 4.478-10 10s4.477 10 10 10h44.651v43.04h-20.132c-5.523 0-10 4.478-10 10v42.49h-54.279l4.111-23.064c14.253-3.797 24.787-16.825 24.787-32.273 0-18.398-14.964-33.367-33.357-33.367h-21.383c-8.152-32.053-37.289-55.27-71.109-55.27-33.833 0-62.96 23.216-71.088 55.27h-21.377c-18.409 0-33.385 14.969-33.385 33.367 0 15.449 10.544 28.477 24.813 32.273l4.105 23.063h-54.3v-42.49c0-5.522-4.477-10-10-10h-20.104v-43.04h44.623c5.523 0 10-4.478 10-10s-4.477-10-10-10h-44.623v-10.19c0-5.522-4.477-10-10-10s-10 4.478-10 10v10.191h-44.651c-5.523 0-10 4.478-10 10s4.477 10 10 10h44.651v43.04h-20.132c-5.523 0-10 4.478-10 10v74.865c0 22.12 18.003 40.116 40.132 40.116 22.113 0 40.104-17.996 40.104-40.116v-12.375h57.86l8.092 45.461-42.32 42.337c-1.874 1.875-2.927 4.418-2.927 7.069v47.11c-18.359 1.367-32.881 16.747-32.881 35.469v25.581c0 5.522 4.477 10 10 10h65.763c5.523 0 10-4.478 10-10v-25.579c0-18.713-14.521-34.087-32.881-35.467v-42.971l29.521-29.533.099.555c3.978 22.229 19.553 37.164 38.756 37.164h32.15v34.786c-18.361 1.38-32.881 16.754-32.881 35.467v25.578c0 5.522 4.477 10 10 10h65.791c5.523 0 10-4.478 10-10v-25.579c0-18.723-14.535-34.103-32.91-35.469v-34.784h32.15c19.244 0 34.82-14.942 38.757-37.171l.099-.555 29.548 29.543v42.967c-18.374 1.366-32.91 16.747-32.91 35.469v25.579c0 5.522 4.477 10 10 10h65.791c5.523 0 10-4.478 10-10v-25.579c0-18.713-14.521-34.087-32.881-35.467v-47.112c0-2.652-1.054-5.196-2.93-7.072l-42.341-42.331 5.979-33.549c.031-.143.053-.289.077-.434l2.046-11.481h57.844v12.375c0 22.12 18.003 40.116 40.132 40.116s40.132-17.996 40.132-40.116v-74.865c0-5.522-4.477-10-10-10h-20.132v-43.04h44.652c5.523 0 10-4.478 10-10s-4.477-10.002-10-10.002zm-417.246 147.906c0 11.092-9.019 20.116-20.104 20.116-11.101 0-20.132-9.024-20.132-20.116v-64.865h40.235v64.865zm73.586 165.072v15.579h-45.763v-15.579c0-8.591 6.971-15.579 15.54-15.579h14.655c8.584 0 15.568 6.988 15.568 15.579zm225.514-15.579c8.584 0 15.568 6.988 15.568 15.579v15.579h-45.791v-15.579c0-8.591 6.984-15.579 15.568-15.579zm-127.868-305.842c22.835 0 42.737 14.544 50.222 35.27h-100.427c7.465-20.726 27.36-35.27 50.205-35.27zm22.91 321.421v15.579h-45.791v-15.579c0-8.591 6.984-15.579 15.568-15.579h14.655c8.584 0 15.568 6.988 15.568 15.579zm41.807-130.564c-.01.05-.018.101-.027.151l-3.474 19.49c-1.77 9.992-7.708 20.67-19.066 20.67h-84.301c-11.33 0-17.279-10.687-19.067-20.678l-8.316-46.723h30.536v8.575c0 13.316 10.831 24.15 24.145 24.15h29.735c13.298 0 24.117-10.834 24.117-24.15v-8.575h30.547zm28.035-108.838c-.288-.008-.573-.004-.857.013l-46.989-.028c-.002 0-.004 0-.006 0-5.52 0-9.997 4.474-10 9.994-.003 5.522 4.471 10.003 9.994 10.006l35.655.021-5.331 29.911c-.006.03-.01.06-.016.09l-2.093 11.741h-44.111c-5.523 0-10 4.478-10 10v18.575c0 2.25-1.885 4.15-4.117 4.15h-29.735c-2.247 0-4.145-1.9-4.145-4.15v-18.575c0-5.522-4.477-10-10-10h-44.096l-7.43-41.742 35.63-.021c5.523-.003 9.998-4.483 9.994-10.006-.003-5.521-4.48-9.994-10-9.994-.002 0-.004 0-.006 0l-46.939.028c-.295-.018-.592-.022-.892-.013-7.254-.147-13.113-6.087-13.113-13.382 0-7.371 6.004-13.367 13.385-13.367h29.619c.005 0 .01.001.015.001.007 0 .014-.001.021-.001h155.302c7.365 0 13.357 5.996 13.357 13.367.001 7.301-5.854 13.245-13.096 13.382zm118.743 9.464v64.865c0 11.092-9.031 20.116-20.132 20.116s-20.132-9.024-20.132-20.116v-64.865z"/><path d="m255.986 169.504c-5.523 0-10 4.478-10 10s4.477 10 10 10h.057c5.523 0 9.972-4.478 9.972-10s-4.506-10-10.029-10z"/></g></svg>