<svg id="Capa_1" enable-background="new 0 0 512 512" height="512" viewBox="0 0 512 512" width="512" xmlns="http://www.w3.org/2000/svg"><g><path d="m228.264 359.359h61.907c5.522 0 10-4.478 10-10s-4.478-10-10-10h-61.907c-5.522 0-10 4.478-10 10s4.477 10 10 10z"/><path d="m490.854 389.817v-35.469c0-32.627-18.349-51.611-59.491-61.555l-32.792-7.941-77.221-72.175c-27.837-26.02-39.809-27.352-57.022-27.352-.009 0-.02 0-.028 0h-103.074c-8.066 0-16.294-.412-24.144 1.796-6.651 1.871-12.749 5.589-17.326 10.779-2.839 3.22-5.129 6.901-6.992 10.761l-36.359 75.291h-24.623c-8.252 0-15.103 2.288-20.362 6.8-6.836 5.864-10.302 14.865-10.302 26.752v72.316c-12.266 4.175-21.118 15.798-21.118 29.456 0 17.172 13.96 31.143 31.118 31.143h31.305c8.478 29.737 35.878 51.581 68.303 51.581 32.437 0 59.847-21.844 68.329-51.581h102.495c8.477 29.737 35.877 51.581 68.302 51.581 32.437 0 59.847-21.844 68.329-51.581h42.673c17.174 0 31.146-13.971 31.146-31.143 0-13.662-8.865-25.287-21.146-29.459zm-360.082-172.46c2.27-4.702 5.739-8.974 10.821-10.717 6.263-2.148 13.143-1.315 19.632-1.315h27.104v78.627h-89.716zm-78.99 86.595h186.402c5.522 0 10-4.478 10-10s-4.478-10-10-10h-29.854v-78.627h55.971.269c12.658 0 19.79.152 43.123 21.963l60.626 56.664h-37.84c-5.522 0-10 4.478-10 10s4.478 10 10 10h61.991l34.189 8.279c20.655 4.992 32.061 11.735 38.085 20.042h-28.677c-5.522 0-10 4.478-10 10s4.478 10 10 10h34.75c.022.686.036 1.376.036 2.074v33.814h-44.346c-12.985-17.134-33.547-28.228-56.656-28.228-23.101 0-43.654 11.093-56.635 28.228h-125.834c-12.985-17.134-33.547-28.228-56.656-28.228-23.101 0-43.654 11.093-56.635 28.228h-32.973v-41.557h22.569c5.522 0 10-4.478 10-10s-4.478-10-10-10h-22.569v-9.102c0-12.514 5.044-13.55 10.664-13.55zm146.219 104.21h104.602c-2.38 6.998-3.705 14.478-3.766 22.257h-97.069c-.061-7.779-1.386-15.259-3.767-22.257zm-178.001 11.114c0-6.129 4.987-11.114 11.118-11.114h32.358c-2.38 6.998-3.705 14.478-3.766 22.257h-28.592c-6.131 0-11.118-4.999-11.118-11.143zm110.726 62.724c-28.138 0-51.029-22.887-51.029-51.019 0-28.147 22.892-51.047 51.029-51.047 28.152 0 51.057 22.899 51.057 51.047-.001 28.132-22.905 51.019-51.057 51.019zm239.126 0c-28.138 0-51.029-22.887-51.029-51.019 0-28.147 22.892-51.047 51.029-51.047 28.152 0 51.057 22.899 51.057 51.047-.001 28.132-22.905 51.019-51.057 51.019zm111.002-51.581h-39.96c-.061-7.779-1.386-15.259-3.767-22.257h43.727c6.146 0 11.146 4.985 11.146 11.114 0 6.144-5 11.143-11.146 11.143z"/><path d="m130.726 399.499c-17.346 0-31.458 14.123-31.458 31.482s14.112 31.482 31.458 31.482c17.361 0 31.486-14.123 31.486-31.482s-14.125-31.482-31.486-31.482zm0 42.965c-6.318 0-11.458-5.151-11.458-11.482s5.14-11.482 11.458-11.482c6.334 0 11.486 5.151 11.486 11.482s-5.152 11.482-11.486 11.482z"/><path d="m202.56 153.153c0 5.522 4.478 10 10 10h.057c5.522 0 9.972-4.478 9.972-10s-4.506-10-10.028-10-10.001 4.478-10.001 10z"/><path d="m125.495 66.074c23.254-23.262 54.19-36.074 87.108-36.074 32.917 0 63.853 12.812 87.106 36.074 1.953 1.954 4.512 2.931 7.072 2.931 2.559 0 5.117-.976 7.069-2.928 3.906-3.904 3.907-10.236.003-14.142-27.031-27.042-62.99-41.935-101.25-41.935-38.262 0-74.221 14.893-101.252 41.936-3.904 3.905-3.903 10.237.003 14.142 3.904 3.903 10.237 3.904 14.141-.004z"/><path d="m277.104 98.678c2.56 0 5.119-.977 7.071-2.93 3.905-3.905 3.904-10.237-.001-14.142-39.458-39.452-103.658-39.45-143.114 0-3.905 3.904-3.906 10.236-.001 14.142 3.904 3.906 10.237 3.907 14.142.001 31.66-31.653 83.173-31.654 114.833 0 1.951 1.953 4.51 2.929 7.07 2.929z"/><path d="m247.397 128.379c2.56 0 5.119-.977 7.072-2.93 3.904-3.905 3.903-10.237-.002-14.143-23.084-23.078-60.646-23.078-83.73 0-3.905 3.905-3.906 10.237-.002 14.143 3.906 3.906 10.238 3.905 14.143.002 15.287-15.285 40.162-15.285 55.449 0 1.952 1.952 4.512 2.928 7.07 2.928z"/><path d="m369.852 399.499c-17.361 0-31.486 14.123-31.486 31.482s14.125 31.482 31.486 31.482 31.486-14.123 31.486-31.482-14.125-31.482-31.486-31.482zm0 42.965c-6.334 0-11.486-5.151-11.486-11.482s5.152-11.482 11.486-11.482 11.486 5.151 11.486 11.482-5.152 11.482-11.486 11.482z"/><path d="m285.579 303.952h.057c5.522 0 9.972-4.478 9.972-10s-4.506-10-10.028-10-10 4.478-10 10 4.477 10 9.999 10z"/></g></svg>