<svg id="Capa_1" enable-background="new 0 0 512 512" height="512" viewBox="0 0 512 512" width="512" xmlns="http://www.w3.org/2000/svg"><g><path d="m334.385 210.667c-40.786 0-77.82 16.316-104.967 42.745-2.84-3.434-5.787-6.781-8.835-10-.181-.191-.369-.375-.565-.552-4.534-4.087-8.886-7.893-13.077-11.472 1.367-1.065 2.638-2.084 3.842-3.083.142-.117.281-.239.416-.364 14.72-13.661 30.007-29.467 42.089-52.419 2.572-4.888.696-10.935-4.191-13.507-4.889-2.573-10.935-.694-13.507 4.19-10.629 20.193-24.434 34.475-37.791 46.885-2.114 1.745-4.417 3.52-6.672 5.202-6.698-5.39-12.962-10.258-18.883-14.859-1.106-.86-2.194-1.705-3.27-2.542 6.979-5.913 14.084-12.441 20.955-20.025 27.271-30.1 41.837-59.935 43.324-134.15.003-.107.016-.211.016-.319 0-.046-.006-.09-.007-.135.078-4.073.12-8.273.12-12.62 0-7.521 6.116-13.641 13.634-13.641 7.891 0 12.02 6.862 12.02 13.641 0 17.949-.692 34.708-2.057 49.811-.497 5.501 3.559 10.362 9.059 10.859 5.51.52 10.363-3.558 10.859-9.059 1.419-15.699 2.139-33.063 2.139-51.611 0-18.866-14.064-33.642-32.019-33.642-18.546 0-33.634 15.091-33.634 33.641 0 .928-.003 1.842-.007 2.756h-120.716c-.003-.914-.007-1.828-.007-2.756 0-18.55-15.088-33.641-33.634-33.641-17.955 0-32.019 14.776-32.019 33.641 0 54.852 5.923 95.047 18.639 126.497 12.625 31.227 31.11 51.044 49.205 67.809.124.114.25.226.38.334 1.243 1.04 2.536 2.073 3.859 3.108-4.411 3.766-8.75 7.568-13.078 11.484-.195.177-.382.36-.563.552-22.115 23.427-37.298 50.533-46.416 82.867-8.205 29.097-12.026 63.834-12.026 109.322 0 18.549 15.088 33.64 33.634 33.64s33.634-15.091 33.634-33.64c0-3.939.033-7.751.087-11.486h103.138c23.848 51.813 76.236 87.872 136.892 87.872 83.05 0 150.615-67.595 150.615-150.681 0-83.07-67.565-150.652-150.615-150.652zm-159.278-43.229c-7.132 7.871-14.702 14.624-22.104 20.744-8.006-6.625-15.215-13.174-22.076-20.744-1.903-2.101-3.732-4.195-5.489-6.303h55.157c-1.756 2.107-3.584 4.202-5.488 6.303zm19.422-26.303h-83.022c-4.817-8.646-8.69-18.289-11.643-29.918h106.309c-2.954 11.629-6.828 21.272-11.644 29.918zm18.447-84.739c-.502 13.18-1.474 24.664-2.926 34.82h-114.065c-1.452-10.157-2.423-21.64-2.926-34.82zm-138.707 379.218c0 7.521-6.116 13.64-13.634 13.64s-13.635-6.119-13.635-13.64c0-87.831 14.784-137.836 52.717-178.178 5.278-4.768 10.561-9.37 16.006-13.943.197.138.386.271.584.41 6.483 4.556 13.574 9.543 21.007 15.229-7.562 6.755-14.534 13.665-21.103 20.933-30.967 34.281-41.942 74.985-41.942 155.549zm52.114-136.678c3.867-5.811 13.992-17.811 26.639-26.991 7.25 6.325 14.639 13.415 21.96 21.526 1.633 1.809 3.179 3.63 4.667 5.465zm63.463 20c-2.843 9.683-4.74 19.766-5.578 30.145h-82.122c2.83-11.304 6.503-21.197 11.138-30.145zm-94.885 85.192c.624-12.945 1.691-24.542 3.26-35.048h85.745c.617 12.113 2.681 23.849 6.004 35.048zm94.867-124.059c-10.309-11.421-20.626-20.883-30.514-29.019-.013-.011-.026-.022-.039-.032-11.277-9.275-21.993-16.819-31.469-23.478-2.361-1.659-4.611-3.243-6.769-4.78-.113-.08-.223-.166-.338-.241-4.663-3.327-8.842-6.414-12.451-9.419-34.717-32.198-61.248-65.99-61.248-179.459 0-6.779 4.128-13.641 12.019-13.641 7.518 0 13.634 6.119 13.634 13.641 0 4.348.042 8.547.12 12.62-.001.046-.007.09-.007.135 0 .108.013.212.016.319 1.487 74.215 16.053 104.05 43.325 134.152 13.102 14.456 27.358 25.532 43.865 38.358 13.36 10.381 28.493 22.139 46.357 38.223 3.324 3.526 6.507 7.224 9.545 11.026-5.967 7.603-11.217 15.791-15.654 24.464-3.149-4.38-6.59-8.657-10.392-12.869zm144.557 211.931c-72.022 0-130.616-58.623-130.616-130.681 0-72.042 58.594-130.652 130.616-130.652 72.021 0 130.615 58.61 130.615 130.652 0 72.058-58.594 130.681-130.615 130.681z"/><path d="m434.589 351.319h-35.256v-18.777h20.294c5.522 0 10-4.478 10-10s-4.478-10-10-10h-20.294v-6.186c0-5.522-4.478-10-10-10h-6.153v-20.273c0-5.522-4.478-10-10-10s-10 4.478-10 10v20.273h-18.795v-35.24c0-5.522-4.478-10-10-10s-10 4.478-10 10v35.24h-18.768v-20.273c0-5.522-4.478-10-10-10s-10 4.478-10 10v20.273h-6.182c-5.522 0-10 4.478-10 10v6.186h-20.265c-5.523 0-10 4.478-10 10s4.477 10 10 10h20.265v18.777h-35.228c-5.523 0-10 4.478-10 10s4.477 10 10 10h35.228v18.806h-20.265c-5.523 0-10 4.478-10 10s4.477 10 10 10h20.265v6.157c0 5.522 4.478 10 10 10h6.182v20.302c0 5.522 4.478 10 10 10s10-4.478 10-10v-20.302h18.768v35.269c0 5.522 4.478 10 10 10s10-4.478 10-10v-35.269h18.795v20.302c0 5.522 4.478 10 10 10s10-4.478 10-10v-20.302h6.153c5.522 0 10-4.478 10-10v-6.157h20.294c5.522 0 10-4.478 10-10s-4.478-10-10-10h-20.294v-18.806h35.256c5.522 0 10-4.478 10-10s-4.478-10-10-10zm-55.256 54.963h-89.897v-89.926h89.897z"/><path d="m246 128.685v.057c0 5.522 4.477 9.972 10 9.972 5.522 0 10-4.506 10-10.028s-4.478-10-10-10c-5.523-.001-10 4.476-10 9.999z"/></g></svg>