<svg id="Capa_1" enable-background="new 0 0 512 512" height="512" viewBox="0 0 512 512" width="512" xmlns="http://www.w3.org/2000/svg"><g><path d="m377.511 365.465c-.075-.206-.151-.411-.239-.61l-25.207-64.445c-1.499-3.834-5.195-6.357-9.313-6.357s-7.813 2.523-9.313 6.357l-33.987 86.891c-2.013 5.144.526 10.943 5.67 12.955 1.196.469 2.428.69 3.64.69 3.997 0 7.772-2.413 9.315-6.36l6.144-15.706h37.062l6.143 15.706c2.011 5.144 7.811 7.686 12.955 5.67 5.144-2.012 7.683-7.812 5.67-12.955zm-45.466-6.585 10.708-27.375 10.708 27.375z"/><path d="m417.133 294.053c-5.522 0-10 4.478-10 10v86.891c0 5.522 4.478 10 10 10s10-4.478 10-10v-86.891c0-5.523-4.478-10-10-10z"/><path d="m491.257 314.188h-3.461c-2.555-8.711-6.039-17.108-10.415-25.099l2.467-2.468c8.078-8.081 8.078-21.229.005-29.306l-15.984-16.012v-139.899c0-26.529-21.576-48.113-48.097-48.113h-210l-35.326-34.45c-1.867-1.821-4.373-2.841-6.981-2.841h-134.416c-16.018 0-29.049 13.035-29.049 29.057v269.263c0 26.53 21.576 48.113 48.097 48.113h171.896v2.534c0 11.44 9.306 20.748 20.743 20.748h3.462c2.555 8.712 6.038 17.108 10.414 25.099l-2.468 2.469c-8.075 8.08-8.075 21.229.001 29.31l21.207 21.217c3.907 3.935 9.12 6.102 14.679 6.102 5.56 0 10.772-2.167 14.644-6.065l2.464-2.457c7.972 4.361 16.376 7.841 25.12 10.4v3.492c0 11.425 9.293 20.72 20.715 20.72h30.047c11.422 0 20.715-9.295 20.715-20.72v-3.49c8.74-2.556 17.144-6.035 25.12-10.401l2.428 2.42c3.907 3.935 9.12 6.102 14.68 6.102 5.559 0 10.771-2.167 14.654-6.078l21.231-21.24c8.078-8.081 8.078-21.229.001-29.311l-2.468-2.468c4.376-7.99 7.86-16.388 10.415-25.099h3.461c11.438 0 20.743-9.308 20.743-20.748v-30.031c-.001-11.443-9.307-20.75-20.744-20.75zm-443.16 28.245c-15.493 0-28.097-12.612-28.097-28.114v-175.548h217.022c5.522 0 10-4.478 10-10s-4.478-10-10-10h-217.022v-73.714c0-4.994 4.06-9.057 9.049-9.057h130.347l35.326 34.45c1.867 1.821 4.373 2.841 6.981 2.841h214.068c15.492 0 28.097 12.611 28.097 28.113v17.366h-117.017c-5.522 0-10 4.478-10 10s4.478 10 10 10h117.018v91.219c-5.511.024-10.68 2.169-14.563 6.053l-2.464 2.465c-7.973-4.362-16.373-7.84-25.107-10.395v-3.491c0-11.425-9.293-20.719-20.715-20.719h-30.047c-11.422 0-20.715 9.294-20.715 20.719v3.493c-8.74 2.558-17.14 6.035-25.107 10.394l-2.465-2.466c-3.903-3.906-9.108-6.058-14.655-6.058-5.546 0-10.75 2.151-14.659 6.063l-21.228 21.265c-8.075 8.08-8.075 21.229.001 29.31l2.467 2.468c-4.376 7.99-7.859 16.387-10.414 25.099h-3.462c-11.438 0-20.743 9.308-20.743 20.748v7.497h-171.896zm443.903 22.534c0 .378-.368.748-.743.748h-11.196c-4.676 0-8.729 3.24-9.756 7.803-2.679 11.892-7.361 23.179-13.918 33.548-2.499 3.952-1.926 9.107 1.379 12.414l7.938 7.94c.265.266.265.768 0 1.033l-21.256 21.265c-.048.047-.192.192-.485.192-.294 0-.438-.146-.522-.229l-7.937-7.912c-3.311-3.298-8.46-3.865-12.409-1.367-10.319 6.532-21.608 11.206-33.554 13.894-4.563 1.026-7.806 5.078-7.806 9.756v11.229c0 .377-.341.72-.715.72h-30.047c-.374 0-.715-.343-.715-.72v-11.229c0-4.676-3.24-8.728-7.801-9.755-11.961-2.696-23.252-7.371-33.56-13.896-1.646-1.041-3.501-1.55-5.345-1.55-2.578 0-5.134.995-7.063 2.918l-7.973 7.949c-.048.047-.192.192-.486.192-.293 0-.438-.146-.51-.217l-21.23-21.239c-.266-.267-.266-.769-.001-1.034l7.938-7.94c3.306-3.307 3.879-8.463 1.379-12.414-6.557-10.369-11.239-21.655-13.917-33.547-1.027-4.563-5.079-7.804-9.756-7.804h-11.197c-.375 0-.743-.37-.743-.748v-30.031c0-.378.368-.748.743-.748h11.197c4.677 0 8.729-3.241 9.756-7.804 2.678-11.892 7.36-23.178 13.917-33.547 2.5-3.951 1.927-9.107-1.379-12.414l-7.937-7.939c-.266-.267-.266-.769.004-1.039l21.227-21.264c.263-.26.761-.258 1.02 0l7.937 7.94c3.309 3.311 8.47 3.881 12.421 1.381 10.308-6.524 21.599-11.199 33.56-13.896 4.561-1.027 7.801-5.079 7.801-9.755v-11.23c0-.376.341-.719.715-.719h30.047c.374 0 .715.343.715.719v11.23c0 4.678 3.242 8.729 7.806 9.756 11.945 2.688 23.234 7.361 33.554 13.894 3.955 2.503 9.114 1.931 12.422-1.38l7.936-7.94c.26-.26.763-.256 1.016-.005l2.072 2.075c.171.185.349.363.533.534l18.632 18.664c.265.266.265.768-.001 1.033l-7.937 7.94c-3.305 3.307-3.878 8.462-1.379 12.414 6.557 10.369 11.239 21.656 13.918 33.548 1.027 4.563 5.08 7.803 9.756 7.803h11.196c.375 0 .743.37.743.748v30.032z"/><path d="m195.581 219.584h-125.516c-10.531 0-19.1 8.569-19.1 19.104v50.619c0 10.534 8.568 19.104 19.1 19.104h125.516c10.531 0 19.099-8.569 19.099-19.104v-50.619c0-10.535-8.568-19.104-19.099-19.104zm-.901 68.826h-123.714v-48.826h123.714z"/><path d="m281.922 138.771h.058c5.522 0 9.971-4.478 9.971-10s-4.506-10-10.028-10-10 4.478-10 10 4.476 10 9.999 10z"/></g></svg>