<svg id="Capa_1" enable-background="new 0 0 512 512" height="512" viewBox="0 0 512 512" width="512" xmlns="http://www.w3.org/2000/svg"><g><path d="m302.782 398.719v-230.266c0-5.522-4.479-10-10.003-10h-73.586c-5.524 0-10.003 4.478-10.003 10v230.266c0 5.522 4.479 10 10.003 10h73.586c5.524 0 10.003-4.478 10.003-10zm-20.007-10h-53.579v-56.736h53.579zm0-76.737h-53.579v-56.765h53.579zm0-76.764h-53.579v-56.765h53.579z"/><path d="m443.282 293.612c4.505 15.116 18.943 25.996 35.716 25.02 17.452-1.016 31.692-15.071 32.914-32.504 1.435-20.473-14.822-37.591-35.001-37.591-15.872 0-29.309 10.593-33.627 25.076l-81.202-.023v-64.192h36.712c4.609 0 8.737-3.258 9.773-7.753l8.643-37.473h23.211c4.506 15.115 18.945 25.994 35.718 25.017 17.452-1.017 31.691-15.072 32.911-32.506 1.434-20.472-14.821-37.59-35.001-37.59-15.873 0-29.311 10.594-33.629 25.078h-31.17c-.064 0-.115.008-.175.01-4.491.074-8.519 3.174-9.572 7.742l-8.643 37.473h-28.778v-63.732c0-14.616-11.852-26.464-26.473-26.464h-16.953v-27.602c0-15.242-12.36-27.598-27.607-27.598h-70.127c-15.246 0-27.606 12.355-27.606 27.597v27.603h-16.924c-14.612 0-26.501 11.872-26.501 26.464v63.732h-28.755l-8.668-37.479c-.039-.168-.081-.322-.127-.463-1.185-4.201-5.039-7.284-9.62-7.284h-31.17c-4.318-14.484-17.756-25.078-33.629-25.078-19.333 0-35.06 15.736-35.06 35.078s15.728 35.078 35.06 35.078c15.873 0 29.311-10.594 33.629-25.078h23.215l8.668 37.479c1.033 4.468 5.155 7.747 9.746 7.747h36.709v64.192l-81.174.023c-4.505-15.114-18.943-25.991-35.715-25.014-17.452 1.017-31.69 15.072-32.911 32.505-1.434 20.473 14.822 37.59 35.001 37.59 15.874 0 29.312-10.595 33.629-25.081l81.173-.023v64.215h-36.709c-.182 0-.345.007-.495.02-4.358.215-8.22 3.27-9.252 7.727l-8.668 37.479h-23.216c-4.318-14.484-17.756-25.078-33.629-25.078-19.333 0-35.06 15.736-35.06 35.078s15.728 35.078 35.06 35.078c15.873 0 29.311-10.594 33.629-25.078h31.144c4.607 0 8.732-3.255 9.772-7.747l8.668-37.479h28.755v63.732c0 14.592 11.889 26.464 26.501 26.464h34.382c5.014 0 9.495-3.555 10.209-8.516.889-6.182-3.884-11.484-9.896-11.484h-34.695c-3.581 0-6.494-2.899-6.494-6.464v-315.871c0-3.564 2.913-6.464 6.494-6.464h159.216c3.571 0 6.466 2.894 6.466 6.464v315.872c0 3.555-2.91 6.464-6.466 6.464h-34.411c-5.014 0-9.495 3.555-10.209 8.516-.889 6.182 3.885 11.484 9.896 11.484h34.723c14.621 0 26.473-11.848 26.473-26.464v-63.732h28.778l8.643 37.473c.021.092.046.164.069.242 1.109 4.316 5.015 7.511 9.678 7.511h31.17c4.318 14.484 17.756 25.078 33.629 25.078 20.179 0 36.434-17.117 35.001-37.59-1.221-17.433-15.459-31.489-32.911-32.506-16.773-.977-31.212 9.902-35.718 25.017h-23.211l-8.643-37.473c-1.032-4.477-5.149-7.753-9.747-7.753h-36.738v-64.215zm18.672-11.965c.854-6.713 6.277-12.134 12.993-12.986 9.851-1.25 18.172 7.068 16.922 16.916-.852 6.714-6.274 12.135-12.989 12.99-9.854 1.254-18.18-7.068-16.926-16.92zm-2.864-129.439c.852-6.714 6.274-12.135 12.989-12.99 9.854-1.254 18.179 7.068 16.925 16.919-.854 6.713-6.277 12.134-12.993 12.986-9.85 1.252-18.171-7.067-16.921-16.915zm-420.405 17.022c-8.645.429-15.815-6.492-15.815-15.059 0-8.314 6.753-15.078 15.054-15.078 8.546 0 15.455 7.141 15.068 15.769-.345 7.667-6.639 13.988-14.307 14.368zm11.361 116.351c-.854 6.713-6.277 12.134-12.993 12.986-9.851 1.25-18.173-7.068-16.922-16.916.852-6.714 6.274-12.135 12.989-12.99 9.854-1.254 18.18 7.068 16.926 16.92zm-11.361 142.507c-8.645.429-15.815-6.492-15.815-15.059 0-8.314 6.753-15.078 15.054-15.078 8.546 0 15.455 7.141 15.068 15.769-.345 7.667-6.639 13.988-14.307 14.368zm259.964-328.888h-85.326v-27.602c0-4.196 3.403-7.598 7.6-7.598h70.127c4.197 0 7.599 3.401 7.599 7.597zm160.441 311.867c.852-6.714 6.274-12.135 12.989-12.99 9.854-1.254 18.179 7.068 16.925 16.919-.854 6.713-6.277 12.134-12.993 12.986-9.85 1.251-18.171-7.067-16.921-16.915z"/><path d="m255.985 448c-5.524 0-10.003 4.478-10.003 10s4.479 10 10.003 10h.058c5.524 0 9.975-4.478 9.975-10s-4.508-10-10.033-10z"/></g></svg>