<svg id="Capa_1" enable-background="new 0 0 512 512" height="512" viewBox="0 0 512 512" width="512" xmlns="http://www.w3.org/2000/svg"><g><path d="m435.973 176.595h-169.973v-57.676c16.988-4.445 29.561-19.934 29.561-38.31 0-21.816-17.747-39.564-39.561-39.564s-39.561 17.748-39.561 39.564c0 18.375 12.573 33.865 29.561 38.31v57.676h-169.972c-27.034 0-49.028 21.996-49.028 49.032v45.297c0 5.522 4.477 10 10 10s10-4.478 10-10v-45.297c0-16.009 13.021-29.032 29.027-29.032h359.945c16.006 0 29.027 13.023 29.027 29.032v237.313c.001 16.024-13.02 29.06-29.026 29.06h-359.945c-16.006 0-29.028-13.036-29.028-29.06v-102.188c0-5.522-4.477-10-10-10s-10 4.478-10 10v102.188c0 27.052 21.994 49.06 49.028 49.06h359.945c27.034 0 49.027-22.008 49.027-49.06v-237.313c0-27.036-21.993-49.032-49.027-49.032zm-199.534-95.985c0-10.788 8.775-19.564 19.561-19.564s19.561 8.776 19.561 19.564c0 10.804-8.775 19.594-19.561 19.594s-19.561-8.79-19.561-19.594z"/><path d="m283.044 389.807c0 42.463 34.53 77.01 76.972 77.01 42.458 0 77.001-34.547 77.001-77.01s-34.542-77.01-77.001-77.01c-42.443 0-76.972 34.547-76.972 77.01zm133.973 0c0 31.436-25.57 57.01-57.001 57.01-31.415 0-56.972-25.574-56.972-57.01s25.558-57.01 56.972-57.01c31.431 0 57.001 25.575 57.001 57.01z"/><path d="m327.739 389.807c0 17.8 14.479 32.28 32.277 32.28 17.813 0 32.306-14.48 32.306-32.28 0-17.799-14.492-32.279-32.306-32.279-17.797 0-32.277 14.48-32.277 32.279zm44.583 0c0 6.771-5.521 12.28-12.306 12.28-6.77 0-12.277-5.509-12.277-12.28s5.507-12.279 12.277-12.279c6.785 0 12.306 5.509 12.306 12.279z"/><path d="m151.985 466.817c42.442 0 76.972-34.547 76.972-77.01s-34.53-77.01-76.972-77.01c-42.458 0-77.001 34.547-77.001 77.01s34.542 77.01 77.001 77.01zm0-134.02c31.415 0 56.972 25.574 56.972 57.01s-25.558 57.01-56.972 57.01c-31.431 0-57.001-25.574-57.001-57.01s25.57-57.01 57.001-57.01z"/><path d="m151.985 422.087c17.797 0 32.277-14.48 32.277-32.28 0-17.799-14.479-32.279-32.277-32.279-17.813 0-32.306 14.48-32.306 32.279 0 17.8 14.492 32.28 32.306 32.28zm0-44.559c6.77 0 12.277 5.509 12.277 12.279 0 6.771-5.507 12.28-12.277 12.28-6.785 0-12.306-5.509-12.306-12.28 0-6.77 5.52-12.279 12.306-12.279z"/><path d="m322.491 224.416h-132.981c-10.015 0-18.163 8.147-18.163 18.163v28.232c0 10.016 8.148 18.164 18.163 18.164h132.981c10.015 0 18.163-8.148 18.163-18.164v-28.232c0-10.016-8.148-18.163-18.163-18.163zm-1.837 44.559h-129.307v-24.56h129.307z"/><path d="m150.341 161.249c2.559 0 5.118-.977 7.071-2.929 3.905-3.904 3.906-10.236 0-14.142-35.039-35.044-35.039-92.063 0-127.107 3.905-3.905 3.905-10.237 0-14.142-3.906-3.906-10.238-3.905-14.142.001-42.836 42.841-42.836 112.548 0 155.389 1.952 1.953 4.511 2.93 7.071 2.93z"/><path d="m175.773 125.801c1.953 1.956 4.514 2.935 7.076 2.935 2.557 0 5.114-.975 7.066-2.924 3.908-3.902 3.913-10.233.01-14.142-17.093-17.119-17.093-44.973 0-62.092 3.902-3.908 3.898-10.239-.01-14.142-3.908-3.901-10.24-3.898-14.142.011-24.874 24.911-24.874 65.444 0 90.354z"/><path d="m354.589 144.178c-3.905 3.905-3.905 10.237 0 14.142 1.953 1.953 4.512 2.929 7.071 2.929s5.119-.977 7.071-2.93c42.836-42.841 42.836-112.548 0-155.389-3.904-3.905-10.236-3.905-14.142-.001-3.905 3.904-3.906 10.236 0 14.142 35.039 35.044 35.039 92.063 0 127.107z"/><path d="m322.086 125.812c1.952 1.949 4.509 2.924 7.066 2.924 2.562 0 5.124-.979 7.076-2.935 24.874-24.91 24.874-65.443 0-90.354-3.902-3.907-10.233-3.912-14.142-.011-3.908 3.902-3.913 10.233-.01 14.142 17.093 17.119 17.093 44.973 0 62.092-3.903 3.909-3.899 10.24.01 14.142z"/><path d="m148.295 256.695c0-17.799-14.479-32.279-32.277-32.279s-32.277 14.48-32.277 32.279c0 17.8 14.479 32.28 32.277 32.28s32.277-14.48 32.277-32.28zm-44.554 0c0-6.771 5.507-12.279 12.277-12.279s12.277 5.509 12.277 12.279c0 6.771-5.507 12.28-12.277 12.28s-12.277-5.509-12.277-12.28z"/><path d="m428.259 256.695c0-17.799-14.479-32.279-32.277-32.279s-32.277 14.48-32.277 32.279c0 17.8 14.479 32.28 32.277 32.28s32.277-14.48 32.277-32.28zm-44.554 0c0-6.771 5.507-12.279 12.277-12.279s12.277 5.509 12.277 12.279c0 6.771-5.507 12.28-12.277 12.28s-12.277-5.509-12.277-12.28z"/><path d="m37 325.853c5.523 0 10-4.506 10-10.028s-4.477-10-10-10-10 4.478-10 10v.057c0 5.522 4.477 9.971 10 9.971z"/></g></svg>