<svg id="Capa_1" enable-background="new 0 0 512 512" height="512" viewBox="0 0 512 512" width="512" xmlns="http://www.w3.org/2000/svg"><g><path d="m206.531 305.755c5.523 0 10-4.478 10-10v-28.663h28.629c5.523 0 10-4.478 10-10v-50.456c0-5.522-4.477-10-10-10h-28.629v-28.636c0-5.522-4.477-10-10-10h-50.447c-5.523 0-10 4.478-10 10v28.636h-28.657c-5.523 0-10 4.478-10 10v50.456c0 5.522 4.477 10 10 10h28.657v28.663c0 5.522 4.477 10 10 10zm-79.104-58.663v-30.456h28.657c5.523 0 10-4.478 10-10v-28.636h30.447v28.636c0 5.522 4.477 10 10 10h28.629v30.456h-28.629c-5.523 0-10 4.478-10 10v28.663h-30.447v-28.663c0-5.522-4.477-10-10-10z"/><path d="m508.5 369.738c0-20.391-10.433-38.799-27.269-49.263 1.722-5.302 2.612-10.868 2.612-16.472 0-26.266-19.412-48.338-44.64-52.437-5.319-14.171-19.065-24.092-34.739-24.092-10.689 0-20.339 4.539-27.119 11.789-4.836-5.176-11.138-8.958-18.231-10.706v-99.478c0-16.189-13.182-29.36-29.385-29.36h-15.706v-44.734c0-30.319-24.662-54.985-54.976-54.985h-155.479c-30.331 0-55.006 24.666-55.006 54.985v44.735h-15.677c-16.203 0-29.385 13.171-29.385 29.36v205.564c0 16.189 13.182 29.36 29.385 29.36h38.034c5.523 0 10-4.478 10-10s-4.477-10-10-10h-38.034c-5.175 0-9.385-4.199-9.385-9.36v-205.563c0-5.161 4.21-9.36 9.385-9.36h296.844c5.175 0 9.385 4.199 9.385 9.36v100.12c-10.795 3.426-19.597 11.688-23.621 22.364-25.233 4.095-44.652 26.17-44.652 52.438 0 5.613.894 11.184 2.622 16.482-9.265 5.763-16.584 13.937-21.296 23.52h-91.464c-5.523 0-10 4.478-10 10s4.477 10 10 10h85.787c-.184 1.89-.278 3.802-.278 5.732 0 20.356 10.427 38.757 27.252 49.241-1.729 5.296-2.624 10.859-2.624 16.464 0 26.269 19.416 48.343 44.648 52.438 5.338 14.187 19.095 24.12 34.76 24.12 10.682 0 20.323-4.543 27.098-11.799 6.78 7.256 16.43 11.799 27.119 11.799 15.678 0 29.426-9.934 34.743-24.121 25.226-4.101 44.636-26.172 44.636-52.436 0-5.593-.892-11.153-2.614-16.453 16.836-10.481 27.27-28.887 27.27-49.252zm-439.938-314.753c0-19.291 15.704-34.985 35.006-34.985h155.479c19.286 0 34.977 15.694 34.977 34.985v44.735h-23.984v-45.727c0-5.522-4.478-10-10-10h-157.464c-5.523 0-10 4.478-10 10v45.728h-24.014zm181.477 44.736h-137.463v-35.728h137.463zm117.303 375.152c0 9.443-7.668 17.127-17.094 17.127-8.513 0-15.804-6.362-16.96-14.8-.671-4.902-4.827-8.576-9.774-8.642-18.016-.238-32.673-15.094-32.673-33.115 0-5.663 1.466-11.259 4.238-16.181 1.414-2.508 1.677-5.504.724-8.221-.954-2.716-3.032-4.89-5.703-5.965-14.511-5.838-23.888-19.71-23.888-35.339 0-15.58 9.289-29.386 23.677-35.247 3.803-1.272 7.764-1.921 11.783-1.921 9.14 0 17.938 3.357 24.774 9.454 1.906 1.7 4.283 2.536 6.651 2.536 2.752 0 5.492-1.129 7.468-3.345 3.676-4.122 3.313-10.443-.809-14.119-10.505-9.367-24.03-14.526-38.085-14.526-3.185 0-6.348.265-9.466.788-.89-3.025-1.365-6.175-1.365-9.354 0-18.021 14.657-32.877 32.673-33.115 4.946-.065 9.102-3.738 9.774-8.639 1.156-8.423 8.447-14.774 16.96-14.774 9.426 0 17.094 7.67 17.094 17.099v210.299zm97.27-69.796c-2.666 1.072-4.741 3.24-5.697 5.949-.956 2.71-.701 5.699.701 8.208 2.766 4.947 4.228 10.552 4.228 16.209 0 18.021-14.656 32.877-32.672 33.115-4.956.065-9.116 3.751-9.778 8.662-1.137 8.426-8.415 14.779-16.929 14.779-9.441 0-17.123-7.684-17.123-17.127v-210.298c0-9.429 7.682-17.099 17.123-17.099 8.514 0 15.792 6.343 16.929 14.754.664 4.91 4.823 8.594 9.778 8.659 18.016.238 32.672 15.094 32.672 33.115 0 3.174-.473 6.324-1.36 9.354-3.118-.523-6.273-.788-9.443-.788-14.09 0-27.619 5.163-38.099 14.537-4.115 3.683-4.467 10.005-.785 14.121 1.976 2.208 4.71 3.332 7.457 3.332 2.373 0 4.756-.84 6.664-2.547 6.806-6.09 15.601-9.443 24.763-9.443 3.991 0 7.953.649 11.783 1.922 14.388 5.86 23.676 19.666 23.676 35.246 0 15.631-9.377 29.502-23.888 35.34z"/><path d="m446.362 366.227c-24.986 9.696-37.438 37.917-27.756 62.908 1.535 3.963 5.317 6.391 9.326 6.391 1.201 0 2.424-.219 3.61-.679 5.15-1.995 7.708-7.787 5.712-12.937-5.7-14.714 1.632-31.329 16.344-37.039 5.148-1.998 7.702-7.791 5.704-12.94-1.996-5.15-7.789-7.706-12.94-5.704z"/><path d="m308.317 366.225c-5.148-1.994-10.942.561-12.938 5.711-1.996 5.149.562 10.942 5.711 12.938 14.712 5.701 22.041 22.315 16.338 37.037-1.996 5.149.562 10.941 5.712 12.937 1.188.461 2.408.679 3.61.679 4.008 0 7.792-2.428 9.326-6.391 9.689-25.004-2.764-53.226-27.759-62.911z"/><path d="m115.811 344.006c-5.523 0-10 4.478-10 10s4.477 10 10 10h.057c5.523 0 9.972-4.478 9.972-10s-4.506-10-10.029-10z"/></g></svg>