<svg id="Capa_1" enable-background="new 0 0 512 512" height="512" viewBox="0 0 512 512" width="512" xmlns="http://www.w3.org/2000/svg"><g><path d="m363.915 360.032c-1.5-3.833-5.196-6.355-9.312-6.355s-7.812 2.522-9.312 6.355l-33.17 84.745c-2.013 5.143.524 10.944 5.667 12.957 5.142 2.013 10.944-.524 12.957-5.667l5.943-15.184h35.83l5.943 15.184c1.544 3.946 5.318 6.358 9.314 6.357 1.212 0 2.445-.222 3.643-.69 5.143-2.013 7.68-7.814 5.667-12.957zm-19.399 56.851 10.087-25.77 10.087 25.77z"/><path d="m427.36 353.677c-5.523 0-10 4.477-10 10v84.745c0 5.523 4.477 10 10 10s10-4.477 10-10v-84.745c0-5.523-4.477-10-10-10z"/><path d="m470.855 300.424v-100.251c0-24.959-19.682-45.408-44.342-46.648v-68.295c0-2.652-1.054-5.196-2.93-7.072l-75.245-75.23c-1.876-1.875-4.419-2.928-7.07-2.928h-200.844c-8.266 0-14.99 6.724-14.99 14.989v102.561h-74.09c-15.629 0-28.344 12.726-28.344 28.368v259.394c0 25.755 20.957 46.708 46.715 46.708h190.078v38.415c0 11.891 9.675 21.565 21.567 21.565h186.072c11.892 0 21.567-9.674 21.567-21.565v-168.772c.001-10.71-7.877-19.593-18.144-21.239zm-119.587-266.285 41.1 41.091h-41.1zm-205.833-14.139h185.833v60.241c0 8.265 6.724 14.989 14.99 14.989h60.255v58.235h-184.653l-33.974-33.079c-1.867-1.818-4.37-2.835-6.976-2.835h-35.476v-97.551zm114.358 301.663v110.357h-190.078c-14.731 0-26.715-11.981-26.715-26.708v-168.749h209.017c5.523 0 10-4.477 10-10s-4.477-10-10-10h-209.017v-70.645c0-4.614 3.743-8.368 8.344-8.368h125.503l33.973 33.079c1.867 1.818 4.37 2.835 6.976 2.835h206.344c14.731 0 26.715 11.981 26.715 26.708v16.39h-108.992c-5.523 0-10 4.477-10 10s4.477 10 10 10h108.992v63.563h-169.495c-11.892.001-21.567 9.663-21.567 21.538zm209.207 168.772c0 .833-.732 1.565-1.567 1.565h-186.073c-.835 0-1.567-.731-1.567-1.565v-168.772c0-.818.732-1.537 1.567-1.537h186.072c.835 0 1.567.718 1.567 1.537v168.772z"/><path d="m211.899 313.647h-121.005c-10.345 0-18.761 8.428-18.761 18.787v48.755c0 10.359 8.416 18.787 18.761 18.787h121.005c10.345 0 18.761-8.428 18.761-18.787v-48.755c0-10.359-8.416-18.787-18.761-18.787zm-1.239 66.33h-118.527v-46.33h118.527z"/><path d="m296.954 236.563h.028c5.523 0 9.986-4.477 9.986-10s-4.491-10-10.014-10-10 4.477-10 10 4.477 10 10 10z"/></g></svg>