<svg id="Capa_1" enable-background="new 0 0 512 512" height="512" viewBox="0 0 512 512" width="512" xmlns="http://www.w3.org/2000/svg"><g><path d="m493.972 401.812v-40.6c0-5.522-4.478-10-10-10h-64.855c-5.522 0-10 4.478-10 10v38.749h-30.167l-7.949-28.561c-5.14-18.222-17.482-20.188-22.551-20.188h-177.417c-5.068 0-17.411 1.967-22.56 20.222l-7.94 28.527h-37.649v-38.749c0-5.522-4.478-10-10-10h-64.884c-5.522 0-10 4.478-10 10v40.604c-10.514 4.04-18 14.249-18 26.181v53.995c0 15.443 12.561 28.008 28 28.008h455.972c15.455 0 28.028-12.564 28.028-28.008v-53.995c0-11.936-7.498-22.148-18.028-26.185zm-64.856-30.601h44.855v28.749h-44.855zm-346.232 0v28.749h-44.884v-28.749zm266.99 118.788h-187.776v-20.004c0-2.711 2.287-5.002 4.995-5.002h177.786c2.708 0 4.995 2.291 4.995 5.002zm142.126-8.007c0 4.416-3.602 8.008-8.028 8.008h-114.098v-20.004c0-13.786-11.213-25.002-24.995-25.002h-177.786c-13.782 0-24.995 11.216-24.995 25.002v20.004h-114.098c-4.411 0-8-3.592-8-8.008v-53.995c0-4.431 3.589-8.036 8-8.036h186.827c5.522 0 10-4.478 10-10s-4.478-10-10-10h-53.534l6.438-23.131c.788-2.792 2.175-5.618 3.302-5.618h177.417c1.127 0 2.514 2.826 3.292 5.585l6.448 23.164h-53.535c-5.522 0-10 4.478-10 10s4.478 10 10 10h66.621c.024 0 .047.003.071.003.014 0 .029-.003.043-.003h112.581c4.427 0 8.028 3.605 8.028 8.036v53.995z"/><path d="m173.953 326.773c5.522 0 10-4.478 10-10v-54.478c0-5.522-4.478-10-10-10s-10 4.478-10 10v54.478c0 5.522 4.478 10 10 10z"/><path d="m204.97 220.04v94.747c0 5.522 4.478 10 10 10s10-4.478 10-10v-94.747c0-5.522-4.478-10-10-10s-10 4.478-10 10z"/><path d="m245.985 238.077v76.711c0 5.522 4.478 10 10 10s10-4.478 10-10v-76.711c0-5.522-4.478-10-10-10s-10 4.477-10 10z"/><path d="m170.035 135.645c.161 5.492-.208 13.05 7.523 18.024l67.985 43.711c6.404 4.195 14.416 4.186 20.839.047l68.062-43.76c7.72-4.967 7.618-12.828 7.552-18.03-.009-.677-.042-71.01-.042-71.01-.083-2.896-.186-5.626-1.349-8.337-1.274-2.969-3.449-5.496-6.163-7.243l-68.059-43.758c-2.97-1.916-6.846-3.293-10.408-3.289-3.563.004-7.383 1.384-10.358 3.289l-68.036 43.743c-4.807 3.072-7.676 8.188-7.676 13.687 0 .706.049 1.405.142 2.095 0 0-.031 70.173-.012 70.831zm151.94 2.262-55.99 35.999v-53.519c.135-.075 55.977-35.973 55.977-35.973s.02 52.857.013 53.493zm-65.976-115.517 62.726 40.329-62.725 40.328-62.725-40.328zm-65.969 62.019 55.604 35.75c.115.073.235.139.352.21v53.517l-55.984-35.995c-.01-.653.028-53.482.028-53.482z"/><path d="m173.953 229.728c5.522 0 10-4.478 10-10v-25.04c0-5.522-4.478-10-10-10s-10 4.478-10 10v25.04c0 5.522 4.478 10 10 10z"/><path d="m328.019 194.688v54.448c0 5.522 4.478 10 10 10s10-4.478 10-10v-54.448c0-5.522-4.478-10-10-10s-10 4.477-10 10z"/><path d="m287.002 220.04v94.747c0 5.522 4.478 10 10 10s10-4.478 10-10v-94.747c0-5.522-4.478-10-10-10s-10 4.478-10 10z"/><path d="m338.019 281.732c-5.522 0-10 4.478-10 10v25.041c0 5.522 4.478 10 10 10s10-4.478 10-10v-25.041c0-5.523-4.478-10-10-10z"/><path d="m259.756 399.96c-5.522 0-10 4.478-10 10s4.478 10 10 10h.028c5.522 0 9.986-4.478 9.986-10s-4.492-10-10.014-10z"/></g></svg>