<svg id="Capa_1" enable-background="new 0 0 512 512" height="512" viewBox="0 0 512 512" width="512" xmlns="http://www.w3.org/2000/svg"><g><path d="m62.031 288.53c-5.523 0-10 4.478-10 10s4.477 10 10 10h.028c5.523 0 9.986-4.478 9.986-10s-4.491-10-10.014-10z"/><path d="m459.955 298.53c0-5.522-4.491-10-10.014-10s-10 4.478-10 10 4.477 10 10 10h.028c5.523 0 9.986-4.477 9.986-10z"/><path d="m357.254 288.729h-55.776c-5.523 0-10 4.478-10 10s4.477 10 10 10h55.776c5.523 0 10-4.478 10-10s-4.477-10-10-10z"/><path d="m210.522 288.729h-55.776c-5.523 0-10 4.478-10 10s4.477 10 10 10h55.776c5.523 0 10-4.478 10-10s-4.477-10-10-10z"/><path d="m198.096 153.046h-64.515c-5.523 0-10 4.478-10 10s4.477 10 10 10h64.515c5.523 0 10-4.478 10-10s-4.477-10-10-10z"/><path d="m176.421 193.039h-42.839c-5.523 0-10 4.478-10 10s4.477 10 10 10h42.839c5.523 0 10-4.478 10-10s-4.477-10-10-10z"/><path d="m360.091 180.71h-43.378c-5.523 0-10 4.478-10 10s4.477 10 10 10h43.378c5.523 0 10-4.478 10-10s-4.477-10-10-10z"/><path d="m449.969 360.513c34.204 0 62.031-27.806 62.031-61.982 0-34.178-27.827-61.983-62.031-61.983h-18.796v-135.49c0-5.522-4.477-10-10-10h-135.626v-29.058c0-5.522-4.477-10-10-10h-184.72c-5.523 0-10 4.478-10 10v174.547h-18.796c-34.204 0-62.031 27.806-62.031 61.983s27.827 61.982 62.031 61.982h18.881v35.497h-3.958c-17.669 0-32.044 14.353-32.044 31.995v21.996c0 5.522 4.477 10 10 10h124.121c5.523 0 10-4.478 10-10v-21.995c0-17.643-14.362-31.995-32.016-31.995h-3.987v-35.497h205.942v35.497h-3.987c-17.653 0-32.016 14.353-32.016 31.995v21.995c0 5.522 4.477 10 10 10h124.123c5.523 0 10-4.478 10-10v-21.995c0-17.643-14.375-31.995-32.044-31.995h-3.958v-35.497zm-113.355-249.455h23.208v16.049c0 2.276-1.917 4.2-4.185 4.2h-14.838c-2.269 0-4.186-1.924-4.186-4.2v-16.049zm-51.067 0h31.066v16.049c0 13.344 10.85 24.2 24.186 24.2h14.838c13.335 0 24.185-10.856 24.185-24.2v-16.049h31.351v125.489h-125.626zm-119.95-39.058h35.18v23.049c0 4.336-3.67 7.999-8.015 7.999h-19.15c-4.345 0-8.015-3.663-8.015-7.999zm-64.77 0h44.77v23.049c0 15.438 12.567 27.999 28.015 27.999h19.15c15.448 0 28.015-12.561 28.015-27.999v-23.049h44.77v164.547h-164.72zm-38.796 268.513c-23.176 0-42.031-18.833-42.031-41.983s18.855-41.983 42.031-41.983c23.192 0 42.06 18.834 42.06 41.983s-18.868 41.983-42.06 41.983zm70.998 20v35.497h-32.116v-35.497zm23.987 55.497c6.625 0 12.016 5.381 12.016 11.995v11.995h-104.122v-11.995c0-6.614 5.403-11.995 12.044-11.995zm-49.38-75.497c10.206-11.051 16.455-25.799 16.455-41.982 0-16.184-6.249-30.933-16.455-41.983h296.728c-10.206 11.051-16.455 25.8-16.455 41.983s6.249 30.932 16.455 41.982zm303.451 20v35.497h-32.116v-35.497zm23.959 55.497c6.641 0 12.044 5.381 12.044 11.995v11.995h-104.121v-11.995c0-6.614 5.39-11.995 12.016-11.995zm-27.137-117.48c0-23.149 18.868-41.983 42.06-41.983 23.176 0 42.031 18.834 42.031 41.983s-18.855 41.982-42.031 41.982c-23.192.001-42.06-18.832-42.06-41.982z"/><path d="m256 288.729c-5.523 0-10 4.478-10 10s4.477 10 10 10h.057c5.523 0 9.972-4.478 9.972-10s-4.506-10-10.029-10z"/></g></svg>