<svg id="Layer_5" enable-background="new 0 0 64 64" height="512" viewBox="0 0 64 64" width="512" xmlns="http://www.w3.org/2000/svg"><g><path d="m23 22h4v2h-4z"/><path d="m13 22h4v2h-4z"/><path d="m13 59h14v-10h-14zm2-8h10v6h-10z"/><path d="m21 53h2v2h-2z"/><path d="m17 53h2v2h-2z"/><path d="m13 45h14v2h-14z"/><path d="m58 1h-38c-2.757 0-5 2.243-5 5v6.214c-2.688 1.379-4.733 3.828-5.574 6.786h-1.426c-1.654 0-3 1.346-3 3v4c0 1.654 1.346 3 3 3h1.426c.805 2.832 2.711 5.201 5.232 6.608l-.508 2.542-6.728 1.346c-1.93.386-3.643 1.466-4.825 3.041-1.03 1.374-1.597 3.076-1.597 4.793v5.67c0 1.302.839 2.402 2 2.816v7.184h34v-7.184c1.161-.414 2-1.514 2-2.816v-5.67c0-.791-.133-1.575-.364-2.33h14.364v-2h-4v-4h9c2.757 0 5-2.243 5-5v-28c0-2.757-2.243-5-5-5zm3 5v11h-22v-14h19c1.654 0 3 1.346 3 3zm-22 13h22v10h-22zm-22-13c0-1.654 1.346-3 3-3h17v26h-5c1.654 0 3-1.346 3-3v-4c0-1.654-1.346-3-3-3h-1.426c-1.31-4.61-5.549-8-10.574-8-1.041 0-2.045.155-3 .426zm13.949 15h1.051c.551 0 1 .449 1 1v4c0 .551-.449 1-1 1h-1.051c.03-.33.051-.662.051-1v-4c0-.338-.021-.67-.051-1zm-10.949-8c1.314 0 2.56.29 3.686.799l-.394 2.366c-.081.483-.496.835-.986.835h-4.611c-.491 0-.906-.352-.986-.836l-.394-2.366c1.125-.508 2.371-.798 3.685-.798zm-12 14c-.551 0-1-.449-1-1v-4c0-.551.449-1 1-1h1.051c-.03.33-.051.662-.051 1v4c0 .338.021.67.051 1zm3-1v-4c0-2.878 1.363-5.438 3.472-7.087l.263 1.58c.242 1.453 1.487 2.507 2.959 2.507h4.611c1.473 0 2.717-1.054 2.959-2.507l.263-1.58c2.11 1.649 3.473 4.209 3.473 7.087v4c0 2.878-1.363 5.438-3.472 7.087l-.263-1.58c-.242-1.453-1.487-2.507-2.959-2.507h-4.611c-1.473 0-2.717 1.054-2.959 2.507l-.263 1.58c-2.11-1.649-3.473-4.209-3.473-7.087zm5.314 8.201.394-2.366c.081-.483.496-.835.986-.835h4.611c.491 0 .906.352.986.836l.394 2.366c-1.125.508-2.371.798-3.685.798s-2.56-.29-3.686-.799zm3.686 2.799c1.212 0 2.375-.205 3.467-.568l.422 2.108-2.192 1.46h-3.395l-2.191-1.461.422-2.108c1.092.364 2.255.569 3.467.569zm-15 19h4v5h-4zm26 5v-5h4v5zm6-8c0 .551-.449 1-1 1h-5v-9h-2v16h-18v-16h-2v9h-5c-.551 0-1-.449-1-1v-5.67c0-1.287.425-2.563 1.198-3.593.886-1.181 2.17-1.99 3.617-2.28l6.975-1.395 2.907 1.938h4.605l2.907-1.938 6.975 1.395c1.447.29 2.731 1.099 3.617 2.28.774 1.03 1.199 2.305 1.199 3.593zm10-10h-9.306c-.099-.154-.182-.317-.292-.464-1.181-1.575-2.895-2.654-4.824-3.041l-2.478-.495h16.9zm11-6h-32.38l-.278-1.392c1.9-1.06 3.449-2.668 4.444-4.608h31.214v3c0 1.654-1.346 3-3 3z"/><path d="m55 33h2v2h-2z"/><path d="m47 33h2v2h-2z"/><path d="m51 33h2v2h-2z"/><path d="m19 5h13v2h-13z"/><path d="m41 13h2v2h2v-2h2v-2h-2v-6h-2v6h-2z"/><path d="m49 15h2v-6h2v-2h-2v-2h-2v2h-2v2h2z"/><path d="m53 11v2h2v2h2v-2h2v-2h-2v-6h-2v6z"/><path d="m44 21c-1.654 0-3 1.346-3 3s1.346 3 3 3 3-1.346 3-3-1.346-3-3-3zm0 4c-.551 0-1-.449-1-1s.449-1 1-1 1 .449 1 1-.449 1-1 1z"/><path d="m52 21c-1.654 0-3 1.346-3 3s1.346 3 3 3 3-1.346 3-3-1.346-3-3-3zm0 4c-.551 0-1-.449-1-1s.449-1 1-1 1 .449 1 1-.449 1-1 1z"/></g></svg>