<svg id="Layer_5" enable-background="new 0 0 64 64" height="512" viewBox="0 0 64 64" width="512" xmlns="http://www.w3.org/2000/svg"><g><path d="m19 15h12c2.757 0 5-2.243 5-5s-2.243-5-5-5h-12c-2.757 0-5 2.243-5 5s2.243 5 5 5zm0-8h12c1.654 0 3 1.346 3 3s-1.346 3-3 3h-12c-1.654 0-3-1.346-3-3s1.346-3 3-3z"/><path d="m52 11c.552 0 1 .449 1 1h2c0-1.302-.839-2.402-2-2.816v-2.184h-2v2.184c-1.161.414-2 1.514-2 2.816 0 1.654 1.346 3 3 3 .552 0 1 .449 1 1s-.448 1-1 1-1-.449-1-1h-2c0 1.302.839 2.402 2 2.816v2.184h2v-2.184c1.161-.414 2-1.514 2-2.816 0-1.654-1.346-3-3-3-.552 0-1-.449-1-1s.448-1 1-1z"/><path d="m46 38.142v-10.142c0-2.757-2.243-5-5-5h-2.202c-.57-1.112-1.332-2.127-2.269-3.002 2.131-2.008 3.471-4.846 3.471-7.998v-2c0-4.962-4.037-9-9-9h-12c-4.963 0-9 4.038-9 9v2c0 3.152 1.34 5.99 3.471 7.998-.936.875-1.699 1.89-2.269 3.002h-2.202c-2.757 0-5 2.243-5 5v10.142c-1.721.447-3 2-3 3.858v1c0 1.654 1.346 3 3 3v-2c-.552 0-1-.449-1-1v-1c0-1.103.897-2 2-2s2 .897 2 2v1c0 .551-.448 1-1 1v2c1.654 0 3-1.346 3-3v-1c0-1.858-1.279-3.411-3-3.858v-6.168c.838.635 1.87 1.026 3 1.026h1v3c0 5.024 3.39 9.263 8 10.574v4.426h-2v-2c0-2.206-1.794-4-4-4s-4 1.794-4 4v10c0 2.206 1.794 4 4 4s4-1.794 4-4v-2h18v2c0 2.206 1.794 4 4 4s4-1.794 4-4v-10c0-2.206-1.794-4-4-4s-4 1.794-4 4v2h-2v-4.426c4.61-1.31 8-5.549 8-10.574v-3h1c1.13 0 2.162-.391 3-1.026v6.168c-1.721.447-3 2-3 3.858v1c0 1.654 1.346 3 3 3v-2c-.552 0-1-.449-1-1v-1c0-1.103.897-2 2-2s2 .897 2 2v1c0 .551-.448 1-1 1v2c1.654 0 3-1.346 3-3v-1c0-1.858-1.279-3.411-3-3.858zm-32 20.858c0 1.103-.897 2-2 2s-2-.897-2-2v-10c0-1.103.897-2 2-2s2 .897 2 2zm22-10c0-1.103.897-2 2-2s2 .897 2 2v10c0 1.103-.897 2-2 2s-2-.897-2-2zm-24-37v-2c0-3.86 3.141-7 7-7h12c3.859 0 7 3.14 7 7v2c0 4.962-4.037 9-9 9h-8c-4.963 0-9-4.038-9-9zm-3 19c-1.654 0-3-1.346-3-3s1.346-3 3-3h1.43c-.272.963-.43 1.966-.43 3v3zm23 13.475c-.94.334-1.947.525-3 .525h-8c-1.053 0-2.06-.191-3-.525v-14.475c0-1.654 1.346-3 3-3h8c1.654 0 3 1.346 3 3zm2 10.525h-18v-2h18zm-4-4h-10v-4.051c.33.03.662.051 1 .051h8c.338 0 .67-.021 1-.051zm8-15c0 3.113-1.59 5.862-4 7.478v-13.478c0-2.757-2.243-5-5-5h-8c-2.757 0-5 2.243-5 5v13.478c-2.41-1.617-4-4.365-4-7.478v-8c0-2.617 1.12-5.033 3.078-6.745 1.712 1.099 3.741 1.745 5.922 1.745h8c2.181 0 4.21-.646 5.922-1.745 1.958 1.712 3.078 4.128 3.078 6.745zm3-5h-1v-3c0-1.034-.158-2.037-.429-3h1.429c1.654 0 3 1.346 3 3s-1.346 3-3 3z"/><path d="m52 3c-6.065 0-11 4.935-11 11s4.935 11 11 11 11-4.935 11-11-4.935-11-11-11zm0 20c-4.963 0-9-4.038-9-9s4.037-9 9-9 9 4.038 9 9-4.037 9-9 9z"/><path d="m20 30h2v2h-2z"/><path d="m24 30h2v2h-2z"/><path d="m28 30h2v2h-2z"/></g></svg>