<svg id="Layer_5" enable-background="new 0 0 64 64" height="512" viewBox="0 0 64 64" width="512" xmlns="http://www.w3.org/2000/svg"><g><path d="m45 23h2v2h-2z"/><path d="m49 23h2v2h-2z"/><path d="m23 47c2.206 0 4-1.794 4-4s-1.794-4-4-4-4 1.794-4 4 1.794 4 4 4zm0-6c1.103 0 2 .897 2 2s-.897 2-2 2-2-.897-2-2 .897-2 2-2z"/><path d="m16 17c2.206 0 4-1.794 4-4s-1.794-4-4-4-4 1.794-4 4 1.794 4 4 4zm0-6c1.103 0 2 .897 2 2s-.897 2-2 2-2-.897-2-2 .897-2 2-2z"/><path d="m63 38.029c0-3.94-2.541-7.29-6.068-8.52l-1.528-9.167c-.322-1.936-1.982-3.342-3.946-3.342h-6.917c-.838 0-1.612.268-2.259.712l-4.88-2.147c.393-1.143.598-2.337.598-3.565 0-6.065-4.935-11-11-11-3.451 0-6.648 1.616-8.725 4.334-.722-.214-1.484-.334-2.275-.334-2.073 0-3.958.799-5.38 2.097-5.506.687-9.62 5.308-9.62 10.903 0 4.797 3.064 8.973 7.55 10.446l-1.532 15.325-1.55 4.132c-.856 2.284-1.319 4.669-1.423 7.097h-1.045c-1.103 0-2 .897-2 2v6h34v-6c0-1.103-.897-2-2-2h-1.064c-.21-1.831-.944-3.581-1.664-5.281-.259-.612-.516-1.218-.74-1.815l-.075-.2c.966-1.322 1.543-2.945 1.543-4.704 0-1.435-.385-2.779-1.049-3.945 1.323-1.735 2.049-3.856 2.049-6.055 0-5.207-4.001-9.492-9.09-9.954l-.205-2.046h.079l16.455 7.48-.172 1.03c-3.526 1.23-6.068 4.58-6.068 8.52 0 2.154.772 4.241 2.174 5.876l3.827 4.464v3.63c0 1.654 1.346 3 3 3h12c1.654 0 3-1.346 3-3v-3.63l3.826-4.463c1.402-1.636 2.174-3.723 2.174-5.878zm-22.404-17.687-.241 1.448-16.355-7.434v-1.356c0-.406-.04-.801-.099-1.191l17.032 7.494c-.152.326-.276.669-.337 1.039zm-8.73-7.214-8.801-3.872c-.034-.064-.071-.126-.107-.189.935-1.285 2.434-2.067 4.042-2.067 2.757 0 5 2.243 5 5 0 .385-.05.761-.134 1.128zm-4.866-10.128c4.962 0 9 4.038 9 9 0 .948-.146 1.872-.432 2.757l-1.851-.814c.182-.628.283-1.277.283-1.943 0-3.86-3.14-7-7-7-2.045 0-3.96.91-5.276 2.423-.47-.482-1.002-.901-1.581-1.253 1.701-2.002 4.192-3.17 6.857-3.17zm-11 4c3.309 0 6 2.691 6 6v6h-6c-3.309 0-6-2.691-6-6s2.691-6 6-6zm-7.799 7.759c.253 1.122.743 2.151 1.414 3.041l-.432 4.318c-1.338-.917-2.183-2.441-2.183-4.118 0-1.218.438-2.352 1.201-3.241zm-5.201 3.241c0-3.834 2.36-7.111 5.772-8.406-.388.819-.646 1.711-.734 2.654-1.878 1.298-3.038 3.456-3.038 5.752 0 2.707 1.57 5.135 3.966 6.291l-.21 2.1c-3.438-1.321-5.756-4.619-5.756-8.391zm30 43h-30v-4h30zm-3.084-6h-23.871c.103-2.187.524-4.335 1.296-6.394l1.352-3.606h6.57c.892 3.445 4.017 6 7.737 6 1.862 0 3.574-.645 4.935-1.716.163.403.321.804.495 1.214.629 1.488 1.269 3.017 1.486 4.502zm-4.676-19.675c-.365-.107-.742-.184-1.126-.238l-.576-5.761c1.444.61 2.462 2.035 2.462 3.674 0 .847-.274 1.649-.76 2.325zm-2.24 1.675c3.309 0 6 2.691 6 6s-2.691 6-6 6-6-2.691-6-6 2.691-6 6-6zm7-4c0 1.569-.465 3.085-1.314 4.38-.471-.476-1.004-.887-1.581-1.234.58-.938.895-2.018.895-3.146 0-2.82-1.998-5.237-4.68-5.846l-.207-2.067c3.885.545 6.887 3.881 6.887 7.913zm-7.9 2.054c-3.988.449-7.1 3.839-7.1 7.946h-5.895l2.343-23.43c1.293.899 2.861 1.43 4.552 1.43h4.695zm1.9-15.698v-2.804l16.014 7.279-.434 2.606zm17.181 9.644 1.388-8.329c.161-.968.991-1.671 1.973-1.671h6.917c.982 0 1.812.703 1.973 1.671l1.387 8.329h-.849-11.94zm13.819 10.184c-.314-.112-.648-.184-1-.184h-12c-.352 0-.686.072-1 .184v-1.184c0-.552.449-1 1-1h12c.551 0 1 .448 1 1zm-10 1.816h6v2h-6zm10 11c0 .552-.449 1-1 1h-12c-.551 0-1-.448-1-1v-10c0-.552.449-1 1-1h1v4h10v-4h1c.551 0 1 .448 1 1v1zm2-6.703v-2.297-1-4c0-1.654-1.346-3-3-3h-12c-1.654 0-3 1.346-3 3v4 3.297l-2.308-2.693c-1.091-1.273-1.692-2.898-1.692-4.575 0-3.876 3.153-7.029 7.03-7.029h11.94c3.876 0 7.03 3.153 7.03 7.029 0 1.677-.601 3.302-1.692 4.575z"/></g></svg>