<svg id="Layer_5" enable-background="new 0 0 64 64" height="512" viewBox="0 0 64 64" width="512" xmlns="http://www.w3.org/2000/svg"><g><path d="m23 22h4v2h-4z"/><path d="m13 22h4v2h-4z"/><path d="m41 21h2v2h-2z"/><path d="m45 21h14v2h-14z"/><path d="m59 7h-2.08c-.488-3.387-3.401-6-6.92-6s-6.432 2.613-6.92 6h-2.08c-2.206 0-4 1.794-4 4v12c0 2.206 1.794 4 4 4h8v1.586c0 1.331 1.083 2.414 2.414 2.414.637 0 1.259-.258 1.707-.707l3.293-3.293h2.586c2.206 0 4-1.794 4-4v-12c0-2.206-1.794-4-4-4zm-14 1c0-2.757 2.243-5 5-5s5 2.243 5 5v.515c0 1.336-.521 2.592-1.465 3.536l-.949.949h-1.586v-2.184c1.161-.414 2-1.514 2-2.816 0-1.654-1.346-3-3-3s-3 1.346-3 3c0 1.302.839 2.402 2 2.816v2.184h-1.586l-.95-.95c-.943-.944-1.464-2.199-1.464-3.535zm3 7h4v1c0 .551-.448 1-1 1h-2c-.552 0-1-.449-1-1zm1-7c0-.551.448-1 1-1s1 .449 1 1-.448 1-1 1-1-.449-1-1zm12 15c0 1.103-.897 2-2 2h-3.414l-3.88 3.879c-.235.237-.706.045-.706-.293v-3.586h-10c-1.103 0-2-.897-2-2v-12c0-1.103.897-2 2-2h2.024c.115 1.687.82 3.258 2.027 4.464l.949.95v1.586c0 1.654 1.346 3 3 3h2c1.654 0 3-1.346 3-3v-1.586l.949-.949c1.207-1.206 1.912-2.778 2.027-4.465h2.024c1.103 0 2 .897 2 2z"/><path d="m54.798 40.554 1.479-2.489-5.342-5.342-2.489 1.479c-.317-.147-.638-.281-.956-.4l-.713-2.802h-7.555l-.713 2.802c-.317.118-.636.251-.952.398l-2.652-1.604c.057-.529.095-1.06.095-1.596v-12c0-8.271-6.729-15-15-15s-15 6.729-15 15v12c0 3.033.928 5.976 2.623 8.456l-.201.04c-1.93.386-3.643 1.466-4.824 3.04-1.031 1.373-1.598 3.075-1.598 4.794v5.67c0 1.302.839 2.402 2 2.816v7.184h34v-5.471c.518.231 1.077.475 1.505.649l.718 2.822h7.555l.713-2.802c.318-.119.639-.253.956-.4l2.489 1.479 5.342-5.342-1.479-2.489c.147-.317.281-.638.4-.956l2.801-.713v-7.555l-2.802-.713c-.119-.318-.253-.638-.4-.955zm-47.798-9.554v-12c0-7.168 5.832-13 13-13s13 5.832 13 13v12c0 2.919-.993 5.741-2.787 8.023l-4.399-.88-.623-2.449c3.454-1.857 5.809-5.505 5.809-9.694v-5.292c0-2.056-1.233-3.878-3.144-4.643l-7.856-3.142-7.856 3.143c-1.911.764-3.144 2.586-3.144 4.642v5.292c0 4.189 2.355 7.837 5.81 9.694l-.623 2.449-4.399.88c-1.795-2.282-2.788-5.104-2.788-8.023zm7 9.22.739-.148 4.261 3.408v12.385c-3.152-2.95-5-7.097-5-11.468zm7-15.22v-9.523l6.114 2.446c1.146.458 1.886 1.551 1.886 2.785v5.292c0 2.554-1.074 4.857-2.789 6.497l-.062-.745c-.128-1.544-1.441-2.752-2.989-2.752h-2.16v-2h-2v2h-2.16c-1.548 0-2.861 1.208-2.988 2.75l-.062.747c-1.716-1.639-2.79-3.943-2.79-6.497v-5.292c0-1.234.74-2.327 1.886-2.785l6.114-2.446v9.523zm2.16 6c.516 0 .953.403.996.917l.165 1.974c-1.283.706-2.756 1.109-4.321 1.109s-3.038-.403-4.321-1.109l.166-1.975c.042-.513.479-.916.995-.916zm-3.16 6c1.16 0 2.277-.183 3.328-.518l.544 2.139-3.872 3.099-3.872-3.098.544-2.139c1.051.334 2.168.517 3.328.517zm1 6.48 4.261-3.408.739.148v4.177c0 4.372-1.848 8.519-5 11.468zm-18 3.85c0-1.288.425-2.564 1.197-3.594.886-1.181 2.171-1.99 3.617-2.279l4.186-.837v3.777c0 5.709 2.773 11.098 7.419 14.416l.581.416.581-.415c4.646-3.319 7.419-8.708 7.419-14.417v-3.777l4.186.837c1.446.289 2.731 1.099 3.617 2.28.772 1.029 1.197 2.305 1.197 3.593v5.67c0 .552-.448 1-1 1h-4.013c.651-1.164 1.013-2.485 1.013-3.828v-.104c0-1.55-.454-3.051-1.314-4.343l-.854-1.279-1.664 1.109.854 1.279c.64.961.979 2.08.979 3.233v.104c0 1.534-.622 3.036-1.707 4.121l-.294.294v6.414h-18v-6.414l-.293-.293c-1.085-1.085-1.707-2.587-1.707-4.121v-.104c0-1.153.339-2.272.979-3.233l.854-1.279-1.664-1.109-.854 1.28c-.861 1.29-1.315 2.791-1.315 4.34v.104c0 1.344.362 2.665 1.013 3.829h-4.013c-.552 0-1-.448-1-1zm34.402-4.793c-.086-.114-.18-.22-.271-.329 1.284-1.989 3.469-3.208 5.869-3.208 3.859 0 7 3.141 7 7s-3.141 7-7 7c-1.457 0-2.824-.456-4-1.283v-4.387c0-1.719-.567-3.421-1.598-4.793zm-32.402 13.463h4v5h-4zm26 5v-5h4v5zm25-12.777-2.354.598-.168.528c-.179.559-.416 1.125-.705 1.685l-.255.493 1.246 2.095-3.143 3.143-2.095-1.246-.493.255c-.56.289-1.126.526-1.685.705l-.528.168-.597 2.353h-4.445l-.598-2.354-.528-.168c-.293-.094-1.236-.505-2.131-.906.608-.361 1.073-.926 1.306-1.606 1.28.669 2.714 1.034 4.173 1.034 4.963 0 9-4.037 9-9s-4.037-9-9-9c-2.968 0-5.691 1.44-7.364 3.825-.908-.646-1.945-1.106-3.058-1.329l-.201-.04c.991-1.45 1.718-3.058 2.149-4.752l2.943 1.781.497-.257c.56-.289 1.126-.526 1.685-.705l.528-.168.598-2.355h4.445l.598 2.354.528.168c.559.179 1.125.416 1.685.705l.493.255 2.095-1.246 3.143 3.143-1.246 2.095.255.493c.289.56.526 1.126.705 1.685l.168.528 2.354.597z"/></g></svg>