<svg id="Layer_5" enable-background="new 0 0 64 64" height="512" viewBox="0 0 64 64" width="512" xmlns="http://www.w3.org/2000/svg"><g><path d="m54.454 25.726-1.273.595-.48-1.321h-5.401l-.48 1.321-1.273-.595-3.82 3.82.595 1.273-1.322.48v5.401l1.321.48-.595 1.273 3.82 3.82 1.273-.595.48 1.322h5.401l.48-1.321 1.273.595 3.82-3.82-.595-1.273 1.322-.48v-5.401l-1.321-.48.595-1.273zm2.546 9.573-.823.299-.448.214-.422 1.019.561 1.201-1.837 1.837-1.201-.561-1.079.447-.452 1.245h-2.599l-.299-.823-.214-.448-1.019-.422-1.201.561-1.837-1.837.561-1.201-.447-1.079-1.244-.452v-2.599l.823-.299.448-.214.422-1.019-.561-1.201 1.837-1.837 1.202.562 1.077-.447.453-1.245h2.599l.299.823.212.447 1.019.423 1.202-.562 1.837 1.837-.561 1.201.447 1.079 1.245.453z"/><path d="m50 29c-2.757 0-5 2.243-5 5s2.243 5 5 5 5-2.243 5-5-2.243-5-5-5zm0 8c-1.654 0-3-1.346-3-3s1.346-3 3-3 3 1.346 3 3-1.346 3-3 3z"/><path d="m50 21c-7.168 0-13 5.832-13 13v8.465c-.396-.407-.84-.771-1.332-1.074l-9.863-6.069-.898-2.245c-.705-1.761-1.86-3.319-3.342-4.504l-2.445-1.956c5.695-1.405 9.88-6.552 9.88-12.617 0-7.168-5.832-13-13-13-6.251 0-11.508 4.347-12.728 10.409-1.339.647-2.272 2.007-2.272 3.591v13.393c0 1.857.35 3.674 1.04 5.398.735 1.838 1.818 3.48 3.218 4.88l4.203 4.203c1.319 1.319 2.964 2.287 4.756 2.799l4.302 1.229 15.27 12.859c2.481 2.089 5.632 3.239 8.874 3.239 5.461 0 10.411-3.23 12.61-8.228l6.626-15.06c.731-1.66 1.101-3.422 1.101-5.235v-.477c0-7.168-5.832-13-13-13zm2.917 34h-3.839l4.545-5h1.563l-1.745 3.966c-.156.357-.335.699-.524 1.034zm-6.541 0h-.376c-.974 0-1.821-.151-2.567-.39l4.58-5.037c.984.161 1.975.29 2.972.357zm-4.82-1.298c-.891-.602-1.527-1.31-1.946-1.898l3.446-3.446c.878.295 1.772.538 2.672.755zm-2.556-4.116v-2.233c0-.241-.022-.48-.047-.718.674.339 1.356.658 2.051.948zm-23-46.586c1.075 0 2.22 1.527 3.009 4h-6.018c.789-2.473 1.934-4 3.009-4zm3.519 6c.244 1.209.408 2.553.46 4h-7.958c.052-1.447.217-2.791.46-4zm7.43 4h-4.971c-.046-1.419-.184-2.763-.409-4h4.217c.626 1.221 1.034 2.57 1.163 4zm-17.949 2h1.023c.047 1.389.19 2.737.421 4h-1.444zm3.022 0h7.958c-.051 1.459-.212 2.802-.452 4h-7.053c-.248-1.243-.402-2.595-.453-4zm9.958 0h4.971c-.129 1.427-.531 2.778-1.157 4h-4.226c.226-1.241.367-2.583.412-4zm-11.958-2h-1.578c-.628-1.077-1.736-1.824-3.035-1.959.197-.715.464-1.397.79-2.041h4.232c-.225 1.237-.364 2.581-.409 4zm-1.022 8h1.908c.099.349.205.687.318 1.013-.819.025-1.58.272-2.226.69zm4.507 1.355c-.188-.422-.364-.871-.52-1.355h6.028c-.607 1.895-1.422 3.208-2.245 3.736l-2.227-1.781c-.314-.252-.667-.445-1.036-.6zm6.21 1.999c.556-.923 1.027-2.055 1.394-3.354h3.359c-1.244 1.505-2.875 2.679-4.753 3.354zm4.762-17.354h-3.374c-.368-1.295-.838-2.422-1.391-3.341 1.874.675 3.518 1.834 4.765 3.341zm-12.179-3.364c-.559.923-1.034 2.058-1.405 3.364h-3.404c1.255-1.531 2.916-2.696 4.809-3.364zm-5.628 33.622c-1.203-1.203-2.133-2.613-2.767-4.192 2.007.231 3.867 1.12 5.317 2.57l2.143 2.143c1.539 1.539 2.444 3.539 2.603 5.688-1.154-.452-2.214-1.127-3.093-2.006zm11.328 5.742v1.674l-2.002-.572c-.01-2.923-1.151-5.67-3.22-7.738l-2.143-2.143c-1.975-1.975-4.572-3.094-7.348-3.201-.184-.86-.287-1.737-.287-2.627v-13.393c0-1.103.897-2 2-2s2 .897 2 2v11.358c0 1.354.613 2.608 1.683 3.44l7.704 5.992 1.228-1.579-7.705-5.992c-.578-.45-.91-1.128-.91-1.861 0-1.3 1.058-2.358 2.358-2.358h.464c.533 0 1.057.184 1.473.517l7.021 5.617c1.212.97 2.158 2.245 2.734 3.686l.825 2.064-1.432 2.148c-2.495.276-4.443 2.399-4.443 4.968zm24.663 18c-2.771 0-5.465-.983-7.586-2.769l-15.077-12.696v-2.535c0-1.654 1.346-3 3-3h.535l1.762-2.643 9.323 5.737c1.468.904 2.38 2.535 2.38 4.258v3.84l.071.179c.093.23 2.328 5.629 8.929 5.629h5.5c-2.199 2.498-5.397 4-8.837 4zm18.337-26.523c0 1.535-.313 3.025-.932 4.43l-4.001 9.093h-3.005c-4.91 0-9.755-1.251-14.062-3.602v-10.398c0-6.065 4.935-11 11-11s11 4.935 11 11z"/></g></svg>