<svg id="Layer_5" enable-background="new 0 0 64 64" height="512" viewBox="0 0 64 64" width="512" xmlns="http://www.w3.org/2000/svg"><g><path d="m23 22h4v2h-4z"/><path d="m13 22h4v2h-4z"/><path d="m13 59h14v-10h-14zm2-8h10v6h-10z"/><path d="m21 53h2v2h-2z"/><path d="m17 53h2v2h-2z"/><path d="m13 45h14v2h-14z"/><path d="m60.509 20.442c-.561-2.669-1.593-5.164-3.074-7.436l1.164-2.349-5.258-5.257-2.349 1.164c-2.273-1.482-4.769-2.514-7.435-3.073l-.839-2.491h-7.437l-.84 2.491c-2.666.56-5.162 1.591-7.435 3.073l-2.347-1.164-5.259 5.258.18.363c-4.838.184-8.88 3.499-10.154 7.979h-1.426c-1.654 0-3 1.346-3 3v4c0 1.654 1.346 3 3 3h1.426c.805 2.832 2.711 5.201 5.232 6.608l-.508 2.542-6.728 1.346c-1.93.386-3.644 1.466-4.825 3.04-1.03 1.374-1.597 3.076-1.597 4.794v5.67c0 1.302.839 2.402 2 2.816v7.184h34v-7.184c1.161-.414 2-1.514 2-2.816v-4h3.718l.84-2.491c2.666-.56 5.162-1.591 7.435-3.073l2.349 1.164 5.258-5.258-1.164-2.349c1.481-2.271 2.513-4.767 3.074-7.436l2.49-.839v-7.436zm-25.274 20.108c-.808-.504-1.706-.864-2.657-1.054l-2.117-.423 8.624-8.506c3.232 1.095 6.796.28 9.239-2.162 2.294-2.294 3.207-5.644 2.38-8.742l-.054-.203-1.567-1.955-4.497 4.495h-1.172l-1.414-1.414v-1.172l4.496-4.496-1.955-1.567-.204-.054c-3.097-.829-6.448.086-8.743 2.38-1.043 1.043-1.797 2.3-2.224 3.67-.412-.214-.873-.347-1.37-.347h-1.426c-.558-1.965-1.649-3.702-3.108-5.055 3.013-3.143 7.153-4.945 11.534-4.945 8.822 0 16 7.178 16 16s-7.178 16-16 16c-1.274 0-2.539-.154-3.765-.45zm-18.922-6.349.015-.092c.301-1.801 1.845-3.109 3.672-3.109s3.371 1.308 3.671 3.109l.015.092c-1.126.509-2.372.799-3.686.799s-2.56-.29-3.687-.799zm5.993-15.201c1.473 0 2.717-1.054 2.959-2.507l.263-1.58c2.109 1.649 3.472 4.209 3.472 7.087v4c0 2.902-1.387 5.48-3.526 7.127-.609-2.102-2.337-3.664-4.474-4.038v-10.089zm.404 20.552-.818-2.726c.539-.094 1.065-.224 1.575-.394l.434 2.167zm-1.684 1.347-1.026.821-1.026-.821 1.026-3.418zm4.315-5.291c2.521-1.407 4.427-3.776 5.232-6.608h1.427c1.654 0 3-1.346 3-3v-4c0-.082-.018-.16-.024-.24.068-1.764.78-3.414 2.034-4.669 1.698-1.697 4.136-2.425 6.437-1.951l-3.447 3.446v2.828l2.586 2.586h2.828l3.446-3.446c.477 2.304-.253 4.738-1.951 6.437-2.025 2.025-5.04 2.612-7.681 1.493l-.616-.261-10.52 10.376-2.242-.449zm5.608-14.608h1.051c.499 0 .897.374.97.854-.001.048-.007.095-.008.142h.036c.001.002.002.003.002.004v4c0 .552-.449 1-1 1h-1.051c.03-.33.051-.662.051-1v-4c0-.338-.021-.67-.051-1zm-7.657-4.835c-.081.483-.496.835-.986.835h-4.611c-.491 0-.906-.352-.986-.835l-.395-2.367c1.126-.508 2.372-.798 3.686-.798s2.56.29 3.687.798zm-15.292 10.835c-.551 0-1-.448-1-1v-4c0-.552.449-1 1-1h1.051c-.03.33-.051.662-.051 1v4c0 .338.021.67.051 1zm3-1v-4c0-2.878 1.363-5.438 3.472-7.087l.263 1.58c.243 1.453 1.487 2.507 2.959 2.507h1.306v10.089c-2.137.374-3.865 1.936-4.474 4.038-2.139-1.647-3.526-4.225-3.526-7.127zm7.108 10.826-.818 2.726-1.19-.953.434-2.167c.509.169 1.035.299 1.574.394zm-13.108 19.174h4v5h-4zm26 5v-5h4v5zm6-8c0 .552-.449 1-1 1h-5v-9h-2v16h-18v-16h-2v9h-5c-.551 0-1-.448-1-1v-5.67c0-1.288.425-2.563 1.198-3.594.885-1.181 2.169-1.99 3.617-2.279l6.924-1.385 5.261 4.208 5.261-4.208 6.924 1.385c1.447.289 2.731 1.099 3.617 2.28.773 1.03 1.198 2.305 1.198 3.593zm24-25.718-2.237.754-.106.58c-.513 2.803-1.588 5.404-3.197 7.732l-.335.484 1.045 2.11-3.227 3.227-2.109-1.045-.485.334c-2.331 1.61-4.933 2.686-7.732 3.197l-.58.105-.755 2.24h-2.309c-.061-1.443-.52-2.85-1.314-4.055.446.033.893.055 1.341.055 9.925 0 18-8.075 18-18s-8.075-18-18-18c-5 0-9.722 2.086-13.122 5.718-1.195-.759-2.543-1.292-3.99-1.544l-.058-.117 3.227-3.227 2.109 1.045.485-.334c2.331-1.61 4.933-2.686 7.732-3.197l.58-.105.755-2.239h4.563l.755 2.238.58.105c2.8.512 5.401 1.587 7.732 3.197l.485.334 2.109-1.045 3.227 3.227-1.045 2.11.335.484c1.608 2.328 2.684 4.93 3.197 7.732l.106.58 2.238.756z"/><path d="m51.328 31.643-1.76-.951c-.292.54-.628 1.062-.998 1.55l1.594 1.209c.432-.57.823-1.179 1.164-1.808z"/><path d="m48.737 35.061-1.392-1.438c-.44.427-.918.823-1.419 1.178l1.155 1.633c.586-.414 1.142-.876 1.656-1.373z"/><path d="m40.84 36.86c-.605.093-1.224.14-1.84.14v2c.717 0 1.438-.055 2.144-.163z"/><path d="m45.236 37.538-.893-1.789c-.547.272-1.122.506-1.708.691l.604 1.906c.685-.216 1.357-.489 1.997-.808z"/></g></svg>