<svg id="Capa_1" enable-background="new 0 0 512 512" height="512" viewBox="0 0 512 512" width="512" xmlns="http://www.w3.org/2000/svg"><g><path d="m512 271.097v-90.906h-28.309c-15.337-47.962-59.936-81.602-110.424-81.602h-7.604v-5.84c0-51.142-41.635-92.749-92.811-92.749-51.048 0-92.603 41.402-92.81 92.368-5.744-1.049-11.596-1.577-17.526-1.577-53.541 0-97.1 43.53-97.1 97.035 0 2.464.095 4.925.283 7.38-36.406 1.049-65.699 30.97-65.699 67.601 0 37.29 30.358 67.628 67.673 67.628h141.002v60.62h29.966v30.039h-29.966v90.906h303.325v-90.905h-29.966v-30.039h29.966v-90.906h-29.966v-29.053zm-29.964-29.944h-243.396v-31.017h243.396zm-414.363 59.338c-20.793 0-37.709-16.905-37.709-37.684s16.916-37.684 37.709-37.684h35.62s-7.914-13.786-7.914-37.296c0-36.994 30.117-67.091 67.136-67.091 9.218 0 18.157 1.84 26.57 5.469l20.919 9.023v-42.479c0-34.63 28.193-62.804 62.847-62.804 34.653 0 62.846 28.174 62.846 62.804v35.784h37.568c34.131 0 64.651 20.864 78.402 51.658h-242.991v90.906h29.966v29.053zm414.363 181.565h-243.396v-31.017h243.396zm-29.966-60.961h-183.464v-30.039h183.464zm29.966-59.983h-243.396v-31.017h243.396zm-29.966-60.962h-183.464v-29.053h183.464z"/></g></svg>