<svg id="Capa_1" enable-background="new 0 0 512 512" height="512" viewBox="0 0 512 512" width="512" xmlns="http://www.w3.org/2000/svg"><g><path d="m100.236 0v512h311.528v-512zm281.528 30v31.123h-251.528v-31.123zm0 61.123v310.901h-251.528v-310.901zm-251.528 390.877v-49.976h251.528v49.976z"/><path d="m208.462 256.627h30.265v58.3l-15.401-15.401-21.213 21.213 51.887 51.886 51.886-51.887-21.213-21.213-15.946 15.946v-58.844h40.899c22.426 0 40.671-18.245 40.671-40.672 0-19.015-13.367-35.178-31.213-39.477-5.197-15.719-18.968-27.573-35.747-29.994-6.415-15.488-21.702-26.305-39.328-26.305-21 0-38.496 15.292-41.938 35.325-24.983 3.153-44.371 24.536-44.371 50.361.001 27.99 22.773 50.762 50.762 50.762zm0-71.523h22.996v-22.373c0-6.921 5.631-12.552 12.552-12.552 6.62 0 12.12 5.167 12.522 11.764l.859 14.086h19.586c7.903 0 14.333 6.43 14.333 14.333v15h18.58c5.844.138 10.407 4.773 10.407 10.593 0 5.884-4.787 10.672-10.671 10.672h-101.164c-11.448 0-20.761-9.313-20.761-20.762 0-11.448 9.314-20.761 20.761-20.761z"/></g></svg>