<svg id="Capa_1" enable-background="new 0 0 512 512" height="512" viewBox="0 0 512 512" width="512" xmlns="http://www.w3.org/2000/svg"><g><path d="m512 258.339c0-42.537-32.642-77.595-74.19-81.446-4.158-36.268-35.046-64.531-72.41-64.531-6.663 0-13.196.888-19.472 2.623-2.49-45.587-40.364-81.909-86.562-81.909-47.802 0-86.692 38.89-86.692 86.692v4.237h-5.859c-59.587 0-108.065 48.478-108.065 108.066 0 21.862 6.568 42.978 18.721 60.808-10.801 14.921-17.178 33.244-17.178 53.031 0 1.903.06 3.805.181 5.703-33.617 1.595-60.474 29.446-60.474 63.45 0 35.021 28.488 63.513 63.505 63.523l281.62.337h.132c28.819-.001 55.921-11.215 76.315-31.586 20.427-20.403 31.677-47.54 31.677-76.411 0-11.431-1.791-22.451-5.098-32.8 36.495-8.204 63.849-40.851 63.849-79.787zm-111.569 167.832c-14.746 14.729-34.337 22.836-55.175 22.836-.032 0-.064 0-.096 0l-281.618-.337h-.018c-18.531 0-33.607-15.076-33.607-33.607s15.076-33.606 33.607-33.606h34.349s-7.663-11.431-7.663-35.548c0-33.486 27.243-60.729 60.729-60.729 8.338 0 16.424 1.665 24.034 4.95l20.886 9.015v-40.927c0-31.306 25.469-56.775 56.775-56.775s56.775 25.469 56.775 56.775v34.629h35.845c43.053 0 78.08 35.027 78.08 78.08-.001 20.874-8.134 40.493-22.903 55.244zm33.967-116.136c-19.474-28.42-52.166-47.104-89.144-47.104h-5.928v-4.712c0-47.802-38.89-86.692-86.692-86.692-47.227 0-85.756 37.964-86.675 84.975-4.931-.824-9.945-1.238-15.02-1.238-19.167 0-36.96 5.985-51.619 16.177-6.926-11.859-10.652-25.399-10.652-39.371 0-43.092 35.057-78.149 78.148-78.149h35.775v-34.154c0-31.306 25.469-56.775 56.775-56.775s56.776 25.469 56.776 56.775v48.39l23.825-17.538c7.414-5.456 16.208-8.341 25.433-8.341 23.694 0 42.969 19.276 42.969 42.969 0 12.557-2.029 21.211-2.029 21.211h23.863c28.606 0 51.879 23.273 51.879 51.88.001 27.195-21.034 49.553-47.684 51.697z"/><path d="m256 381.572c-17.946 0-35.1 7.72-47.061 21.181l22.363 19.872c6.289-7.078 15.291-11.137 24.698-11.137 9.406 0 18.409 4.06 24.698 11.137l22.364-19.872c-11.963-13.461-29.116-21.181-47.062-21.181z"/><path d="m256 324.315c-34.214 0-66.916 14.717-89.72 40.379l22.363 19.872c17.132-19.278 41.683-30.335 67.358-30.335s50.226 11.057 67.357 30.335l22.364-19.872c-22.805-25.662-55.507-40.379-89.722-40.379z"/></g></svg>