<svg id="Capa_1" enable-background="new 0 0 512 512" height="512" viewBox="0 0 512 512" width="512" xmlns="http://www.w3.org/2000/svg"><g><path d="m387.247 57.708 1.774 30.085c9.513-.557 18.825 2.959 25.527 9.661 6.7 6.7 10.221 16.004 9.66 25.525l30.084 1.775c1.068-18.109-5.651-35.827-18.435-48.61-12.784-12.784-30.506-19.498-48.61-18.436z"/><path d="m476.642 35.358c-24.372-24.372-58.153-37.184-92.672-35.147l1.774 30.085c25.941-1.53 51.299 8.083 69.588 26.373 18.289 18.288 27.902 43.652 26.373 69.588l30.084 1.774c2.036-34.524-10.775-68.302-35.147-92.673z"/></g><g><path d="m306.146 224.061 30.654-30.653c6.207 2.974 12.95 4.472 19.697 4.472 11.652 0 23.303-4.435 32.174-13.306 17.741-17.741 17.741-46.608 0-64.348-8.594-8.594-20.02-13.327-32.173-13.327-12.154 0-23.58 4.733-32.174 13.327-8.595 8.594-13.327 20.02-13.327 32.174 0 6.941 1.549 13.642 4.474 19.717l-30.635 30.634-95.437-95.437-44.324 44.325c-50.025 50.024-57.453 126.75-22.306 184.718l-101.611 145.506h-21.158v30.137h235.964v-30.137h-26.628l-9.07-81.989c16.562 5.978 33.968 8.977 51.378 8.977 38.589 0 77.191-14.694 106.569-44.072l44.325-44.325zm50.072-87.179c8.635 0 15.635 7 15.635 15.635s-7 15.635-15.635 15.635-15.635-7-15.635-15.635 7-15.635 15.635-15.635zm-298.302 344.981 84.024-120.323c1.028 1.09 2.069 2.172 3.135 3.238 7.187 7.187 14.927 13.488 23.08 18.917l10.859 98.168zm108.469-138.395c-39.043-39.044-45.657-98.419-19.851-144.356l164.206 164.206c-45.937 25.807-105.311 19.193-144.355-19.85zm168.8 1.675-170.476-170.476c.554-.576 24.69-24.732 24.69-24.732l170.52 170.519c-.001-.001-24.158 24.135-24.734 24.689z"/></g></svg>