<svg id="Capa_1" enable-background="new 0 0 512 512" height="512" viewBox="0 0 512 512" width="512" xmlns="http://www.w3.org/2000/svg"><g><path d="m380.88 95.782h-6.94v-5.667c0-49.69-40.426-90.115-90.116-90.115-49.378 0-89.607 39.919-90.111 89.179-5.397-.953-10.891-1.431-16.456-1.431-51.974 0-94.259 42.284-94.259 94.258 0 2.227.079 4.453.238 6.674-35.188 1.276-63.419 30.299-63.419 65.793 0 32.769 24.064 60.017 55.448 65.013l-56.587 56.586 135.929 135.928 191.611-191.611 34.426.274h.101.139c30.006-.001 58.221-11.677 79.456-32.885 21.268-21.242 32.981-49.496 32.981-79.555 0-62-50.441-112.441-112.441-112.441zm-237.458 362.758-71.552-71.551 81.374-10.546zm40.401-86.06 39.598-5.132 3.625-36.989 73.71-6.782-126.178 126.178zm46.193-72.413 7.55-77.027 69.9 69.9zm-34.024 40.693-114.576 14.85 125.413-125.413zm243.223-74.131c-15.59 15.571-36.302 24.142-58.332 24.142-.018 0-.035 0-.053 0l-33.526-.267-121.528-121.528-121.706 121.706-18.2-.262-.216-.001c-19.82 0-35.945-16.125-35.945-35.945s16.124-35.945 35.945-35.945h35.034l-5.364-19.006c-1.615-5.722-2.434-11.615-2.434-17.516 0-35.492 28.875-64.366 64.366-64.366 8.838 0 17.409 1.765 25.474 5.247l20.87 9.008v-41.78c0-33.207 27.016-60.223 60.224-60.223s60.224 27.016 60.224 60.223v35.559h36.832c45.517 0 82.548 37.031 82.548 82.549 0 22.067-8.598 42.809-24.213 58.405z"/></g></svg>