<svg id="Capa_1" enable-background="new 0 0 512 512" height="512" viewBox="0 0 512 512" width="512" xmlns="http://www.w3.org/2000/svg"><g><path d="m512 66.061h-221.351l-62.802-66.061h-158.472v92.744h-69.375v419.256h449.731v-137.768h62.269zm-92.211 415.998h-389.848v-359.374h110.707l58.075 94.157h221.067v265.217zm-42.933-295.157h-161.422l-18.022-29.219 179.443-1.035v30.254zm105.203 157.389h-32.328v-157.389h-42.934v-60.368l-227.786 1.314-21.652-35.104h-58.043v-62.803h115.683l62.802 66.061h204.257v248.289z"/><path d="m176.047 301.352c-14.417.864-28.164 6.871-38.708 16.916-10.539 10.041-17.209 23.477-18.781 37.833-.187 1.712-.304 3.423-.349 5.133-21.09 3.671-37.176 22.109-37.176 44.234 0 24.757 20.141 44.899 44.898 44.899h173.571c39.892 0 72.347-32.455 72.347-72.347 0-39.203-31.342-71.224-70.286-72.318-1.623-31.189-27.509-56.063-59.095-56.063-30.106 0-55.034 22.597-58.709 51.722-2.545-.162-5.119-.165-7.712-.009zm37.188 41.43v-33.969c0-16.12 13.114-29.235 29.235-29.235 16.12 0 29.235 13.114 29.235 29.235v26.799h27.799c23.383 0 42.406 19.023 42.406 42.406s-19.023 42.406-42.406 42.406h-173.572c-8.247 0-14.957-6.71-14.957-14.957s6.709-14.957 14.957-14.957h28.769l-5.372-19.037c-1.115-3.952-1.454-8.029-1.007-12.115 1.655-15.121 14.344-27.209 29.516-28.119 5.045-.299 9.92.546 14.495 2.52z"/></g></svg>