<svg id="Capa_1" enable-background="new 0 0 512 512" height="512" viewBox="0 0 512 512" width="512" xmlns="http://www.w3.org/2000/svg"><g><path d="m368.106 286.021c78.856 0 143.01-64.154 143.01-143.01s-64.154-143.011-143.01-143.011c-74.047 0-135.126 56.569-142.301 128.759h-53.711v96.746h-145.62v197.012h-25.59v36.13c0 29.419 23.933 53.353 53.352 53.353h265.707c29.418 0 53.351-23.934 53.351-53.352v-36.13h-25.591v-137.959c6.666.956 13.476 1.462 20.403 1.462zm32.541-34.772c8.89-15.914 15.68-33.907 20.091-53.256h46.081c-14.182 25.362-37.85 44.725-66.172 53.256zm77.69-133.233c1.823 8.043 2.79 16.407 2.79 24.994 0 8.586-.967 16.95-2.79 24.993h-52.792c.766-7.952 1.164-16.048 1.164-24.249 0-8.713-.445-17.309-1.308-25.738zm-11.518-29.989h-46.437c-4.587-19.505-11.586-37.614-20.741-53.555 28.767 8.372 52.828 27.894 67.178 53.555zm-98.711-47.499c9.3 13.596 16.519 29.719 21.383 47.499h-42.765c4.864-17.78 12.083-33.903 21.382-47.499zm-27.14 77.488h54.281c.971 8.377 1.47 16.979 1.47 25.738 0 8.242-.45 16.342-1.311 24.249h-54.6c-.861-7.908-1.311-16.007-1.311-24.249.001-8.759.5-17.361 1.471-25.738zm-4.392-83.546c-9.155 15.941-16.155 34.05-20.742 53.556h-46.441c14.351-25.662 38.414-45.185 67.183-53.556zm-1.006 216.78c-28.324-8.53-51.995-27.894-66.178-53.258h46.086c4.412 19.35 11.202 37.345 20.092 53.258zm-77.694-133.234h52.941c-.863 8.429-1.308 17.025-1.308 25.738 0 8.201.398 16.297 1.164 24.249h-52.797c-1.823-8.043-2.79-16.407-2.79-24.993s.967-16.951 2.79-24.994zm-55.792 40.733h23.883c2.713 24.67 11.72 47.473 25.385 66.757h-49.268zm-14.995 159.462c12.105 0 21.952 9.848 21.952 21.952s-9.848 21.952-21.952 21.952c-12.105 0-21.953-9.848-21.953-21.952s9.848-21.952 21.953-21.952zm-130.625-62.716h115.63v34.941c-21.352 6.451-36.947 26.298-36.947 49.726 0 28.64 23.301 51.942 51.942 51.942s51.942-23.301 51.942-51.942c0-23.428-15.595-43.275-36.947-49.726v-34.941h77.804c11.354 8.924 24.092 16.161 37.826 21.349v145.673h-261.25zm286.84 203.153c0 12.882-10.48 23.363-23.362 23.363h-265.706c-12.882 0-23.362-10.481-23.362-23.363v-6.14h312.431v6.14zm3.015-260.655h43.58c-4.864 18.372-12.231 35.013-21.79 48.989-9.56-13.976-16.926-30.617-21.79-48.989z"/></g></svg>