<svg id="Capa_1" enable-background="new 0 0 512 512" height="512" viewBox="0 0 512 512" width="512" xmlns="http://www.w3.org/2000/svg"><g><path d="m512 225.263c0-42.537-32.642-77.595-74.19-81.445-4.158-36.268-35.046-64.531-72.41-64.531-6.663 0-13.196.888-19.472 2.623-2.49-45.587-40.365-81.91-86.562-81.91-47.802 0-86.692 38.89-86.692 86.692v4.237h-5.859c-59.587 0-108.066 48.478-108.066 108.066 0 22.142 6.474 42.885 18.795 60.707-10.845 14.94-17.252 33.3-17.252 53.132 0 1.903.06 3.805.18 5.703-33.615 1.595-60.472 29.445-60.472 63.45 0 35.027 28.496 63.524 63.519 63.524l120.657.033 66.455 66.456.218-.218.217.217 66.151-66.151h27.907.135c28.819-.001 55.918-11.214 76.312-31.585 20.428-20.402 31.678-47.54 31.678-76.412 0-11.431-1.791-22.451-5.098-32.8 36.495-8.205 63.849-40.852 63.849-79.788zm-261.151 244.211-.218.218-76.9-76.901c-13.266-13.266-13.266-34.85 0-48.116 9.725-9.725 29.605-18.512 48.117 0l29 29 29.001-29c13.265-13.265 34.85-13.267 48.117 0 13.266 13.266 13.266 34.85 0 48.116l-76.9 76.9zm149.581-76.378c-14.287 14.27-33.124 22.3-53.249 22.788l1.939-1.94c24.931-24.93 24.931-65.495 0-90.424-24.928-24.931-65.494-24.932-90.425 0l-7.847 7.846-7.846-7.846c-24.931-24.932-65.495-24.93-90.425 0-24.931 24.93-24.931 65.495 0 90.424l1.675 1.675-90.729-.025c-18.531 0-33.606-15.076-33.606-33.607 0-18.53 15.075-33.607 33.606-33.607h34.352s-7.664-15.556-7.664-35.548c0-33.486 27.243-60.729 60.729-60.729 8.339 0 16.425 1.665 24.034 4.949l20.886 9.016v-40.927c0-31.306 25.469-56.775 56.776-56.775 31.306 0 56.775 25.469 56.775 56.775v34.629h35.844c43.053 0 78.08 35.027 78.08 78.08-.002 20.875-8.135 40.495-22.905 55.246zm33.968-116.137c-19.474-28.42-52.166-47.104-89.144-47.104h-5.928v-4.712c0-47.802-38.89-86.692-86.693-86.692-47.227 0-85.755 37.964-86.675 84.975-4.931-.824-9.945-1.238-15.02-1.238-19.151 0-36.93 5.975-51.582 16.151-7.023-11.809-10.691-25.18-10.691-39.345 0-43.091 35.058-78.149 78.149-78.149h35.775v-34.153c0-31.306 25.469-56.775 56.775-56.775s56.776 25.469 56.776 56.775v48.393l23.826-17.539c7.413-5.457 16.208-8.342 25.432-8.342 23.694 0 42.969 19.276 42.969 42.969 0 12.001-2.028 21.212-2.028 21.212h23.863c28.606 0 51.879 23.273 51.879 51.88.002 27.192-21.033 49.55-47.683 51.694z"/></g></svg>