<svg id="Capa_1" enable-background="new 0 0 512 512" height="512" viewBox="0 0 512 512" width="512" xmlns="http://www.w3.org/2000/svg"><g><path d="m439.026 140.593c-4.229-35.49-34.513-63.102-71.125-63.102-6.383 0-12.643.829-18.666 2.449-2.686-44.534-39.769-79.94-84.967-79.94-46.937 0-85.123 38.185-85.123 85.122v3.747h-5.332c-39.941 0-74.788 22.206-92.859 54.917h-80.529v309.129h131.453c-7.388 17.459-24.754 29.058-43.822 29.058h-.944v30.027h194.862v-30.027c-19.068 0-36.433-11.599-43.822-29.058h129.661v-152.021h63.425c44.298 0 80.338-36.04 80.338-80.338-.001-41.67-31.894-76.033-72.55-79.963zm-229.714 321.054c2.786 7.43 6.667 14.255 11.408 20.327h-71.41c4.742-6.072 8.622-12.897 11.408-20.327l3.275-8.731h42.045zm-178.861-38.758v-35.692h307.335v35.692zm307.335-65.718h-307.335v-183.358h39.456c-1.379 6.812-2.106 13.857-2.106 21.069 0 58.455 47.557 106.012 106.012 106.012h163.973zm-74.81-152.265c-8.44 0-15.307-6.867-15.307-15.307s6.867-15.307 15.307-15.307 15.307 6.866 15.307 15.307c-.001 8.439-6.867 15.307-15.307 15.307zm0 30.026c23.649 0 44.845 14.636 53.685 35.935h-107.393c8.83-21.508 29.872-35.935 53.708-35.935zm168.262 35.936h-82.981c-4.689-18.067-15.158-34.396-29.735-46.248-5.304-4.313-11.088-7.95-17.192-10.898 4.413-6.992 6.979-15.261 6.979-24.123 0-24.997-20.336-45.333-45.333-45.333s-45.334 20.336-45.334 45.333c0 8.845 2.555 17.099 6.953 24.083-22.73 10.984-40.257 31.516-46.902 57.186h-3.88c-41.898 0-75.985-34.087-75.985-75.985 0-41.899 34.087-75.986 75.985-75.986h35.359v-33.775c0-30.379 24.716-55.096 55.096-55.096s55.096 24.716 55.096 55.096v48.077l23.914-17.604c7.177-5.284 15.692-8.077 24.623-8.077 22.94 0 41.603 18.663 41.603 41.603 0 8.853-2.03 21.124-2.03 21.124h23.764c27.742 0 50.311 22.57 50.311 50.311s-22.569 50.312-50.311 50.312z"/></g></svg>