<svg id="Capa_1" enable-background="new 0 0 512 512" height="512" viewBox="0 0 512 512" width="512" xmlns="http://www.w3.org/2000/svg"><path d="m436.789 146.422c-4.145-36.759-35.424-65.421-73.271-65.421-6.813 0-13.49.917-19.901 2.709-2.417-46.234-40.792-83.104-87.617-83.104s-85.2 36.87-87.616 83.104c-6.411-1.792-13.088-2.709-19.901-2.709-37.848 0-69.126 28.662-73.271 65.421-42.111 3.831-75.212 39.338-75.212 82.431 0 45.641 37.132 82.772 82.773 82.772h39.281c7.991 73.953 47.911 141.187 110.178 183.584l23.768 16.185 23.769-16.185c62.267-42.397 102.187-109.631 110.178-183.584h39.281c45.641 0 82.773-37.132 82.773-82.772-.001-43.093-33.102-78.6-75.212-82.431zm-286.217 137.674v-13.32c27.53-5.882 49.261-27.612 55.143-55.143h35.285v248.955c-56.794-42.454-90.428-109.182-90.428-180.492zm210.856 0c0 71.309-33.633 138.038-90.428 180.492v-248.955h35.285c5.882 27.53 27.613 49.261 55.143 55.143zm67.799-2.471h-37.799v-39.271h-15c-23.005 0-41.721-18.716-41.721-41.721v-15h-157.414v15c0 23.005-18.716 41.721-41.721 41.721h-15v39.271h-37.799c-29.099 0-52.773-23.673-52.773-52.772 0-29.1 23.674-52.773 52.773-52.773h24.015l-1.783-16.602c-.172-1.606-.26-3.201-.26-4.738 0-24.117 19.621-43.738 43.738-43.738 9.39 0 18.341 2.937 25.888 8.491l23.892 17.587v-48.737c0-31.837 25.9-57.737 57.737-57.737s57.737 25.9 57.737 57.737v48.736l23.892-17.587c7.547-5.555 16.499-8.491 25.888-8.491 24.117 0 43.738 19.621 43.738 43.738 0 1.537-.087 3.132-.26 4.738l-1.783 16.602h24.015c29.099 0 52.773 23.674 52.773 52.773 0 29.1-23.674 52.773-52.773 52.773z"/></svg>