<svg id="Capa_1" enable-background="new 0 0 512 512" height="512" viewBox="0 0 512 512" width="512" xmlns="http://www.w3.org/2000/svg"><g><path d="m427.067 162.901c-3.877-40.909-38.425-73.017-80.332-73.017-8.211 0-16.243 1.218-23.904 3.591-1.522-51.803-44.138-93.475-96.303-93.475-53.124 0-96.344 43.22-96.344 96.345v6.737h-8.576c-66.486 0-120.576 54.089-120.576 120.575 0 44.995 25.131 85.833 64.042 106.512l-56.477 97.822c-10.123 17.534-10.123 38.471 0 56.006 10.123 17.534 28.255 28.003 48.502 28.003h256.77c20.247 0 38.378-10.469 48.502-28.003 10.123-17.534 10.123-38.471 0-56.006l-48.358-83.758h106.188c50.065 0 90.795-40.731 90.795-90.796-.001-47.754-37.061-87.015-83.929-90.536zm-90.717 306.073c-4.693 8.127-13.097 12.979-22.48 12.979h-256.771c-9.384 0-17.788-4.852-22.48-12.979s-4.692-17.832 0-25.959l128.385-222.369c4.692-8.127 13.096-12.979 22.481-12.979s17.789 4.852 22.481 12.979l128.384 222.369c4.692 8.127 4.692 17.832 0 25.959zm83.851-154.788h-123.535l-62.679-108.564c-10.124-17.534-28.256-28.003-48.504-28.003-20.247.001-38.378 10.469-48.501 28.003l-56.871 98.503c-29.752-15.362-49.031-46.318-49.031-80.468 0-49.918 40.611-90.529 90.529-90.529h38.623v-36.783c0-36.557 29.741-66.298 66.297-66.298 36.557 0 66.298 29.741 66.298 66.298v51.032l23.929-17.614c8.74-6.433 19.106-9.833 29.979-9.833 27.927 0 50.647 22.72 50.647 50.647 0 1.777-.102 3.625-.301 5.49l-1.779 16.623h24.899c33.496 0 60.748 27.252 60.748 60.747-.001 33.498-27.252 60.749-60.748 60.749z"/><g><path d="m166.924 427.973c0-9.912 7.775-17.298 18.658-17.298s18.657 7.386 18.657 17.298c0 9.717-7.774 17.686-18.657 17.686s-18.658-7.969-18.658-17.686zm.584-119.914h36.148l-6.024 88.818h-24.1z"/></g></g></svg>