<svg id="Capa_1" enable-background="new 0 0 512 512" height="512" viewBox="0 0 512 512" width="512" xmlns="http://www.w3.org/2000/svg"><g><path d="m323.053 205.155c-2.3-27.578-25.481-49.316-53.644-49.316-8.604 0-16.738 2.038-23.959 5.643v-45.219l15.401 15.401 21.213-21.213-51.886-51.886-51.887 51.886 21.213 21.213 15.945-15.945v85.468c-1.492-.028-2.992-.009-4.5.083-13.1.784-25.589 6.241-35.167 15.366-9.573 9.12-15.632 21.327-17.06 34.369-.115 1.059-.201 2.116-.258 3.174-18.666 3.957-32.716 20.566-32.716 40.395 0 22.767 18.522 41.289 41.289 41.289h152.47c36.062 0 65.4-29.339 65.4-65.401.002-34.874-27.433-63.46-61.854-65.307zm-3.544 100.707h-152.47c-6.225 0-11.289-5.064-11.289-11.289 0-6.226 5.064-11.29 11.289-11.29h27.719l-5.387-19.076c-.915-3.24-1.192-6.583-.825-9.937 1.356-12.398 11.76-22.31 24.199-23.056 4.144-.246 8.139.448 11.889 2.066l20.944 9.041v-32.653c0-13.14 10.69-23.83 23.831-23.83s23.831 10.69 23.831 23.83v25.392h26.269c19.52 0 35.4 15.881 35.4 35.4 0 19.521-15.881 35.402-35.4 35.402z"/><path d="m72.096 0v512h367.809v-512zm337.808 30v341.884h-307.808v-341.884zm-307.808 452v-80.116h307.809v80.116z"/><g><path d="m240.542 427.335h30.916v30h-30.916z"/></g></g></svg>