<svg id="Capa_1" enable-background="new 0 0 512 512" height="512" viewBox="0 0 512 512" width="512" xmlns="http://www.w3.org/2000/svg"><g><path d="m427.702 163.769c-3.836-41.078-38.506-73.338-80.569-73.338-8.297 0-16.41 1.239-24.146 3.656-1.432-52.049-44.218-93.948-96.606-93.948-53.289 0-96.643 43.355-96.643 96.644v6.907h-8.754c-66.711-.001-120.984 54.272-120.984 120.983 0 25.771 8.157 50.612 23.177 71.211-14.64 22.026-23.177 48.459-23.177 76.89 0 76.816 62.272 139.088 139.089 139.088s139.088-62.272 139.088-139.088c0-9.28-.917-18.345-2.651-27.117h145.406c50.215 0 91.068-40.853 91.068-91.069 0-47.938-37.232-87.343-84.298-90.819zm-292.13 193.604h-104.904c7.487-53.184 53.171-94.103 108.42-94.103 31.714 0 60.273 13.487 80.271 35.032zm-105.029 29.906h94.828l.068 94.152c-49.277-6.128-88.389-44.994-94.896-94.152zm124.801 93.795-.072-100.998 81.266-57.294c7.704 14.987 12.053 31.981 12.053 49.991.001 54.954-40.479 100.448-93.247 108.301zm265.588-165.323h-154.947c-21.774-48.38-70.401-82.065-126.897-82.065-37.178 0-70.948 14.587-95.902 38.35-8.637-14.167-13.281-30.499-13.281-47.363 0-50.22 40.857-91.078 91.078-91.078h38.66v-36.813c0-36.799 29.938-66.738 66.738-66.738 36.799 0 66.738 29.939 66.738 66.738v50.99l23.817-17.531c8.803-6.48 19.245-9.904 30.197-9.904 28.13 0 51.016 22.885 51.016 51.015 0 1.793-.102 3.652-.303 5.526l-1.776 16.548h24.862c33.725 0 61.162 27.437 61.162 61.162 0 33.726-27.437 61.163-61.162 61.163z"/></g></svg>