<svg id="Capa_1" enable-background="new 0 0 512 512" height="512" viewBox="0 0 512 512" width="512" xmlns="http://www.w3.org/2000/svg"><g><path d="m462.294 328.475v-328.475h-170.432v73.35c-7.54-3.059-15.772-4.758-24.396-4.758-5.094 0-10.102.581-14.954 1.719-3.434-39.344-36.558-70.311-76.778-70.311-42.497 0-77.072 34.574-77.072 77.072v1.592h-2.996c-52.693 0-95.562 42.87-95.562 95.563s42.869 95.562 95.562 95.562h196.196v58.686h-49.602l134.818 183.525 134.818-183.525zm-30.028-121.294h-36.633c.472-3.344.733-6.756.733-10.228 0-10.133-2.094-19.781-5.849-28.556h41.749zm0-68.811h-65.532c-9.964-7.368-21.855-12.273-34.776-13.769-1.277-9.069-4.436-17.54-9.057-25.016h109.365zm0-108.342v39.529h-110.376v-39.529zm-402.134 144.199c0-36.136 29.398-65.535 65.534-65.535h33.024v-31.62c0-25.94 21.104-47.044 47.044-47.044s47.045 21.104 47.045 47.044v45.964l23.914-17.603c6.055-4.457 13.239-6.813 20.774-6.813 19.354 0 35.1 15.746 35.1 35.101 0 10.698-2 20.423-2 20.423h22.963c23.605 0 42.809 19.204 42.809 42.809s-19.204 42.808-42.809 42.808h-227.864c-36.136 0-65.534-29.398-65.534-65.534zm346.946 287.052-75.5-102.776h20.312v-88.714h1.639c25.288 0 47.599-12.96 60.662-32.58h48.075v121.294h20.312z"/></g></svg>