<svg id="Capa_1" enable-background="new 0 0 512 512" height="512" viewBox="0 0 512 512" width="512" xmlns="http://www.w3.org/2000/svg"><g><path d="m455.476 92.807c-25.981 0-47.91 17.625-54.493 41.544h-74.272c-5.892-27.81-27.837-49.755-55.646-55.647v-78.704h-29.96v78.704c-27.81 5.892-49.754 27.837-55.646 55.647h-74.441c-6.583-23.918-28.512-41.544-54.493-41.544-31.168 0-56.525 25.356-56.525 56.524s25.357 56.524 56.524 56.524c25.981 0 47.91-17.625 54.493-41.544h74.441c5.577 26.323 25.54 47.38 51.242 54.555l-11.53 25.438c-2.846-2.412-6.059-4.483-9.621-6.097-14.012-6.351-29.746-4.18-41.37 4.296-3.768-4.207-8.396-7.631-13.695-10.032-10.033-4.548-21.237-4.915-31.547-1.037-8.869 3.336-16.157 9.479-20.918 17.516-2.896-2.487-6.178-4.617-9.826-6.271-20.712-9.387-45.2-.176-54.588 20.537l-43.605 108.431v140.353h246.453l30.641-49.551.58-1.025c8.34-16.21 9.992-34.737 4.651-52.166-4.423-14.434-13.249-26.792-25.23-35.59l63.031-139.063c6.651-14.674 3.956-31.239-5.542-42.992 5.897-8.155 10.033-17.447 12.122-27.302h74.28c6.583 23.918 28.512 41.544 54.493 41.544 31.167 0 56.524-25.356 56.524-56.524s-25.359-56.524-56.527-56.524zm-398.952 83.087c-14.647 0-26.563-11.916-26.563-26.563s11.916-26.563 26.563-26.563 26.563 11.916 26.563 26.563-11.916 26.563-26.563 26.563zm157.321-26.563c0-23.291 18.948-42.24 42.239-42.24s42.239 18.948 42.239 42.24c0 10.122-3.628 19.808-10.107 27.404-14.058-1.938-28.281 3.558-37.374 14.499-20.824-2.592-36.997-20.388-36.997-41.903zm78.991 72.905-86.139 190.045 27.288 12.368 10.257-22.63c11.518 11.734 14.754 29.709 7.035 45.212l-21.525 34.808h-199.792v-104.595l41.041-102.093c2.644-5.501 9.233-7.919 14.823-5.385 5.665 2.568 8.185 9.266 5.617 14.931l-14.871 32.81 27.288 12.368 29.309-64.695c2.571-5.676 9.257-8.192 14.932-5.619 5.674 2.572 8.189 9.255 5.618 14.929l-29.31 64.699 27.288 12.368 36.554-80.647c1.244-2.744 6.683-9.094 14.93-5.618 5.731 2.415 8.185 9.262 5.62 14.927l-39.382 86.887 27.288 12.368 75.446-166.454c2.423-5.347 8.505-8.232 14.055-6.32 6.37 2.196 9.346 9.344 6.63 15.336zm162.64-46.342c-14.647 0-26.563-11.916-26.563-26.563s11.916-26.563 26.563-26.563 26.563 11.916 26.563 26.563-11.916 26.563-26.563 26.563z"/></g></svg>