<svg id="Capa_1" enable-background="new 0 0 512 512" height="512" viewBox="0 0 512 512" width="512" xmlns="http://www.w3.org/2000/svg"><g><path d="m360.51 350.035c0-3.485 3.195-6.39 13.215-6.39 8.858 0 18.297 2.469 28.317 7.551l10.311-24.832c-8.278-4.647-18.734-7.406-29.479-8.423v-15.539h-20.476v15.829c-23.816 3.34-35.724 17.135-35.724 33.546 0 37.902 56.2 27.591 56.2 40.371 0 3.485-3.485 5.518-13.215 5.518-11.182 0-23.961-3.63-33.546-9.294l-11.037 24.978c8.714 5.373 22.799 9.294 37.321 10.165v15.393h20.476v-16.119c22.508-3.921 33.836-17.572 33.836-33.256.001-37.465-56.199-27.3-56.199-39.498z"/><path d="m512 224.534c0-66.711-54.272-120.984-120.983-120.984h-8.754v-6.907c0-53.289-43.355-96.643-96.644-96.643s-96.644 43.354-96.644 96.643v.531c-6.275-1.207-12.676-1.814-19.167-1.814-55.773 0-101.146 45.374-101.146 101.146 0 2.84.121 5.677.36 8.505-38.172.663-69.022 31.921-69.022 70.248 0 38.74 31.518 70.258 70.258 70.258h164.874c-1.687 8.664-2.581 17.608-2.581 26.759 0 77.044 62.679 139.724 139.724 139.724 77.044 0 139.725-62.68 139.725-139.724 0-28.325-8.48-54.703-23.024-76.744 14.916-20.561 23.024-45.353 23.024-70.998zm-441.742 91.078c-22.25 0-40.353-18.102-40.353-40.352 0-22.251 18.102-40.354 40.353-40.354h36.369s-8.06-16.511-8.06-38.4c0-39.282 31.958-71.24 71.24-71.24 9.781 0 19.266 1.954 28.194 5.807l20.879 9.013v-43.443c0-36.799 29.939-66.737 66.738-66.737s66.738 29.938 66.738 66.737v36.813h38.66c50.22 0 91.078 40.858 91.078 91.079 0 16.706-4.57 32.931-13.074 47.026-25.126-24.144-59.231-39.01-96.746-39.01-56.883 0-105.928 34.171-127.706 83.061zm302.017 166.482c-60.554 0-109.818-49.264-109.818-109.818s49.264-109.819 109.818-109.819 109.819 49.265 109.819 109.819-49.265 109.818-109.819 109.818z"/></g></svg>