<svg id="Capa_1" enable-background="new 0 0 512 512" height="512" viewBox="0 0 512 512" width="512" xmlns="http://www.w3.org/2000/svg"><g><path d="m512 0h-321.623v74.495h-48.56c-6.285-20.135-24.897-34.773-46.825-34.773-27.074 0-49.101 22.027-49.101 49.101 0 21.856 14.358 40.416 34.135 46.76v105.35l-80.026-.174v208.233h100.212l-3.701 14.571c-2.767 10.895-12.55 18.503-23.792 18.503h-13.972v29.934h164.676v-29.933h-13.304c-11.24 0-21.024-7.609-23.792-18.503l-3.7-14.571h99.543v-60.32h47.911c6.285 19.426 24.58 33.136 46.755 33.136 27.074 0 49.101-22.027 49.101-49.101 0-21.856-14.358-40.416-34.135-46.76v-118.853h52.294v-43.958h67.904zm-29.933 29.933v44.562h-261.757v-44.562zm-224.271 103.272h-37.486v-28.777h37.485v28.777zm-162.804-63.55c10.39 0 19.167 9.071 19.167 19.806 0 10.391-8.42 18.53-19.167 18.53-10.569 0-19.168-8.599-19.168-19.168s8.599-19.168 19.168-19.168zm157.246 201.586v87.499h-222.305v-87.983zm-94.921 199.691c.995 3.918 2.405 7.641 4.166 11.135h-40.125c1.76-3.494 3.17-7.217 4.165-11.135l5.572-21.94h20.65zm-127.384-51.873v-30.387h222.305v30.387zm346.904-27.184c-10.927 0-19.167-7.811-19.167-18.169 0-10.931 8.777-20.167 19.167-20.167 10.569 0 19.168 8.599 19.168 19.168s-8.599 19.168-19.168 19.168zm-14.967-65.855c-7.439 2.461-14.266 6.754-19.96 12.679-5.548 5.772-9.572 12.625-11.886 20.04h-47.853v-117.367l-172.212-.374v-105.339c7.324-2.277 14.032-6.223 19.613-11.66 5.68-5.534 9.801-12.229 12.173-19.572h48.633v58.71h67.418v43.958h104.074zm-74.141-148.858v-72.735h126.436v72.735zm156.368-43.957v-28.777h37.969v28.777z"/></g></svg>