<svg id="Capa_1" enable-background="new 0 0 512 512" height="512" viewBox="0 0 512 512" width="512" xmlns="http://www.w3.org/2000/svg"><g><g><path d="m62.79 386.783h33.997v30h-33.997z"/><path d="m131.547 386.783h33.996v30h-33.996z"/><path d="m332.567 386.783h110.43v30h-110.43z"/><path d="m208.809 78.656 22.424 19.928c6.308-7.098 15.335-11.168 24.768-11.168s18.46 4.07 24.768 11.168l22.424-19.928c-11.995-13.499-29.196-21.24-47.191-21.24s-35.198 7.741-47.193 21.24z"/><path d="m256 30c25.746 0 50.365 11.087 67.545 30.419l22.425-19.928c-22.868-25.732-55.66-40.491-89.97-40.491s-67.102 14.759-89.97 40.491l22.425 19.928c17.18-19.332 41.799-30.419 67.545-30.419z"/></g><path d="m512 319.962h-204.371v-60.691h-36.629v-131.854h-30v131.854h-36.629v60.691h-204.371v164.297h30.99v27.741h30v-27.741h390.02v27.741h30v-27.741h30.99zm-277.629-30.691h43.258v30.691h-43.258zm247.629 164.988h-452v-104.297h452z"/></g></svg>