<svg id="Capa_1" enable-background="new 0 0 512 512" height="512" viewBox="0 0 512 512" width="512" xmlns="http://www.w3.org/2000/svg"><g><g><path d="m186.32 319.731c0-23.29-18.843-42.238-42.006-42.238-23.161 0-42.005 18.948-42.005 42.238v21.693h-19.609v86.189h123.229v-86.189h-19.609zm-54.176 0c0-6.748 5.46-12.238 12.171-12.238 6.712 0 12.172 5.49 12.172 12.238v21.693h-24.342v-21.693zm43.95 77.882h-63.561v-26.189h63.561z"/></g><g><path d="m427.903 164.146c-3.826-41.207-38.413-73.569-80.375-73.569-8.277 0-16.371 1.244-24.088 3.667-1.429-52.213-44.112-94.244-96.375-94.244-53.161 0-96.412 43.491-96.412 96.948v6.929h-8.733c-66.551 0-120.693 54.444-120.693 121.365 0 23.47 6.805 46.4 19.372 65.938-27.557 46.405-28.345 106.527 2.987 154.731 21.192 32.604 53.742 54.958 91.654 62.944 9.996 2.105 20.047 3.146 30.026 3.146 27.87 0 55.171-8.116 79.045-23.807 32.423-21.31 54.653-54.042 62.595-92.164 3.44-16.514 4.016-33.182 1.847-49.423h132.396c50.094 0 90.85-40.982 90.85-91.355 0-48.09-37.143-87.62-84.096-91.106zm-283.292 317.844c-63.987 0-115.859-51.872-115.859-115.859s51.872-115.859 115.859-115.859 115.859 51.871 115.859 115.859c0 63.987-51.871 115.859-115.859 115.859zm276.538-165.384h-139.735c-3.796-10.512-8.819-20.66-15.056-30.255-21.192-32.604-53.741-54.958-91.653-62.944-37.916-7.985-76.648-.648-109.072 20.662-9.428 6.196-17.901 13.317-25.381 21.165-5.987-12.376-9.19-26.054-9.19-39.993 0-50.379 40.76-91.365 90.859-91.365h38.567v-36.928c0-36.915 29.867-66.948 66.578-66.948s66.578 30.033 66.578 66.948v51.152l23.76-17.587c8.781-6.5 19.198-9.936 30.125-9.936 28.063 0 50.893 22.958 50.893 51.176 0 11.991-2.074 22.143-2.074 22.143h24.802c33.644 0 61.016 27.524 61.016 61.355s-27.374 61.355-61.017 61.355z"/></g></g></svg>