<svg id="Capa_1" enable-background="new 0 0 512 512" height="512" viewBox="0 0 512 512" width="512" xmlns="http://www.w3.org/2000/svg"><g><path d="m390.752 132.19c-7.148-13.953-17.582-25.948-30.597-35.067-16.308-11.426-35.489-17.465-55.471-17.465h-3.261v-1.836c.001-42.911-34.957-77.822-77.927-77.822-41.733 0-75.91 32.935-77.841 74.144-3.743-.523-7.537-.786-11.369-.786-44.882 0-81.396 36.465-81.396 81.286 0 1.082.021 2.163.065 3.243-29.597 2.371-52.955 27.183-52.955 57.34 0 31.72 25.841 57.526 57.603 57.526h130.76v194.304c0 24.782 20.319 44.943 45.296 44.943h278.341v-379.81zm-202.39 54.077v56.526h-130.759c-15.22 0-27.603-12.366-27.603-27.566s12.383-27.566 27.603-27.566h32.614s-7.326-17.495-7.326-33.017c0-28.302 23.056-51.326 51.396-51.326 7.057 0 13.899 1.407 20.339 4.183l20.944 9.028v-38.707c0-26.391 21.5-47.862 47.927-47.862 26.428 0 47.928 21.471 47.928 47.862v31.796h33.261c19.365 0 37.507 8.556 49.969 22.572h-113.13c-14.186 0-27.47 5.481-37.407 15.433-10.203 10.217-15.798 23.956-15.756 38.644zm45.296 235.846c-5.366 0-10.515.93-15.296 2.637v-238.526c-.02-6.712 2.466-12.907 6.998-17.446 4.267-4.274 10.008-6.628 16.163-6.628h6.281v259.963zm248.342 59.927h-248.342c-8.435 0-15.296-6.721-15.296-14.983s6.861-14.984 15.296-14.984h248.342zm0-59.927h-204.195v-259.963h204.195z"/><path d="m380.381 369.735c14.08 0 29.501-3.012 39.558-8.035l-6.202-17.911c-10.895 5.189-22.461 7.365-33.355 7.365-35.703 0-59.337-24.439-59.337-58.588 0-33.479 24.137-58.253 60.007-58.253s59.84 22.431 59.84 54.57c0 19.083-4.358 25.946-10.56 25.946-4.023 0-7.376-2.51-7.376-10.043v-51.056h-27.321v8.203c-5.531-6.194-13.242-9.542-23.299-9.542-20.114 0-37.211 16.405-37.211 41.848 0 25.444 17.432 42.016 37.211 42.016 13.074 0 21.958-5.356 27.154-14.563 4.022 9.542 12.738 14.563 24.64 14.563 21.12 0 36.876-16.907 36.876-47.874 0-41.011-32.351-72.649-79.954-72.649-49.95 0-82.3 33.311-82.3 76.833-.001 44.026 32.182 77.17 81.629 77.17zm-.838-56.244c-9.555 0-16.427-6.863-16.427-19.25 0-12.219 6.872-19.083 16.427-19.083 9.554 0 16.594 6.696 16.594 19.083 0 12.554-7.04 19.25-16.594 19.25z"/></g></svg>