<svg id="Capa_1" enable-background="new 0 0 512 512" height="512" viewBox="0 0 512 512" width="512" xmlns="http://www.w3.org/2000/svg"><g><path d="m437.02 74.98c-48.353-48.351-112.64-74.98-181.02-74.98s-132.667 26.629-181.02 74.98c-48.351 48.353-74.98 112.64-74.98 181.02s26.629 132.667 74.98 181.02c48.353 48.351 112.64 74.98 181.02 74.98s132.667-26.629 181.02-74.98c48.351-48.353 74.98-112.64 74.98-181.02s-26.629-132.667-74.98-181.02zm-327.373 181.02c0-80.699 65.654-146.353 146.353-146.353s146.353 65.654 146.353 146.353-65.654 146.353-146.353 146.353-146.353-65.654-146.353-146.353zm192.717-170.156 39.158-39.158c12.408 5.068 24.357 11.251 35.721 18.504l-36.305 36.304c-12.069-6.662-24.998-11.947-38.574-15.65zm-31.361-11.065v-44.277c13.066.851 25.916 2.81 38.443 5.834zm210.929 175.675-57.348 57.348c5.046-16.387 7.768-33.782 7.768-51.803 0-3.325-.101-6.627-.284-9.908l43.585-43.585c3.758 15.555 5.889 31.604 6.279 47.948zm-55.789-40.862c-3.706-13.574-8.994-26.5-15.658-38.567l36.302-36.302c7.254 11.362 13.44 23.309 18.51 35.715zm52.265 86.813c-5.038 28.068-15.317 54.74-30.35 78.849l-27.125-21.374zm-49.634-186.095-35.331 35.331c-8.033-9.985-17.129-19.078-27.116-27.11l35.331-35.331c4.866 4.113 16.321 10.94 27.116 27.11zm-332.58-14.116c39.131-39.131 90.088-62.13 144.809-65.692v49.79c-90.247 7.636-161.356 83.519-161.356 175.708 0 35.295 10.43 68.196 28.358 95.798l-38.573 31.832c-25.63-37.296-39.432-81.399-39.432-127.63 0-60.367 23.508-117.12 66.194-159.806zm159.806 385.806c-60.367 0-117.12-23.508-159.806-66.194-2.811-2.811-5.533-5.687-8.177-8.617l38.409-31.697c32.245 34.938 78.394 56.86 129.574 56.86 54.363 0 103.053-24.731 135.428-63.527l39.086 30.799c-4.616 5.588-9.517 10.99-14.708 16.181-42.686 42.687-99.439 66.195-159.806 66.195z"/></g><g><path d="m339.554 229.175c-4.545-16.862-19.973-29.31-38.251-29.31-.374 0-.746.005-1.118.015-5.201-19.385-22.925-33.699-43.929-33.699s-38.728 14.314-43.929 33.699c-.372-.01-.744-.015-1.118-.015-18.279 0-33.706 12.447-38.251 29.31-18.899 5.829-32.674 23.46-32.674 44.248 0 25.598 20.766 46.424 46.292 46.424h139.362c25.525 0 46.292-20.826 46.292-46.424-.002-20.788-13.776-38.42-32.676-44.248zm-13.617 60.672h-139.363c-8.983 0-16.292-7.368-16.292-16.424 0-8.983 7.308-16.292 16.292-16.292h10.605c-.234-1.345-.362-2.726-.362-4.138 0-13.268 10.756-24.025 24.025-24.025 8.304 0 15.623 4.213 19.938 10.619v-27.931c0-8.533 6.942-15.475 15.475-15.475s15.475 6.942 15.475 15.475v27.931c4.315-6.405 11.634-10.619 19.938-10.619 13.268 0 24.025 10.756 24.025 24.025 0 1.412-.129 2.793-.362 4.138h10.605c8.983 0 16.292 7.308 16.292 16.292 0 9.056-7.308 16.424-16.291 16.424z"/></g></svg>